<?xml version="1.0" encoding="utf-8"?>
<!-- Generator: Adobe Illustrator 18.0.0, SVG Export Plug-In . SVG Version: 6.00 Build 0)  -->
<!DOCTYPE svg PUBLIC "-//W3C//DTD SVG 1.1//EN" "http://www.w3.org/Graphics/SVG/1.1/DTD/svg11.dtd">
<svg version="1.1" id="Layer_1" xmlns="http://www.w3.org/2000/svg" xmlns:xlink="http://www.w3.org/1999/xlink" x="0px" y="0px"
	 viewBox="0 0 612 792" enable-background="new 0 0 612 792" xml:space="preserve">
<path d="M215.1,342.3l26.4,132.9c0,8.7,28.9,15.8,64.5,15.8s64.5-7.1,64.5-15.8l26.4-132.9C376.3,354.3,334,358,306,358
	S235.7,354.3,215.1,342.3z M366.7,419.4c3.3,3.1,3.3,8.1,0,11.1L312,482.1c-3.3,3.1-8.6,3.1-11.8,0l-54.9-51.8
	c-3.3-3.1-3.3-8.1,0-11.1l37.6-35.4c0.1-0.1,0.2-0.1,0.3,0l14.1,13.3c0.1,0.1,0.1,0.1,0,0.2c-1.4,3.3-0.7,7.2,2.1,9.9
	c0.9,0.9,2,1.5,3.2,2v32.6c0,0.1,0,0.1-0.1,0.2c-2.3,0.9-4.2,2.7-5.3,5.2c-0.9,2-0.9,4.4,0,6.5c3.3,7.2,13,7.8,17.3,1.7
	c1.8-2.6,2.1-6,0.7-8.7c-1-2-2.6-3.5-4.4-4.3c-0.1,0-0.1-0.1-0.1-0.2l0-31.9c0-0.2,0.2-0.3,0.4-0.1l12.6,11.9c0.1,0.1,0.1,0.1,0,0.2
	c-1.4,3.3-0.7,7.2,2.2,9.8c4.4,4.1,11.9,3.5,15.3-1.9c1.8-2.8,1.7-6.4-0.1-9.2c-2.6-4-7.3-5.3-11.4-4c-0.1,0-0.1,0-0.2,0l-13.8-13.1
	c-0.1-0.1-0.1-0.1,0-0.2c1.1-3.2,0.3-6.8-2.3-9.3c-2.7-2.5-6.5-3.2-9.8-2.2c-0.1,0-0.1,0-0.2,0l-14.3-13.5c-0.1-0.1-0.1-0.2,0-0.3
	l11.2-10.5c3.3-3.1,8.6-3.1,11.8,0L366.7,419.4z M401,325.7c0,13.6-42.5,24.7-95,24.7s-95-11-95-24.7c0-13.6,42.5-24.7,95-24.7
	S401,312,401,325.7z"/>
</svg>
