<?xml version="1.0" encoding="utf-8"?>
<!-- Generator: Adobe Illustrator 14.0.0, SVG Export Plug-In . SVG Version: 6.00 Build 43363)  -->
<!DOCTYPE svg PUBLIC "-//W3C//DTD SVG 1.1//EN" "http://www.w3.org/Graphics/SVG/1.1/DTD/svg11.dtd">
<svg version="1.1" id="Слой_1" xmlns="http://www.w3.org/2000/svg" xmlns:xlink="http://www.w3.org/1999/xlink" x="0px" y="0px"
	 width="2834.65px" height="2834.65px" viewBox="0 0 2834.65 2834.65" enable-background="new 0 0 2834.65 2834.65"
	 xml:space="preserve">
<g>
	<g>
		<g>
			<g>
				<g>
					<g>
						<path fill="#FFFFFF" d="M1386.173,1135.473c0-1.304,1.068-2.371,2.371-2.371h78.631c1.305,0,2.371,1.067,2.371,2.371v78.635
							c0,1.304-1.066,2.371-2.371,2.371h-78.631c-1.303,0-2.371-1.067-2.371-2.371V1135.473z"/>
					</g>
				</g>
				<g>
					<g>
						<path fill="#221F1F" d="M1467.175,1132.509c1.635,0,2.965,1.329,2.965,2.964v78.635c0,1.635-1.33,2.964-2.965,2.964h-78.631
							c-1.635,0-2.963-1.329-2.963-2.964v-78.635c0-1.635,1.328-2.964,2.963-2.964H1467.175L1467.175,1132.509z M1388.544,1215.886
							h78.631c0.98,0,1.779-0.798,1.779-1.778v-78.635c0-0.98-0.799-1.778-1.779-1.778h-78.631c-0.98,0-1.777,0.798-1.777,1.778
							v78.635C1386.767,1215.088,1387.563,1215.886,1388.544,1215.886L1388.544,1215.886z"/>
					</g>
				</g>
			</g>
			<g>
				<g>
					<g>
						<path fill="#FFFFFF" d="M1392.94,1142.239c0-1.304,1.066-2.371,2.371-2.371h65.098c1.303,0,2.371,1.067,2.371,2.371v65.102
							c0,1.304-1.068,2.371-2.371,2.371h-65.098c-1.305,0-2.371-1.067-2.371-2.371V1142.239z"/>
					</g>
				</g>
				<g>
					<g>
						<path fill="#221F1F" d="M1460.409,1139.275c1.635,0,2.963,1.329,2.963,2.964v65.102c0,1.635-1.328,2.964-2.963,2.964h-65.098
							c-1.635,0-2.965-1.329-2.965-2.964v-65.102c0-1.635,1.33-2.964,2.965-2.964H1460.409L1460.409,1139.275z M1395.312,1209.119
							h65.098c0.98,0,1.777-0.798,1.777-1.778v-65.102c0-0.98-0.797-1.778-1.777-1.778h-65.098c-0.982,0-1.779,0.798-1.779,1.778
							v65.102C1393.532,1208.321,1394.329,1209.119,1395.312,1209.119L1395.312,1209.119z"/>
					</g>
				</g>
			</g>
			<g>
				<g>
					<g>
						<path fill="#FFFFFF" d="M1406.599,1174.79c0-13.541,9.523-22.108,21.26-22.108c11.738,0,21.258,8.567,21.258,22.108
							s-9.52,22.108-21.258,22.108C1416.122,1196.898,1406.599,1188.331,1406.599,1174.79z"/>
					</g>
					<g>
						<path fill="#221F1F" d="M1427.858,1152.089c12.662,0,21.85,9.547,21.85,22.701s-9.188,22.701-21.85,22.701
							c-12.66,0-21.852-9.547-21.852-22.701S1415.198,1152.089,1427.858,1152.089L1427.858,1152.089z M1427.858,1196.306
							c11.975,0,20.664-9.048,20.664-21.516s-8.689-21.516-20.664-21.516s-20.666,9.048-20.666,21.516
							S1415.884,1196.306,1427.858,1196.306L1427.858,1196.306z"/>
					</g>
				</g>
				<g>
					<g>
						<g>
							<rect x="1432.147" y="1169.049" fill="#FFFFFF" width="3.24" height="11.412"/>
						</g>
						<g>
							<path fill="#221F1F" d="M1435.979,1168.455v12.599h-4.426v-12.599H1435.979L1435.979,1168.455z M1432.739,1169.642v10.227
								h2.055v-10.227H1432.739L1432.739,1169.642z"/>
						</g>
					</g>
					<g>
						<g>
							<rect x="1420.329" y="1169.049" fill="#FFFFFF" width="3.242" height="11.412"/>
						</g>
						<g>
							<path fill="#221F1F" d="M1424.163,1168.455v12.599h-4.426v-12.599H1424.163L1424.163,1168.455z M1420.923,1169.642v10.227
								h2.055v-10.227H1420.923L1420.923,1169.642z"/>
						</g>
					</g>
				</g>
			</g>
		</g>
		<g>
			<g>
				<g>
					<g>
						<circle fill="#221F1F" cx="1427.858" cy="1174.79" r="21.664"/>
					</g>
					<g>
						<path fill="#221F1F" d="M1427.858,1152.533c12.273,0,22.258,9.984,22.258,22.257s-9.984,22.257-22.258,22.257
							c-12.271,0-22.258-9.984-22.258-22.257S1415.587,1152.533,1427.858,1152.533L1427.858,1152.533z M1427.858,1195.861
							c11.619,0,21.072-9.453,21.072-21.071c0-11.619-9.453-21.071-21.072-21.071s-21.072,9.452-21.072,21.071
							C1406.786,1186.408,1416.239,1195.861,1427.858,1195.861L1427.858,1195.861z"/>
					</g>
				</g>
				<g>
					<g>
						<path fill="#FFFFFF" d="M1449.294,1172.577v4.945h-3.158v9.411h-0.338c-3.896,5.743-10.475,9.521-17.939,9.521
							c-7.463,0-14.047-3.774-17.943-9.52l-0.092-9.412h-3.064v-4.945h3.016l-0.096-9.573c3.863-5.946,10.563-9.878,18.18-9.878
							c7.686,0,14.438,4.003,18.283,10.037l-0.006,0.577v8.837H1449.294z"/>
					</g>
					<g>
						<path fill="#221F1F" d="M1427.858,1152.533c7.646,0,14.668,3.854,18.783,10.312c0.063,0.098,0.094,0.21,0.094,0.324
							l-0.006,8.815h2.564c0.328,0,0.592,0.266,0.592,0.593v4.945c0,0.327-0.264,0.593-0.592,0.593h-2.564v8.818
							c0,0.327-0.266,0.593-0.594,0.593h-0.027c-4.172,5.967-10.969,9.521-18.25,9.521c-7.389,0-14.281-3.656-18.434-9.78
							c-0.064-0.096-0.102-0.21-0.102-0.326l-0.088-8.825h-2.477c-0.328,0-0.592-0.266-0.592-0.593v-4.945
							c0-0.327,0.264-0.593,0.592-0.593h2.416l-0.088-8.976c-0.002-0.116,0.031-0.229,0.096-0.328
							C1413.31,1156.326,1420.292,1152.533,1427.858,1152.533L1427.858,1152.533z M1410.274,1163.178l0.092,9.394
							c0.002,0.159-0.059,0.311-0.17,0.423s-0.264,0.176-0.422,0.176h-2.422v3.76h2.471c0.324,0,0.59,0.262,0.592,0.587l0.092,9.231
							c3.941,5.71,10.414,9.113,17.352,9.113c6.992,0,13.516-3.462,17.447-9.261c0.061-0.089,0.145-0.158,0.238-0.203v-8.875
							c0-0.327,0.266-0.593,0.592-0.593h2.564v-3.76h-2.564c-0.326,0-0.592-0.265-0.592-0.593v-8.843l0.004-0.399
							c-3.91-6.024-10.508-9.616-17.689-9.616C1420.753,1153.719,1414.194,1157.251,1410.274,1163.178L1410.274,1163.178z"/>
					</g>
				</g>
				<g>
					<g>
						<path fill="#FFFFFF" d="M1423.462,1216.176l-0.459-16.993l-3.332-3.557v-26.091h16.377v26.091l-3.332,3.557l-0.457,16.993
							l-1.186,1.296v214.618c0,6.423-4.248,10.671-10.67,10.671h-106.742c-3.262,0-5.93-1.446-5.93-3.213
							c0-1.769,2.668-3.214,5.93-3.214h105.059c3.26,0,5.928-2.668,5.928-5.929v-212.934L1423.462,1216.176z"/>
					</g>
					<g>
						<path fill="#221F1F" d="M1436.048,1168.941c0.326,0,0.592,0.266,0.592,0.594v26.091c0,0.15-0.057,0.295-0.16,0.405
							l-3.176,3.393l-0.451,16.769c-0.006,0.143-0.061,0.279-0.156,0.385l-1.029,1.125v214.388c0,6.737-4.527,11.264-11.264,11.264
							h-106.742c-3.658,0-6.521-1.672-6.521-3.806c0-2.136,2.863-3.808,6.521-3.808h105.059c2.941,0,5.334-2.393,5.334-5.335
							v-212.703l-1.029-1.125c-0.096-0.105-0.152-0.242-0.156-0.385l-0.453-16.769l-3.178-3.393
							c-0.102-0.11-0.158-0.255-0.158-0.405v-26.091c0-0.328,0.264-0.594,0.592-0.594H1436.048L1436.048,1168.941z
							 M1420.265,1170.127v25.266l3.17,3.385c0.1,0.105,0.156,0.244,0.16,0.39l0.455,16.771l1.035,1.133
							c0.1,0.11,0.156,0.252,0.156,0.4v212.934c0,3.595-2.926,6.521-6.521,6.521h-105.059c-3.146,0-5.336,1.381-5.336,2.621
							c0,1.238,2.189,2.62,5.336,2.62h106.742c6.121,0,10.078-3.956,10.078-10.078v-214.618c0-0.148,0.055-0.29,0.154-0.4
							l1.037-1.133l0.451-16.771c0.004-0.146,0.061-0.284,0.16-0.39l3.17-3.385v-25.266H1420.265L1420.265,1170.127z"/>
					</g>
				</g>
				<g>
					<g>
						<path fill="#FFFFFF" d="M1446.114,1163.12c0,0-3.736-3.97-12.438-5.327v8.931l2.371,2.812h-16.377l2.371-2.812v-8.96
							c-8.639,1.327-12.361,5.356-12.361,5.356l-0.002-0.116c2.932-4.512,7.496-7.858,12.855-9.213
							c4.512-1.109,6.588-1.109,10.654,0.002C1438.591,1155.16,1443.187,1158.552,1446.114,1163.12z"/>
					</g>
					<g>
						<path fill="#221F1F" d="M1428.026,1152.366c1.557,0,3.096,0.248,5.307,0.853c5.496,1.391,10.213,4.793,13.279,9.582
							c0.166,0.257,0.107,0.598-0.135,0.786c-0.238,0.188-0.584,0.161-0.795-0.059c-0.035-0.037-3.529-3.637-11.414-5.036v8.015
							l2.232,2.646c0.148,0.176,0.182,0.423,0.084,0.633c-0.098,0.208-0.307,0.342-0.537,0.342h-16.377
							c-0.23,0-0.439-0.134-0.537-0.342c-0.098-0.21-0.064-0.457,0.084-0.633l2.232-2.646v-8.046
							c-7.82,1.376-11.299,5.025-11.336,5.063c-0.164,0.176-0.422,0.18-0.648,0.09c-0.227-0.087-0.377-0.362-0.379-0.604
							c-0.002-0.116,0.031-0.229,0.096-0.328c3.07-4.727,7.76-8.088,13.209-9.466
							C1424.845,1152.612,1426.478,1152.366,1428.026,1152.366L1428.026,1152.366L1428.026,1152.366z M1412.585,1160.27
							c2.064-1.164,5.139-2.442,9.367-3.092c0.172-0.028,0.346,0.022,0.477,0.135c0.131,0.113,0.207,0.278,0.207,0.451v8.96
							c0,0.14-0.051,0.275-0.141,0.382l-1.549,1.836h13.824l-1.547-1.836c-0.09-0.106-0.141-0.242-0.141-0.382v-8.931
							c0-0.174,0.076-0.338,0.207-0.45s0.309-0.163,0.479-0.136c4.207,0.657,7.275,1.906,9.352,3.049
							c-2.721-2.859-6.197-4.905-10.09-5.891c-2.111-0.578-3.563-0.813-5.004-0.813l0,0c-1.447,0-2.998,0.236-5.348,0.813
							C1418.79,1155.348,1415.31,1157.399,1412.585,1160.27L1412.585,1160.27z"/>
					</g>
				</g>
			</g>
			<g>
				<g>
					<g>
						<path fill="#FFFFFF" d="M1300.78,1430.328l11.41,0.53c1.785,0.188,2.613,0.188,2.613,0.188l31.336,3.939v9.002l-31.334,3.937
							c0,0-0.828,0-2.615,0.191l-11.41,0.53c-0.789,0.023-3.084-1.132-3.084-1.557v-15.205
							C1297.696,1431.461,1299.991,1430.305,1300.78,1430.328z"/>
					</g>
					<g>
						<path fill="#221F1F" d="M1300.755,1429.735l11.498,0.533c1.723,0.183,2.543,0.186,2.625,0.19l31.855,4.004v10.049
							l-31.928,4.006c-0.008,0-0.828,0.003-2.588,0.19l-11.463,0.532c-0.75,0-3.65-1.12-3.65-2.15v-15.205
							C1297.104,1430.854,1300.005,1429.735,1300.755,1429.735L1300.755,1429.735z M1298.29,1432.037v14.902
							c0.387,0.363,1.951,1.114,2.461,1.116l11.375-0.528c1.789-0.192,2.643-0.197,2.605-0.191l30.816-3.871v-7.956l-30.744-3.869
							c-0.035,0-0.879-0.002-2.643-0.189l-11.398-0.529l-0.008-0.593l0.002,0.593
							C1300.241,1430.921,1298.677,1431.672,1298.29,1432.037L1298.29,1432.037z"/>
					</g>
				</g>
				<g>
					<g>
						<g>
							<path fill="#FFFFFF" d="M1332.097,1434.424c0-0.651,0.529-1.119,1.176-1.039l11.691,1.455c0.646,0.08,1.176,0.68,1.176,1.332
								v6.631c0,0.651-0.529,1.251-1.176,1.331l-11.691,1.454c-0.646,0.08-1.176-0.388-1.176-1.04V1434.424z"/>
						</g>
					</g>
					<g>
						<g>
							<path fill="#221F1F" d="M1333.13,1432.782c0.072,0,0.143,0.005,0.217,0.015l11.689,1.455c0.951,0.117,1.697,0.961,1.697,1.92
								v6.631c0,0.958-0.746,1.803-1.697,1.919l-11.689,1.454c-1.008,0.123-1.842-0.635-1.842-1.628v-10.124
								C1331.505,1433.504,1332.218,1432.782,1333.13,1432.782L1333.13,1432.782z M1333.188,1445c0.004,0,0.008,0,0.012,0
								l11.691-1.454c0.35-0.043,0.656-0.391,0.656-0.743v-6.631c0-0.354-0.307-0.701-0.656-0.744l-11.691-1.455l-0.07-0.005
								c-0.26,0-0.439,0.188-0.439,0.456v10.124C1332.69,1444.813,1332.866,1445,1333.188,1445L1333.188,1445z"/>
						</g>
					</g>
				</g>
				<g>
					<g>
						<g>
							<path fill="#FFFFFF" d="M1336.384,1434.959c0-0.651,0.529-1.119,1.178-1.039l7.402,0.92c0.646,0.08,1.176,0.68,1.176,1.332
								v6.631c0,0.651-0.529,1.251-1.176,1.331l-7.402,0.921c-0.648,0.079-1.178-0.389-1.178-1.04V1434.959z"/>
						</g>
					</g>
					<g>
						<g>
							<path fill="#221F1F" d="M1337.417,1433.317c0.072,0,0.145,0.005,0.217,0.014l7.402,0.921c0.951,0.117,1.697,0.961,1.697,1.92
								v6.631c0,0.958-0.746,1.803-1.697,1.919l-7.402,0.921c-1.014,0.125-1.842-0.636-1.842-1.628v-9.056
								C1335.792,1434.039,1336.507,1433.317,1337.417,1433.317L1337.417,1433.317z M1337.476,1444.466c0.004,0,0.01,0,0.012,0
								l7.404-0.92c0.35-0.043,0.656-0.391,0.656-0.743v-6.631c0-0.354-0.307-0.701-0.656-0.744l-7.404-0.92l-0.07-0.005
								c-0.26,0-0.439,0.188-0.439,0.456v9.056C1336.978,1444.279,1337.155,1444.466,1337.476,1444.466L1337.476,1444.466z"/>
						</g>
					</g>
				</g>
				<g>
					<g>
						<g>
							<path fill="#FFFFFF" d="M1340.673,1435.493c0-0.652,0.529-1.12,1.176-1.04l3.115,0.387c0.646,0.08,1.176,0.68,1.176,1.332
								v6.631c0,0.651-0.529,1.251-1.176,1.331l-3.115,0.388c-0.646,0.08-1.176-0.388-1.176-1.039V1435.493z"/>
						</g>
					</g>
					<g>
						<g>
							<path fill="#221F1F" d="M1341.706,1433.852c0.072,0,0.143,0.004,0.217,0.014l3.113,0.387c0.951,0.117,1.697,0.961,1.697,1.92
								v6.631c0,0.958-0.746,1.803-1.697,1.919l-3.113,0.388c-1.012,0.127-1.842-0.637-1.842-1.627v-7.989
								C1340.081,1434.572,1340.794,1433.852,1341.706,1433.852L1341.706,1433.852z M1341.765,1443.934c0.004,0,0.008,0,0.012,0
								l3.115-0.388c0.35-0.043,0.656-0.391,0.656-0.743v-6.631c0-0.354-0.307-0.701-0.656-0.744l-3.115-0.387l-0.07-0.004
								c-0.26,0-0.439,0.188-0.439,0.456v7.989C1341.267,1443.747,1341.442,1443.934,1341.765,1443.934L1341.765,1443.934z"/>
						</g>
					</g>
				</g>
			</g>
		</g>
	</g>
	<g>
		<g>
			<g>
				<g>
					<path fill="#FFFFFF" d="M894.143,1656.032c2.746,0,4.992-3.004,4.992-22.566v-147.014c0-19.563,8.102-29.641,30.825-29.641
						h88.532c19.563,0,35.568-2.246,35.568-4.992c0-2.744-16.006-4.99-35.568-4.99h-94.959c-19.563,0-34.383,14.818-34.383,34.381
						v152.256C889.151,1653.028,891.397,1656.032,894.143,1656.032z"/>
				</g>
				<g>
					<path fill="#221F1F" d="M1054.654,1451.819c0,4.098-21.625,5.586-36.161,5.586H929.96c-21.191,0-30.232,8.688-30.232,29.047
						v147.014c0,14.535-1.487,23.16-5.585,23.16s-5.585-8.625-5.585-23.16V1481.21c0-19.938,15.036-34.975,34.976-34.975h94.959
						C1033.029,1446.235,1054.654,1447.722,1054.654,1451.819L1054.654,1451.819z M889.744,1481.21v152.256
						c0,22.963,2.863,21.975,4.399,21.975c1.535,0,4.398,0.988,4.398-21.975v-147.014c0-21.191,9.396-30.232,31.419-30.232h88.532
						c22.963,0,34.976-2.865,34.976-4.4s-12.013-4.398-34.976-4.398h-94.959C904.27,1447.421,889.744,1461.946,889.744,1481.21
						L889.744,1481.21z"/>
				</g>
			</g>
		</g>
		<g>
			<g>
				<g>
					<path fill="#FFFFFF" d="M1005.325,1457.853c-1.357-0.123-7.348-0.029-8.908-0.037c-1.568-0.01-1.568-11.932,0-11.939
						c1.965-0.012,7.508,0.189,9.156,0C1004.774,1449.587,1005.148,1454.106,1005.325,1457.853z"/>
				</g>
				<g>
					<path fill="#221F1F" d="M1006.327,1445.192l-0.174,0.809c-0.322,1.494-0.479,3.283-0.479,5.467
						c0,1.672,0.087,3.344,0.172,4.957l0.103,2.08l-0.677-0.061c-0.955-0.088-4.438-0.063-6.743-0.047
						c-0.915,0.006-1.684,0.012-2.115,0.01c-1.46-0.008-1.767-3.572-1.767-6.563c0-2.988,0.307-6.555,1.767-6.563
						c0.62-0.004,1.593,0.014,2.688,0.033c2.366,0.043,5.312,0.098,6.403-0.029L1006.327,1445.192L1006.327,1445.192z
						 M996.528,1446.468c-0.295,0.393-0.695,2.273-0.695,5.377s0.4,4.984,0.695,5.377c0.441,0.002,1.155-0.004,1.993-0.01
						c2.06-0.014,4.756-0.033,6.179,0.014l-0.037-0.738c-0.086-1.629-0.174-3.316-0.174-5.02c0-1.91,0.117-3.539,0.357-4.947
						c-1.434,0.061-3.797,0.018-5.767-0.02C998.057,1446.483,997.142,1446.468,996.528,1446.468L996.528,1446.468z"/>
				</g>
			</g>
			<g>
				<g>
					<path fill="#FFFFFF" d="M1007.696,1457.997c-1.357-0.123-6.162-0.174-7.723-0.182c-1.568-0.01-1.568-11.932,0-11.939
						c1.965-0.012,6.074,0.189,7.723,0C1006.897,1449.587,1007.519,1454.253,1007.696,1457.997z"/>
				</g>
				<g>
					<path fill="#221F1F" d="M1008.45,1445.192l-0.174,0.809c-0.259,1.201-0.385,2.613-0.385,4.316c0,1.68,0.119,3.398,0.235,5.061
						c0.063,0.896,0.122,1.766,0.162,2.592l0.032,0.68l-0.678-0.061c-1.248-0.113-5.708-0.172-7.672-0.182
						c-1.461-0.008-1.768-3.572-1.768-6.563c0-2.988,0.307-6.555,1.768-6.563c0.646-0.004,1.525,0.016,2.473,0.037
						c1.93,0.041,4.115,0.09,5.185-0.033L1008.45,1445.192L1008.45,1445.192z M1006.706,1450.317c0-1.441,0.088-2.691,0.266-3.795
						c-1.223,0.055-2.973,0.016-4.553-0.018c-0.885-0.02-1.707-0.037-2.334-0.037c-0.295,0.393-0.695,2.273-0.695,5.377
						c0,3.105,0.4,4.986,0.695,5.379c1.458,0.008,5.154,0.049,6.984,0.139c-0.035-0.615-0.08-1.252-0.125-1.902
						C1006.827,1453.778,1006.706,1452.038,1006.706,1450.317L1006.706,1450.317z"/>
				</g>
			</g>
			<g>
				<g>
					<path fill="#FFFFFF" d="M1003.53,1457.815c-1.568-0.01-1.568-11.932,0-11.939c22.445-0.113,22.741-10.672,36.969-10.672
						c9.195,0,30.855,0.004,30.855,0.004c0.651-0.037,1.185,0.467,1.185,1.119v14.275v12.998v3.762c0,0.652-0.533,1.156-1.185,1.121
						c0,0-21.66,0.002-30.855,0.002C1026.271,1468.485,1025.975,1457.929,1003.53,1457.815z"/>
				</g>
				<g>
					<path fill="#221F1F" d="M1073.131,1467.362c0,0.48-0.188,0.924-0.532,1.25c-0.345,0.324-0.798,0.488-1.245,0.463l-30.855,0.002
						c-6.482,0-10.221-2.18-14.178-4.49c-4.912-2.867-10.48-6.117-22.793-6.18c-1.461-0.008-1.768-3.572-1.768-6.563
						c0-2.988,0.307-6.555,1.768-6.563c12.313-0.063,17.881-3.311,22.793-6.18c3.957-2.309,7.695-4.49,14.178-4.49l30.823,0.004
						c0.479-0.027,0.933,0.137,1.277,0.463c0.344,0.324,0.532,0.768,0.532,1.248V1467.362L1073.131,1467.362z M1003.641,1446.468
						c-0.295,0.393-0.695,2.271-0.695,5.377s0.4,4.986,0.695,5.379c12.554,0.082,18.25,3.406,23.277,6.338
						c3.98,2.324,7.419,4.33,13.58,4.33h30.888c0.152,0.008,0.293-0.043,0.397-0.143c0.104-0.098,0.162-0.234,0.162-0.387v-31.035
						c0-0.15-0.058-0.289-0.162-0.387c-0.104-0.1-0.245-0.15-0.43-0.141l-30.855-0.002c-6.161,0-9.6,2.006-13.58,4.33
						C1021.891,1443.062,1016.195,1446.384,1003.641,1446.468L1003.641,1446.468z"/>
				</g>
			</g>
		</g>
		<g>
			<g>
				<g>
					<path fill="#FFFFFF" d="M887.876,1614.765c0.122-1.357,0.03-7.346,0.038-8.908c0.008-1.568,11.932-1.568,11.939,0
						c0.01,1.965-0.189,7.508,0,9.156C896.142,1614.214,891.622,1614.589,887.876,1614.765z"/>
				</g>
				<g>
					<path fill="#221F1F" d="M900.538,1615.767l-0.809-0.174c-3.184-0.686-7.031-0.484-10.426-0.307l-2.078,0.104l0.061-0.678
						c0.041-0.453,0.063-1.557,0.063-3.281c0-1.154-0.009-2.406-0.017-3.461c-0.006-0.771-0.011-1.439-0.011-1.887l0.001-0.229
						c0.007-1.461,3.573-1.766,6.563-1.766s6.555,0.305,6.563,1.766l0.001,0.162c0,0.619-0.017,1.521-0.035,2.525
						c-0.022,1.254-0.048,2.67-0.048,3.893c0,1.217,0.026,2.061,0.078,2.51L900.538,1615.767L900.538,1615.767z M899.261,1605.968
						c-0.393-0.295-2.272-0.693-5.377-0.693s-4.984,0.398-5.377,0.693l-0.001,0.115c0,0.447,0.005,1.111,0.011,1.879
						c0.008,1.057,0.017,2.311,0.017,3.469c0,1.205-0.01,2.102-0.03,2.709l0.737-0.037c3.205-0.168,6.806-0.355,9.969,0.184
						c-0.054-1.252-0.02-3.727,0.018-5.766c0.019-0.996,0.035-1.891,0.035-2.504L899.261,1605.968L899.261,1605.968z"/>
				</g>
			</g>
			<g>
				<g>
					<path fill="#FFFFFF" d="M887.731,1617.136c0.123-1.357,0.176-6.16,0.184-7.721c0.008-1.57,11.932-1.57,11.939,0
						c0.01,1.963-0.189,6.072,0,7.721C896.142,1616.337,891.477,1616.96,887.731,1617.136z"/>
				</g>
				<g>
					<path fill="#221F1F" d="M900.538,1617.89l-0.809-0.174c-2.815-0.605-6.303-0.363-9.379-0.148
						c-0.895,0.061-1.765,0.123-2.591,0.16l-0.68,0.033l0.062-0.678c0.113-1.248,0.17-5.707,0.181-7.672
						c0.007-1.461,3.573-1.766,6.563-1.766s6.555,0.305,6.563,1.766l0.001,0.158c0,0.629-0.019,1.443-0.037,2.316
						c-0.022,0.996-0.046,2.07-0.046,3.027c0,0.994,0.025,1.699,0.078,2.156L900.538,1617.89L900.538,1617.89z M899.261,1609.524
						c-0.393-0.295-2.272-0.693-5.377-0.693c-3.105,0-4.985,0.4-5.378,0.693c-0.008,1.459-0.049,5.156-0.141,6.984
						c0.616-0.035,1.253-0.08,1.902-0.125c2.887-0.199,6.127-0.426,8.938,0.027c-0.05-1.082-0.017-2.932,0.019-4.553
						c0.019-0.863,0.037-1.668,0.037-2.289L899.261,1609.524L899.261,1609.524z"/>
				</g>
			</g>
			<g>
				<g>
					<path fill="#FFFFFF" d="M887.915,1612.972c0.008-1.57,11.932-1.57,11.939,0c0.113,22.443,10.67,22.74,10.67,36.967
						c0,9.195-0.002,30.855-0.002,30.855c0.036,0.652-0.468,1.186-1.119,1.186h-14.276h-12.997h-3.764
						c-0.651,0-1.155-0.533-1.119-1.186c0,0-0.002-21.66-0.002-30.855C877.245,1635.712,887.801,1635.415,887.915,1612.972z"/>
				</g>
				<g>
					<path fill="#221F1F" d="M911.118,1649.938l-0.001,30.922c0,0.961-0.753,1.711-1.714,1.711h-31.037
						c-0.96,0-1.712-0.75-1.712-1.773c0,0,0-0.002,0-0.004l-0.003-30.855c0-6.48,2.183-10.221,4.492-14.178
						c2.867-4.912,6.116-10.48,6.179-22.793c0.007-1.461,3.573-1.766,6.563-1.766s6.555,0.305,6.563,1.766
						c0.063,12.313,3.312,17.881,6.179,22.793C908.935,1639.718,911.118,1643.458,911.118,1649.938L911.118,1649.938z
						 M899.262,1613.081c-0.393-0.293-2.272-0.693-5.378-0.693s-4.985,0.4-5.378,0.693c-0.082,12.555-3.406,18.252-6.34,23.277
						c-2.323,3.98-4.33,7.418-4.33,13.58l0.001,30.922c0,0.301,0.228,0.525,0.528,0.525h31.037c0.3,0,0.526-0.225,0.526-0.586
						c0-0.002,0-0.004,0-0.006l0.003-30.855c0-6.162-2.007-9.6-4.33-13.58C902.668,1631.333,899.344,1625.636,899.262,1613.081
						L899.262,1613.081z"/>
				</g>
			</g>
		</g>
	</g>
	<g>
		<g>
			<path fill="#221F1F" d="M1334.671,1406.217c1.799,0,3.232,0.505,4.297,1.516c1.066,1.011,1.6,2.395,1.6,4.152
				c0,2.081-0.641,3.681-1.924,4.802c-1.281,1.12-3.115,1.681-5.502,1.681c-2.072,0-3.744-0.336-5.018-1.006v-3.4
				c0.672,0.356,1.453,0.647,2.344,0.873c0.893,0.225,1.736,0.337,2.535,0.337c2.402,0,3.604-0.985,3.604-2.955
				c0-1.877-1.244-2.814-3.73-2.814c-0.451,0-0.947,0.044-1.49,0.134c-0.545,0.089-0.986,0.185-1.326,0.286l-1.566-0.84l0.701-9.488
				h10.1v3.336h-6.648l-0.344,3.655l0.445-0.089C1333.265,1406.276,1333.907,1406.217,1334.671,1406.217z"/>
		</g>
		<g>
			<path fill="#221F1F" d="M1354.704,1399.493h3.986l-6.33,18.619h-4.305l-6.316-18.619h3.986l3.502,11.08
				c0.195,0.654,0.398,1.416,0.605,2.285c0.207,0.871,0.338,1.477,0.389,1.815c0.094-0.781,0.41-2.147,0.955-4.101
				L1354.704,1399.493z"/>
		</g>
	</g>
	<g>
		<g>
			<g>
				<g>
					<path fill="#646464" d="M1033.668,1663.316c8.728,0,15.867,7.142,15.867,15.867v277.476c0,8.729-7.14,15.867-15.867,15.867
						H838.671c-8.727,0-15.867-7.139-15.867-15.867v-277.476c0-8.726,7.141-15.867,15.867-15.867H1033.668z"/>
				</g>
			</g>
			<g>
				<g>
					<path fill="#221F1F" d="M822.011,1956.659v-277.476c0-9.186,7.475-16.659,16.66-16.659h194.997
						c9.187,0,16.66,7.474,16.66,16.659v277.476c0,9.188-7.474,16.662-16.66,16.662H838.671
						C829.486,1973.321,822.011,1965.847,822.011,1956.659L822.011,1956.659z M1048.743,1679.184c0-8.31-6.763-15.072-15.074-15.072
						H838.671c-8.312,0-15.073,6.763-15.073,15.072v277.476c0,8.313,6.762,15.074,15.073,15.074h194.997
						c8.312,0,15.074-6.762,15.074-15.074V1679.184L1048.743,1679.184z"/>
				</g>
			</g>
		</g>
		<g>
			<g>
				<path fill="#FFFFFF" d="M1027.976,1669.069c8.728,0,15.868,7.142,15.868,15.867v265.969c0,8.729-7.141,15.871-15.868,15.871
					H844.363c-8.727,0-15.866-7.143-15.866-15.871v-265.969c0-8.726,7.14-15.867,15.866-15.867H1027.976z"/>
			</g>
		</g>
	</g>
	<g>
		<g>
			<path fill="#221F1F" d="M921.434,1841.956h-3.936v-8.035h-7.373v8.035h-3.949v-18.619h3.949v7.297h7.373v-7.297h3.936V1841.956z"
				/>
		</g>
		<g>
			<path fill="#221F1F" d="M941.583,1832.468c0,3.066-0.873,5.414-2.617,7.043c-1.744,1.631-4.264,2.445-7.559,2.445h-5.273v-18.619
				h5.848c3.039,0,5.398,0.803,7.08,2.406C940.743,1827.349,941.583,1829.591,941.583,1832.468z M937.483,1832.571
				c0-4-1.768-6-5.299-6h-2.102v12.125h1.693C935.581,1838.696,937.483,1836.653,937.483,1832.571z"/>
		</g>
		<g>
			<path fill="#221F1F" d="M960.891,1832.468c0,3.066-0.873,5.414-2.617,7.043c-1.746,1.631-4.266,2.445-7.559,2.445h-5.273v-18.619
				h5.846c3.039,0,5.4,0.803,7.082,2.406C960.049,1827.349,960.891,1829.591,960.891,1832.468z M956.79,1832.571
				c0-4-1.768-6-5.299-6h-2.102v12.125h1.695C954.887,1838.696,956.79,1836.653,956.79,1832.571z"/>
		</g>
	</g>
	<g>
		<g>
			<g>
				<g>
					<g>
						<path fill="#FFFFFF" d="M1614.911,1359.966c0,3.26-2.666,5.928-5.928,5.928h-66.523c-3.262,0-5.928-2.668-5.928-5.928v-11.434
							c0-3.262,2.666-5.928,5.928-5.928h66.523c3.262,0,5.928,2.666,5.928,5.928V1359.966z"/>
					</g>
				</g>
				<g>
					<g>
						<path fill="#221F1F" d="M1608.983,1366.485h-66.523c-3.596,0-6.521-2.924-6.521-6.52v-11.434c0-3.596,2.926-6.521,6.521-6.521
							h66.523c3.596,0,6.521,2.926,6.521,6.521v11.434C1615.505,1363.562,1612.579,1366.485,1608.983,1366.485L1608.983,1366.485z
							 M1542.46,1343.196c-2.943,0-5.336,2.393-5.336,5.336v11.434c0,2.941,2.393,5.334,5.336,5.334h66.523
							c2.943,0,5.336-2.393,5.336-5.334v-11.434c0-2.943-2.393-5.336-5.336-5.336H1542.46L1542.46,1343.196z"/>
					</g>
				</g>
			</g>
			<g>
				<g>
					<g>
						<path fill="#FFFFFF" d="M1976.169,1359.966c0,3.26-2.668,5.928-5.93,5.928h-66.523c-3.262,0-5.928-2.668-5.928-5.928v-11.434
							c0-3.262,2.666-5.928,5.928-5.928h66.523c3.262,0,5.93,2.666,5.93,5.928V1359.966z"/>
					</g>
				</g>
				<g>
					<g>
						<path fill="#221F1F" d="M1970.239,1366.485h-66.523c-3.596,0-6.521-2.924-6.521-6.52v-11.434c0-3.596,2.926-6.521,6.521-6.521
							h66.523c3.596,0,6.521,2.926,6.521,6.521v11.434C1976.761,1363.562,1973.835,1366.485,1970.239,1366.485L1970.239,1366.485z
							 M1903.716,1343.196c-2.943,0-5.336,2.393-5.336,5.336v11.434c0,2.941,2.393,5.334,5.336,5.334h66.523
							c2.943,0,5.336-2.393,5.336-5.334v-11.434c0-2.943-2.393-5.336-5.336-5.336H1903.716L1903.716,1343.196z"/>
					</g>
				</g>
			</g>
		</g>
		<g>
			<g>
				<g>
					<g>
						<g>
							<path fill="#FFFFFF" d="M2012.046,1296.866c0,10.021-32.012,18.223-71.137,18.223H1571.79
								c-39.125,0-71.137-8.201-71.137-18.223s32.012-38.223,71.137-38.223h369.119
								C1980.034,1258.644,2012.046,1286.845,2012.046,1296.866z"/>
						</g>
					</g>
					<g>
						<g>
							<path fill="#221F1F" d="M1940.909,1315.682H1571.79c-40.223,0-71.729-8.265-71.729-18.815s31.506-38.815,71.729-38.815
								h369.119c40.223,0,71.73,28.265,71.73,38.815S1981.132,1315.682,1940.909,1315.682L1940.909,1315.682z M1571.79,1259.236
								c-38.238,0-70.543,28.073-70.543,37.63s32.305,17.63,70.543,17.63h369.119c38.238,0,70.545-8.073,70.545-17.63
								s-32.307-37.63-70.545-37.63H1571.79L1571.79,1259.236z"/>
						</g>
					</g>
				</g>
				<g>
					<g>
						<g>
							<path fill="#FFFFFF" d="M2012.046,1346.802c0,6.52-5.336,11.855-11.855,11.855h-487.682c-6.52,0-11.855-5.336-11.855-11.855
								v-47.252c0-6.521,5.336-11.855,11.855-11.855h487.682c6.52,0,11.855,5.335,11.855,11.855V1346.802z"/>
						</g>
					</g>
					<g>
						<g>
							<path fill="#221F1F" d="M2000.19,1359.249h-487.682c-6.863,0-12.447-5.584-12.447-12.447v-47.252
								c0-6.863,5.584-12.449,12.447-12.449h487.682c6.863,0,12.449,5.586,12.449,12.449v47.252
								C2012.64,1353.665,2007.054,1359.249,2000.19,1359.249L2000.19,1359.249z M1512.509,1288.286
								c-6.209,0-11.262,5.053-11.262,11.264v47.252c0,6.209,5.053,11.262,11.262,11.262h487.682
								c6.211,0,11.264-5.053,11.264-11.262v-47.252c0-6.211-5.053-11.264-11.264-11.264H1512.509L1512.509,1288.286z"/>
						</g>
					</g>
				</g>
				<g>
					<g>
						<rect x="1539.677" y="1296.741" fill="#FFFFFF" width="433.346" height="52.869"/>
					</g>
					<g>
						<path fill="#221F1F" d="M1973.616,1350.202h-434.533v-54.054h434.533V1350.202L1973.616,1350.202z M1540.269,1349.017h432.162
							v-51.683h-432.162V1349.017L1540.269,1349.017z"/>
					</g>
				</g>
			</g>
			<g>
				<g>
					<g>
						<circle fill="#FFFFFF" cx="1938.066" cy="1320.804" r="22.229"/>
					</g>
					<g>
						<path fill="#221F1F" d="M1938.065,1343.626c-12.584,0-22.82-10.238-22.82-22.822s10.236-22.821,22.82-22.821
							s22.822,10.237,22.822,22.821S1950.649,1343.626,1938.065,1343.626L1938.065,1343.626z M1938.065,1299.168
							c-11.93,0-21.635,9.706-21.635,21.636c0,11.932,9.705,21.637,21.635,21.637c11.932,0,21.637-9.705,21.637-21.637
							C1959.702,1308.874,1949.997,1299.168,1938.065,1299.168L1938.065,1299.168z"/>
					</g>
				</g>
				<g>
					<g>
						<g>
							<g>
								<path fill="#FFFFFF" d="M1950.515,1322.313c0,6.521-5.336,11.856-11.855,11.856h-1.186c-6.521,0-11.855-5.336-11.855-11.856
									v-192.769c0-6.521,5.334-11.855,11.855-11.855h1.186c6.52,0,11.855,5.335,11.855,11.855V1322.313z"/>
							</g>
						</g>
						<g>
							<g>
								<path fill="#221F1F" d="M1938.659,1334.763h-1.186c-6.863,0-12.449-5.586-12.449-12.45v-192.769
									c0-6.863,5.586-12.448,12.449-12.448h1.186c6.863,0,12.449,5.585,12.449,12.448v192.769
									C1951.108,1329.177,1945.522,1334.763,1938.659,1334.763L1938.659,1334.763z M1937.474,1118.281
									c-6.211,0-11.264,5.053-11.264,11.263v192.769c0,6.212,5.053,11.265,11.264,11.265h1.186
									c6.211,0,11.264-5.053,11.264-11.265v-192.769c0-6.21-5.053-11.263-11.264-11.263H1937.474L1937.474,1118.281z"/>
							</g>
						</g>
					</g>
					<g>
						<g>
							<rect x="1925.618" y="1155.882" fill="#646464" width="24.896" height="6.694"/>
						</g>
						<g>
							<path fill="#221F1F" d="M1951.108,1163.169h-26.084v-7.881h26.084V1163.169L1951.108,1163.169z M1926.21,1161.983h23.713
								v-5.51h-23.713V1161.983L1926.21,1161.983z"/>
						</g>
					</g>
				</g>
			</g>
		</g>
	</g>
	<g>
		<g>
			<g>
				<g>
					<rect x="1600.897" y="1307.858" fill="#221F1F" width="37.148" height="24.441"/>
				</g>
			</g>
			<g>
				<g>
					<rect x="1609.208" y="1326.673" fill="#221F1F" width="20.527" height="10.275"/>
				</g>
			</g>
			<g>
				<g>
					<rect x="1613.608" y="1329.606" fill="#221F1F" width="11.729" height="10.273"/>
				</g>
			</g>
		</g>
		<g>
			<g>
				<g>
					<polygon fill="#FFFFFF" points="1611.562,1320.808 1609.782,1320.808 1609.782,1310.542 1611.562,1310.542 1611.562,1320.808 
											"/>
				</g>
			</g>
			<g>
				<g>
					<polygon fill="#FFFFFF" points="1615.962,1320.808 1614.183,1320.808 1614.183,1310.542 1615.962,1310.542 1615.962,1320.808 
											"/>
				</g>
			</g>
			<g>
				<g>
					<polygon fill="#FFFFFF" points="1620.36,1320.808 1618.581,1320.808 1618.581,1310.542 1620.36,1310.542 1620.36,1320.808 
											"/>
				</g>
			</g>
			<g>
				<g>
					<polygon fill="#FFFFFF" points="1624.759,1320.808 1622.981,1320.808 1622.981,1310.542 1624.759,1310.542 1624.759,1320.808 
											"/>
				</g>
			</g>
			<g>
				<g>
					<polygon fill="#FFFFFF" points="1629.159,1320.808 1627.38,1320.808 1627.38,1310.542 1629.159,1310.542 1629.159,1320.808 
											"/>
				</g>
			</g>
		</g>
	</g>
	<g>
		<g>
			<g>
				<g>
					<rect x="1648.034" y="1307.858" fill="#221F1F" width="37.148" height="24.441"/>
				</g>
			</g>
			<g>
				<g>
					<rect x="1656.345" y="1326.673" fill="#221F1F" width="20.527" height="10.275"/>
				</g>
			</g>
			<g>
				<g>
					<rect x="1660.745" y="1329.606" fill="#221F1F" width="11.729" height="10.273"/>
				</g>
			</g>
		</g>
		<g>
			<g>
				<g>
					<polygon fill="#FFFFFF" points="1658.698,1320.808 1656.919,1320.808 1656.919,1310.542 1658.698,1310.542 1658.698,1320.808 
											"/>
				</g>
			</g>
			<g>
				<g>
					<polygon fill="#FFFFFF" points="1663.099,1320.808 1661.319,1320.808 1661.319,1310.542 1663.099,1310.542 1663.099,1320.808 
											"/>
				</g>
			</g>
			<g>
				<g>
					<polygon fill="#FFFFFF" points="1667.497,1320.808 1665.718,1320.808 1665.718,1310.542 1667.497,1310.542 1667.497,1320.808 
											"/>
				</g>
			</g>
			<g>
				<g>
					<polygon fill="#FFFFFF" points="1671.896,1320.808 1670.118,1320.808 1670.118,1310.542 1671.896,1310.542 1671.896,1320.808 
											"/>
				</g>
			</g>
			<g>
				<g>
					<polygon fill="#FFFFFF" points="1676.296,1320.808 1674.517,1320.808 1674.517,1310.542 1676.296,1310.542 1676.296,1320.808 
											"/>
				</g>
			</g>
		</g>
	</g>
	<g>
		<g>
			<g>
				<g>
					<rect x="1695.458" y="1307.858" fill="#221F1F" width="37.148" height="24.441"/>
				</g>
			</g>
			<g>
				<g>
					<rect x="1703.769" y="1326.673" fill="#221F1F" width="20.527" height="10.275"/>
				</g>
			</g>
			<g>
				<g>
					<rect x="1708.169" y="1329.606" fill="#221F1F" width="11.729" height="10.273"/>
				</g>
			</g>
		</g>
		<g>
			<g>
				<g>
					<polygon fill="#FFFFFF" points="1706.122,1320.808 1704.345,1320.808 1704.345,1310.542 1706.122,1310.542 1706.122,1320.808 
											"/>
				</g>
			</g>
			<g>
				<g>
					<polygon fill="#FFFFFF" points="1710.522,1320.808 1708.743,1320.808 1708.743,1310.542 1710.522,1310.542 1710.522,1320.808 
											"/>
				</g>
			</g>
			<g>
				<g>
					<polygon fill="#FFFFFF" points="1714.921,1320.808 1713.144,1320.808 1713.144,1310.542 1714.921,1310.542 1714.921,1320.808 
											"/>
				</g>
			</g>
			<g>
				<g>
					<polygon fill="#FFFFFF" points="1719.319,1320.808 1717.542,1320.808 1717.542,1310.542 1719.319,1310.542 1719.319,1320.808 
											"/>
				</g>
			</g>
			<g>
				<g>
					<polygon fill="#FFFFFF" points="1723.72,1320.808 1721.94,1320.808 1721.94,1310.542 1723.72,1310.542 1723.72,1320.808 					
						"/>
				</g>
			</g>
		</g>
	</g>
	<g>
		<g>
			<g>
				<g>
					<rect x="1742.882" y="1307.858" fill="#221F1F" width="37.148" height="24.441"/>
				</g>
			</g>
			<g>
				<g>
					<rect x="1751.19" y="1326.673" fill="#221F1F" width="20.529" height="10.275"/>
				</g>
			</g>
			<g>
				<g>
					<rect x="1755.591" y="1329.606" fill="#221F1F" width="11.729" height="10.273"/>
				</g>
			</g>
		</g>
		<g>
			<g>
				<g>
					<polygon fill="#FFFFFF" points="1753.546,1320.808 1751.767,1320.808 1751.767,1310.542 1753.546,1310.542 1753.546,1320.808 
											"/>
				</g>
			</g>
			<g>
				<g>
					<polygon fill="#FFFFFF" points="1757.944,1320.808 1756.167,1320.808 1756.167,1310.542 1757.944,1310.542 1757.944,1320.808 
											"/>
				</g>
			</g>
			<g>
				<g>
					<polygon fill="#FFFFFF" points="1762.345,1320.808 1760.565,1320.808 1760.565,1310.542 1762.345,1310.542 1762.345,1320.808 
											"/>
				</g>
			</g>
			<g>
				<g>
					<polygon fill="#FFFFFF" points="1766.743,1320.808 1764.964,1320.808 1764.964,1310.542 1766.743,1310.542 1766.743,1320.808 
											"/>
				</g>
			</g>
			<g>
				<g>
					<polygon fill="#FFFFFF" points="1771.142,1320.808 1769.364,1320.808 1769.364,1310.542 1771.142,1310.542 1771.142,1320.808 
											"/>
				</g>
			</g>
		</g>
	</g>
	<g>
		<g>
			<g>
				<g>
					<rect x="1844.306" y="1307.858" fill="#221F1F" width="37.148" height="24.441"/>
				</g>
			</g>
			<g>
				<g>
					<rect x="1852.616" y="1326.673" fill="#221F1F" width="20.527" height="10.275"/>
				</g>
			</g>
			<g>
				<g>
					<rect x="1857.017" y="1329.606" fill="#221F1F" width="11.729" height="10.273"/>
				</g>
			</g>
		</g>
		<g>
			<g>
				<g>
					<polygon fill="#FFFFFF" points="1854.97,1320.808 1853.19,1320.808 1853.19,1310.542 1854.97,1310.542 1854.97,1320.808 					
						"/>
				</g>
			</g>
			<g>
				<g>
					<polygon fill="#FFFFFF" points="1859.368,1320.808 1857.591,1320.808 1857.591,1310.542 1859.368,1310.542 1859.368,1320.808 
											"/>
				</g>
			</g>
			<g>
				<g>
					<polygon fill="#FFFFFF" points="1863.769,1320.808 1861.989,1320.808 1861.989,1310.542 1863.769,1310.542 1863.769,1320.808 
											"/>
				</g>
			</g>
			<g>
				<g>
					<polygon fill="#FFFFFF" points="1868.167,1320.808 1866.39,1320.808 1866.39,1310.542 1868.167,1310.542 1868.167,1320.808 
											"/>
				</g>
			</g>
			<g>
				<g>
					<polygon fill="#FFFFFF" points="1872.565,1320.808 1870.788,1320.808 1870.788,1310.542 1872.565,1310.542 1872.565,1320.808 
											"/>
				</g>
			</g>
		</g>
	</g>
	<g>
		<g>
			<g>
				<circle fill="#221F1F" cx="1573.004" cy="1323.175" r="14.228"/>
			</g>
		</g>
		<g>
			<g>
				<circle fill="#FFFFFF" cx="1573.005" cy="1323.175" r="3.545"/>
			</g>
		</g>
	</g>
	<g>
		<g>
			<g>
				<g>
					<g>
						<path fill="#FFFFFF" d="M1880.733,1316.178c0-1.304-1.066-2.371-2.371-2.371h-31.27c-1.305,0-2.371,1.067-2.371,2.371v18.948
							c0,1.305,1.066,2.371,2.371,2.371h31.27c1.305,0,2.371-1.066,2.371-2.371V1316.178z"/>
					</g>
				</g>
				<g>
					<g>
						<path fill="#221F1F" d="M1878.362,1338.091h-31.27c-1.635,0-2.965-1.33-2.965-2.965v-18.948c0-1.634,1.33-2.964,2.965-2.964
							h31.27c1.635,0,2.963,1.33,2.963,2.964v18.948C1881.325,1336.761,1879.997,1338.091,1878.362,1338.091L1878.362,1338.091z
							 M1847.093,1314.399c-0.98,0-1.777,0.797-1.777,1.778v18.948c0,0.98,0.797,1.779,1.777,1.779h31.27
							c0.98,0,1.777-0.799,1.777-1.779v-18.948c0-0.981-0.797-1.778-1.777-1.778H1847.093L1847.093,1314.399z"/>
					</g>
				</g>
			</g>
			<g>
				<g>
					<polygon fill="#FFFFFF" points="1880.733,1313.807 1844.722,1313.807 1848.513,1310.963 1876.942,1310.963 					"/>
				</g>
				<g>
					<path fill="#221F1F" d="M1880.733,1314.399h-36.012c-0.256,0-0.482-0.164-0.563-0.405c-0.08-0.242,0.002-0.509,0.207-0.662
						l3.791-2.843c0.102-0.078,0.227-0.119,0.355-0.119h28.43c0.129,0,0.254,0.041,0.355,0.119l3.791,2.843
						c0.205,0.153,0.287,0.42,0.207,0.662C1881.216,1314.235,1880.989,1314.399,1880.733,1314.399L1880.733,1314.399z
						 M1846.499,1313.214h32.457l-2.211-1.658h-28.035L1846.499,1313.214L1846.499,1313.214z"/>
				</g>
			</g>
		</g>
		<g>
			<g>
				<g>
					<path fill="#FFFFFF" d="M1874.761,1319.069h-24.066c-1.305,0-2.371,1.068-2.371,2.371v8.422c0,1.303,1.066,2.371,2.371,2.371
						h6.449v405.9c0,3.26,2.512,5.928,5.584,5.928s5.584-2.668,5.584-5.928v-405.9h6.449c1.305,0,2.371-1.068,2.371-2.371v-8.422
						C1877.132,1320.138,1876.065,1319.069,1874.761,1319.069z"/>
				</g>
				<g>
					<path fill="#221F1F" d="M1862.728,1744.653c-3.406,0-6.178-2.926-6.178-6.52v-405.309h-5.855c-1.635,0-2.965-1.328-2.965-2.963
						v-8.422c0-1.634,1.33-2.963,2.965-2.963h24.066c1.635,0,2.965,1.329,2.965,2.963v8.422c0,1.635-1.33,2.963-2.965,2.963h-5.855
						v405.309C1868.905,1741.728,1866.134,1744.653,1862.728,1744.653L1862.728,1744.653z M1850.694,1319.663
						c-0.98,0-1.779,0.797-1.779,1.777v8.422c0,0.98,0.799,1.777,1.779,1.777h7.041v406.494c0,2.941,2.24,5.334,4.992,5.334
						s4.992-2.393,4.992-5.334V1331.64h7.041c0.98,0,1.779-0.797,1.779-1.777v-8.422c0-0.98-0.799-1.777-1.779-1.777H1850.694
						L1850.694,1319.663z"/>
				</g>
			</g>
			<g>
				<g>
					<path fill="#CFD0CB" d="M2011.411,1750.169c0-16.453-13.336-29.787-29.787-29.787c-0.525,0-1.041,0.051-1.561,0.076
						c-5.68-22.76-26.254-39.623-50.771-39.623c-9.727,0-18.828,2.662-26.631,7.285c-6.926-15.037-22.119-25.479-39.76-25.479
						c-17.904,0-33.287,10.754-40.064,26.154c-6.262-2.678-13.152-4.164-20.393-4.164c-23.797,0-43.84,16.018-49.975,37.857
						c-21.385,1.254-38.344,18.988-38.344,40.689c0,22.516,18.252,40.768,40.768,40.768c7.244,0,14.039-1.896,19.936-5.209
						c7.184,11.609,20.029,19.346,34.684,19.346c4.838,0,9.479-0.848,13.783-2.395c9.488,13.982,25.51,23.168,43.678,23.168
						c23.719,0,43.779-15.654,50.416-37.193c7.666,9.219,19.221,15.088,32.146,15.088c21.936,0,39.91-16.904,41.641-38.391
						C2002.937,1774.374,2011.411,1763.271,2011.411,1750.169z"/>
				</g>
			</g>
			<g>
				<g>
					<path fill="#221F1F" d="M1811.741,1761.979v-18.621h3.947v18.621H1811.741z"/>
				</g>
				<g>
					<path fill="#221F1F" d="M1833.214,1761.979h-3.885v-8.316c0-1.027-0.182-1.799-0.547-2.313s-0.947-0.77-1.744-0.77
						c-1.088,0-1.873,0.361-2.357,1.09c-0.484,0.725-0.725,1.928-0.725,3.609v6.699h-3.885v-14.238h2.967l0.521,1.82h0.217
						c0.434-0.688,1.029-1.207,1.789-1.559c0.76-0.354,1.625-0.529,2.592-0.529c1.656,0,2.912,0.447,3.771,1.344
						c0.857,0.895,1.285,2.188,1.285,3.877V1761.979z"/>
				</g>
				<g>
					<path fill="#221F1F" d="M1843.212,1759.14c0.68,0,1.494-0.148,2.445-0.445v2.891c-0.969,0.432-2.156,0.648-3.566,0.648
						c-1.553,0-2.686-0.393-3.395-1.178s-1.063-1.963-1.063-3.533v-6.865h-1.859v-1.643l2.139-1.299l1.121-3.006h2.484v3.031h3.986
						v2.916h-3.986v6.865c0,0.551,0.154,0.959,0.465,1.223C1842.292,1759.007,1842.702,1759.14,1843.212,1759.14z"/>
				</g>
				<g>
					<path fill="#221F1F" d="M1854.979,1762.233c-2.293,0-4.084-0.631-5.375-1.896s-1.936-3.057-1.936-5.375
						c0-2.387,0.598-4.23,1.789-5.533c1.193-1.305,2.842-1.955,4.949-1.955c2.012,0,3.578,0.572,4.699,1.719s1.682,2.73,1.682,4.75
						v1.885h-9.184c0.043,1.104,0.369,1.967,0.98,2.586s1.469,0.93,2.574,0.93c0.855,0,1.668-0.09,2.432-0.268
						s1.563-0.463,2.395-0.854v3.006c-0.68,0.34-1.406,0.592-2.178,0.758C1857.034,1762.151,1856.093,1762.233,1854.979,1762.233z
						 M1854.433,1750.237c-0.824,0-1.469,0.262-1.936,0.781c-0.469,0.523-0.734,1.264-0.803,2.225h5.451
						c-0.018-0.961-0.268-1.701-0.752-2.225C1855.909,1750.499,1855.255,1750.237,1854.433,1750.237z"/>
				</g>
				<g>
					<path fill="#221F1F" d="M1871.894,1747.474c0.525,0,0.963,0.037,1.313,0.113l-0.293,3.643
						c-0.314-0.084-0.697-0.127-1.146-0.127c-1.24,0-2.207,0.318-2.898,0.955s-1.037,1.529-1.037,2.676v7.246h-3.885v-14.238h2.941
						l0.574,2.395h0.189c0.441-0.799,1.039-1.441,1.791-1.93C1870.192,1747.718,1871.011,1747.474,1871.894,1747.474z"/>
				</g>
				<g>
					<path fill="#221F1F" d="M1888.935,1761.979h-3.885v-8.316c0-1.027-0.184-1.799-0.549-2.313s-0.945-0.77-1.744-0.77
						c-1.088,0-1.871,0.361-2.355,1.09c-0.484,0.725-0.727,1.928-0.727,3.609v6.699h-3.885v-14.238h2.969l0.521,1.82h0.217
						c0.434-0.688,1.029-1.207,1.789-1.559c0.76-0.354,1.623-0.529,2.592-0.529c1.656,0,2.912,0.447,3.77,1.344
						c0.857,0.895,1.287,2.188,1.287,3.877V1761.979z"/>
				</g>
				<g>
					<path fill="#221F1F" d="M1899.378,1762.233c-2.293,0-4.084-0.631-5.375-1.896s-1.936-3.057-1.936-5.375
						c0-2.387,0.596-4.23,1.789-5.533c1.193-1.305,2.842-1.955,4.947-1.955c2.014,0,3.58,0.572,4.701,1.719
						c1.119,1.146,1.68,2.73,1.68,4.75v1.885h-9.182c0.041,1.104,0.369,1.967,0.98,2.586s1.469,0.93,2.572,0.93
						c0.857,0,1.668-0.09,2.434-0.268c0.764-0.178,1.561-0.463,2.393-0.854v3.006c-0.678,0.34-1.404,0.592-2.178,0.758
						C1901.433,1762.151,1900.489,1762.233,1899.378,1762.233z M1898.829,1750.237c-0.822,0-1.469,0.262-1.936,0.781
						c-0.467,0.523-0.734,1.264-0.803,2.225h5.451c-0.018-0.961-0.268-1.701-0.75-2.225
						C1900.308,1750.499,1899.653,1750.237,1898.829,1750.237z"/>
				</g>
				<g>
					<path fill="#221F1F" d="M1914.343,1759.14c0.678,0,1.494-0.148,2.445-0.445v2.891c-0.969,0.432-2.158,0.648-3.566,0.648
						c-1.555,0-2.686-0.393-3.395-1.178s-1.063-1.963-1.063-3.533v-6.865h-1.859v-1.643l2.139-1.299l1.121-3.006h2.484v3.031h3.986
						v2.916h-3.986v6.865c0,0.551,0.154,0.959,0.465,1.223C1913.423,1759.007,1913.833,1759.14,1914.343,1759.14z"/>
				</g>
			</g>
		</g>
	</g>
	<g>
		<g>
			<g>
				<g>
					<g>
						<path fill="#FFFFFF" d="M1601.599,1316.178c0-1.304,1.066-2.371,2.371-2.371h31.268c1.305,0,2.371,1.067,2.371,2.371v18.948
							c0,1.305-1.066,2.371-2.371,2.371h-31.268c-1.305,0-2.371-1.066-2.371-2.371V1316.178z"/>
					</g>
				</g>
				<g>
					<g>
						<path fill="#221F1F" d="M1603.97,1338.091c-1.635,0-2.965-1.33-2.965-2.965v-18.948c0-1.634,1.33-2.964,2.965-2.964h31.268
							c1.635,0,2.965,1.33,2.965,2.964v18.948c0,1.635-1.33,2.965-2.965,2.965H1603.97L1603.97,1338.091z M1635.237,1314.399
							h-31.268c-0.982,0-1.779,0.797-1.779,1.778v18.948c0,0.98,0.797,1.779,1.779,1.779h31.268c0.98,0,1.779-0.799,1.779-1.779
							v-18.948C1637.017,1315.196,1636.218,1314.399,1635.237,1314.399L1635.237,1314.399z"/>
					</g>
				</g>
			</g>
			<g>
				<g>
					<polygon fill="#FFFFFF" points="1601.599,1313.807 1637.608,1313.807 1633.819,1310.963 1605.388,1310.963 					"/>
				</g>
				<g>
					<path fill="#221F1F" d="M1601.599,1314.399c-0.256,0-0.482-0.164-0.563-0.405c-0.082-0.242,0.002-0.509,0.207-0.662
						l3.789-2.843c0.104-0.078,0.229-0.119,0.355-0.119h28.432c0.127,0,0.252,0.041,0.355,0.119l3.789,2.843
						c0.205,0.153,0.289,0.42,0.207,0.662c-0.08,0.241-0.307,0.405-0.563,0.405H1601.599L1601.599,1314.399z M1635.831,1313.214
						l-2.209-1.658h-28.037l-2.209,1.658H1635.831L1635.831,1313.214z"/>
				</g>
			</g>
		</g>
		<g>
			<g>
				<path fill="#FFFFFF" d="M1328.048,1470.546h280.043c3.26,0,5.928-2.666,5.928-5.928v-132.385h-6.449
					c-1.305,0-2.371-1.068-2.371-2.371v-8.422c0-1.303,1.066-2.371,2.371-2.371h24.068c1.305,0,2.371,1.068,2.371,2.371v8.422
					c0,1.303-1.066,2.371-2.371,2.371h-6.449v133.555c0,11.258-4.668,15.928-15.928,15.928h-281.213
					c-3.262,0-5.928-2.514-5.928-5.586C1322.12,1473.06,1324.786,1470.546,1328.048,1470.546z"/>
			</g>
			<g>
				<path fill="#221F1F" d="M1328.048,1482.31c-3.596,0-6.521-2.771-6.521-6.18c0-3.406,2.926-6.176,6.521-6.176h280.043
					c2.941,0,5.336-2.393,5.336-5.336v-131.793h-5.857c-1.635,0-2.963-1.328-2.963-2.963v-8.422c0-1.634,1.328-2.963,2.963-2.963
					h24.068c1.635,0,2.963,1.329,2.963,2.963v8.422c0,1.635-1.328,2.963-2.963,2.963h-5.857v132.963
					c0,11.594-4.924,16.521-16.52,16.521H1328.048L1328.048,1482.31z M1631.638,1319.663h-24.068c-0.98,0-1.777,0.797-1.777,1.777
					v8.422c0,0.98,0.797,1.777,1.777,1.777h7.043v132.979c0,3.596-2.926,6.521-6.521,6.521h-280.043
					c-2.943,0-5.336,2.238-5.336,4.99c0,2.754,2.393,4.994,5.336,4.994h281.213c10.939,0,15.334-4.395,15.334-15.336V1331.64h7.043
					c0.98,0,1.777-0.797,1.777-1.777v-8.422C1633.415,1320.46,1632.618,1319.663,1631.638,1319.663L1631.638,1319.663z"/>
			</g>
		</g>
		<g>
			<g>
				<g>
					<g>
						<path fill="#FFFFFF" d="M1333.53,1462.663c0.652,0,1.186,0.533,1.186,1.186v24.113c0,0.652-0.533,1.186-1.186,1.186h-25.891
							c-0.652,0-1.186-0.533-1.186-1.186v-24.113c0-0.652,0.533-1.186,1.186-1.186H1333.53z"/>
					</g>
				</g>
				<g>
					<g>
						<path fill="#221F1F" d="M1307.64,1489.741c-0.98,0-1.779-0.799-1.779-1.779v-24.113c0-0.98,0.799-1.777,1.779-1.777h25.891
							c0.98,0,1.779,0.797,1.779,1.777v24.113c0,0.98-0.799,1.779-1.779,1.779H1307.64L1307.64,1489.741z M1333.53,1463.257h-25.891
							c-0.328,0-0.594,0.266-0.594,0.592v24.113c0,0.328,0.266,0.594,0.594,0.594h25.891c0.328,0,0.594-0.266,0.594-0.594v-24.113
							C1334.124,1463.522,1333.858,1463.257,1333.53,1463.257L1333.53,1463.257z"/>
					</g>
				</g>
			</g>
			<g>
				<g>
					<path fill="#FFFFFF" d="M1322.251,1461.64l14.539,0.813c0.389,0.02,0.717,0.24,0.934,0.543l26.268,6.025v13.771l-26.266,6.023
						c-0.217,0.305-0.547,0.525-0.936,0.545l-14.539,0.813c-0.652,0.035-1.186-0.467-1.186-1.119v-26.295
						C1321.065,1462.106,1321.599,1461.604,1322.251,1461.64z"/>
				</g>
				<g>
					<path fill="#221F1F" d="M1322.185,1490.769c-0.459,0-0.889-0.178-1.211-0.498c-0.322-0.322-0.5-0.756-0.5-1.217v-26.295
						c0-0.959,0.748-1.711,1.803-1.711c0.002,0,0.006,0,0.006,0l14.541,0.813c0.465,0.023,0.902,0.242,1.232,0.602l26.527,6.086
						v14.717l-26.527,6.084c-0.33,0.361-0.768,0.58-1.232,0.604l-14.541,0.813L1322.185,1490.769L1322.185,1490.769
						L1322.185,1490.769z M1363.397,1482.321v-12.83l-25.807-5.918l-0.219-0.051l-0.131-0.184c-0.061-0.084-0.229-0.281-0.484-0.297
						l-14.572-0.813c-0.301,0-0.525,0.229-0.525,0.529v26.295c0,0.145,0.053,0.279,0.152,0.377c0.098,0.098,0.23,0.152,0.373,0.152
						l0,0v0.592l0.033-0.594l14.541-0.811c0.254-0.016,0.424-0.215,0.484-0.299l0.129-0.184L1363.397,1482.321L1363.397,1482.321z"
						/>
				</g>
			</g>
		</g>
	</g>
	<g>
		<g>
			<path fill="#221F1F" d="M1340.304,1524.016h-10.723v-18.619h10.723v3.234h-6.775v4.088h6.305v3.234h-6.305v4.803h6.775V1524.016z
				"/>
		</g>
		<g>
			<path fill="#221F1F" d="M1349.882,1521.176c0.68,0,1.494-0.148,2.445-0.445v2.891c-0.969,0.434-2.156,0.648-3.566,0.648
				c-1.553,0-2.686-0.393-3.395-1.178s-1.063-1.963-1.063-3.533v-6.865h-1.859v-1.643l2.139-1.299l1.121-3.006h2.484v3.031h3.986
				v2.916h-3.986v6.865c0,0.551,0.154,0.959,0.465,1.223C1348.962,1521.043,1349.372,1521.176,1349.882,1521.176z"/>
		</g>
		<g>
			<path fill="#221F1F" d="M1368.349,1524.016h-3.885v-8.316c0-2.055-0.764-3.082-2.291-3.082c-1.088,0-1.873,0.369-2.357,1.107
				s-0.725,1.936-0.725,3.592v6.699h-3.885v-19.816h3.885v4.037c0,0.313-0.031,1.053-0.09,2.215l-0.09,1.146h0.205
				c0.865-1.393,2.24-2.088,4.125-2.088c1.674,0,2.943,0.449,3.809,1.35c0.867,0.9,1.299,2.191,1.299,3.871V1524.016z"/>
		</g>
		<g>
			<path fill="#221F1F" d="M1378.792,1524.27c-2.291,0-4.084-0.631-5.373-1.896c-1.291-1.266-1.938-3.057-1.938-5.375
				c0-2.387,0.598-4.23,1.791-5.533c1.191-1.305,2.842-1.955,4.947-1.955c2.012,0,3.578,0.572,4.699,1.719s1.682,2.73,1.682,4.75
				v1.885h-9.184c0.043,1.104,0.369,1.967,0.98,2.586s1.469,0.93,2.574,0.93c0.857,0,1.668-0.088,2.432-0.268
				c0.764-0.178,1.563-0.463,2.395-0.854v3.006c-0.68,0.34-1.406,0.592-2.178,0.76
				C1380.847,1524.188,1379.905,1524.27,1378.792,1524.27z M1378.245,1512.273c-0.824,0-1.469,0.262-1.936,0.781
				c-0.467,0.523-0.734,1.264-0.803,2.225h5.451c-0.018-0.961-0.268-1.701-0.752-2.225
				C1379.722,1512.535,1379.067,1512.273,1378.245,1512.273z"/>
		</g>
		<g>
			<path fill="#221F1F" d="M1395.706,1509.51c0.525,0,0.963,0.037,1.313,0.113l-0.293,3.643c-0.314-0.084-0.697-0.127-1.146-0.127
				c-1.24,0-2.207,0.318-2.898,0.955s-1.037,1.529-1.037,2.676v7.246h-3.885v-14.238h2.941l0.574,2.395h0.191
				c0.439-0.799,1.037-1.441,1.789-1.93C1394.005,1509.754,1394.823,1509.51,1395.706,1509.51z"/>
		</g>
		<g>
			<path fill="#221F1F" d="M1412.747,1524.016h-3.885v-8.316c0-1.027-0.184-1.799-0.547-2.313c-0.367-0.514-0.947-0.77-1.746-0.77
				c-1.086,0-1.871,0.361-2.355,1.09c-0.484,0.725-0.727,1.928-0.727,3.609v6.699h-3.885v-14.238h2.969l0.521,1.82h0.217
				c0.434-0.688,1.029-1.207,1.789-1.559c0.76-0.354,1.623-0.529,2.592-0.529c1.656,0,2.912,0.447,3.77,1.344
				c0.857,0.895,1.287,2.188,1.287,3.877V1524.016z"/>
		</g>
		<g>
			<path fill="#221F1F" d="M1423.19,1524.27c-2.293,0-4.084-0.631-5.375-1.896s-1.936-3.057-1.936-5.375
				c0-2.387,0.596-4.23,1.789-5.533c1.193-1.305,2.842-1.955,4.947-1.955c2.014,0,3.58,0.572,4.701,1.719
				c1.119,1.146,1.68,2.73,1.68,4.75v1.885h-9.182c0.041,1.104,0.369,1.967,0.98,2.586s1.469,0.93,2.572,0.93
				c0.857,0,1.668-0.088,2.434-0.268c0.764-0.178,1.561-0.463,2.395-0.854v3.006c-0.68,0.34-1.406,0.592-2.18,0.76
				C1425.245,1524.188,1424.302,1524.27,1423.19,1524.27z M1422.642,1512.273c-0.822,0-1.469,0.262-1.936,0.781
				c-0.467,0.523-0.734,1.264-0.803,2.225h5.451c-0.018-0.961-0.268-1.701-0.75-2.225
				C1424.12,1512.535,1423.466,1512.273,1422.642,1512.273z"/>
		</g>
		<g>
			<path fill="#221F1F" d="M1438.155,1521.176c0.678,0,1.494-0.148,2.445-0.445v2.891c-0.969,0.434-2.158,0.648-3.566,0.648
				c-1.555,0-2.686-0.393-3.395-1.178s-1.063-1.963-1.063-3.533v-6.865h-1.859v-1.643l2.139-1.299l1.121-3.006h2.484v3.031h3.986
				v2.916h-3.986v6.865c0,0.551,0.154,0.959,0.465,1.223C1437.235,1521.043,1437.646,1521.176,1438.155,1521.176z"/>
		</g>
	</g>
	<g>
		<g>
			<path fill="#221F1F" d="M1001.804,1408.626v12.049c0,1.375-0.307,2.58-0.924,3.616c-0.615,1.037-1.504,1.83-2.668,2.382
				c-1.162,0.553-2.539,0.828-4.125,0.828c-2.395,0-4.254-0.613-5.58-1.841c-1.324-1.227-1.986-2.905-1.986-5.037v-11.997h3.936
				v11.399c0,1.434,0.289,2.487,0.867,3.158c0.576,0.67,1.531,1.006,2.865,1.006c1.289,0,2.227-0.338,2.809-1.012
				c0.58-0.676,0.871-1.734,0.871-3.178v-11.374H1001.804z"/>
		</g>
		<g>
			<path fill="#221F1F" d="M1017.355,1422.075c0,1.682-0.605,3.006-1.814,3.974c-1.211,0.968-2.895,1.452-5.051,1.452
				c-1.986,0-3.744-0.374-5.271-1.121v-3.668c1.256,0.561,2.32,0.956,3.191,1.185c0.869,0.229,1.664,0.344,2.387,0.344
				c0.865,0,1.531-0.165,1.994-0.496c0.461-0.331,0.693-0.823,0.693-1.478c0-0.365-0.102-0.69-0.307-0.974
				c-0.203-0.285-0.504-0.56-0.896-0.822c-0.396-0.263-1.199-0.684-2.414-1.261c-1.139-0.535-1.992-1.049-2.561-1.541
				s-1.023-1.065-1.363-1.72c-0.338-0.654-0.508-1.418-0.508-2.292c0-1.647,0.557-2.942,1.674-3.885s2.66-1.414,4.629-1.414
				c0.969,0,1.893,0.115,2.77,0.345c0.881,0.229,1.799,0.552,2.758,0.968l-1.273,3.069c-0.992-0.408-1.814-0.692-2.463-0.854
				c-0.65-0.161-1.289-0.242-1.918-0.242c-0.748,0-1.32,0.174-1.719,0.522c-0.4,0.349-0.6,0.802-0.6,1.362
				c0,0.349,0.082,0.652,0.242,0.911c0.162,0.259,0.418,0.51,0.771,0.751c0.352,0.243,1.186,0.677,2.502,1.306
				c1.74,0.833,2.934,1.666,3.58,2.503C1017.033,1419.836,1017.355,1420.861,1017.355,1422.075z"/>
		</g>
		<g>
			<path fill="#221F1F" d="M1020.73,1408.626h5.795c2.641,0,4.557,0.376,5.752,1.128c1.191,0.75,1.787,1.946,1.787,3.585
				c0,1.112-0.26,2.024-0.783,2.738c-0.521,0.713-1.215,1.142-2.082,1.286v0.127c1.18,0.263,2.031,0.756,2.555,1.478
				c0.521,0.722,0.783,1.682,0.783,2.878c0,1.699-0.613,3.023-1.842,3.975c-1.227,0.95-2.893,1.426-4.998,1.426h-6.967V1408.626z
				 M1024.679,1416h2.291c1.07,0,1.846-0.165,2.326-0.496c0.479-0.331,0.719-0.879,0.719-1.644c0-0.713-0.262-1.225-0.783-1.534
				s-1.35-0.465-2.479-0.465h-2.074V1416z M1024.679,1419.134v4.853h2.572c1.086,0,1.889-0.209,2.406-0.625
				c0.518-0.415,0.777-1.052,0.777-1.91c0-1.545-1.105-2.317-3.311-2.317H1024.679z"/>
		</g>
	</g>
	<g>
		<path fill="#221F1F" d="M1052.788,1414.599c0-3.118,2.551-5.669,5.669-5.669h247.416c3.117,0,5.67,2.551,5.67,5.669v161.288
			c0,3.118-2.553,5.669-5.67,5.669h-247.416c-3.118,0-5.669-2.551-5.669-5.669V1414.599z"/>
	</g>
	<g>
		<g>
			<path fill-rule="evenodd" clip-rule="evenodd" fill="#FFFFFF" d="M1219.774,1464.642c-0.435-1.865,0.811-3.082,0.658-4.827
				c-0.257-2.948-2.896-4.415-5.706-5.048c-3.748-3.348-8.407-5.784-13.606-7.681c-2.884-9.99-8.468-17.281-20.409-18.214
				c-0.236-0.363-1.958-0.363-2.194,0c-6.738,0.431-11.383,2.954-15.142,6.363c-7.356,1.094-8.797,8.797-11.851,16.021
				c-3.299,7.805-9.548,17.384-3.072,25.676c2.661,3.407,6.099,4.424,10.973,6.145c-1.333,3.494-2.202,7.454-2.634,11.85
				c-3.123-1.334-2.88-11.646-6.145-12.947c-5.073-2.022-4.246,4.832-3.292,8.12c1.64,5.65,3.548,9.087,6.364,13.386
				c2.109,3.221,4.307,5.038,5.048,8.998c-5.596,0.748-9.161,13.651,0.219,12.947c-0.12,3.704,2.395,4.773,5.486,5.267
				c0.878,0,1.756,0,2.634,0c5.645-0.792,9.762-3.113,10.095-9.217c2.121,0,4.243,0,6.364,0c-0.008,6.372,4.369,8.359,9.875,9.217
				c0.878,0,1.755,0,2.633,0c3.274-0.287,5.983-2.14,5.706-5.267c9.422,0.45,5.975-11.904,0.22-12.947
				c1.184-3.571,1.927-7.583,1.975-12.29c0.364-0.449,0.364-2.402,0-2.853c0.051-5.244-1.217-9.17-2.194-13.386
				c2.861-0.357,4.83-1.607,7.242-2.414c4.276,7.762,15.005-2.027,8.998-8.778c0.892-1.595,1.532-3.442,1.756-5.706
				C1220.137,1466.749,1220.137,1464.949,1219.774,1464.642z"/>
			<path fill="#221F1F" d="M1196.095,1531.196h-2.655c-4.762-0.735-10.125-2.448-10.367-9.217h-5.406
				c-0.466,5.343-3.813,8.275-10.491,9.212l-2.703,0.005c-2.941-0.463-5.854-1.452-5.985-5.241c-3.406,0.1-5.568-1.77-5.778-4.919
				c-0.234-3.521,2.121-8.091,5.466-8.947c-0.569-2.486-1.771-4.086-3.148-5.92c-0.563-0.748-1.144-1.522-1.726-2.411
				c-2.913-4.447-4.8-7.92-6.425-13.52c-0.172-0.592-1.628-5.849,0.089-8.137c0.794-1.057,2.138-1.276,3.867-0.588
				c1.89,0.754,2.65,3.748,3.454,6.918c0.57,2.246,1.156,4.558,2.099,5.585c0.442-3.922,1.246-7.494,2.394-10.638l-0.525-0.184
				c-4.43-1.552-7.631-2.672-10.195-5.956c-5.697-7.295-1.932-15.422,1.391-22.592c0.579-1.249,1.126-2.43,1.615-3.586
				c0.533-1.261,1.021-2.55,1.494-3.796c2.24-5.908,4.356-11.491,10.593-12.501c4.382-3.937,9.208-5.967,15.162-6.38
				c0.335-0.23,0.87-0.285,1.301-0.285c0.434,0,0.97,0.056,1.305,0.288c10.636,0.886,17.193,6.713,20.61,18.315
				c5.589,2.063,9.987,4.554,13.434,7.604c3.616,0.848,5.733,2.784,5.967,5.463c0.078,0.893-0.16,1.636-0.39,2.354
				c-0.239,0.747-0.465,1.455-0.304,2.29c0.252,0.36,0.31,0.963,0.31,1.438c0,0.46-0.055,1.04-0.29,1.401
				c-0.214,1.986-0.75,3.772-1.635,5.444c1.814,2.216,2.186,4.958,1.01,7.576c-1.221,2.722-3.834,4.622-6.354,4.622h0
				c-1.8,0-3.378-0.972-4.48-2.749c-0.646,0.232-1.274,0.497-1.885,0.754c-1.376,0.579-2.794,1.177-4.521,1.468
				c0.138,0.579,0.28,1.153,0.422,1.729c0.828,3.349,1.685,6.811,1.662,11.106c0.365,0.729,0.364,2.404-0.002,3.129
				c-0.055,4.201-0.654,8.065-1.832,11.79c3.436,1.029,5.781,5.597,5.476,9.001c-0.274,3.055-2.395,4.809-5.818,4.817
				c-0.018,1.099-0.387,2.104-1.083,2.934c-1.076,1.284-2.934,2.13-5.098,2.319L1196.095,1531.196L1196.095,1531.196z
				 M1159.504,1524.89l-0.018,0.557c-0.105,3.26,1.949,4.259,5.065,4.756l2.555-0.006c6.333-0.894,9.314-3.592,9.596-8.744
				l0.025-0.473h7.338l0,0.501c-0.007,5.148,2.732,7.676,9.453,8.722l2.533-0.006c1.893-0.17,3.495-0.885,4.398-1.964
				c0.646-0.771,0.927-1.699,0.833-2.759l-0.051-0.57l0.573,0.027c0.16,0.007,0.317,0.011,0.469,0.011
				c3.912,0,4.716-2.447,4.848-3.906c0.283-3.152-2.065-7.491-5.21-8.061l-0.566-0.103l0.181-0.547
				c1.268-3.824,1.905-7.795,1.949-12.138l0.002-0.175l0.11-0.135c0.216-0.311,0.216-1.914-0.002-2.227l-0.092-0.131l-0.018-0.186
				c0.042-4.234-0.809-7.673-1.632-10.998c-0.186-0.753-0.373-1.507-0.55-2.27l-0.125-0.541l0.55-0.068
				c1.843-0.23,3.283-0.837,4.807-1.479c0.748-0.314,1.521-0.64,2.338-0.914l0.396-0.132l0.201,0.365
				c0.936,1.699,2.257,2.598,3.818,2.598c2.105,0,4.395-1.695,5.443-4.031c1.055-2.351,0.663-4.818-1.075-6.771l-0.237-0.266
				l0.174-0.311c0.939-1.68,1.494-3.482,1.695-5.511l0.02-0.202l0.155-0.131c0.135-0.225,0.135-1.427-0.031-1.683l-0.126-0.107
				l-0.007-0.129c-0.269-1.153,0.034-2.1,0.301-2.935c0.209-0.653,0.406-1.271,0.346-1.962c-0.25-2.872-3.03-4.089-5.317-4.604
				l-0.126-0.028l-0.097-0.086c-3.413-3.048-7.811-5.529-13.444-7.584l-0.239-0.087l-0.07-0.244
				c-3.284-11.373-9.628-17.047-19.968-17.854l-0.246-0.019l-0.134-0.207c0.004,0.031-0.26-0.045-0.678-0.045
				c-0.421,0-0.682,0.074-0.736,0.108l-0.137,0.21l-0.193-0.047c-5.845,0.374-10.56,2.354-14.837,6.234l-0.112,0.103l-0.15,0.021
				c-5.774,0.859-7.712,5.971-9.956,11.891c-0.476,1.255-0.968,2.553-1.508,3.83c-0.496,1.173-1.046,2.36-1.628,3.618
				c-3.202,6.91-6.832,14.741-1.51,21.556c2.384,3.052,5.469,4.132,9.738,5.627l1.491,0.524l-0.183,0.479
				c-1.298,3.399-2.174,7.343-2.604,11.72l-0.066,0.679l-0.627-0.268c-1.769-0.756-2.502-3.647-3.278-6.708
				c-0.708-2.788-1.438-5.67-2.855-6.234c-1.276-0.509-2.172-0.44-2.697,0.259c-1.008,1.343-0.67,4.703,0.071,7.257
				c1.591,5.479,3.442,8.885,6.302,13.251c0.563,0.861,1.135,1.623,1.688,2.358c1.477,1.966,2.872,3.822,3.433,6.822l0.097,0.518
				l-0.522,0.069c-3.021,0.404-5.344,4.732-5.127,7.992c0.099,1.489,0.823,3.987,4.56,3.987c0.219,0,0.446-0.008,0.682-0.026
				L1159.504,1524.89L1159.504,1524.89z"/>
		</g>
		<g>
			<g>
				<path fill-rule="evenodd" clip-rule="evenodd" fill="#221F1F" d="M1164.472,1530.696c-3.091-0.493-5.605-1.563-5.486-5.267
					c-9.38,0.704-5.815-12.199-0.219-12.947c-0.741-3.96-2.939-5.777-5.048-8.998c-2.815-4.299-4.724-7.735-6.364-13.386
					c-0.954-3.288-1.782-10.143,3.292-8.12c3.264,1.302,3.022,11.613,6.145,12.947c0.432-4.396,1.3-8.355,2.634-11.85
					c-4.874-1.721-8.312-2.737-10.973-6.145c-6.476-8.292-0.227-17.871,3.072-25.676c3.054-7.224,4.495-14.927,11.851-16.021
					c3.758-3.409,8.404-5.933,15.142-6.363c0.731,0,1.463,0,2.194,0c11.941,0.933,17.525,8.224,20.409,18.214
					c5.199,1.896,9.858,4.333,13.606,7.681c2.81,0.633,5.448,2.1,5.706,5.048c0.152,1.745-1.093,2.962-0.658,4.827
					c0,0.805,0,1.609,0,2.414c-0.224,2.264-0.864,4.111-1.756,5.706c6.007,6.751-4.722,16.54-8.998,8.778
					c-2.412,0.807-4.38,2.057-7.242,2.414c0.978,4.216,2.246,8.142,2.194,13.386c0,0.951,0,1.902,0,2.853
					c-0.048,4.707-0.791,8.719-1.975,12.29c5.755,1.043,9.203,13.397-0.22,12.947c0.278,3.127-2.431,4.979-5.706,5.267
					c-0.878,0-1.755,0-2.633,0c-5.507-0.857-9.884-2.845-9.875-9.217c-2.121,0-4.243,0-6.364,0
					c-0.333,6.104-4.45,8.425-10.095,9.217C1166.228,1530.696,1165.35,1530.696,1164.472,1530.696z M1181.37,1429.969
					c-6.569-0.57-12.239,1.659-15.581,5.048c7.322,0.864,8.126,10.129,10.095,17.336c1.654,6.053,4.281,11.165,4.169,16.898
					c-0.185,9.547-7.502,14.435-18.434,13.166c-1.506,4.127-2.846,8.419-2.853,14.045c0.211,1.246,0.696,3.891-0.289,3.121
					c-2.634-3.071-4.951-7.757-6.295-12.118c-0.559-1.928-0.494-4.479-2.853-4.608c-1.837,1.377-0.509,5.479,0,7.242
					c1.229,3.927,2.868,6.86,4.608,9.875c2.576,4.462,6.061,7.656,7.022,13.386c-0.777,0.028-1.249,0.36-1.756,0.659
					c-1.173,0.655-2.309,1.349-2.853,2.633c-2.82,2.833-1.196,9.068,4.389,7.461c4.827-8.777,3.33-13.727,3.511-17.336
					c0-1.244-0.4-11.631,1.317-12.509c0.058,1.039,0.503,1.691,0.438,2.853c0,1.244-0.301,13.817-0.438,14.484
					c0.941,7.09-3.582,9.873-3.292,15.58c4.627,2.492,12.193,0.949,12.728-4.169c0.349-3.337-1.262-6.665-0.877-10.753
					c-0.138-0.667-0.22-7.607-0.22-8.998c0.078-1.02,0.095-2.1,0.658-2.633c0.142,1.103,0.582,1.905,0.659,3.072
					c0.142,1.028,0.481,14.148,1.097,16.678c0.547-0.185,1.176-0.287,1.975-0.219c1.829,0,3.657,0,5.486,0c0.512,0,1.024,0,1.536,0
					c0.289-2.271,0.959-16.012,1.097-16.679c0.175-1.067,0.384-2.103,0.878-2.853c0.592,0.871,0.579,5.553,0.438,6.364
					c0.329,5.049-1.45,11.27-1.316,15.8c0.09,3.052,4.037,5.165,7.022,5.486c10.829,1.167,3.861-5.84,2.853-10.533
					c-0.547-2.547-0.076-4.478-0.438-7.462c-0.142-0.955-1.063-16.329-0.22-17.556c0.878,1.17,1.429,3.225,1.534,5.38
					c0.047,0.966,0.116,5.792,0.441,15.248c0.187,5.432,2.178,7.039,3.072,10.753c10.003,1.455,5.543-10.61,0.219-10.972
					c0.884-3.651,1.64-6.825,1.64-11.411c0-3.552-0.73-14.224-2.078-17.775c-2.692,0.453-5.523,0.768-8.778,0.658
					c-2.272-0.508-5.746,0.187-7.022-1.317c2.273-0.474,5.309,0.443,8.339,0.439c4.011-0.006,8.134-0.87,11.192-1.756
					c2.187-0.726-2.163-0.348-3.292-0.438c-2.102-0.426-9.7-1.089-9.436-3.512c0.202-1.853,4.188-1.412,6.583-1.756
					c9.604-1.376,18.79-4.158,20.848-11.631c-1.927,0.871-3.768,2.227-6.364,2.195c-9.18-0.111-8.039-12.021,0.22-12.07
					c-2.502-2.839-7.343-5.238-12.07-6.583c-0.389-0.709-0.658-1.536-0.878-2.414c-4.998,3.726-9.405-4.912-1.975-4.39
					c-3.067-6.076-7.745-10.542-16.02-11.411C1181.663,1429.969,1181.516,1429.969,1181.37,1429.969z M1178.737,1467.495
					c-0.672-6.439-2.829-10.576-4.608-17.557c-1.305-5.113-2.512-12.404-7.022-13.605c-9.301-2.476-11.293,9.442-13.387,14.483
					c-2.418,5.823-6.976,11.248-6.145,18.653c1.724,15.354,30.733,16.689,31.162,1.098
					C1179.101,1470.046,1179.101,1468.017,1178.737,1467.495z M1196.731,1444.014c-0.049-0.415,0.248-0.484,0.219-0.878
					c-0.069-0.515-0.679-0.491-0.877-0.878C1193.971,1442.233,1194.813,1445.216,1196.731,1444.014z M1207.923,1459.814
					c3.59,1.114,8.844-0.91,9.217-3.73C1213.589,1455.172,1209.2,1457.011,1207.923,1459.814z"/>
			</g>
			<g>
				<path fill-rule="evenodd" clip-rule="evenodd" fill="#221F1F" d="M1179.615,1443.575c2.594-0.408,4.801,0.48,5.047,2.414
					c0.583,4.57-7.955,4.294-8.12,0.658C1176.479,1445.251,1177.541,1443.901,1179.615,1443.575z M1178.078,1445.989
					c0.518,0.44,1.469,0.578,2.195,0.219C1181.518,1444.12,1177.554,1443.399,1178.078,1445.989z"/>
			</g>
			<g>
				<path fill-rule="evenodd" clip-rule="evenodd" fill="#595959" d="M1176.323,1465.081c2.07,10.072-5.65,15.247-16.239,13.387
					C1166.636,1475.146,1172.745,1471.378,1176.323,1465.081z"/>
			</g>
			<g>
				<path fill-rule="evenodd" clip-rule="evenodd" fill="#595959" d="M1178.737,1467.495c0.364,0.521,0.364,2.551,0,3.072
					C1178.737,1469.543,1178.737,1468.519,1178.737,1467.495z"/>
			</g>
			<g>
				<path fill-rule="evenodd" clip-rule="evenodd" fill="#595959" d="M1212.971,1475.176c1.692,1.307,2.964,3.034,3.292,5.705
					C1215.495,1478.649,1214.116,1477.03,1212.971,1475.176z"/>
			</g>
			<g>
				<path fill-rule="evenodd" clip-rule="evenodd" fill="#828282" d="M1158.767,1496.462c0.006-5.626,1.346-9.918,2.853-14.045
					c10.932,1.269,18.249-3.619,18.434-13.166c0.111-5.733-2.516-10.846-4.169-16.898c-1.969-7.207-2.773-16.472-10.095-17.336
					c3.342-3.389,9.012-5.618,15.581-5.048c-0.366,0-0.731,0-1.097,0c2.683,5.364,7.239,10.756,8.778,17.995
					c0,0.731,0,1.463,0,2.194c-0.108,1.429-0.947,2.126-1.536,3.072c-1.116,0.933-2.14,1.957-3.072,3.072
					c-1.26,1.666-2.534,3.319-2.853,5.925c-0.365,0.884-0.365,3.287,0,4.17c1,6.792,7.493,16.797-2.853,18.215
					c-1.317,0-2.634,0-3.95,0c-0.146,0-0.292,0-0.439,0c-0.307-0.364-2.106-0.364-2.414,0c-4.44,0.645-7.332,5.054-6.364,9.655
					c-1.236,1.178-1.177,7.967-1.317,8.778c0,1.243,1.663,13.605-3.511,21.066c-5.585,1.607-7.521-4.884-4.701-7.717
					c0.781-0.904,2.757-2.563,4.921-3.036c-0.961-5.729-4.447-8.924-7.022-13.386c-1.74-3.015-3.38-5.948-4.608-9.875
					c0.961-0.038,1.938-1.831,2.853-2.634c1.344,4.361,3.291,8.121,5.925,11.192c0,0.072,0,0.146,0,0.219
					C1159.213,1499.709,1158.621,1497.285,1158.767,1496.462z M1176.542,1446.647c0.165,3.636,8.702,3.912,8.12-0.658
					c-0.246-1.934-2.453-2.822-5.047-2.414C1177.541,1443.901,1176.479,1445.251,1176.542,1446.647z"/>
			</g>
			<g>
				<path fill-rule="evenodd" clip-rule="evenodd" fill="#A5A5A5" d="M1184.442,1456.303c0.932-1.115,1.957-2.14,3.072-3.072
					C1186.583,1454.347,1185.558,1455.37,1184.442,1456.303z"/>
			</g>
			<g>
				<path fill-rule="evenodd" clip-rule="evenodd" fill="#828282" d="M1200.682,1448.184c-11.756-0.606-13.659-11.065-18.873-18.215
					c8.274,0.869,12.952,5.335,16.02,11.411c-7.43-0.522-3.023,8.115,1.975,4.39
					C1200.023,1446.647,1200.293,1447.475,1200.682,1448.184z"/>
			</g>
			<g>
				<path fill-rule="evenodd" clip-rule="evenodd" fill="#CDCDCD" d="M1189.051,1447.964c0.363,0.236,0.363,1.958,0,2.194
					C1189.051,1449.427,1189.051,1448.695,1189.051,1447.964z"/>
			</g>
			<g>
				<path fill-rule="evenodd" clip-rule="evenodd" fill="#828282" d="M1217.14,1473.859c1.775,2.479,1.04,6.701-0.658,7.899
					c-4.234,2.988-6.347-3.236-8.778-5.047c2.551-0.813,2.839-1.032,5.022-2.072c0.479-0.229,2.587-1.729,3.097-1.878
					C1216.401,1472.989,1216.741,1473.303,1217.14,1473.859z M1216.262,1480.881c-0.327-2.671-1.599-4.398-3.292-5.705
					C1214.116,1477.03,1215.495,1478.649,1216.262,1480.881z"/>
			</g>
			<g>
				<path fill-rule="evenodd" clip-rule="evenodd" fill="#CDCDCD" d="M1171.934,1484.612c0.307-0.364,2.106-0.364,2.414,0
					C1173.543,1484.612,1172.738,1484.612,1171.934,1484.612z"/>
			</g>
			<g>
				<path fill-rule="evenodd" clip-rule="evenodd" fill="#828282" d="M1195.634,1492.731c-0.576-3.447-2.308-5.738-3.95-8.119
					c3.255,0.109,6.086-0.205,8.778-0.658c1.348,3.552,2.369,7.432,2.414,12.289c0,1.755,0,3.511,0,5.267
					c0.051,4.586-1.091,7.979-1.975,11.631c5.324,0.361,9.784,12.427-0.219,10.972c-0.895-3.714-3.629-5.587-3.072-10.753
					C1197.198,1499.048,1196.513,1493.901,1195.634,1492.731z"/>
			</g>
			<g>
				<path fill-rule="evenodd" clip-rule="evenodd" fill="#CDCDCD" d="M1181.589,1462.228c0,1.391,0,2.78,0,4.17
					C1181.225,1465.515,1181.225,1463.111,1181.589,1462.228z"/>
			</g>
			<g>
				<path fill-rule="evenodd" clip-rule="evenodd" fill="#A5A5A5" d="M1174.787,1484.612c1.316,0,2.633,0,3.95,0
					C1177.926,1484.977,1175.598,1484.977,1174.787,1484.612z"/>
			</g>
			<g>
				<path fill-rule="evenodd" clip-rule="evenodd" fill="#828282" d="M1178.737,1470.567c-0.429,15.592-29.438,14.256-31.162-1.098
					c-0.831-7.405,3.726-12.83,6.145-18.653c2.094-5.041,4.086-16.959,13.387-14.483c4.511,1.201,5.718,8.492,7.022,13.605
					c1.78,6.98,3.936,11.117,4.608,17.557C1178.737,1468.519,1178.737,1469.543,1178.737,1470.567z M1160.083,1478.468
					c10.589,1.86,18.31-3.314,16.239-13.387C1172.745,1471.378,1166.636,1475.146,1160.083,1478.468z"/>
			</g>
		</g>
	</g>
	<g>
		<path fill="#FFFFFF" d="M1086.01,1545.274h4.888c2.227,0,3.844,0.316,4.85,0.951c1.006,0.633,1.509,1.642,1.509,3.023
			c0,0.938-0.22,1.708-0.661,2.31s-1.026,0.963-1.756,1.085v0.107c0.995,0.222,1.713,0.638,2.154,1.246s0.661,1.418,0.661,2.428
			c0,1.433-0.518,2.55-1.552,3.352c-1.035,0.802-2.44,1.203-4.216,1.203h-5.876V1545.274z M1089.34,1551.494h1.934
			c0.902,0,1.556-0.14,1.96-0.419c0.404-0.279,0.607-0.741,0.607-1.386c0-0.602-0.22-1.033-0.661-1.294
			c-0.44-0.262-1.137-0.393-2.089-0.393h-1.751V1551.494z M1089.34,1554.137v4.093h2.17c0.917,0,1.593-0.176,2.03-0.526
			c0.437-0.351,0.655-0.888,0.655-1.611c0-1.304-0.931-1.955-2.793-1.955H1089.34z"/>
		<path fill="#FFFFFF" d="M1105.969,1561.194c-1.934,0-3.445-0.533-4.533-1.601c-1.089-1.067-1.633-2.578-1.633-4.533
			c0-2.013,0.503-3.568,1.509-4.667c1.006-1.1,2.397-1.649,4.173-1.649c1.697,0,3.019,0.483,3.964,1.45s1.418,2.303,1.418,4.007
			v1.59h-7.745c0.036,0.931,0.312,1.658,0.827,2.181s1.239,0.784,2.17,0.784c0.723,0,1.407-0.075,2.052-0.226s1.317-0.391,2.02-0.72
			v2.535c-0.573,0.286-1.186,0.499-1.837,0.64C1107.702,1561.124,1106.907,1561.194,1105.969,1561.194z M1105.507,1551.075
			c-0.695,0-1.239,0.221-1.633,0.66c-0.394,0.441-0.62,1.065-0.677,1.875h4.598c-0.015-0.81-0.226-1.434-0.634-1.875
			C1106.753,1551.296,1106.202,1551.075,1105.507,1551.075z"/>
		<path fill="#FFFFFF" d="M1121.159,1560.979l-0.634-1.633h-0.086c-0.552,0.694-1.119,1.176-1.703,1.445
			c-0.584,0.268-1.345,0.402-2.283,0.402c-1.153,0-2.061-0.329-2.723-0.988c-0.663-0.659-0.994-1.597-0.994-2.814
			c0-1.274,0.446-2.215,1.337-2.82c0.892-0.604,2.236-0.939,4.034-1.004l2.084-0.064v-0.526c0-1.218-0.623-1.826-1.869-1.826
			c-0.96,0-2.088,0.29-3.384,0.87l-1.085-2.213c1.382-0.724,2.915-1.085,4.598-1.085c1.611,0,2.847,0.351,3.706,1.053
			s1.289,1.769,1.289,3.201v8.003H1121.159z M1120.192,1555.415l-1.268,0.043c-0.953,0.028-1.662,0.2-2.127,0.516
			c-0.466,0.315-0.698,0.795-0.698,1.439c0,0.924,0.53,1.386,1.59,1.386c0.759,0,1.366-0.219,1.821-0.655
			c0.455-0.437,0.682-1.017,0.682-1.74V1555.415z"/>
		<path fill="#FFFFFF" d="M1137.272,1548.97v1.665l-1.88,0.483c0.344,0.537,0.516,1.139,0.516,1.805c0,1.289-0.45,2.293-1.348,3.014
			c-0.899,0.719-2.147,1.079-3.744,1.079l-0.591-0.032l-0.483-0.054c-0.337,0.258-0.505,0.544-0.505,0.859
			c0,0.473,0.602,0.709,1.805,0.709h2.041c1.317,0,2.322,0.283,3.013,0.849c0.691,0.565,1.037,1.396,1.037,2.492
			c0,1.403-0.585,2.492-1.756,3.266s-2.852,1.16-5.043,1.16c-1.676,0-2.956-0.292-3.84-0.875c-0.885-0.584-1.327-1.402-1.327-2.455
			c0-0.724,0.226-1.328,0.677-1.815s1.113-0.834,1.987-1.042c-0.337-0.144-0.63-0.378-0.881-0.703
			c-0.251-0.326-0.376-0.672-0.376-1.037c0-0.458,0.132-0.84,0.397-1.145c0.265-0.304,0.648-0.603,1.149-0.896
			c-0.63-0.272-1.13-0.709-1.499-1.311c-0.369-0.602-0.553-1.311-0.553-2.127c0-1.311,0.426-2.324,1.278-3.04
			c0.852-0.716,2.069-1.074,3.652-1.074c0.336,0,0.736,0.03,1.198,0.091c0.462,0.062,0.757,0.106,0.886,0.135H1137.272z
			 M1128.001,1562.677c0,0.451,0.216,0.806,0.65,1.063c0.433,0.258,1.04,0.387,1.821,0.387c1.174,0,2.095-0.161,2.761-0.483
			s0.999-0.763,0.999-1.321c0-0.451-0.197-0.763-0.591-0.935c-0.394-0.172-1.003-0.258-1.826-0.258h-1.697
			c-0.602,0-1.105,0.142-1.509,0.424C1128.204,1561.837,1128.001,1562.211,1128.001,1562.677z M1129.194,1552.901
			c0,0.651,0.148,1.167,0.446,1.547c0.297,0.38,0.75,0.569,1.359,0.569c0.616,0,1.067-0.189,1.354-0.569
			c0.286-0.38,0.43-0.896,0.43-1.547c0-1.446-0.595-2.17-1.783-2.17C1129.795,1550.731,1129.194,1551.455,1129.194,1552.901z"/>
		<path fill="#FFFFFF" d="M1142.525,1560.979h-3.276v-16.715h3.276V1560.979z"/>
		<path fill="#FFFFFF" d="M1151.398,1561.194c-1.934,0-3.445-0.533-4.533-1.601c-1.089-1.067-1.633-2.578-1.633-4.533
			c0-2.013,0.503-3.568,1.509-4.667c1.006-1.1,2.397-1.649,4.173-1.649c1.697,0,3.019,0.483,3.964,1.45s1.418,2.303,1.418,4.007
			v1.59h-7.745c0.036,0.931,0.312,1.658,0.827,2.181s1.239,0.784,2.17,0.784c0.723,0,1.407-0.075,2.052-0.226s1.317-0.391,2.02-0.72
			v2.535c-0.573,0.286-1.186,0.499-1.837,0.64C1153.131,1561.124,1152.336,1561.194,1151.398,1561.194z M1150.936,1551.075
			c-0.695,0-1.239,0.221-1.633,0.66c-0.394,0.441-0.62,1.065-0.677,1.875h4.598c-0.015-0.81-0.226-1.434-0.634-1.875
			C1152.182,1551.296,1151.63,1551.075,1150.936,1551.075z"/>
		<path fill="#FFFFFF" d="M1159.218,1545.274h4.888c2.227,0,3.844,0.316,4.85,0.951c1.006,0.633,1.509,1.642,1.509,3.023
			c0,0.938-0.22,1.708-0.661,2.31s-1.026,0.963-1.756,1.085v0.107c0.995,0.222,1.713,0.638,2.154,1.246s0.661,1.418,0.661,2.428
			c0,1.433-0.518,2.55-1.552,3.352c-1.035,0.802-2.44,1.203-4.216,1.203h-5.876V1545.274z M1162.548,1551.494h1.934
			c0.902,0,1.556-0.14,1.96-0.419c0.404-0.279,0.607-0.741,0.607-1.386c0-0.602-0.22-1.033-0.661-1.294
			c-0.44-0.262-1.137-0.393-2.089-0.393h-1.751V1551.494z M1162.548,1554.137v4.093h2.17c0.917,0,1.593-0.176,2.03-0.526
			c0.437-0.351,0.655-0.888,0.655-1.611c0-1.304-0.931-1.955-2.793-1.955H1162.548z"/>
		<path fill="#FFFFFF" d="M1184.656,1554.953c0,1.955-0.516,3.484-1.547,4.587s-2.467,1.654-4.308,1.654
			c-1.153,0-2.17-0.252-3.051-0.758c-0.881-0.504-1.558-1.229-2.03-2.175s-0.709-2.048-0.709-3.309c0-1.962,0.512-3.487,1.536-4.576
			c1.024-1.089,2.463-1.633,4.318-1.633c1.153,0,2.17,0.251,3.051,0.752s1.558,1.221,2.03,2.159
			S1184.656,1553.692,1184.656,1554.953z M1176.352,1554.953c0,1.188,0.195,2.088,0.585,2.696c0.39,0.608,1.026,0.913,1.907,0.913
			c0.874,0,1.502-0.303,1.885-0.907c0.383-0.605,0.575-1.506,0.575-2.702c0-1.188-0.193-2.08-0.58-2.675s-1.021-0.892-1.901-0.892
			c-0.874,0-1.504,0.296-1.891,0.886C1176.545,1552.864,1176.352,1553.757,1176.352,1554.953z"/>
		<path fill="#FFFFFF" d="M1198.449,1560.979h-3.276v-7.015c0-0.866-0.154-1.517-0.462-1.95c-0.308-0.433-0.799-0.649-1.472-0.649
			c-0.917,0-1.579,0.306-1.987,0.919c-0.408,0.611-0.612,1.627-0.612,3.045v5.65h-3.276v-12.01h2.503l0.44,1.536h0.183
			c0.365-0.58,0.868-1.019,1.509-1.315c0.641-0.298,1.37-0.446,2.186-0.446c1.396,0,2.456,0.378,3.18,1.134
			c0.723,0.755,1.085,1.846,1.085,3.271V1560.979z"/>
		<path fill="#FFFFFF" d="M1207.257,1561.194c-1.934,0-3.445-0.533-4.533-1.601c-1.089-1.067-1.633-2.578-1.633-4.533
			c0-2.013,0.503-3.568,1.509-4.667c1.006-1.1,2.397-1.649,4.173-1.649c1.697,0,3.019,0.483,3.964,1.45s1.418,2.303,1.418,4.007
			v1.59h-7.745c0.036,0.931,0.312,1.658,0.827,2.181s1.239,0.784,2.17,0.784c0.723,0,1.407-0.075,2.052-0.226s1.317-0.391,2.02-0.72
			v2.535c-0.573,0.286-1.186,0.499-1.837,0.64C1208.99,1561.124,1208.195,1561.194,1207.257,1561.194z M1206.795,1551.075
			c-0.695,0-1.239,0.221-1.633,0.66c-0.394,0.441-0.62,1.065-0.677,1.875h4.598c-0.015-0.81-0.226-1.434-0.634-1.875
			C1208.042,1551.296,1207.49,1551.075,1206.795,1551.075z"/>
		<path fill="#FFFFFF" d="M1220.792,1545.274h4.888c2.227,0,3.844,0.316,4.85,0.951c1.006,0.633,1.509,1.642,1.509,3.023
			c0,0.938-0.22,1.708-0.661,2.31s-1.026,0.963-1.756,1.085v0.107c0.995,0.222,1.713,0.638,2.154,1.246s0.661,1.418,0.661,2.428
			c0,1.433-0.518,2.55-1.552,3.352c-1.035,0.802-2.44,1.203-4.216,1.203h-5.876V1545.274z M1224.123,1551.494h1.934
			c0.902,0,1.556-0.14,1.96-0.419c0.404-0.279,0.607-0.741,0.607-1.386c0-0.602-0.22-1.033-0.661-1.294
			c-0.44-0.262-1.137-0.393-2.089-0.393h-1.751V1551.494z M1224.123,1554.137v4.093h2.17c0.917,0,1.593-0.176,2.03-0.526
			c0.437-0.351,0.655-0.888,0.655-1.611c0-1.304-0.931-1.955-2.793-1.955H1224.123z"/>
		<path fill="#FFFFFF" d="M1238.592,1560.979h-3.276v-16.715h3.276V1560.979z"/>
		<path fill="#FFFFFF" d="M1249.657,1560.979l-0.634-1.633h-0.086c-0.552,0.694-1.119,1.176-1.703,1.445
			c-0.584,0.268-1.345,0.402-2.283,0.402c-1.153,0-2.061-0.329-2.723-0.988c-0.663-0.659-0.994-1.597-0.994-2.814
			c0-1.274,0.446-2.215,1.337-2.82c0.892-0.604,2.236-0.939,4.034-1.004l2.084-0.064v-0.526c0-1.218-0.623-1.826-1.869-1.826
			c-0.96,0-2.088,0.29-3.384,0.87l-1.085-2.213c1.382-0.724,2.915-1.085,4.598-1.085c1.611,0,2.847,0.351,3.706,1.053
			s1.289,1.769,1.289,3.201v8.003H1249.657z M1248.69,1555.415l-1.268,0.043c-0.953,0.028-1.662,0.2-2.127,0.516
			c-0.466,0.315-0.698,0.795-0.698,1.439c0,0.924,0.53,1.386,1.59,1.386c0.759,0,1.366-0.219,1.821-0.655
			c0.455-0.437,0.682-1.017,0.682-1.74V1555.415z"/>
		<path fill="#FFFFFF" d="M1260.195,1561.194c-3.738,0-5.607-2.052-5.607-6.155c0-2.041,0.508-3.601,1.525-4.679
			c1.017-1.077,2.474-1.616,4.372-1.616c1.389,0,2.635,0.272,3.738,0.816l-0.967,2.535c-0.516-0.208-0.996-0.378-1.439-0.511
			c-0.444-0.132-0.888-0.198-1.332-0.198c-1.705,0-2.557,1.21-2.557,3.631c0,2.349,0.852,3.523,2.557,3.523
			c0.63,0,1.214-0.084,1.751-0.253c0.537-0.168,1.074-0.431,1.611-0.789v2.804c-0.53,0.337-1.065,0.569-1.606,0.698
			C1261.7,1561.13,1261.018,1561.194,1260.195,1561.194z"/>
		<path fill="#FFFFFF" d="M1269.777,1554.448l1.429-1.826l3.362-3.652h3.695l-4.77,5.21l5.06,6.8h-3.781l-3.459-4.866l-1.407,1.128
			v3.738h-3.276v-16.715h3.276v7.455l-0.172,2.729H1269.777z"/>
	</g>
</g>
</svg>
