<?xml version="1.0" encoding="utf-8"?>
<!-- Generator: Adobe Illustrator 14.0.0, SVG Export Plug-In . SVG Version: 6.00 Build 43363)  -->
<!DOCTYPE svg PUBLIC "-//W3C//DTD SVG 1.1//EN" "http://www.w3.org/Graphics/SVG/1.1/DTD/svg11.dtd">
<svg version="1.1" id="Слой_1" xmlns="http://www.w3.org/2000/svg" xmlns:xlink="http://www.w3.org/1999/xlink" x="0px" y="0px"
	 width="2834.65px" height="2834.65px" viewBox="0 0 2834.65 2834.65" enable-background="new 0 0 2834.65 2834.65"
	 xml:space="preserve">
<g>
	<g>
		<g>
			<g>
				<g>
					<path fill="#FFFFFF" d="M1282.837,673.172c0,3.261-2.667,5.928-5.928,5.928h-66.524c-3.261,0-5.928-2.667-5.928-5.928v-11.434
						c0-3.261,2.667-5.928,5.928-5.928h66.524c3.261,0,5.928,2.667,5.928,5.928V673.172z"/>
				</g>
			</g>
			<g>
				<g>
					<path fill="#221F1F" d="M1276.91,679.693h-66.524c-3.596,0-6.521-2.925-6.521-6.521v-11.434c0-3.596,2.925-6.521,6.521-6.521
						h66.524c3.596,0,6.521,2.925,6.521,6.521v11.434C1283.431,676.768,1280.505,679.693,1276.91,679.693L1276.91,679.693z
						 M1210.385,656.404c-2.942,0-5.335,2.393-5.335,5.335v11.434c0,2.942,2.393,5.335,5.335,5.335h66.524
						c2.942,0,5.336-2.393,5.336-5.335v-11.434c0-2.942-2.394-5.335-5.336-5.335H1210.385L1210.385,656.404z"/>
				</g>
			</g>
		</g>
		<g>
			<g>
				<g>
					<path fill="#FFFFFF" d="M1644.095,673.172c0,3.261-2.668,5.928-5.93,5.928h-66.523c-3.262,0-5.928-2.667-5.928-5.928v-11.434
						c0-3.261,2.666-5.928,5.928-5.928h66.523c3.262,0,5.93,2.667,5.93,5.928V673.172z"/>
				</g>
			</g>
			<g>
				<g>
					<path fill="#221F1F" d="M1638.165,679.693h-66.523c-3.596,0-6.521-2.925-6.521-6.521v-11.434c0-3.596,2.926-6.521,6.521-6.521
						h66.523c3.596,0,6.521,2.925,6.521,6.521v11.434C1644.687,676.768,1641.761,679.693,1638.165,679.693L1638.165,679.693z
						 M1571.642,656.404c-2.943,0-5.336,2.393-5.336,5.335v11.434c0,2.942,2.393,5.335,5.336,5.335h66.523
						c2.943,0,5.336-2.393,5.336-5.335v-11.434c0-2.942-2.393-5.335-5.336-5.335H1571.642L1571.642,656.404z"/>
				</g>
			</g>
		</g>
	</g>
	<g>
		<g>
			<g>
				<g>
					<g>
						<path fill="#FFFFFF" d="M1679.972,610.074c0,10.021-32.012,18.223-71.137,18.223h-369.119
							c-39.125,0-71.137-8.201-71.137-18.223s32.012-38.223,71.137-38.223h369.119
							C1647.96,571.851,1679.972,600.052,1679.972,610.074z"/>
					</g>
				</g>
				<g>
					<g>
						<path fill="#221F1F" d="M1608.835,628.889h-369.119c-40.223,0-71.729-8.265-71.729-18.815s31.507-38.815,71.729-38.815
							h369.119c40.223,0,71.73,28.265,71.73,38.815S1649.058,628.889,1608.835,628.889L1608.835,628.889z M1239.716,572.443
							c-38.239,0-70.544,28.074-70.544,37.63s32.305,17.63,70.544,17.63h369.119c38.238,0,70.545-8.073,70.545-17.63
							s-32.307-37.63-70.545-37.63H1239.716L1239.716,572.443z"/>
					</g>
				</g>
			</g>
			<g>
				<g>
					<g>
						<path fill="#FFFFFF" d="M1679.972,660.008c0,6.521-5.336,11.855-11.855,11.855h-487.681c-6.521,0-11.855-5.335-11.855-11.855
							v-47.251c0-6.521,5.335-11.856,11.855-11.856h487.681c6.52,0,11.855,5.335,11.855,11.856V660.008z"/>
					</g>
				</g>
				<g>
					<g>
						<path fill="#221F1F" d="M1668.116,672.457h-487.681c-6.863,0-12.448-5.584-12.448-12.448v-47.251
							c0-6.863,5.585-12.449,12.448-12.449h487.681c6.863,0,12.449,5.586,12.449,12.449v47.251
							C1680.565,666.873,1674.979,672.457,1668.116,672.457L1668.116,672.457z M1180.435,601.494
							c-6.21,0-11.263,5.053-11.263,11.264v47.251c0,6.21,5.053,11.263,11.263,11.263h487.681c6.211,0,11.264-5.053,11.264-11.263
							v-47.251c0-6.211-5.053-11.264-11.264-11.264H1180.435L1180.435,601.494z"/>
					</g>
				</g>
			</g>
			<g>
				<g>
					<rect x="1207.602" y="609.949" fill="#FFFFFF" width="433.346" height="52.868"/>
				</g>
				<g>
					<path fill="#221F1F" d="M1641.542,663.41h-434.533v-54.054h434.533V663.41L1641.542,663.41z M1208.195,662.224h432.162v-51.683
						h-432.162V662.224L1208.195,662.224z"/>
				</g>
			</g>
		</g>
		<g>
			<g>
				<g>
					<circle fill="#FFFFFF" cx="1605.992" cy="634.011" r="22.229"/>
				</g>
				<g>
					<path fill="#221F1F" d="M1605.991,656.833c-12.584,0-22.82-10.238-22.82-22.822s10.236-22.821,22.82-22.821
						s22.822,10.237,22.822,22.821S1618.575,656.833,1605.991,656.833L1605.991,656.833z M1605.991,612.375
						c-11.93,0-21.635,9.706-21.635,21.636c0,11.931,9.705,21.637,21.635,21.637c11.932,0,21.637-9.706,21.637-21.637
						C1627.628,622.082,1617.923,612.375,1605.991,612.375L1605.991,612.375z"/>
				</g>
			</g>
			<g>
				<g>
					<g>
						<g>
							<path fill="#FFFFFF" d="M1618.44,635.52c0,6.521-5.336,11.856-11.855,11.856h-1.186c-6.521,0-11.855-5.336-11.855-11.856
								V442.751c0-6.521,5.334-11.855,11.855-11.855h1.186c6.52,0,11.855,5.335,11.855,11.855V635.52z"/>
						</g>
					</g>
					<g>
						<g>
							<path fill="#221F1F" d="M1606.585,647.969h-1.186c-6.863,0-12.449-5.585-12.449-12.449V442.751
								c0-6.863,5.586-12.448,12.449-12.448h1.186c6.863,0,12.449,5.585,12.449,12.448V635.52
								C1619.034,642.384,1613.448,647.969,1606.585,647.969L1606.585,647.969z M1605.399,431.489
								c-6.211,0-11.264,5.053-11.264,11.263V635.52c0,6.211,5.053,11.264,11.264,11.264h1.186c6.211,0,11.264-5.053,11.264-11.264
								V442.751c0-6.21-5.053-11.263-11.264-11.263H1605.399L1605.399,431.489z"/>
						</g>
					</g>
				</g>
				<g>
					<g>
						<rect x="1593.544" y="469.089" fill="#646464" width="24.896" height="6.694"/>
					</g>
					<g>
						<path fill="#221F1F" d="M1619.034,476.376h-26.084v-7.881h26.084V476.376L1619.034,476.376z M1594.136,475.191h23.713v-5.51
							h-23.713V475.191L1594.136,475.191z"/>
					</g>
				</g>
			</g>
		</g>
	</g>
</g>
<g>
	<g>
		<g>
			<g>
				<rect x="1268.824" y="621.066" fill="#221F1F" width="37.148" height="24.44"/>
			</g>
		</g>
		<g>
			<g>
				<rect x="1277.134" y="639.88" fill="#221F1F" width="20.527" height="10.274"/>
			</g>
		</g>
		<g>
			<g>
				<rect x="1281.535" y="642.813" fill="#221F1F" width="11.728" height="10.274"/>
			</g>
		</g>
	</g>
	<g>
		<g>
			<g>
				<polygon fill="#FFFFFF" points="1279.488,634.015 1277.708,634.015 1277.708,623.75 1279.488,623.75 1279.488,634.015 				"/>
			</g>
		</g>
		<g>
			<g>
				<polygon fill="#FFFFFF" points="1283.887,634.015 1282.109,634.015 1282.109,623.75 1283.887,623.75 1283.887,634.015 				"/>
			</g>
		</g>
		<g>
			<g>
				<polygon fill="#FFFFFF" points="1288.287,634.015 1286.507,634.015 1286.507,623.75 1288.287,623.75 1288.287,634.015 				"/>
			</g>
		</g>
		<g>
			<g>
				<polygon fill="#FFFFFF" points="1292.685,634.015 1290.907,634.015 1290.907,623.75 1292.685,623.75 1292.685,634.015 				"/>
			</g>
		</g>
		<g>
			<g>
				<polygon fill="#FFFFFF" points="1297.085,634.015 1295.306,634.015 1295.306,623.75 1297.085,623.75 1297.085,634.015 				"/>
			</g>
		</g>
	</g>
</g>
<g>
	<g>
		<g>
			<g>
				<rect x="1315.96" y="621.066" fill="#221F1F" width="37.148" height="24.44"/>
			</g>
		</g>
		<g>
			<g>
				<rect x="1324.271" y="639.88" fill="#221F1F" width="20.527" height="10.274"/>
			</g>
		</g>
		<g>
			<g>
				<rect x="1328.671" y="642.813" fill="#221F1F" width="11.729" height="10.274"/>
			</g>
		</g>
	</g>
	<g>
		<g>
			<g>
				<polygon fill="#FFFFFF" points="1326.624,634.015 1324.845,634.015 1324.845,623.75 1326.624,623.75 1326.624,634.015 				"/>
			</g>
		</g>
		<g>
			<g>
				<polygon fill="#FFFFFF" points="1331.024,634.015 1329.245,634.015 1329.245,623.75 1331.024,623.75 1331.024,634.015 				"/>
			</g>
		</g>
		<g>
			<g>
				<polygon fill="#FFFFFF" points="1335.423,634.015 1333.644,634.015 1333.644,623.75 1335.423,623.75 1335.423,634.015 				"/>
			</g>
		</g>
		<g>
			<g>
				<polygon fill="#FFFFFF" points="1339.821,634.015 1338.044,634.015 1338.044,623.75 1339.821,623.75 1339.821,634.015 				"/>
			</g>
		</g>
		<g>
			<g>
				<polygon fill="#FFFFFF" points="1344.222,634.015 1342.442,634.015 1342.442,623.75 1344.222,623.75 1344.222,634.015 				"/>
			</g>
		</g>
	</g>
</g>
<g>
	<g>
		<g>
			<g>
				<rect x="1363.384" y="621.066" fill="#221F1F" width="37.148" height="24.44"/>
			</g>
		</g>
		<g>
			<g>
				<rect x="1371.694" y="639.88" fill="#221F1F" width="20.527" height="10.274"/>
			</g>
		</g>
		<g>
			<g>
				<rect x="1376.095" y="642.813" fill="#221F1F" width="11.729" height="10.274"/>
			</g>
		</g>
	</g>
	<g>
		<g>
			<g>
				<polygon fill="#FFFFFF" points="1374.048,634.015 1372.271,634.015 1372.271,623.75 1374.048,623.75 1374.048,634.015 				"/>
			</g>
		</g>
		<g>
			<g>
				<polygon fill="#FFFFFF" points="1378.448,634.015 1376.669,634.015 1376.669,623.75 1378.448,623.75 1378.448,634.015 				"/>
			</g>
		</g>
		<g>
			<g>
				<polygon fill="#FFFFFF" points="1382.847,634.015 1381.069,634.015 1381.069,623.75 1382.847,623.75 1382.847,634.015 				"/>
			</g>
		</g>
		<g>
			<g>
				<polygon fill="#FFFFFF" points="1387.245,634.015 1385.468,634.015 1385.468,623.75 1387.245,623.75 1387.245,634.015 				"/>
			</g>
		</g>
		<g>
			<g>
				<polygon fill="#FFFFFF" points="1391.646,634.015 1389.866,634.015 1389.866,623.75 1391.646,623.75 1391.646,634.015 				"/>
			</g>
		</g>
	</g>
</g>
<g>
	<g>
		<g>
			<g>
				<rect x="1410.808" y="621.066" fill="#221F1F" width="37.148" height="24.44"/>
			</g>
		</g>
		<g>
			<g>
				<rect x="1419.116" y="639.88" fill="#221F1F" width="20.529" height="10.274"/>
			</g>
		</g>
		<g>
			<g>
				<rect x="1423.517" y="642.813" fill="#221F1F" width="11.729" height="10.274"/>
			</g>
		</g>
	</g>
	<g>
		<g>
			<g>
				<polygon fill="#FFFFFF" points="1421.472,634.015 1419.692,634.015 1419.692,623.75 1421.472,623.75 1421.472,634.015 				"/>
			</g>
		</g>
		<g>
			<g>
				<polygon fill="#FFFFFF" points="1425.87,634.015 1424.093,634.015 1424.093,623.75 1425.87,623.75 1425.87,634.015 				"/>
			</g>
		</g>
		<g>
			<g>
				<polygon fill="#FFFFFF" points="1430.271,634.015 1428.491,634.015 1428.491,623.75 1430.271,623.75 1430.271,634.015 				"/>
			</g>
		</g>
		<g>
			<g>
				<polygon fill="#FFFFFF" points="1434.669,634.015 1432.89,634.015 1432.89,623.75 1434.669,623.75 1434.669,634.015 				"/>
			</g>
		</g>
		<g>
			<g>
				<polygon fill="#FFFFFF" points="1439.067,634.015 1437.29,634.015 1437.29,623.75 1439.067,623.75 1439.067,634.015 				"/>
			</g>
		</g>
	</g>
</g>
<g>
	<g>
		<g>
			<g>
				<rect x="1512.231" y="621.066" fill="#221F1F" width="37.148" height="24.44"/>
			</g>
		</g>
		<g>
			<g>
				<rect x="1520.542" y="639.88" fill="#221F1F" width="20.527" height="10.274"/>
			</g>
		</g>
		<g>
			<g>
				<rect x="1524.942" y="642.813" fill="#221F1F" width="11.729" height="10.274"/>
			</g>
		</g>
	</g>
	<g>
		<g>
			<g>
				<polygon fill="#FFFFFF" points="1522.896,634.015 1521.116,634.015 1521.116,623.75 1522.896,623.75 1522.896,634.015 				"/>
			</g>
		</g>
		<g>
			<g>
				<polygon fill="#FFFFFF" points="1527.294,634.015 1525.517,634.015 1525.517,623.75 1527.294,623.75 1527.294,634.015 				"/>
			</g>
		</g>
		<g>
			<g>
				<polygon fill="#FFFFFF" points="1531.694,634.015 1529.915,634.015 1529.915,623.75 1531.694,623.75 1531.694,634.015 				"/>
			</g>
		</g>
		<g>
			<g>
				<polygon fill="#FFFFFF" points="1536.093,634.015 1534.315,634.015 1534.315,623.75 1536.093,623.75 1536.093,634.015 				"/>
			</g>
		</g>
		<g>
			<g>
				<polygon fill="#FFFFFF" points="1540.491,634.015 1538.714,634.015 1538.714,623.75 1540.491,623.75 1540.491,634.015 				"/>
			</g>
		</g>
	</g>
</g>
<g>
	<g>
		<g>
			<circle fill="#221F1F" cx="1240.93" cy="636.382" r="14.228"/>
		</g>
	</g>
	<g>
		<g>
			<circle fill="#FFFFFF" cx="1240.93" cy="636.382" r="3.545"/>
		</g>
	</g>
</g>
<g>
	<g>
		<g>
			<g>
				<g>
					<path fill="#FFFFFF" d="M1548.659,629.385c0-1.304-1.066-2.371-2.371-2.371h-31.27c-1.305,0-2.371,1.067-2.371,2.371v18.948
						c0,1.305,1.066,2.371,2.371,2.371h31.27c1.305,0,2.371-1.066,2.371-2.371V629.385z"/>
				</g>
			</g>
			<g>
				<g>
					<path fill="#221F1F" d="M1546.288,651.298h-31.27c-1.635,0-2.965-1.33-2.965-2.965v-18.948c0-1.634,1.33-2.964,2.965-2.964
						h31.27c1.635,0,2.963,1.33,2.963,2.964v18.948C1549.251,649.968,1547.923,651.298,1546.288,651.298L1546.288,651.298z
						 M1515.019,627.607c-0.98,0-1.777,0.797-1.777,1.778v18.948c0,0.98,0.797,1.779,1.777,1.779h31.27
						c0.98,0,1.777-0.799,1.777-1.779v-18.948c0-0.981-0.797-1.778-1.777-1.778H1515.019L1515.019,627.607z"/>
				</g>
			</g>
		</g>
		<g>
			<g>
				<polygon fill="#FFFFFF" points="1548.659,627.014 1512.647,627.014 1516.438,624.17 1544.868,624.17 				"/>
			</g>
			<g>
				<path fill="#221F1F" d="M1548.659,627.607h-36.012c-0.256,0-0.482-0.164-0.563-0.405c-0.08-0.242,0.002-0.509,0.207-0.662
					l3.791-2.843c0.102-0.078,0.227-0.119,0.355-0.119h28.43c0.129,0,0.254,0.041,0.355,0.119l3.791,2.843
					c0.205,0.153,0.287,0.42,0.207,0.662C1549.142,627.443,1548.915,627.607,1548.659,627.607L1548.659,627.607z M1514.425,626.421
					h32.457l-2.211-1.658h-28.035L1514.425,626.421L1514.425,626.421z"/>
			</g>
		</g>
	</g>
	<g>
		<g>
			<g>
				<path fill="#FFFFFF" d="M1542.687,632.276h-24.066c-1.305,0-2.371,1.069-2.371,2.372v8.422c0,1.303,1.066,2.371,2.371,2.371
					h6.449V861.34c0,3.26,2.512,5.928,5.584,5.928s5.584-2.668,5.584-5.928V645.441h6.449c1.305,0,2.371-1.068,2.371-2.371v-8.422
					C1545.058,633.345,1543.991,632.276,1542.687,632.276z"/>
			</g>
			<g>
				<path fill="#221F1F" d="M1530.653,867.861c-3.406,0-6.178-2.926-6.178-6.521V646.033h-5.855c-1.635,0-2.965-1.329-2.965-2.963
					v-8.422c0-1.634,1.33-2.963,2.965-2.963h24.066c1.635,0,2.965,1.329,2.965,2.963v8.422c0,1.634-1.33,2.963-2.965,2.963h-5.855
					V861.34C1536.831,864.935,1534.06,867.861,1530.653,867.861L1530.653,867.861z M1518.62,632.871
					c-0.98,0-1.779,0.797-1.779,1.777v8.422c0,0.98,0.799,1.777,1.779,1.777h7.041V861.34c0,2.941,2.24,5.335,4.992,5.335
					s4.992-2.394,4.992-5.335V644.847h7.041c0.98,0,1.779-0.797,1.779-1.777v-8.422c0-0.98-0.799-1.777-1.779-1.777H1518.62
					L1518.62,632.871z"/>
			</g>
		</g>
		<g>
			<g>
				<path fill="#CFD0CB" d="M1679.337,873.375c0-16.453-13.336-29.787-29.787-29.787c-0.525,0-1.041,0.052-1.561,0.077
					c-5.68-22.76-26.254-39.624-50.771-39.624c-9.727,0-18.828,2.663-26.631,7.285c-6.926-15.036-22.119-25.479-39.76-25.479
					c-17.904,0-33.287,10.755-40.064,26.154c-6.262-2.678-13.152-4.164-20.393-4.164c-23.797,0-43.84,16.019-49.975,37.857
					c-21.385,1.255-38.344,18.988-38.344,40.69c0,22.515,18.252,40.768,40.768,40.768c7.244,0,14.039-1.896,19.936-5.209
					c7.184,11.608,20.029,19.346,34.684,19.346c4.838,0,9.479-0.848,13.783-2.395c9.488,13.982,25.51,23.168,43.678,23.168
					c23.719,0,43.779-15.654,50.416-37.194c7.666,9.219,19.221,15.088,32.146,15.088c21.936,0,39.91-16.903,41.641-38.391
					C1670.862,897.582,1679.337,886.478,1679.337,873.375z"/>
			</g>
		</g>
		<g>
			<g>
				<path fill="#221F1F" d="M1479.667,885.186v-18.62h3.947v18.62H1479.667z"/>
			</g>
			<g>
				<path fill="#221F1F" d="M1501.14,885.186h-3.885v-8.316c0-1.027-0.182-1.798-0.547-2.313c-0.365-0.513-0.947-0.77-1.744-0.77
					c-1.088,0-1.873,0.362-2.357,1.09c-0.484,0.725-0.725,1.929-0.725,3.609v6.699h-3.885v-14.238h2.967l0.521,1.821h0.217
					c0.434-0.688,1.029-1.208,1.789-1.56c0.76-0.354,1.625-0.529,2.592-0.529c1.656,0,2.912,0.448,3.771,1.344
					c0.857,0.896,1.285,2.188,1.285,3.878V885.186z"/>
			</g>
			<g>
				<path fill="#221F1F" d="M1511.138,882.346c0.68,0,1.494-0.148,2.445-0.445v2.891c-0.969,0.433-2.156,0.649-3.566,0.649
					c-1.553,0-2.686-0.393-3.395-1.179c-0.709-0.785-1.063-1.962-1.063-3.533v-6.865h-1.859v-1.643l2.139-1.299l1.121-3.006h2.484
					v3.031h3.986v2.916h-3.986v6.865c0,0.552,0.154,0.96,0.465,1.223C1510.218,882.214,1510.628,882.346,1511.138,882.346z"/>
			</g>
			<g>
				<path fill="#221F1F" d="M1522.905,885.441c-2.293,0-4.084-0.632-5.375-1.897s-1.936-3.057-1.936-5.375
					c0-2.386,0.598-4.23,1.789-5.533c1.193-1.304,2.842-1.955,4.949-1.955c2.012,0,3.578,0.573,4.699,1.719
					c1.121,1.146,1.682,2.73,1.682,4.751v1.885h-9.184c0.043,1.104,0.369,1.966,0.98,2.586c0.611,0.619,1.469,0.93,2.574,0.93
					c0.855,0,1.668-0.09,2.432-0.268c0.764-0.179,1.563-0.464,2.395-0.854v3.006c-0.68,0.339-1.406,0.592-2.178,0.758
					C1524.96,885.358,1524.019,885.441,1522.905,885.441z M1522.358,873.444c-0.824,0-1.469,0.262-1.936,0.782
					c-0.469,0.523-0.734,1.264-0.803,2.224h5.451c-0.018-0.96-0.268-1.7-0.752-2.224
					C1523.835,873.706,1523.181,873.444,1522.358,873.444z"/>
			</g>
			<g>
				<path fill="#221F1F" d="M1539.819,870.68c0.525,0,0.963,0.038,1.313,0.114l-0.293,3.643c-0.314-0.084-0.697-0.127-1.146-0.127
					c-1.24,0-2.207,0.318-2.898,0.955s-1.037,1.528-1.037,2.675v7.246h-3.885v-14.238h2.941l0.574,2.395h0.189
					c0.441-0.798,1.039-1.441,1.791-1.93C1538.118,870.924,1538.937,870.68,1539.819,870.68z"/>
			</g>
			<g>
				<path fill="#221F1F" d="M1556.86,885.186h-3.885v-8.316c0-1.027-0.184-1.798-0.549-2.313c-0.365-0.513-0.945-0.77-1.744-0.77
					c-1.088,0-1.871,0.362-2.355,1.09c-0.484,0.725-0.727,1.929-0.727,3.609v6.699h-3.885v-14.238h2.969l0.521,1.821h0.217
					c0.434-0.688,1.029-1.208,1.789-1.56c0.76-0.354,1.623-0.529,2.592-0.529c1.656,0,2.912,0.448,3.77,1.344
					s1.287,2.188,1.287,3.878V885.186z"/>
			</g>
			<g>
				<path fill="#221F1F" d="M1567.304,885.441c-2.293,0-4.084-0.632-5.375-1.897s-1.936-3.057-1.936-5.375
					c0-2.386,0.596-4.23,1.789-5.533c1.193-1.304,2.842-1.955,4.947-1.955c2.014,0,3.58,0.573,4.701,1.719
					c1.119,1.146,1.68,2.73,1.68,4.751v1.885h-9.182c0.041,1.104,0.369,1.966,0.98,2.586c0.611,0.619,1.469,0.93,2.572,0.93
					c0.857,0,1.668-0.09,2.434-0.268c0.764-0.179,1.561-0.464,2.393-0.854v3.006c-0.678,0.339-1.404,0.592-2.178,0.758
					C1569.358,885.358,1568.415,885.441,1567.304,885.441z M1566.755,873.444c-0.822,0-1.469,0.262-1.936,0.782
					c-0.467,0.523-0.734,1.264-0.803,2.224h5.451c-0.018-0.96-0.268-1.7-0.75-2.224
					C1568.233,873.706,1567.579,873.444,1566.755,873.444z"/>
			</g>
			<g>
				<path fill="#221F1F" d="M1582.269,882.346c0.678,0,1.494-0.148,2.445-0.445v2.891c-0.969,0.433-2.158,0.649-3.566,0.649
					c-1.555,0-2.686-0.393-3.395-1.179c-0.709-0.785-1.063-1.962-1.063-3.533v-6.865h-1.859v-1.643l2.139-1.299l1.121-3.006h2.484
					v3.031h3.986v2.916h-3.986v6.865c0,0.552,0.154,0.96,0.465,1.223C1581.349,882.214,1581.759,882.346,1582.269,882.346z"/>
			</g>
		</g>
	</g>
</g>
<g>
	<g>
		<g>
			<g>
				<path fill="#FFFFFF" d="M1269.525,629.385c0-1.304,1.066-2.371,2.371-2.371h31.267c1.305,0,2.371,1.067,2.371,2.371v18.948
					c0,1.305-1.066,2.371-2.371,2.371h-31.267c-1.305,0-2.371-1.066-2.371-2.371V629.385z"/>
			</g>
		</g>
		<g>
			<g>
				<path fill="#221F1F" d="M1271.896,651.298c-1.635,0-2.965-1.33-2.965-2.965v-18.948c0-1.634,1.33-2.964,2.965-2.964h31.267
					c1.635,0,2.965,1.33,2.965,2.964v18.948c0,1.635-1.33,2.965-2.965,2.965H1271.896L1271.896,651.298z M1303.163,627.607h-31.267
					c-0.982,0-1.779,0.797-1.779,1.778v18.948c0,0.98,0.797,1.779,1.779,1.779h31.267c0.98,0,1.779-0.799,1.779-1.779v-18.948
					C1304.942,628.404,1304.144,627.607,1303.163,627.607L1303.163,627.607z"/>
			</g>
		</g>
	</g>
	<g>
		<g>
			<polygon fill="#FFFFFF" points="1269.525,627.014 1305.534,627.014 1301.745,624.17 1273.314,624.17 			"/>
		</g>
		<g>
			<path fill="#221F1F" d="M1269.525,627.607c-0.256,0-0.482-0.164-0.563-0.405c-0.082-0.242,0.002-0.509,0.207-0.662l3.789-2.843
				c0.104-0.078,0.229-0.119,0.355-0.119h28.431c0.127,0,0.252,0.041,0.355,0.119l3.789,2.843c0.205,0.153,0.289,0.42,0.207,0.662
				c-0.08,0.241-0.307,0.405-0.563,0.405H1269.525L1269.525,627.607z M1303.757,626.421l-2.209-1.658h-28.037l-2.209,1.658H1303.757
				L1303.757,626.421z"/>
		</g>
	</g>
</g>
<g>
	<g>
		<path fill="#221F1F" d="M891.81,731.764h-10.724v-18.62h10.724v3.234h-6.775v4.089h6.304v3.234h-6.304v4.802h6.775V731.764z"/>
	</g>
	<g>
		<path fill="#221F1F" d="M901.387,728.923c0.68,0,1.494-0.148,2.445-0.445v2.891c-0.968,0.434-2.156,0.649-3.565,0.649
			c-1.554,0-2.686-0.393-3.395-1.179c-0.709-0.784-1.063-1.962-1.063-3.533v-6.864h-1.859v-1.644l2.14-1.299l1.121-3.006h2.483
			v3.031h3.986v2.917h-3.986v6.864c0,0.552,0.154,0.96,0.465,1.223C900.468,728.791,900.878,728.923,901.387,728.923z"/>
	</g>
	<g>
		<path fill="#221F1F" d="M919.855,731.764h-3.885v-8.317c0-2.055-0.765-3.082-2.292-3.082c-1.088,0-1.873,0.369-2.356,1.108
			c-0.484,0.738-0.726,1.936-0.726,3.592v6.699h-3.885v-19.817h3.885v4.037c0,0.313-0.031,1.053-0.09,2.216l-0.089,1.146h0.204
			c0.865-1.393,2.241-2.089,4.126-2.089c1.673,0,2.942,0.45,3.808,1.351c0.867,0.899,1.3,2.19,1.3,3.871V731.764z"/>
	</g>
	<g>
		<path fill="#221F1F" d="M930.298,732.018c-2.292,0-4.084-0.632-5.374-1.897c-1.291-1.266-1.937-3.057-1.937-5.374
			c0-2.387,0.597-4.231,1.79-5.533c1.191-1.305,2.842-1.956,4.947-1.956c2.012,0,3.579,0.573,4.699,1.72
			c1.121,1.146,1.682,2.729,1.682,4.75v1.885h-9.183c0.042,1.104,0.369,1.967,0.98,2.586s1.469,0.93,2.573,0.93
			c0.857,0,1.668-0.089,2.432-0.268c0.765-0.179,1.563-0.463,2.395-0.854v3.006c-0.68,0.339-1.405,0.592-2.178,0.758
			C932.353,731.935,931.411,732.018,930.298,732.018z M929.75,720.02c-0.824,0-1.469,0.262-1.936,0.783
			c-0.467,0.523-0.734,1.264-0.803,2.224h5.451c-0.018-0.96-0.268-1.7-0.752-2.224C931.228,720.282,930.574,720.02,929.75,720.02z"
			/>
	</g>
	<g>
		<path fill="#221F1F" d="M947.211,717.257c0.526,0,0.963,0.038,1.313,0.114l-0.293,3.643c-0.314-0.084-0.697-0.127-1.146-0.127
			c-1.24,0-2.206,0.318-2.897,0.955c-0.692,0.637-1.038,1.528-1.038,2.675v7.247h-3.885v-14.239h2.942l0.573,2.395h0.191
			c0.44-0.798,1.037-1.441,1.789-1.929C945.511,717.501,946.329,717.257,947.211,717.257z"/>
	</g>
	<g>
		<path fill="#221F1F" d="M964.252,731.764h-3.885v-8.317c0-1.026-0.183-1.798-0.547-2.312c-0.366-0.514-0.947-0.771-1.745-0.771
			c-1.087,0-1.872,0.362-2.356,1.09c-0.484,0.725-0.727,1.929-0.727,3.61v6.699h-3.884v-14.239h2.968l0.521,1.821h0.217
			c0.434-0.688,1.029-1.208,1.789-1.56c0.76-0.354,1.624-0.529,2.592-0.529c1.656,0,2.912,0.448,3.771,1.345
			c0.857,0.895,1.286,2.188,1.286,3.877V731.764z"/>
	</g>
	<g>
		<path fill="#221F1F" d="M974.696,732.018c-2.292,0-4.084-0.632-5.375-1.897c-1.29-1.266-1.936-3.057-1.936-5.374
			c0-2.387,0.597-4.231,1.789-5.533c1.193-1.305,2.843-1.956,4.948-1.956c2.013,0,3.579,0.573,4.7,1.72
			c1.12,1.146,1.681,2.729,1.681,4.75v1.885h-9.183c0.042,1.104,0.369,1.967,0.98,2.586s1.469,0.93,2.573,0.93
			c0.857,0,1.668-0.089,2.433-0.268c0.764-0.179,1.562-0.463,2.395-0.854v3.006c-0.68,0.339-1.406,0.592-2.179,0.758
			C976.75,731.935,975.808,732.018,974.696,732.018z M974.148,720.02c-0.823,0-1.469,0.262-1.936,0.783
			c-0.467,0.523-0.734,1.264-0.803,2.224h5.451c-0.018-0.96-0.268-1.7-0.751-2.224C975.625,720.282,974.971,720.02,974.148,720.02z"
			/>
	</g>
	<g>
		<path fill="#221F1F" d="M989.661,728.923c0.679,0,1.494-0.148,2.445-0.445v2.891c-0.968,0.434-2.157,0.649-3.566,0.649
			c-1.554,0-2.686-0.393-3.394-1.179c-0.709-0.784-1.063-1.962-1.063-3.533v-6.864h-1.859v-1.644l2.14-1.299l1.12-3.006h2.484v3.031
			h3.986v2.917h-3.986v6.864c0,0.552,0.154,0.96,0.465,1.223C988.742,728.791,989.151,728.923,989.661,728.923z"/>
	</g>
</g>
<g>
	<g>
		<g>
			<path fill="#FFFFFF" d="M1038.42,1080.161c2.746,0,4.992,3.004,4.992,22.566v57.014c0,19.563,8.102,29.641,30.825,29.641h88.532
				c19.563,0,35.568,2.246,35.568,4.992c0,2.744-16.006,4.99-35.568,4.99h-94.959c-19.563,0-34.383-14.818-34.383-34.381v-62.256
				C1033.428,1083.165,1035.674,1080.161,1038.42,1080.161z"/>
			<path fill="#221F1F" d="M1198.931,1194.374c0,4.098-21.625,5.584-36.161,5.584h-94.959c-19.939,0-34.976-15.037-34.976-34.975
				v-62.256c0-14.535,1.487-23.16,5.585-23.16s5.585,8.625,5.585,23.16v57.014c0,20.359,9.041,29.047,30.232,29.047h88.532
				C1177.306,1188.788,1198.931,1190.276,1198.931,1194.374L1198.931,1194.374z M1034.021,1164.983
				c0,19.264,14.526,33.789,33.79,33.789h94.959c22.963,0,34.976-2.863,34.976-4.398s-12.013-4.4-34.976-4.4h-88.532
				c-22.022,0-31.419-9.041-31.419-30.232v-57.014c0-22.963-2.863-21.975-4.398-21.975c-1.536,0-4.399-0.988-4.399,21.975V1164.983
				L1034.021,1164.983z"/>
		</g>
	</g>
	<g>
		<g>
			<path fill="#FFFFFF" d="M1149.602,1188.34c-1.357,0.123-7.348,0.029-8.908,0.037c-1.568,0.01-1.568,11.932,0,11.939
				c1.965,0.012,7.508-0.189,9.156,0C1149.051,1196.606,1149.425,1192.086,1149.602,1188.34z"/>
			<path fill="#221F1F" d="M1150.604,1201l-0.822-0.094c-1.092-0.127-4.037-0.072-6.403-0.029c-1.095,0.02-2.067,0.037-2.688,0.033
				c-1.46-0.008-1.767-3.574-1.767-6.563c0-2.99,0.307-6.555,1.767-6.563c0.432-0.002,1.2,0.004,2.115,0.01
				c2.305,0.016,5.788,0.041,6.743-0.047l0.677-0.061l-0.103,2.08c-0.085,1.613-0.172,3.285-0.172,4.957
				c0,2.184,0.156,3.973,0.479,5.467L1150.604,1201L1150.604,1201z M1140.805,1199.725c0.614,0,1.529-0.016,2.552-0.033
				c1.97-0.037,4.333-0.08,5.767-0.02c-0.24-1.408-0.357-3.037-0.357-4.947c0-1.703,0.088-3.391,0.174-5.02l0.037-0.738
				c-1.423,0.047-4.119,0.027-6.179,0.014c-0.838-0.006-1.552-0.012-1.993-0.01c-0.295,0.393-0.695,2.273-0.695,5.377
				S1140.51,1199.333,1140.805,1199.725L1140.805,1199.725z"/>
		</g>
		<g>
			<path fill="#FFFFFF" d="M1151.973,1188.196c-1.357,0.123-6.162,0.174-7.723,0.182c-1.568,0.01-1.568,11.932,0,11.939
				c1.965,0.012,6.074-0.189,7.723,0C1151.174,1196.606,1151.796,1191.94,1151.973,1188.196z"/>
			<path fill="#221F1F" d="M1152.727,1201l-0.821-0.094c-1.069-0.123-3.255-0.074-5.185-0.033c-0.947,0.021-1.826,0.041-2.473,0.037
				c-1.461-0.008-1.768-3.574-1.768-6.563c0-2.99,0.307-6.555,1.768-6.563c1.964-0.01,6.424-0.068,7.672-0.182l0.678-0.061
				l-0.032,0.68c-0.04,0.826-0.1,1.695-0.162,2.592c-0.116,1.662-0.235,3.381-0.235,5.061c0,1.703,0.126,3.115,0.385,4.316
				L1152.727,1201L1152.727,1201z M1150.982,1195.875c0-1.721,0.121-3.461,0.238-5.143c0.045-0.65,0.09-1.287,0.125-1.902
				c-1.83,0.09-5.526,0.131-6.984,0.139c-0.295,0.393-0.695,2.273-0.695,5.379c0,3.104,0.4,4.984,0.695,5.377
				c0.627,0,1.449-0.018,2.334-0.037c1.58-0.033,3.33-0.072,4.553-0.018C1151.07,1198.567,1150.982,1197.317,1150.982,1195.875
				L1150.982,1195.875z"/>
		</g>
		<g>
			<path fill="#FFFFFF" d="M1147.807,1188.377c-1.568,0.01-1.568,11.932,0,11.939c22.445,0.113,22.741,10.672,36.969,10.672
				c9.195,0,30.855-0.004,30.855-0.004c0.651,0.037,1.185-0.467,1.185-1.119v-14.275v-12.998v-3.762
				c0-0.652-0.533-1.156-1.185-1.121c0,0-21.66-0.002-30.855-0.002C1170.548,1177.708,1170.252,1188.264,1147.807,1188.377z"/>
			<path fill="#221F1F" d="M1217.408,1178.831v31.035c0,0.48-0.188,0.924-0.532,1.248c-0.345,0.326-0.798,0.49-1.277,0.463
				l-30.823,0.004c-6.482,0-10.221-2.182-14.178-4.49c-4.912-2.869-10.48-6.117-22.793-6.18c-1.461-0.008-1.768-3.574-1.768-6.563
				c0-2.99,0.307-6.555,1.768-6.563c12.313-0.063,17.881-3.313,22.793-6.18c3.957-2.311,7.695-4.49,14.178-4.49l30.855,0.002
				c0.447-0.025,0.9,0.139,1.245,0.463C1217.22,1177.907,1217.408,1178.35,1217.408,1178.831L1217.408,1178.831z M1147.918,1199.725
				c12.554,0.084,18.25,3.406,23.277,6.34c3.98,2.324,7.419,4.33,13.58,4.33l30.855-0.002c0.185,0.01,0.325-0.041,0.43-0.141
				c0.104-0.098,0.162-0.236,0.162-0.387v-31.035c0-0.152-0.058-0.289-0.162-0.387c-0.104-0.1-0.245-0.15-0.397-0.143h-30.888
				c-6.161,0-9.6,2.006-13.58,4.33c-5.027,2.932-10.724,6.256-23.277,6.338c-0.295,0.393-0.695,2.273-0.695,5.379
				S1147.623,1199.333,1147.918,1199.725L1147.918,1199.725z"/>
		</g>
	</g>
	<g>
		<g>
			<path fill="#FFFFFF" d="M1032.153,1121.428c0.122,1.357,0.03,7.346,0.038,8.908c0.008,1.568,11.932,1.568,11.939,0
				c0.01-1.965-0.189-7.508,0-9.156C1040.419,1121.979,1035.898,1121.604,1032.153,1121.428z"/>
			<path fill="#221F1F" d="M1044.814,1120.426l-0.095,0.822c-0.052,0.449-0.078,1.293-0.078,2.51c0,1.223,0.025,2.639,0.048,3.893
				c0.019,1.004,0.035,1.906,0.035,2.525l-0.001,0.162c-0.008,1.461-3.573,1.766-6.563,1.766s-6.556-0.305-6.563-1.766l-0.001-0.229
				c0-0.447,0.005-1.115,0.011-1.887c0.008-1.055,0.017-2.307,0.017-3.461c0-1.725-0.021-2.828-0.063-3.281l-0.061-0.678
				l2.078,0.104c3.395,0.178,7.242,0.379,10.426-0.307L1044.814,1120.426L1044.814,1120.426z M1043.538,1130.225l0.001-0.049
				c0-0.613-0.017-1.508-0.035-2.504c-0.037-2.039-0.071-4.514-0.018-5.766c-3.163,0.539-6.764,0.352-9.969,0.184l-0.737-0.037
				c0.021,0.607,0.03,1.504,0.03,2.709c0,1.158-0.009,2.412-0.017,3.469c-0.006,0.768-0.011,1.432-0.011,1.879l0.001,0.115
				c0.393,0.295,2.272,0.693,5.377,0.693S1043.146,1130.52,1043.538,1130.225L1043.538,1130.225z"/>
		</g>
		<g>
			<path fill="#FFFFFF" d="M1032.008,1119.057c0.123,1.357,0.176,6.16,0.184,7.721c0.008,1.57,11.932,1.57,11.939,0
				c0.01-1.963-0.189-6.072,0-7.721C1040.419,1119.856,1035.754,1119.233,1032.008,1119.057z"/>
			<path fill="#221F1F" d="M1044.814,1118.303l-0.095,0.82c-0.053,0.457-0.078,1.162-0.078,2.156c0,0.957,0.023,2.031,0.046,3.027
				c0.019,0.873,0.037,1.688,0.037,2.316l-0.001,0.158c-0.008,1.461-3.573,1.766-6.563,1.766s-6.556-0.305-6.563-1.766
				c-0.011-1.965-0.067-6.424-0.181-7.672l-0.062-0.678l0.68,0.033c0.826,0.037,1.696,0.1,2.591,0.16
				c3.076,0.215,6.563,0.457,9.379-0.148L1044.814,1118.303L1044.814,1118.303z M1043.538,1126.668l0.001-0.045
				c0-0.621-0.019-1.426-0.037-2.289c-0.035-1.621-0.068-3.471-0.019-4.553c-2.812,0.453-6.052,0.227-8.938,0.027
				c-0.649-0.045-1.286-0.09-1.902-0.125c0.092,1.828,0.133,5.525,0.141,6.984c0.393,0.293,2.272,0.693,5.378,0.693
				C1041.266,1127.362,1043.146,1126.963,1043.538,1126.668L1043.538,1126.668z"/>
		</g>
		<g>
			<path fill="#FFFFFF" d="M1032.191,1123.221c0.008,1.57,11.932,1.57,11.939,0c0.113-22.443,10.67-22.74,10.67-36.967
				c0-9.195-0.002-30.855-0.002-30.855c0.036-0.652-0.468-1.186-1.119-1.186h-14.276h-12.997h-3.764
				c-0.651,0-1.155,0.533-1.119,1.186c0,0-0.002,21.66-0.002,30.855C1021.521,1100.481,1032.078,1100.778,1032.191,1123.221z"/>
			<path fill="#221F1F" d="M1055.395,1086.254c0,6.48-2.183,10.221-4.492,14.178c-2.867,4.912-6.116,10.48-6.179,22.793
				c-0.008,1.461-3.573,1.766-6.563,1.766s-6.556-0.305-6.563-1.766c-0.063-12.313-3.312-17.881-6.179-22.793
				c-2.31-3.957-4.492-7.697-4.492-14.178l0.003-30.855c0-0.002,0-0.004,0-0.004c0-1.023,0.752-1.773,1.712-1.773h31.037
				c0.961,0,1.714,0.75,1.714,1.711L1055.395,1086.254L1055.395,1086.254z M1043.539,1123.112
				c0.082-12.555,3.406-18.252,6.34-23.277c2.323-3.98,4.33-7.418,4.33-13.58l-0.003-30.855c0-0.002,0-0.004,0-0.006
				c0-0.361-0.227-0.586-0.526-0.586h-31.037c-0.301,0-0.528,0.225-0.528,0.525l-0.001,30.922c0,6.162,2.007,9.6,4.33,13.58
				c2.934,5.025,6.258,10.723,6.34,23.277c0.393,0.293,2.272,0.693,5.378,0.693S1043.146,1123.405,1043.539,1123.112
				L1043.539,1123.112z"/>
		</g>
	</g>
</g>
<g>
	<g>
		<g>
			<g>
				<path fill="#646464" d="M1198.502,1042.264c0-8.728,7.142-15.867,15.867-15.867h277.477c8.727,0,15.865,7.14,15.865,15.867
					v194.998c0,8.727-7.139,15.867-15.865,15.867H1214.37c-8.726,0-15.867-7.141-15.867-15.867V1042.264z"/>
			</g>
		</g>
		<g>
			<g>
				<path fill="#221F1F" d="M1491.847,1253.921H1214.37c-9.186,0-16.659-7.475-16.659-16.66v-194.998
					c0-9.187,7.474-16.66,16.659-16.66h277.477c9.188,0,16.66,7.474,16.66,16.66v194.998
					C1508.507,1246.447,1501.034,1253.921,1491.847,1253.921L1491.847,1253.921z M1214.37,1027.189
					c-8.31,0-15.072,6.763-15.072,15.074v194.998c0,8.312,6.763,15.073,15.072,15.073h277.477c8.313,0,15.074-6.762,15.074-15.073
					v-194.998c0-8.312-6.762-15.074-15.074-15.074H1214.37L1214.37,1027.189z"/>
			</g>
		</g>
	</g>
	<g>
		<g>
			<path fill="#FFFFFF" d="M1204.255,1047.955c0-8.727,7.142-15.867,15.867-15.867h265.97c8.729,0,15.869,7.141,15.869,15.867
				v183.615c0,8.727-7.141,15.866-15.869,15.866h-265.97c-8.726,0-15.867-7.14-15.867-15.866V1047.955z"/>
		</g>
	</g>
</g>
<g>
	<g>
		<path fill="#221F1F" d="M1341.009,1146.048h-3.936v-8.037h-7.374v8.037h-3.949v-18.621h3.949v7.298h7.374v-7.298h3.936V1146.048z"
			/>
	</g>
	<g>
		<path fill="#221F1F" d="M1361.157,1136.559c0,3.065-0.873,5.413-2.617,7.043c-1.744,1.629-4.264,2.445-7.559,2.445h-5.273v-18.621
			h5.848c3.039,0,5.398,0.803,7.08,2.407C1360.317,1131.44,1361.157,1133.681,1361.157,1136.559z M1357.058,1136.662
			c0-3.999-1.768-5.999-5.299-5.999h-2.102v12.124h1.693C1355.155,1142.786,1357.058,1140.745,1357.058,1136.662z"/>
	</g>
	<g>
		<path fill="#221F1F" d="M1380.466,1136.559c0,3.065-0.873,5.413-2.617,7.043c-1.746,1.629-4.266,2.445-7.559,2.445h-5.273v-18.621
			h5.846c3.039,0,5.4,0.803,7.082,2.407C1379.624,1131.44,1380.466,1133.681,1380.466,1136.559z M1376.364,1136.662
			c0-3.999-1.768-5.999-5.299-5.999h-2.102v12.124h1.695C1374.462,1142.786,1376.364,1140.745,1376.364,1136.662z"/>
	</g>
</g>
<g>
	<g>
		<path fill="#221F1F" d="M971.547,1086.52v12.049c0,1.375-0.307,2.58-0.924,3.616c-0.615,1.037-1.504,1.83-2.668,2.382
			c-1.162,0.553-2.539,0.828-4.125,0.828c-2.395,0-4.254-0.613-5.58-1.841c-1.324-1.227-1.986-2.905-1.986-5.037v-11.997h3.936
			v11.399c0,1.434,0.289,2.487,0.867,3.158c0.576,0.67,1.531,1.006,2.865,1.006c1.289,0,2.227-0.338,2.809-1.012
			c0.58-0.676,0.871-1.734,0.871-3.178v-11.374H971.547z"/>
	</g>
	<g>
		<path fill="#221F1F" d="M987.098,1099.969c0,1.682-0.605,3.006-1.814,3.974c-1.211,0.968-2.895,1.452-5.051,1.452
			c-1.986,0-3.744-0.374-5.271-1.121v-3.668c1.256,0.561,2.32,0.956,3.191,1.185c0.869,0.229,1.664,0.344,2.387,0.344
			c0.865,0,1.531-0.165,1.994-0.496c0.461-0.331,0.693-0.823,0.693-1.478c0-0.365-0.102-0.69-0.307-0.974
			c-0.203-0.285-0.504-0.56-0.896-0.822c-0.396-0.263-1.199-0.684-2.414-1.261c-1.139-0.535-1.992-1.049-2.561-1.541
			s-1.023-1.065-1.363-1.72c-0.338-0.654-0.508-1.418-0.508-2.292c0-1.647,0.557-2.942,1.674-3.885s2.66-1.414,4.629-1.414
			c0.969,0,1.893,0.115,2.77,0.345c0.881,0.229,1.799,0.552,2.758,0.968l-1.273,3.069c-0.992-0.408-1.814-0.692-2.463-0.854
			c-0.65-0.161-1.289-0.242-1.918-0.242c-0.748,0-1.32,0.174-1.719,0.522c-0.4,0.349-0.6,0.802-0.6,1.362
			c0,0.349,0.082,0.652,0.242,0.911c0.162,0.259,0.418,0.51,0.771,0.751c0.352,0.243,1.186,0.677,2.502,1.306
			c1.74,0.833,2.934,1.666,3.58,2.503C986.776,1097.73,987.098,1098.755,987.098,1099.969z"/>
	</g>
	<g>
		<path fill="#221F1F" d="M990.473,1086.52h5.795c2.641,0,4.557,0.376,5.752,1.128c1.191,0.75,1.787,1.946,1.787,3.585
			c0,1.112-0.26,2.024-0.783,2.738c-0.521,0.713-1.215,1.142-2.082,1.286v0.127c1.18,0.263,2.031,0.756,2.555,1.478
			c0.521,0.722,0.783,1.682,0.783,2.878c0,1.699-0.613,3.023-1.842,3.975c-1.227,0.95-2.893,1.426-4.998,1.426h-6.967V1086.52z
			 M994.422,1093.894h2.291c1.07,0,1.846-0.165,2.326-0.496c0.479-0.331,0.719-0.879,0.719-1.644c0-0.713-0.262-1.225-0.783-1.534
			s-1.35-0.465-2.479-0.465h-2.074V1093.894z M994.422,1097.028v4.853h2.572c1.086,0,1.889-0.209,2.406-0.625
			c0.518-0.415,0.777-1.052,0.777-1.91c0-1.545-1.105-2.317-3.311-2.317H994.422z"/>
	</g>
</g>
<g>
	<g>
		<g>
			<g>
				<path fill="#FFFFFF" d="M880.555,462.007c0-1.304-1.068-2.371-2.371-2.371h-78.631c-1.305,0-2.371,1.067-2.371,2.371v78.635
					c0,1.304,1.066,2.371,2.371,2.371h78.631c1.303,0,2.371-1.067,2.371-2.371V462.007z"/>
			</g>
		</g>
		<g>
			<g>
				<path fill="#221F1F" d="M799.553,459.043h78.631c1.635,0,2.963,1.329,2.963,2.964v78.635c0,1.635-1.328,2.964-2.963,2.964
					h-78.631c-1.635,0-2.965-1.329-2.965-2.964v-78.635C796.588,460.372,797.918,459.043,799.553,459.043L799.553,459.043z
					 M878.184,542.42c0.98,0,1.777-0.798,1.777-1.778v-78.635c0-0.98-0.797-1.778-1.777-1.778h-78.631
					c-0.98,0-1.779,0.798-1.779,1.778v78.635c0,0.98,0.799,1.778,1.779,1.778H878.184L878.184,542.42z"/>
			</g>
		</g>
	</g>
	<g>
		<g>
			<g>
				<path fill="#FFFFFF" d="M873.788,468.773c0-1.304-1.066-2.371-2.371-2.371h-65.098c-1.303,0-2.371,1.067-2.371,2.371v65.102
					c0,1.304,1.068,2.371,2.371,2.371h65.098c1.305,0,2.371-1.067,2.371-2.371V468.773z"/>
			</g>
		</g>
		<g>
			<g>
				<path fill="#221F1F" d="M806.319,465.81h65.098c1.635,0,2.965,1.329,2.965,2.964v65.102c0,1.635-1.33,2.964-2.965,2.964h-65.098
					c-1.635,0-2.963-1.329-2.963-2.964v-65.102C803.356,467.139,804.684,465.81,806.319,465.81L806.319,465.81z M871.417,535.653
					c0.982,0,1.779-0.798,1.779-1.778v-65.102c0-0.98-0.797-1.778-1.779-1.778h-65.098c-0.98,0-1.777,0.798-1.777,1.778v65.102
					c0,0.98,0.797,1.778,1.777,1.778H871.417L871.417,535.653z"/>
			</g>
		</g>
	</g>
	<g>
		<g>
			<g>
				<path fill="#FFFFFF" d="M860.129,501.324c0-13.541-9.523-22.108-21.26-22.108c-11.738,0-21.258,8.567-21.258,22.108
					s9.52,22.108,21.258,22.108C850.606,523.433,860.129,514.865,860.129,501.324z"/>
			</g>
			<g>
				<path fill="#221F1F" d="M838.87,478.623c12.66,0,21.852,9.547,21.852,22.701s-9.191,22.701-21.852,22.701
					c-12.662,0-21.85-9.547-21.85-22.701S826.208,478.623,838.87,478.623L838.87,478.623z M838.87,522.84
					c11.975,0,20.666-9.048,20.666-21.516s-8.691-21.516-20.666-21.516s-20.664,9.048-20.664,21.516S826.895,522.84,838.87,522.84
					L838.87,522.84z"/>
			</g>
		</g>
		<g>
			<g>
				<g>
					<rect x="831.34" y="495.583" fill="#FFFFFF" width="3.24" height="11.412"/>
				</g>
				<g>
					<path fill="#221F1F" d="M830.749,494.989h4.426v12.599h-4.426V494.989L830.749,494.989z M833.989,496.176h-2.055v10.227h2.055
						V496.176L833.989,496.176z"/>
				</g>
			</g>
			<g>
				<g>
					<rect x="843.157" y="495.583" fill="#FFFFFF" width="3.242" height="11.412"/>
				</g>
				<g>
					<path fill="#221F1F" d="M842.565,494.989h4.426v12.599h-4.426V494.989L842.565,494.989z M845.805,496.176h-2.055v10.227h2.055
						V496.176L845.805,496.176z"/>
				</g>
			</g>
		</g>
	</g>
</g>
<g>
	<g>
		<g>
			<circle fill="#221F1F" cx="838.87" cy="501.324" r="21.664"/>
		</g>
		<g>
			<path fill="#221F1F" d="M838.87,479.067c12.271,0,22.258,9.984,22.258,22.257s-9.986,22.257-22.258,22.257
				c-12.273,0-22.258-9.984-22.258-22.257S826.596,479.067,838.87,479.067L838.87,479.067z M838.87,522.396
				c11.619,0,21.072-9.453,21.072-21.071c0-11.619-9.453-21.071-21.072-21.071s-21.072,9.452-21.072,21.071
				C817.797,512.942,827.25,522.396,838.87,522.396L838.87,522.396z"/>
		</g>
	</g>
	<g>
		<g>
			<path fill="#FFFFFF" d="M817.434,499.111v4.945h3.158v9.411h0.338c3.896,5.743,10.475,9.521,17.939,9.521
				c7.463,0,14.047-3.774,17.943-9.52l0.092-9.412h3.064v-4.945h-3.016l0.096-9.574c-3.863-5.946-10.563-9.877-18.18-9.877
				c-7.686,0-14.438,4.002-18.283,10.037l0.006,0.577v8.837H817.434z"/>
		</g>
		<g>
			<path fill="#221F1F" d="M838.87,479.067c7.566,0,14.549,3.793,18.676,10.147c0.064,0.099,0.098,0.212,0.096,0.328l-0.088,8.976
				h2.416c0.328,0,0.592,0.266,0.592,0.593v4.945c0,0.327-0.264,0.593-0.592,0.593h-2.477l-0.088,8.825
				c0,0.116-0.037,0.23-0.102,0.326c-4.152,6.124-11.045,9.78-18.434,9.78c-7.281,0-14.078-3.554-18.25-9.521h-0.027
				c-0.328,0-0.594-0.266-0.594-0.593v-8.818h-2.564c-0.328,0-0.592-0.266-0.592-0.593v-4.945c0-0.327,0.264-0.593,0.592-0.593
				h2.564l-0.006-8.815c0-0.114,0.031-0.227,0.094-0.324C824.202,482.922,831.223,479.067,838.87,479.067L838.87,479.067z
				 M856.454,489.712c-3.92-5.927-10.479-9.459-17.584-9.459c-7.182,0-13.779,3.592-17.689,9.616l0.004,0.399v8.843
				c0,0.328-0.266,0.592-0.592,0.592h-2.564v3.76h2.564c0.326,0,0.592,0.266,0.592,0.593v8.875c0.094,0.045,0.178,0.114,0.238,0.203
				c3.932,5.799,10.455,9.261,17.447,9.261c6.938,0,13.41-3.403,17.352-9.113l0.092-9.231c0.002-0.325,0.268-0.587,0.592-0.587
				h2.471v-3.76h-2.422c-0.158,0-0.311-0.063-0.422-0.175s-0.172-0.264-0.17-0.423L856.454,489.712L856.454,489.712z"/>
		</g>
	</g>
	<g>
		<g>
			<path fill="#FFFFFF" d="M843.266,542.71l0.459-16.993l3.332-3.557v-26.091H830.68v26.091l3.332,3.557l0.457,16.993l1.186,1.296
				v263.618c0,6.423,6.426,1.576,6.426-1.685V544.006L843.266,542.71z"/>
		</g>
		<g>
			<path fill="#221F1F" d="M830.68,495.476h16.377c0.328,0,0.592,0.266,0.592,0.594v26.091c0,0.15-0.057,0.295-0.158,0.405
				l-3.178,3.393l-0.453,16.769c-0.004,0.143-0.061,0.279-0.156,0.385l-1.029,1.125v261.703c0,2.942-7.613,8.422-7.613,1.685
				V544.236l-1.029-1.125c-0.096-0.105-0.15-0.242-0.156-0.385l-0.451-16.769l-3.176-3.393c-0.104-0.11-0.16-0.255-0.16-0.405
				v-26.091C830.088,495.741,830.354,495.476,830.68,495.476L830.68,495.476z M846.463,496.661h-15.189v25.266l3.17,3.385
				c0.1,0.105,0.156,0.244,0.16,0.39l0.451,16.771l1.037,1.133c0.1,0.11,0.154,0.252,0.154,0.4v263.618
				c0,6.122,5.24,1.91,5.24-1.685V544.006c0-0.148,0.057-0.29,0.156-0.4l1.035-1.133l0.455-16.771
				c0.004-0.146,0.061-0.284,0.16-0.39l3.17-3.385V496.661L846.463,496.661z"/>
		</g>
	</g>
	<g>
		<g>
			<path fill="#FFFFFF" d="M820.614,489.654c0,0,3.736-3.97,12.438-5.327v8.931l-2.371,2.812h16.377l-2.371-2.812v-8.96
				c8.639,1.327,12.361,5.356,12.361,5.356l0.002-0.117c-2.932-4.511-7.496-7.858-12.855-9.212
				c-4.512-1.109-6.588-1.109-10.654,0.002C828.137,481.694,823.542,485.086,820.614,489.654z"/>
		</g>
		<g>
			<path fill="#221F1F" d="M838.702,478.9L838.702,478.9c1.549,0,3.182,0.246,5.635,0.849c5.449,1.378,10.139,4.739,13.209,9.466
				c0.064,0.099,0.098,0.212,0.096,0.328c-0.002,0.242-0.152,0.518-0.379,0.604c-0.227,0.09-0.484,0.086-0.648-0.09
				c-0.037-0.037-3.516-3.687-11.336-5.063v8.046l2.232,2.646c0.148,0.176,0.182,0.423,0.084,0.633
				c-0.098,0.208-0.307,0.342-0.537,0.342H830.68c-0.23,0-0.439-0.134-0.537-0.342c-0.098-0.21-0.064-0.457,0.084-0.633l2.232-2.646
				v-8.015c-7.885,1.399-11.379,4.999-11.414,5.036c-0.211,0.22-0.557,0.246-0.795,0.058c-0.242-0.188-0.301-0.529-0.135-0.786
				c3.066-4.789,7.783-8.191,13.279-9.582C835.606,479.148,837.145,478.9,838.702,478.9L838.702,478.9z M854.143,486.804
				c-2.725-2.87-6.205-4.922-10.094-5.904c-2.35-0.577-3.9-0.813-5.348-0.813l0,0c-1.441,0-2.893,0.235-5.004,0.813
				c-3.893,0.985-7.369,3.031-10.09,5.891c2.076-1.143,5.145-2.392,9.352-3.049c0.17-0.027,0.348,0.023,0.479,0.136
				s0.207,0.276,0.207,0.45v8.931c0,0.14-0.051,0.275-0.141,0.382l-1.547,1.836h13.824l-1.549-1.836
				c-0.09-0.106-0.141-0.242-0.141-0.382v-8.96c0-0.173,0.076-0.338,0.207-0.451c0.131-0.112,0.305-0.163,0.477-0.135
				C849.004,484.361,852.079,485.64,854.143,486.804L854.143,486.804z"/>
		</g>
	</g>
</g>
<g>
	<g>
		<g>
			<path fill="#FFFFFF" d="M848.03,835.142l-0.53-11.41c-0.188-1.785-0.188-2.613-0.188-2.613l-3.939-31.336h-9.002l-3.937,31.334
				c0,0,0,0.828-0.191,2.615l-0.53,11.41c-0.023,0.789,1.132,3.084,1.557,3.084h15.205
				C846.897,838.226,848.054,835.931,848.03,835.142z"/>
		</g>
		<g>
			<path fill="#221F1F" d="M848.623,835.167c0,0.75-1.119,3.65-2.149,3.65h-15.205c-1.03,0-2.15-2.9-2.15-3.65l0.532-11.463
				c0.188-1.76,0.19-2.58,0.19-2.588l4.006-31.928h10.049l4.003,31.855c0.005,0.082,0.008,0.902,0.19,2.625L848.623,835.167
				L848.623,835.167z M846.321,837.632c0.365-0.387,1.116-1.951,1.116-2.467l0.593,0.002l-0.593-0.008l-0.529-11.398
				c-0.188-1.764-0.189-2.607-0.189-2.643l-3.869-30.744h-7.956l-3.871,30.816c0.006-0.037,0.001,0.816-0.191,2.605l-0.528,11.375
				c0.002,0.51,0.753,2.074,1.116,2.461H846.321L846.321,837.632z"/>
		</g>
	</g>
	<g>
		<g>
			<g>
				<path fill="#FFFFFF" d="M843.935,803.826c0.651,0,1.119-0.529,1.039-1.176l-1.455-11.691c-0.08-0.646-0.68-1.176-1.332-1.176
					h-6.631c-0.651,0-1.251,0.529-1.331,1.176l-1.454,11.691c-0.081,0.646,0.387,1.176,1.04,1.176H843.935z"/>
			</g>
		</g>
		<g>
			<g>
				<path fill="#221F1F" d="M845.576,802.792c0,0.912-0.721,1.625-1.642,1.625h-10.124c-0.993,0-1.751-0.834-1.628-1.842
					l1.454-11.689c0.116-0.951,0.961-1.697,1.919-1.697h6.631c0.959,0,1.803,0.746,1.92,1.697l1.455,11.689
					C845.571,802.65,845.576,802.72,845.576,802.792L845.576,802.792z M833.358,802.734c0,0.322,0.187,0.498,0.452,0.498h10.124
					c0.269,0,0.456-0.18,0.456-0.439l-0.005-0.07l-1.455-11.691c-0.043-0.35-0.391-0.656-0.744-0.656h-6.631
					c-0.353,0-0.7,0.307-0.743,0.656l-1.455,11.691C833.358,802.726,833.358,802.73,833.358,802.734L833.358,802.734z"/>
			</g>
		</g>
	</g>
	<g>
		<g>
			<g>
				<path fill="#FFFFFF" d="M843.399,799.539c0.651,0,1.119-0.529,1.04-1.178l-0.92-7.402c-0.08-0.646-0.68-1.176-1.332-1.176
					h-6.631c-0.651,0-1.251,0.529-1.331,1.176l-0.921,7.402c-0.079,0.648,0.389,1.178,1.04,1.178H843.399z"/>
			</g>
		</g>
		<g>
			<g>
				<path fill="#221F1F" d="M845.041,798.505c0,0.91-0.722,1.625-1.642,1.625h-9.056c-0.992,0-1.753-0.828-1.628-1.842l0.921-7.402
					c0.116-0.951,0.961-1.697,1.919-1.697h6.631c0.959,0,1.803,0.746,1.92,1.697l0.921,7.402
					C845.036,798.361,845.041,798.433,845.041,798.505L845.041,798.505z M833.893,798.447c0,0.32,0.187,0.498,0.451,0.498h9.056
					c0.269,0,0.456-0.18,0.456-0.439l-0.005-0.07l-0.92-7.404c-0.043-0.35-0.391-0.656-0.744-0.656h-6.631
					c-0.353,0-0.7,0.307-0.743,0.656l-0.92,7.404C833.893,798.437,833.893,798.443,833.893,798.447L833.893,798.447z"/>
			</g>
		</g>
	</g>
	<g>
		<g>
			<g>
				<path fill="#FFFFFF" d="M842.865,795.25c0.652,0,1.12-0.529,1.04-1.176l-0.387-3.115c-0.08-0.646-0.68-1.176-1.332-1.176h-6.631
					c-0.651,0-1.251,0.529-1.331,1.176l-0.388,3.115c-0.08,0.646,0.388,1.176,1.039,1.176H842.865z"/>
			</g>
		</g>
		<g>
			<g>
				<path fill="#221F1F" d="M844.507,794.216c0,0.912-0.721,1.625-1.642,1.625h-7.989c-0.99,0-1.754-0.83-1.627-1.842l0.388-3.113
					c0.116-0.951,0.961-1.697,1.919-1.697h6.631c0.959,0,1.803,0.746,1.92,1.697l0.387,3.113
					C844.503,794.074,844.507,794.144,844.507,794.216L844.507,794.216z M834.425,794.158c0,0.322,0.187,0.498,0.451,0.498h7.989
					c0.269,0,0.456-0.18,0.456-0.439l-0.004-0.07l-0.387-3.115c-0.043-0.35-0.391-0.656-0.744-0.656h-6.631
					c-0.353,0-0.7,0.307-0.743,0.656l-0.388,3.115C834.425,794.15,834.425,794.154,834.425,794.158L834.425,794.158z"/>
			</g>
		</g>
	</g>
</g>
<g>
	<g>
		<path fill="#221F1F" d="M795.211,806.728c1.799,0,3.232,0.505,4.297,1.516c1.066,1.011,1.6,2.395,1.6,4.152
			c0,2.081-0.641,3.681-1.924,4.802c-1.281,1.12-3.115,1.681-5.502,1.681c-2.072,0-3.744-0.336-5.018-1.006v-3.4
			c0.672,0.356,1.453,0.647,2.344,0.873c0.893,0.225,1.736,0.337,2.535,0.337c2.402,0,3.604-0.985,3.604-2.955
			c0-1.877-1.244-2.814-3.73-2.814c-0.451,0-0.947,0.044-1.49,0.134c-0.545,0.089-0.986,0.185-1.326,0.286l-1.566-0.84l0.701-9.488
			h10.1v3.336h-6.648l-0.344,3.655l0.445-0.089C793.805,806.788,794.448,806.728,795.211,806.728z"/>
	</g>
	<g>
		<path fill="#221F1F" d="M815.245,800.004h3.986l-6.33,18.619h-4.305l-6.316-18.619h3.986l3.502,11.08
			c0.195,0.654,0.398,1.416,0.605,2.285c0.207,0.871,0.338,1.477,0.389,1.815c0.094-0.781,0.41-2.147,0.955-4.101L815.245,800.004z"
			/>
	</g>
</g>
<g>
	<path fill="#FFFFFF" d="M1299.563,632.276h-24.068c-1.305,0-2.371,1.069-2.371,2.372v8.422c0,1.303,1.066,2.371,2.371,2.371h6.449
		v95.385c0,3.26-2.668,5.927-5.928,5.927H929.974c-0.027,0-0.054,0.004-0.082,0.004h-34.616c-11.26,0-15.927,4.67-15.927,15.929
		v68.353c3.716-0.208,7.435-0.008,11.169,0.364v-67.548c0-3.261,2.668-5.928,5.928-5.928h346.043c0.027,0,0.054-0.003,0.081-0.004
		h34.617c11.26,0,15.927-4.67,15.927-15.929v-96.554h6.449c1.305,0,2.371-1.068,2.371-2.371v-8.422
		C1301.935,633.345,1300.868,632.276,1299.563,632.276z"/>
	<path fill="#221F1F" d="M1299.563,631.685h-24.068c-1.635,0-2.963,1.329-2.963,2.963v8.422c0,1.634,1.328,2.963,2.963,2.963h5.857
		v94.793c0,2.942-2.395,5.335-5.336,5.335H929.974c-0.027,0-0.054,0.003-0.082,0.004h-34.616c-11.596,0-16.519,4.928-16.519,16.521
		v68.395c0.395-0.027,0.791-0.05,1.186-0.067v-68.328c0-10.942,4.394-15.336,15.333-15.336l380.741-0.004
		c3.596,0,6.521-2.926,6.521-6.521v-95.979h-7.043c-0.98,0-1.777-0.797-1.777-1.777v-8.422c0-0.98,0.797-1.777,1.777-1.777h24.068
		c0.98,0,1.777,0.797,1.777,1.777v8.422c0,0.98-0.797,1.777-1.777,1.777h-7.043v97.147c0,10.942-4.394,15.336-15.333,15.336
		l-380.741,0c-3.596,0-6.521,2.929-6.521,6.524v67.492c0.395,0.038,0.79,0.076,1.186,0.117v-67.609c0-2.942,2.395-5.339,5.336-5.339
		h380.741c11.596,0,16.519-4.928,16.519-16.521v-95.962h5.857c1.635,0,2.963-1.329,2.963-2.963v-8.422
		C1302.526,633.014,1301.198,631.685,1299.563,631.685z"/>
	<g>
		<g>
			<g>
				<g>
					<path fill="#FFFFFF" d="M871.841,803.794c0-0.652,0.534-1.186,1.186-1.186h24.114c0.652,0,1.186,0.533,1.186,1.186v25.891
						c0,0.652-0.533,1.186-1.186,1.186h-24.114c-0.651,0-1.186-0.533-1.186-1.186V803.794z"/>
				</g>
			</g>
			<g>
				<g>
					<path fill="#221F1F" d="M898.919,829.685c0,0.98-0.798,1.779-1.778,1.779h-24.114c-0.98,0-1.777-0.799-1.777-1.779v-25.891
						c0-0.98,0.797-1.779,1.777-1.779h24.114c0.98,0,1.778,0.799,1.778,1.779V829.685L898.919,829.685z M872.435,803.794v25.891
						c0,0.328,0.266,0.594,0.592,0.594h24.114c0.327,0,0.593-0.266,0.593-0.594v-25.891c0-0.328-0.266-0.594-0.593-0.594h-24.114
						C872.7,803.2,872.435,803.466,872.435,803.794L872.435,803.794z"/>
				</g>
			</g>
		</g>
		<g>
			<g>
				<path fill="#FFFFFF" d="M870.817,815.073l0.813-14.539c0.021-0.389,0.24-0.717,0.544-0.934l6.024-26.268h13.772l6.023,26.266
					c0.304,0.217,0.524,0.547,0.545,0.936l0.812,14.539c0.036,0.652-0.467,1.186-1.119,1.186h-26.294
					C871.285,816.259,870.782,815.726,870.817,815.073z"/>
			</g>
			<g>
				<path fill="#221F1F" d="M899.946,815.14c0,0.459-0.178,0.889-0.498,1.211c-0.322,0.322-0.755,0.5-1.217,0.5h-26.294
					c-0.96,0-1.712-0.748-1.712-1.803c0-0.002,0-0.006,0-0.006l0.813-14.541c0.024-0.465,0.242-0.902,0.603-1.232l6.085-26.527
					h14.718l6.083,26.527c0.362,0.33,0.58,0.768,0.604,1.232l0.812,14.541L899.946,815.14L899.946,815.14L899.946,815.14z
					 M891.499,773.927H878.67l-5.919,25.807l-0.05,0.219l-0.184,0.131c-0.085,0.061-0.282,0.229-0.297,0.484l-0.813,14.572
					c0,0.301,0.229,0.525,0.529,0.525h26.294c0.146,0,0.279-0.053,0.377-0.152c0.097-0.098,0.152-0.23,0.152-0.373l0,0h0.593
					l-0.594-0.033l-0.812-14.541c-0.015-0.254-0.214-0.424-0.298-0.484l-0.185-0.129L891.499,773.927L891.499,773.927z"/>
			</g>
		</g>
	</g>
</g>
<g>
	<g>
		<g>
			<g>
				<path fill="#FFFFFF" d="M793.866,844.718c0-8.326,6.163-15.138,13.695-15.138h297.228c7.531,0,13.693,6.812,13.693,15.138
					v209.154c0,8.327-6.163,15.139-13.693,15.139H807.561c-7.532,0-13.695-6.812-13.695-15.139V844.718z"/>
			</g>
		</g>
		<g>
			<g>
				<path fill="#221F1F" d="M807.561,828.823h297.228c7.928,0,14.378,7.13,14.378,15.895v209.154c0,8.765-6.45,15.896-14.378,15.896
					H807.561c-7.929,0-14.378-7.131-14.378-15.896V844.718C793.183,835.953,799.632,828.823,807.561,828.823L807.561,828.823z
					 M1104.789,1068.253c7.173,0,13.008-6.452,13.008-14.382V844.718c0-7.929-5.835-14.381-13.008-14.381H807.561
					c-7.174,0-13.01,6.452-13.01,14.381v209.154c0,7.93,5.835,14.382,13.01,14.382H1104.789L1104.789,1068.253z"/>
			</g>
		</g>
	</g>
	<g>
		<g>
			<path fill="#221F1F" d="M801.688,851.81c0-8.355,6.122-15.192,13.605-15.192h281.761c7.483,0,13.608,6.836,13.608,15.192v194.97
				c0,8.356-6.125,15.193-13.608,15.193H815.293c-7.483,0-13.605-6.837-13.605-15.193V851.81z"/>
		</g>
	</g>
	<g>
		<g>
			<g>
				<path fill-rule="evenodd" clip-rule="evenodd" fill="#FFFFFF" d="M986.65,917.116c-1.041-11.181-8.364-18.443-17.41-22.035
					c0.391-1.422,0.668-2.958,0.544-4.896c-0.946,0.237-2.136,2.575-4.081,2.721c0.279-2.469-0.551-3.827-1.563-5.005
					c-0.636-0.27-1.234-0.615-1.771-1.083c-0.189,0.213-0.296,0.514-0.374,0.474c-0.054,0.698-0.19,1.397-0.48,2.021
					c-0.264,0.744-0.691,1.378-1.284,1.899h0c-3.278,3.984-9.979,4.298-14.385,7.679c-2.472,1.897-4.759,4.985-6.257,8.433
					c-1.416,3.258-3.07,6.951-3.264,11.153c-0.441,9.567,4.552,15.727,11.153,19.587c3.441,2.012,6.848,3.563,9.793,0
					c-2.143-0.595-4.644-0.826-5.168-2.993c-0.315-1.299,0.659-2.187,0.272-3.536c-3.943,1.07-7.877-0.028-9.521-2.448
					c-5.001-7.364,3.954-24.559,14.69-18.227c2.158,1.273,3.005,3.421,4.896,5.441c1.736-4.854,6.02-7.147,10.881-6.257
					c10.179,1.864,14.64,24.329-1.088,22.035c0.792,3.205-0.617,6.169-4.081,5.985c0.065,1.153-0.021,2.154-0.816,2.448
					c0.149,0.658-2.233,0.879-0.816,1.088C979.469,940.448,987.907,930.61,986.65,917.116z"/>
			</g>
			<g>
				<path fill-rule="evenodd" clip-rule="evenodd" fill="#FFFFFF" d="M935.508,916.843c-4.878-0.665-4.822-9.208-2.176-12.241
					c2.049-0.729,3.911,0.213,5.44,0.816C938.428,908.156,936.33,913.247,935.508,916.843z"/>
			</g>
			<g>
				<path fill-rule="evenodd" clip-rule="evenodd" fill="#FFFFFF" d="M987.466,917.388c-0.14-4.576-1.842-7.588-2.992-11.154
					C991.731,900.157,994.421,916.587,987.466,917.388z"/>
			</g>
			<g>
				<path fill-rule="evenodd" clip-rule="evenodd" fill="#FFFFFF" d="M951.014,925.277c0.375,0.35,0.269,1.181,0.271,1.904
					c-0.771,0.283-1.133,0.283-1.903,0C949.141,925.76,949.621,925.062,951.014,925.277z"/>
			</g>
			<g>
				<path fill-rule="evenodd" clip-rule="evenodd" fill="#FFFFFF" d="M973.592,925.277c0.583,0.73,0.583,1.445,0,2.176
					c-0.94,0.215-1.148-0.303-1.632-0.544C971.816,925.676,972.361,925.132,973.592,925.277z"/>
			</g>
			<g>
				<path fill-rule="evenodd" clip-rule="evenodd" fill="#FFFFFF" d="M959.175,935.885c2.096,1.077,5.667,0.681,7.889,1.632
					c-0.196,0.831,0.279,0.992,0.272,1.633c-1.045,1.855-3.765,2.038-6.801,1.904c-2.369,3.505-4.644,6.776-8.433,9.522
					c-1.647,1.192-3.231,2.383-5.168,2.176c-2.464-0.264-4.471-2.745-4.625-4.897c-0.278-3.892,3.733-7.257,5.984-8.976
					c1.224,0.861,2.618,1.552,4.353,1.903c-2.046,1.853-5.031,2.767-6.257,5.44c1.299,0.347,2.134-1.218,2.993-1.904
					c2.662-2.128,6.472-3.865,9.521-5.984C958.819,937.343,958.946,936.563,959.175,935.885z"/>
			</g>
			<g>
				<path fill-rule="evenodd" clip-rule="evenodd" fill="#FFFFFF" d="M971.688,957.375c-0.982,1.824-0.915,4.734-2.992,4.897
					c-2.496,0.196-2.894-3.08-1.905-5.985c2.571-1.963,5.454-3.614,8.705-4.896c-1.123-3.501-3.051-6.197-4.08-9.793
					c4.138-2.345,6.251-0.43,7.889,3.808c0.896,2.319,2.254,5.617,1.904,7.346C980.524,956.141,975.019,956.301,971.688,957.375z"/>
			</g>
			<g>
				<path fill-rule="evenodd" clip-rule="evenodd" fill="#FFFFFF" d="M951.014,955.472c1.718-0.809,3.31-3.52,6.256-3.537
					c2.844-0.018,4.528,1.996,5.985,4.08c0.279,7.624-3.385,11.305-8.977,13.058c0.755,1.741,3.381-1.097,6.256-0.271
					c1.011,0.983,2.058,1.932,1.905,4.08c-4.392,0.149-12.144,1.98-14.418-1.36c2.286-2.94,0.849-4.517-0.816-7.889
					c-1.377-2.791-2.016-5.486-1.632-10.338c0.639,0.27,1.337,0.478,2.177,0.545c6.072-1.998,9.862-6.278,12.785-11.425
					c3.988,0.179,7.407-0.21,10.609-0.816c0.69,3.481,2.158,6.185,3.265,9.249c-2.196,1.603-6.845,2.539-8.161,5.441
					c-1.291,2.848-0.283,6.434,2.449,6.257c2.111-0.137,2.68-2.391,3.264-4.625c2.095-0.081,3.758-0.595,5.441-1.088
					c0.236,6.13-3.315,8.473-5.441,12.241c1.161,0.202,2.099-0.849,3.536-0.815c2.335,0.054,4.653,1.851,4.625,4.352
					c-1.417,1.858-5.844,0.479-9.793,0.272c-2.185-0.114-4.31,0.287-5.441-0.816c-0.263-1.351,0.726-1.451,0.816-2.449
					c-3.181,1.339-3.781-1.69-6.256-1.904c1.947-2.156,4.192-4.715,4.625-7.889c0.573-4.223-1.975-8.28-6.257-8.433
					C954.625,951.278,952.855,953.546,951.014,955.472z"/>
			</g>
			<g>
				<path fill-rule="evenodd" clip-rule="evenodd" fill="#FFFFFF" d="M954.006,928.813c0.056-1.038,1.317-3.214,0.815-5.714
					c-0.964,0.305-1.367,1.172-2.992,0.816c-1.227-0.695-1.921-3.013-0.544-4.081c-3.812-0.481-5.223,3.095-4.896,6.258
					c0.071,0.688,1.435,2.686,0.544,2.175c-3.781-4.166-1.253-11.288,3.537-11.425C955.57,916.697,958.152,925.001,954.006,928.813z
					"/>
			</g>
			<g>
				<path fill="#221F1F" d="M961.896,886.92c0.129,1.063,0.272-0.458,0.942-0.285C962.346,886.241,961.912,886.009,961.896,886.92z"
					/>
			</g>
			<g>
				<path fill="#221F1F" d="M988.554,904.329c-1.747-0.207-3.036,1.069-4.353,1.905c-3.43-5.095-7.82-9.228-14.146-11.425
					c0.102-1.68,0.664-4.154,0-5.714c-1.2,0.165-2.064,3.012-4.08,3.266c0.355-2.813-1.051-4.18-2.449-5.169
					c-0.024-0.017-0.049-0.036-0.073-0.055c1.278,1.394,2.591,2.754,2.249,5.768c1.944-0.146,3.134-2.483,4.081-2.721
					c0.125,1.938-0.153,3.475-0.544,4.896c9.046,3.592,16.369,10.854,17.41,22.035c1.257,13.494-7.181,23.333-20.13,24.482
					c-1.417-0.209,0.965-0.43,0.816-1.088c0.794-0.293,0.881-1.294,0.816-2.448c0.004,0,0.007-0.001,0.011,0
					c-0.063-0.093-0.124-0.185-0.182-0.281c-0.436-0.722-0.903-1.423-1.339-2.145c-2.765,0.15-5.572,0.036-8.14-0.659
					c-0.178,0.172-0.362,0.333-0.552,0.482c-0.031,0.942-0.364,1.823-0.912,2.54c0.078,0.021,0.156,0.041,0.233,0.063
					c-2.945,3.563-6.352,2.012-9.793,0c-6.602-3.86-11.594-10.02-11.153-19.587c0.194-4.202,1.849-7.895,3.264-11.153
					c1.498-3.448,3.785-6.536,6.257-8.433c5.435-4.17,14.362-3.674,16.05-11.153c-1.327,5.753-7.456,5.794-12.242,8.161
					c-4.548,2.248-7.855,5.431-10.065,9.521c-2.467-1.009-4.943-2.573-7.073-0.816c-1.516,1.25-2.035,5.307-1.632,7.889
					c0.333,2.129,1.858,3.596,2.176,4.625c-10.356-1.271-15.544,4.933-16.866,13.601v4.624c0.689,2.304,0.919,5.067,2.721,6.257
					c2.471-1.166,1.783-4.4,1.904-6.801c0.209-4.209,0.866-9.41,3.536-11.154c1.878-1.227,6.356-1.261,8.705-0.271
					c8.297,3.496,0.767,17.833,0.817,26.388c0.055,9.613,5.085,15.698,11.696,17.137c1.041,0.227,2.494-0.08,3.265,0.816
					c0.756,1.308-0.981,1.374-1.633,1.632c-2.798,1.112-7.65,1.477-7.888,4.353c-0.274,3.302,5.918,4.683,9.793,5.44
					c9.127,1.783,19.239,1.806,28.019,0.271c3.671-0.641,10.163-2.462,10.337-5.168c0.195-3.049-3.998-3.314-7.074-4.625
					c-2.434-1.037-3.524-3.021-6.528-1.904c2.014-3.064,4.377-5.778,4.08-11.153c1.554-0.939,3.609-1.337,4.081-3.265
					c0.819-3.347-3.188-12.949-6.529-13.329c7.122-3.94,12.369-9.757,11.97-21.218c1.211-1.538,2.922-1.401,4.08-3.537
					C993.696,911.246,991.553,904.685,988.554,904.329z M933.332,904.602c2.049-0.729,3.911,0.213,5.44,0.816
					c-0.344,2.738-2.443,7.829-3.265,11.425C930.63,916.178,930.686,907.635,933.332,904.602z M936.324,925.548
					c-1.692-2.604-4.865-3.762-8.433-3.536c-8.532,0.54-6.903,10.87-8.433,18.77c-2.972-2.458-2.836-7.413-2.449-10.608
					c1.053-8.683,9.37-15.61,18.498-11.426c0.118,2.511,0.443,4.816,1.088,6.8C936.545,925.857,936.323,925.699,936.324,925.548z
					 M948.293,938.878c1.224,0.861,2.618,1.552,4.353,1.903c-2.046,1.853-5.031,2.767-6.257,5.44
					c1.299,0.347,2.134-1.218,2.993-1.904c2.662-2.128,6.472-3.865,9.521-5.984c-0.084-0.99,0.043-1.771,0.272-2.448
					c2.096,1.077,5.667,0.681,7.889,1.632c-0.196,0.831,0.279,0.992,0.272,1.633c-1.045,1.855-3.765,2.038-6.801,1.904
					c-2.369,3.505-4.644,6.776-8.433,9.522c-1.647,1.192-3.231,2.383-5.168,2.176c-2.464-0.264-4.471-2.745-4.625-4.897
					C942.031,943.962,946.042,940.597,948.293,938.878z M943.941,936.157c1.102,0.792,2.27,1.474,3.264,2.177
					c-3.866,2.668-9.243,11.414-1.904,14.69c-0.65,2.736-0.241,6.522,0.544,8.705c-4.498-1.326-6.798-4.36-7.344-8.977
					c-0.763-6.436,2.45-12.575,2.448-18.498C941.975,934.173,942.931,935.431,943.941,936.157z M934.692,952.207
					c-0.708-7.596,3.732-15.627,2.72-23.394c0.395,1.312,2.664,3.151,2.993,4.896c0.448,2.38-0.731,5.556-1.361,8.161
					c-1.513,6.251-2.603,15.403,2.992,19.042c0.927,0.603,2.037,0.26,3.264,1.088c1.543,1.039,1.37,2.577,2.993,4.352
					C940.434,966.465,935.419,960.013,934.692,952.207z M971.96,969.073c1.161,0.202,2.099-0.849,3.536-0.815
					c2.335,0.054,4.653,1.851,4.625,4.352c-1.417,1.858-5.844,0.479-9.793,0.272c-2.185-0.114-4.31,0.287-5.441-0.816
					c-0.263-1.351,0.726-1.451,0.816-2.449c-3.181,1.339-3.781-1.69-6.256-1.904c1.947-2.156,4.192-4.715,4.625-7.889
					c0.573-4.223-1.975-8.28-6.257-8.433c-3.19-0.113-4.959,2.155-6.801,4.081c1.718-0.809,3.31-3.52,6.256-3.537
					c2.844-0.018,4.528,1.996,5.985,4.08c0.279,7.624-3.385,11.305-8.977,13.058c0.755,1.741,3.381-1.097,6.256-0.271
					c1.011,0.983,2.058,1.932,1.905,4.08c-4.392,0.149-12.144,1.98-14.418-1.36c2.286-2.94,0.849-4.517-0.816-7.889
					c-1.377-2.791-2.016-5.486-1.632-10.338c0.639,0.27,1.337,0.478,2.177,0.545c6.072-1.998,9.862-6.278,12.785-11.425
					c3.988,0.179,7.407-0.21,10.609-0.816c0.69,3.481,2.158,6.185,3.265,9.249c-2.196,1.603-6.845,2.539-8.161,5.441
					c-1.291,2.848-0.283,6.434,2.449,6.257c2.111-0.137,2.68-2.391,3.264-4.625c2.095-0.081,3.758-0.595,5.441-1.088
					C977.637,962.961,974.085,965.304,971.96,969.073z M979.305,945.406c0.896,2.319,2.254,5.617,1.904,7.346
					c-0.685,3.39-6.19,3.55-9.521,4.624c-0.982,1.824-0.915,4.734-2.992,4.897c-2.496,0.196-2.894-3.08-1.905-5.985
					c2.571-1.963,5.454-3.614,8.705-4.896c-1.123-3.501-3.051-6.197-4.08-9.793C975.554,939.253,977.667,941.168,979.305,945.406z
					 M987.466,917.388c-0.14-4.576-1.842-7.588-2.992-11.154C991.731,900.157,994.421,916.587,987.466,917.388z"/>
			</g>
			<g>
				<path fill-rule="evenodd" clip-rule="evenodd" fill="#FFFFFF" d="M977.945,923.916c-0.933-0.462-1.907,0.123-2.992-0.544
					c-0.872-1.051-0.924-2.471-0.272-3.809c-4.405-0.476-6.238,3.804-4.897,7.345c-1.81-1.547-1.398-5.964,0-7.889
					c0.854-1.175,2.803-2.14,4.081-2.176c6.561-0.188,7.688,11.042,1.631,13.058c-0.308-0.053-0.15-0.273,0-0.272
					C977.069,928.48,978.11,926.801,977.945,923.916z"/>
			</g>
			<g>
				<path fill-rule="evenodd" clip-rule="evenodd" fill="#FFFFFF" d="M919.459,940.782c-2.972-2.458-2.836-7.413-2.449-10.608
					c1.053-8.683,9.37-15.61,18.498-11.426c0.118,2.511,0.443,4.816,1.088,6.8c-0.051,0.309-0.273,0.151-0.272,0
					c-1.692-2.604-4.865-3.762-8.433-3.536C919.359,922.551,920.989,932.881,919.459,940.782z"/>
			</g>
			<g>
				<path fill-rule="evenodd" clip-rule="evenodd" fill="#FFFFFF" d="M948.293,966.353c-7.859,0.113-12.874-6.339-13.601-14.146
					c-0.708-7.596,3.732-15.627,2.72-23.394c0.395,1.312,2.664,3.151,2.993,4.896c0.448,2.38-0.731,5.556-1.361,8.161
					c-1.513,6.251-2.603,15.403,2.992,19.042c0.927,0.603,2.037,0.26,3.264,1.088C946.844,963.04,946.67,964.578,948.293,966.353z"
					/>
			</g>
		</g>
		<g>
			<g>
				<path fill-rule="evenodd" clip-rule="evenodd" fill="#FFFFFF" d="M947.665,928.606c-3.482-2.521-2.423-8.826,0-10.611
					c6.06-4.463,11.977,6.198,6.53,10.339c0.252-1.357,1.332-3.108,0.543-4.625c-0.75,0.575-3.345,0.701-4.081-0.816
					c-0.006-1.186-0.162-2.52,0.544-2.992c-2.679,0.042-3.814,1.627-4.353,3.809c-0.45,0.293-0.45,2.427,0,2.721
					C947.064,927.211,947.399,927.874,947.665,928.606z"/>
			</g>
			<g>
				<path fill-rule="evenodd" clip-rule="evenodd" fill="#FFFFFF" d="M969.702,926.429c0,0.091,0,0.181,0,0.272
					c-2.731-5.41,1.593-10.954,6.258-9.523c4.794,1.472,5.011,10.388,0.272,12.244c0-0.091,0-0.182,0-0.272
					c1.101-1.167,1.881-2.654,1.632-5.169c-1.1,0.086-2.841-0.282-3.537-1.36c-0.112-1.201,0.075-2.103,0.544-2.721
					C970.676,919.604,969.441,922.269,969.702,926.429z"/>
			</g>
			<g>
				<path fill-rule="evenodd" clip-rule="evenodd" fill="#FFFFFF" d="M955.374,941.24c1.303-0.223,2.649-0.266,3.983-0.234
					c2.079,0.048,4.157-0.038,6.236-0.069c1.506-0.521,2.383-1.572,1.66-3.625c-2.43-0.834-6.121-0.408-8.162-1.631
					c0.191,1.187-0.462,1.532-0.271,2.72c-1.232,0.731-2.533,1.532-3.839,2.354C955.114,940.914,955.243,941.078,955.374,941.24z"/>
			</g>
			<g>
				<path fill-rule="evenodd" clip-rule="evenodd" fill="#FFFFFF" d="M968.07,939.761c0.027-1.115,0.053-2.231-0.272-2.993
					c-0.883-0.659-2.492-0.592-3.809-0.816c0.858-0.775,2.428-0.837,2.993-1.904c-2.224,1.627-6.822,1.812-8.979,0
					c-0.592-0.569,0.137-0.777,0-1.633c-1.096,0.265-1.531,1.188-2.176,1.904c1.301-0.777,1.719,0.521,2.72,0.816
					c-0.12,1.059-0.206,2.151-0.544,2.992c-0.22,0.053-0.271,0.273-0.544,0.272c-3.476-0.417-6.282-3.185-4.897-6.802
					c-16.722,3.921-12.132-22.125,0.544-22.037c4.369,0.03,7.087,3.147,9.522,6.802c1.395-3.759,4.178-6.512,8.707-6.53
					c11.657-0.046,17.763,23.859,1.088,22.31c0.904,3.25-0.603,6.232-4.082,5.985C968.185,938.606,968.67,939.727,968.07,939.761z
					 M954.195,928.333c5.446-4.141-0.47-14.802-6.53-10.339c-2.423,1.786-3.482,8.09,0,10.611
					C948.813,930.637,953.267,930.273,954.195,928.333z M976.231,929.15c0,0.091,0,0.182,0,0.272
					c4.739-1.856,4.522-10.772-0.272-12.244c-4.665-1.431-8.989,4.113-6.258,9.523c0-0.091,0-0.181,0-0.272
					C970.196,929.011,973.599,931.19,976.231,929.15z M960.452,929.15c0.344,1.369,3.366,0.939,3.809,0
					C964.438,927.386,960.213,927.104,960.452,929.15z"/>
				<path fill="#221F1F" d="M967.685,940.158l0.01-0.407c0.025-1.007,0.05-2.047-0.204-2.74c-0.558-0.36-1.474-0.453-2.361-0.542
					c-0.41-0.042-0.819-0.083-1.204-0.148l-0.762-0.13l0.574-0.518c0.025-0.022,0.051-0.044,0.077-0.066
					c-1.701,0.245-3.552,0.042-4.88-0.553l-0.056,0.502c-0.103,0.945-0.21,1.923-0.527,2.712l-0.072,0.18l-0.188,0.045
					c-0.168,0.138-0.338,0.283-0.63,0.283c-2.18-0.259-4.017-1.343-4.957-2.902c-0.685-1.134-0.853-2.427-0.498-3.771
					c-4.371,0.853-7.671-0.333-9.396-3.322c-1.99-3.446-1.579-8.971,0.999-13.436c2.259-3.914,5.698-6.158,9.435-6.158
					c4.392,0.03,7.181,3.013,9.5,6.381c1.687-3.931,4.786-6.093,8.791-6.109c6.717,0,11.711,7.493,11.711,14.192
					c0,5.597-3.409,8.939-9.119,8.94h-0.002c-0.329,0-0.668-0.011-1.015-0.033c0.35,1.693,0.076,3.272-0.777,4.396
					c-0.787,1.035-2.019,1.568-3.443,1.564c0.006,0.093,0.018,0.193,0.028,0.279c0.046,0.406,0.095,0.826-0.145,1.11
					c-0.082,0.097-0.231,0.216-0.481,0.23L967.685,940.158L967.685,940.158z M953.165,931.072l-0.253,0.66
					c-0.516,1.348-0.435,2.646,0.233,3.754c0.822,1.362,2.452,2.313,4.359,2.542c0.063-0.067,0.126-0.128,0.203-0.177
					c0.24-0.675,0.334-1.539,0.426-2.376l0.01-0.095c-0.277-0.135-0.509-0.321-0.72-0.49c-0.462-0.373-0.812-0.601-1.404-0.249
					l-0.471-0.573c0.149-0.165,0.286-0.342,0.423-0.519c0.461-0.594,0.983-1.268,1.944-1.5l0.394-0.095l0.064,0.401
					c0.077,0.479-0.059,0.802-0.158,1.038c-0.101,0.241-0.101,0.241,0.047,0.384c0.891,0.748,2.381,1.186,4.068,1.186
					c1.731,0,3.387-0.456,4.43-1.218l0.553,0.479c-0.394,0.743-1.143,1.055-1.868,1.355c-0.109,0.045-0.218,0.09-0.323,0.136
					c0.027,0.003,0.055,0.006,0.082,0.008c1.034,0.104,2.104,0.212,2.817,0.745l0.081,0.06l0.04,0.093
					c0.143,0.334,0.224,0.72,0.269,1.136c1.354,0.08,2.437-0.354,3.124-1.258c0.796-1.047,0.988-2.598,0.527-4.255l-0.146-0.524
					l0.542,0.05c0.505,0.047,1,0.024,1.468,0.071c5.241-0.001,8.37-3.063,8.369-8.19c0-6.216-4.773-13.442-10.926-13.442
					c-5.019,0.021-7.329,3.43-8.389,6.286l-0.256,0.689l-0.408-0.612c-2.641-3.962-5.218-6.607-9.213-6.635
					c-3.522,0-6.725,2.107-8.847,5.783c-2.45,4.244-2.861,9.461-0.999,12.686c1.636,2.834,4.896,3.842,9.218,2.828L953.165,931.072
					L953.165,931.072z M956.795,933.715c0.27,0.041,0.501,0.157,0.709,0.296c-0.206-0.373-0.075-0.686,0.019-0.909
					c0.016-0.038,0.032-0.075,0.046-0.112C957.268,933.17,957.03,933.424,956.795,933.715L956.795,933.715z M962.088,930.398
					L962.088,930.398c-1.07,0-1.817-0.433-2-1.157c-0.062-0.504,0.06-0.913,0.343-1.231c0.376-0.423,1.029-0.666,1.791-0.666
					c0.837,0,1.622,0.293,2.048,0.764c0.278,0.307,0.403,0.68,0.363,1.079l-0.034,0.122
					C964.267,930.017,963.058,930.398,962.088,930.398L962.088,930.398z M962.222,928.094c-0.54,0-1,0.155-1.23,0.414
					c-0.141,0.158-0.196,0.354-0.167,0.598c0.128,0.499,1,0.542,1.263,0.542c0.824,0,1.597-0.31,1.803-0.606
					c0-0.159-0.059-0.3-0.177-0.431C963.43,928.297,962.844,928.094,962.222,928.094L962.222,928.094z M950.685,930.343
					L950.685,930.343c-1.508,0-2.735-0.552-3.305-1.48c-1.489-1.114-2.313-2.972-2.323-5.243c-0.01-2.448,0.97-4.885,2.384-5.927
					c1.031-0.76,2.11-1.145,3.206-1.145c2.788,0,4.846,2.407,5.65,4.792c0.753,2.236,0.669,5.301-1.807,7.238
					C953.845,929.797,952.128,930.343,950.685,930.343L950.685,930.343z M950.647,917.298c-0.932,0-1.861,0.336-2.761,0.998
					c-1.214,0.895-2.088,3.132-2.079,5.32c0.005,1.192,0.281,3.386,2.077,4.686l0.107,0.119c0.415,0.734,1.421,1.172,2.693,1.172
					c1.467,0,2.771-0.584,3.172-1.422l0.111-0.136c2.227-1.693,2.296-4.444,1.619-6.455
					C954.737,919.059,952.706,917.298,950.647,917.298L950.647,917.298z M973.951,930.33c-2.02,0-3.976-1.527-4.532-3.472
					l-0.052,0.012c-1.235-2.446-1.177-5.201,0.157-7.367c1.438-2.335,4.082-3.439,6.546-2.683c2.297,0.705,3.856,3.136,3.972,6.193
					c0.12,3.185-1.321,5.837-3.673,6.759l-0.512,0.201v-0.131C975.262,930.163,974.614,930.33,973.951,930.33L973.951,930.33z
					 M970.07,926.359c0.334,1.746,2.111,3.221,3.881,3.221c0.739,0,1.429-0.245,2.051-0.727l0.604-0.469v0.449
					c2.088-1.148,2.761-3.776,2.685-5.793c-0.103-2.733-1.454-4.894-3.442-5.504c-2.143-0.657-4.427,0.311-5.688,2.359
					c-1.167,1.896-1.24,4.303-0.206,6.474L970.07,926.359L970.07,926.359z"/>
			</g>
			<g>
				<path fill-rule="evenodd" clip-rule="evenodd" fill="#221F1F" d="M969.702,926.429c-0.261-4.161,0.975-6.825,5.169-6.529
					c-0.47,0.618-0.657,1.52-0.544,2.721c0.696,1.079,2.437,1.447,3.537,1.36c0.249,2.515-0.531,4.002-1.632,5.169
					C973.599,931.19,970.196,929.011,969.702,926.429z M972.423,927.518c1.749,0.389,2.262-0.978,1.632-2.177
					C972.234,924.72,971.665,926.422,972.423,927.518z"/>
			</g>
			<g>
				<path fill-rule="evenodd" clip-rule="evenodd" fill="#FFFFFF" d="M951.746,926.974c-0.509,0.777-2.569,0.823-2.449-0.544
					C949.227,924.769,952.369,925.016,951.746,926.974z"/>
			</g>
			<g>
				<path fill-rule="evenodd" clip-rule="evenodd" fill="#221F1F" d="M964.261,929.15c-0.442,0.939-3.464,1.369-3.809,0
					C960.213,927.104,964.438,927.386,964.261,929.15z"/>
			</g>
			<g>
				<path fill-rule="evenodd" clip-rule="evenodd" fill="#221F1F" d="M957.459,938.4c-0.903,0.681-1.891,1.275-2.901,1.849
					c0.074,0.086,0.147,0.172,0.22,0.257c0.069,0.081,0.135,0.166,0.203,0.248c1.306-0.822,2.607-1.623,3.839-2.354
					c-0.191-1.188,0.462-1.533,0.271-2.72c2.041,1.224,5.732,0.797,8.162,1.631c0.723,2.052-0.154,3.104-1.66,3.625
					c0.476-0.007,0.952-0.009,1.428-0.008c0.413-0.326,0.745-0.733,1.049-1.167c0.027-1.115,0.053-2.231-0.272-2.993
					c-0.883-0.659-2.492-0.592-3.809-0.816c0.858-0.775,2.428-0.837,2.993-1.904c-2.224,1.627-6.822,1.812-8.979,0
					c-0.592-0.569,0.137-0.777,0-1.633c-1.096,0.265-1.531,1.188-2.176,1.904c1.301-0.777,1.719,0.521,2.72,0.816
					c-0.12,1.059-0.206,2.151-0.544,2.992C957.783,938.18,957.732,938.4,957.459,938.4z"/>
			</g>
			<g>
				<path fill-rule="evenodd" clip-rule="evenodd" fill="#221F1F" d="M946.849,923.708c0.539-2.182,1.674-3.767,4.353-3.809
					c-0.706,0.473-0.551,1.806-0.544,2.992c0.736,1.517,3.331,1.392,4.081,0.816c0.789,1.517-0.291,3.268-0.543,4.625
					c-0.928,1.939-5.382,2.304-6.53,0.272c-0.265-0.732-0.6-1.395-0.816-2.177C946.849,925.522,946.849,924.615,946.849,923.708z
					 M949.297,926.429c-0.12,1.367,1.94,1.321,2.449,0.544C952.369,925.016,949.227,924.769,949.297,926.429z"/>
			</g>
			<g>
				<path fill-rule="evenodd" clip-rule="evenodd" fill="#221F1F" d="M946.849,923.708c0,0.907,0,1.813,0,2.721"/>
			</g>
			<g>
				<path fill-rule="evenodd" clip-rule="evenodd" fill="#FFFFFF" d="M974.055,925.341c0.629,1.199,0.116,2.566-1.632,2.177
					C971.665,926.422,972.234,924.72,974.055,925.341z"/>
			</g>
		</g>
	</g>
	<g>
		<path fill="#FFFFFF" d="M889.709,1018.999c-1.572,0-2.79,0.546-3.652,1.638c-0.862,1.092-1.293,2.615-1.293,4.566
			c0,4.063,1.648,6.093,4.946,6.093c1.383,0,3.059-0.319,5.027-0.959v3.24c-1.617,0.623-3.423,0.935-5.418,0.935
			c-2.866,0-5.058-0.804-6.576-2.411c-1.519-1.607-2.278-3.914-2.278-6.922c0-1.894,0.373-3.553,1.119-4.978
			s1.817-2.517,3.214-3.277c1.397-0.76,3.034-1.14,4.912-1.14c1.914,0,3.836,0.428,5.768,1.284l-1.348,3.14
			c-0.737-0.324-1.478-0.606-2.224-0.847C891.16,1019.119,890.428,1018.999,889.709,1018.999z"/>
		<path fill="#FFFFFF" d="M909.277,1034.263l-0.553-1.782h-0.215c-0.44,0.647-1.065,1.148-1.874,1.501
			c-0.809,0.353-1.729,0.53-2.763,0.53c-1.77,0-3.104-0.438-4.002-1.314c-0.898-0.876-1.348-2.137-1.348-3.782v-9.083h4.11v8.137
			c0,1.005,0.193,1.759,0.58,2.261s1.002,0.754,1.846,0.754c1.15,0,1.981-0.355,2.493-1.065s0.768-1.887,0.768-3.532v-6.554h4.11
			v13.931H909.277z"/>
		<path fill="#FFFFFF" d="M925.125,1020.07c1.779,0,3.171,0.642,4.178,1.925c1.006,1.284,1.509,3.043,1.509,5.277
			c0,2.301-0.519,4.083-1.557,5.345c-1.038,1.263-2.45,1.894-4.238,1.894c-1.77,0-3.158-0.594-4.164-1.782h-0.283l-0.687,1.533
			h-3.14v-19.388h4.11v4.511c0,0.573-0.054,1.491-0.162,2.753h0.162C921.814,1020.76,923.238,1020.07,925.125,1020.07z
			 M923.804,1023.11c-1.015,0-1.756,0.289-2.224,0.866c-0.467,0.578-0.709,1.53-0.728,2.86v0.411c0,1.495,0.24,2.567,0.721,3.214
			c0.481,0.648,1.242,0.972,2.285,0.972c0.844,0,1.516-0.359,2.015-1.078s0.748-1.764,0.748-3.134c0-1.371-0.252-2.398-0.755-3.084
			C925.363,1023.453,924.676,1023.11,923.804,1023.11z"/>
		<path fill="#FFFFFF" d="M934.033,1016.731c0-1.238,0.746-1.856,2.237-1.856c1.491,0,2.237,0.619,2.237,1.856
			c0,0.59-0.187,1.049-0.559,1.377c-0.373,0.328-0.932,0.492-1.678,0.492C934.778,1018.6,934.033,1017.977,934.033,1016.731z
			 M938.318,1034.263h-4.11v-13.931h4.11V1034.263z"/>
		<path fill="#FFFFFF" d="M949.45,1034.512c-2.426,0-4.321-0.619-5.687-1.856s-2.048-2.991-2.048-5.258
			c0-2.334,0.631-4.139,1.894-5.414c1.262-1.275,3.007-1.913,5.235-1.913c2.129,0,3.787,0.561,4.973,1.682
			c1.186,1.121,1.779,2.671,1.779,4.648v1.844h-9.716c0.044,1.08,0.391,1.923,1.038,2.529c0.646,0.606,1.554,0.91,2.722,0.91
			c0.907,0,1.765-0.087,2.574-0.262c0.809-0.175,1.653-0.453,2.534-0.835v2.941c-0.719,0.333-1.487,0.58-2.304,0.741
			C951.624,1034.431,950.627,1034.512,949.45,1034.512z M948.871,1022.774c-0.872,0-1.555,0.256-2.049,0.767
			s-0.777,1.236-0.849,2.174h5.768c-0.018-0.938-0.283-1.664-0.795-2.174S949.742,1022.774,948.871,1022.774z"/>
		<path fill="#FFFFFF" d="M966.862,1034.263h-4.178v-15.002h-5.35v-3.214h14.878v3.214h-5.35V1034.263z"/>
		<path fill="#FFFFFF" d="M983.33,1020.07c0.557,0,1.02,0.037,1.388,0.112l-0.31,3.564c-0.333-0.083-0.737-0.125-1.213-0.125
			c-1.312,0-2.333,0.312-3.066,0.935c-0.732,0.623-1.098,1.495-1.098,2.617v7.09h-4.11v-13.931h3.113l0.606,2.342h0.202
			c0.467-0.781,1.099-1.41,1.894-1.888C981.531,1020.309,982.395,1020.07,983.33,1020.07z"/>
		<path fill="#FFFFFF" d="M998.127,1034.263l-0.553-1.782h-0.215c-0.44,0.647-1.065,1.148-1.874,1.501
			c-0.809,0.353-1.729,0.53-2.763,0.53c-1.77,0-3.104-0.438-4.002-1.314c-0.898-0.876-1.348-2.137-1.348-3.782v-9.083h4.11v8.137
			c0,1.005,0.193,1.759,0.58,2.261s1.002,0.754,1.846,0.754c1.15,0,1.981-0.355,2.493-1.065s0.768-1.887,0.768-3.532v-6.554h4.11
			v13.931H998.127z"/>
		<path fill="#FFFFFF" d="M1011.711,1034.512c-4.689,0-7.035-2.38-7.035-7.14c0-2.368,0.638-4.176,1.914-5.427
			c1.276-1.25,3.104-1.875,5.485-1.875c1.743,0,3.306,0.315,4.69,0.947l-1.213,2.94c-0.647-0.241-1.249-0.438-1.806-0.592
			c-0.557-0.153-1.114-0.231-1.671-0.231c-2.138,0-3.207,1.404-3.207,4.212c0,2.725,1.069,4.087,3.207,4.087
			c0.791,0,1.523-0.097,2.197-0.293c0.674-0.195,1.348-0.5,2.021-0.916v3.252c-0.665,0.391-1.336,0.661-2.015,0.81
			S1012.744,1034.512,1011.711,1034.512z"/>
		<path fill="#FFFFFF" d="M1023.732,1026.687l1.792-2.119l4.218-4.236h4.636l-5.984,6.043l6.348,7.888h-4.744l-4.34-5.645
			l-1.765,1.308v4.336h-4.11v-19.388h4.11v8.647l-0.216,3.166H1023.732z"/>
	</g>
</g>
<rect x="670.191" y="405.712" fill="none" width="1088.912" height="885.028"/>
</svg>
