<?xml version="1.0" encoding="utf-8"?>
<!-- Generator: Adobe Illustrator 14.0.0, SVG Export Plug-In . SVG Version: 6.00 Build 43363)  -->
<!DOCTYPE svg PUBLIC "-//W3C//DTD SVG 1.1//EN" "http://www.w3.org/Graphics/SVG/1.1/DTD/svg11.dtd">
<svg version="1.1" id="Слой_1" xmlns="http://www.w3.org/2000/svg" xmlns:xlink="http://www.w3.org/1999/xlink" x="0px" y="0px"
	 width="2834.65px" height="2834.65px" viewBox="0 0 2834.65 2834.65" enable-background="new 0 0 2834.65 2834.65"
	 xml:space="preserve">
<g>
	<g>
		<g>
			<g>
				<g>
					<path fill="#FFFFFF" d="M803.565,749.486c0-1.304-1.068-2.371-2.371-2.371h-78.631c-1.305,0-2.371,1.067-2.371,2.371v78.635
						c0,1.304,1.066,2.371,2.371,2.371h78.631c1.303,0,2.371-1.067,2.371-2.371V749.486z"/>
				</g>
			</g>
			<g>
				<g>
					<path fill="#221F1F" d="M722.563,746.522h78.631c1.635,0,2.963,1.329,2.963,2.964v78.635c0,1.635-1.328,2.964-2.963,2.964
						h-78.631c-1.635,0-2.965-1.329-2.965-2.964v-78.635C719.598,747.851,720.928,746.522,722.563,746.522L722.563,746.522z
						 M801.194,829.899c0.98,0,1.777-0.798,1.777-1.778v-78.635c0-0.98-0.797-1.778-1.777-1.778h-78.631
						c-0.98,0-1.779,0.798-1.779,1.778v78.635c0,0.98,0.799,1.778,1.779,1.778H801.194L801.194,829.899z"/>
				</g>
			</g>
		</g>
		<g>
			<g>
				<g>
					<path fill="#FFFFFF" d="M796.797,756.253c0-1.304-1.066-2.371-2.371-2.371h-65.098c-1.303,0-2.371,1.067-2.371,2.371v65.102
						c0,1.304,1.068,2.371,2.371,2.371h65.098c1.305,0,2.371-1.067,2.371-2.371V756.253z"/>
				</g>
			</g>
			<g>
				<g>
					<path fill="#221F1F" d="M729.329,753.289h65.098c1.635,0,2.965,1.329,2.965,2.964v65.102c0,1.635-1.33,2.964-2.965,2.964
						h-65.098c-1.635,0-2.963-1.329-2.963-2.964v-65.102C726.366,754.618,727.694,753.289,729.329,753.289L729.329,753.289z
						 M794.426,823.133c0.982,0,1.779-0.798,1.779-1.778v-65.102c0-0.98-0.797-1.778-1.779-1.778h-65.098
						c-0.98,0-1.777,0.798-1.777,1.778v65.102c0,0.98,0.797,1.778,1.777,1.778H794.426L794.426,823.133z"/>
				</g>
			</g>
		</g>
		<g>
			<g>
				<g>
					<path fill="#FFFFFF" d="M783.139,788.804c0-13.541-9.523-22.108-21.26-22.108c-11.738,0-21.258,8.567-21.258,22.108
						s9.52,22.108,21.258,22.108C773.616,810.912,783.139,802.345,783.139,788.804z"/>
				</g>
				<g>
					<path fill="#221F1F" d="M761.879,766.103c12.66,0,21.852,9.547,21.852,22.701s-9.191,22.701-21.852,22.701
						c-12.662,0-21.85-9.547-21.85-22.701S749.217,766.103,761.879,766.103L761.879,766.103z M761.879,810.319
						c11.975,0,20.666-9.048,20.666-21.516s-8.691-21.516-20.666-21.516s-20.664,9.048-20.664,21.516
						S749.905,810.319,761.879,810.319L761.879,810.319z"/>
				</g>
			</g>
			<g>
				<g>
					<g>
						<rect x="754.35" y="783.063" fill="#FFFFFF" width="3.24" height="11.412"/>
					</g>
					<g>
						<path fill="#221F1F" d="M753.758,782.469h4.426v12.599h-4.426V782.469L753.758,782.469z M756.999,783.655h-2.055v10.227h2.055
							V783.655L756.999,783.655z"/>
					</g>
				</g>
				<g>
					<g>
						<rect x="766.167" y="783.063" fill="#FFFFFF" width="3.242" height="11.412"/>
					</g>
					<g>
						<path fill="#221F1F" d="M765.575,782.469H770v12.599h-4.426V782.469L765.575,782.469z M768.815,783.655h-2.055v10.227h2.055
							V783.655L768.815,783.655z"/>
					</g>
				</g>
			</g>
		</g>
	</g>
	<g>
		<g>
			<g>
				<g>
					<circle fill="#221F1F" cx="761.879" cy="788.804" r="21.664"/>
				</g>
				<g>
					<path fill="#221F1F" d="M761.879,766.547c12.271,0,22.258,9.984,22.258,22.257s-9.986,22.257-22.258,22.257
						c-12.273,0-22.258-9.984-22.258-22.257S749.606,766.547,761.879,766.547L761.879,766.547z M761.879,809.875
						c11.619,0,21.072-9.453,21.072-21.071c0-11.619-9.453-21.071-21.072-21.071s-21.072,9.452-21.072,21.071
						C740.807,800.422,750.26,809.875,761.879,809.875L761.879,809.875z"/>
				</g>
			</g>
			<g>
				<g>
					<path fill="#FFFFFF" d="M740.444,786.591v4.945h3.158v9.411h0.338c3.896,5.743,10.475,9.521,17.939,9.521
						c7.463,0,14.047-3.774,17.943-9.52l0.092-9.412h3.064v-4.945h-3.016l0.096-9.574c-3.863-5.946-10.563-9.877-18.18-9.877
						c-7.686,0-14.438,4.002-18.283,10.037l0.006,0.577v8.837H740.444z"/>
				</g>
				<g>
					<path fill="#221F1F" d="M761.879,766.547c7.566,0,14.549,3.793,18.676,10.147c0.064,0.099,0.098,0.212,0.096,0.328
						l-0.088,8.976h2.416c0.328,0,0.592,0.266,0.592,0.593v4.945c0,0.327-0.264,0.593-0.592,0.593h-2.477l-0.088,8.825
						c0,0.116-0.037,0.23-0.102,0.326c-4.152,6.124-11.045,9.78-18.434,9.78c-7.281,0-14.078-3.554-18.25-9.521h-0.027
						c-0.328,0-0.594-0.266-0.594-0.593v-8.818h-2.564c-0.328,0-0.592-0.266-0.592-0.593v-4.945c0-0.327,0.264-0.593,0.592-0.593
						h2.564l-0.006-8.815c0-0.114,0.031-0.227,0.094-0.324C747.211,770.401,754.233,766.547,761.879,766.547L761.879,766.547z
						 M779.463,777.191c-3.92-5.927-10.479-9.459-17.584-9.459c-7.182,0-13.779,3.592-17.689,9.616l0.004,0.399v8.843
						c0,0.328-0.266,0.592-0.592,0.592h-2.564v3.76h2.564c0.326,0,0.592,0.266,0.592,0.593v8.875
						c0.094,0.045,0.178,0.114,0.238,0.203c3.932,5.799,10.455,9.261,17.447,9.261c6.938,0,13.41-3.403,17.352-9.113l0.092-9.231
						c0.002-0.325,0.268-0.587,0.592-0.587h2.471v-3.76h-2.422c-0.158,0-0.311-0.063-0.422-0.175s-0.172-0.264-0.17-0.423
						L779.463,777.191L779.463,777.191z"/>
				</g>
			</g>
			<g>
				<g>
					<path fill="#FFFFFF" d="M766.276,830.189l0.459-16.993l3.332-3.557v-26.091H753.69v26.091l3.332,3.557l0.457,16.993
						l1.186,1.296v113.618c0,6.423,4.248,10.671,10.67,10.671h156.742c3.262,0,5.93-1.446,5.93-3.213
						c0-1.769-2.668-3.214-5.93-3.214H771.018c-3.26,0-5.928-2.668-5.928-5.929V831.485L766.276,830.189z"/>
				</g>
				<g>
					<path fill="#221F1F" d="M753.69,782.955h16.377c0.328,0,0.592,0.266,0.592,0.594v26.091c0,0.15-0.057,0.295-0.158,0.405
						l-3.178,3.393l-0.453,16.769c-0.004,0.143-0.061,0.279-0.156,0.385l-1.029,1.125v111.703c0,2.942,2.393,5.335,5.334,5.335
						h155.059c3.658,0,6.521,1.672,6.521,3.808c0,2.134-2.863,3.806-6.521,3.806H769.334c-6.736,0-11.264-4.526-11.264-11.264
						V831.716l-1.029-1.125c-0.096-0.105-0.15-0.242-0.156-0.385l-0.451-16.769l-3.176-3.393c-0.104-0.11-0.16-0.255-0.16-0.405
						v-26.091C753.098,783.221,753.364,782.955,753.69,782.955L753.69,782.955z M769.473,784.141h-15.189v25.266l3.17,3.385
						c0.1,0.105,0.156,0.244,0.16,0.39l0.451,16.771l1.037,1.133c0.1,0.11,0.154,0.252,0.154,0.4v113.618
						c0,6.122,3.957,10.078,10.078,10.078h156.742c3.146,0,5.336-1.382,5.336-2.62c0-1.24-2.189-2.621-5.336-2.621H771.018
						c-3.596,0-6.521-2.927-6.521-6.521V831.485c0-0.148,0.057-0.29,0.156-0.4l1.035-1.133l0.455-16.771
						c0.004-0.146,0.061-0.284,0.16-0.39l3.17-3.385V784.141L769.473,784.141z"/>
				</g>
			</g>
			<g>
				<g>
					<path fill="#FFFFFF" d="M743.624,777.134c0,0,3.736-3.97,12.438-5.327v8.931l-2.371,2.812h16.377l-2.371-2.812v-8.96
						c8.639,1.327,12.361,5.356,12.361,5.356l0.002-0.117c-2.932-4.511-7.496-7.858-12.855-9.212
						c-4.512-1.109-6.588-1.109-10.654,0.002C751.147,769.174,746.551,772.565,743.624,777.134z"/>
				</g>
				<g>
					<path fill="#221F1F" d="M761.711,766.38L761.711,766.38c1.549,0,3.182,0.246,5.635,0.849
						c5.449,1.378,10.139,4.739,13.209,9.466c0.064,0.099,0.098,0.212,0.096,0.328c-0.002,0.242-0.152,0.518-0.379,0.604
						c-0.227,0.09-0.484,0.086-0.648-0.09c-0.037-0.037-3.516-3.687-11.336-5.063v8.046l2.232,2.646
						c0.148,0.176,0.182,0.423,0.084,0.633c-0.098,0.208-0.307,0.342-0.537,0.342H753.69c-0.23,0-0.439-0.134-0.537-0.342
						c-0.098-0.21-0.064-0.457,0.084-0.633l2.232-2.646v-8.015c-7.885,1.399-11.379,4.999-11.414,5.036
						c-0.211,0.22-0.557,0.246-0.795,0.058c-0.242-0.188-0.301-0.529-0.135-0.786c3.066-4.789,7.783-8.191,13.279-9.582
						C758.616,766.628,760.155,766.38,761.711,766.38L761.711,766.38z M777.153,774.283c-2.725-2.87-6.205-4.922-10.094-5.904
						c-2.35-0.577-3.9-0.813-5.348-0.813l0,0c-1.441,0-2.893,0.235-5.004,0.813c-3.893,0.985-7.369,3.031-10.09,5.891
						c2.076-1.143,5.145-2.392,9.352-3.049c0.17-0.027,0.348,0.023,0.479,0.136s0.207,0.276,0.207,0.45v8.931
						c0,0.14-0.051,0.275-0.141,0.382l-1.547,1.836h13.824l-1.549-1.836c-0.09-0.106-0.141-0.242-0.141-0.382v-8.96
						c0-0.173,0.076-0.338,0.207-0.451c0.131-0.112,0.305-0.163,0.477-0.135C772.014,771.841,775.088,773.119,777.153,774.283
						L777.153,774.283z"/>
				</g>
			</g>
		</g>
		<g>
			<g>
				<g>
					<path fill="#FFFFFF" d="M938.958,943.342l-11.41,0.53c-1.785,0.188-2.613,0.188-2.613,0.188L893.598,948v9.002l31.334,3.937
						c0,0,0.828,0,2.615,0.191l11.41,0.53c0.789,0.023,3.084-1.132,3.084-1.557v-15.205
						C942.042,944.475,939.747,943.318,938.958,943.342z"/>
				</g>
				<g>
					<path fill="#221F1F" d="M938.983,942.749c0.75,0,3.65,1.119,3.65,2.149v15.205c0,1.03-2.9,2.15-3.65,2.15l-11.463-0.532
						c-1.76-0.188-2.58-0.19-2.588-0.19l-31.928-4.006v-10.049l31.855-4.003c0.082-0.005,0.902-0.008,2.625-0.19L938.983,942.749
						L938.983,942.749z M941.448,945.051c-0.387-0.365-1.951-1.116-2.467-1.116l0.002-0.593l-0.008,0.593l-11.398,0.529
						c-1.764,0.188-2.607,0.189-2.643,0.189l-30.744,3.869v7.956l30.816,3.871c-0.037-0.006,0.816-0.001,2.605,0.191l11.375,0.528
						c0.51-0.002,2.074-0.753,2.461-1.116V945.051L941.448,945.051z"/>
				</g>
			</g>
			<g>
				<g>
					<g>
						<path fill="#FFFFFF" d="M907.641,947.438c0-0.651-0.529-1.119-1.176-1.039l-11.691,1.455c-0.646,0.08-1.176,0.68-1.176,1.332
							v6.631c0,0.651,0.529,1.251,1.176,1.331l11.691,1.454c0.646,0.081,1.176-0.387,1.176-1.04V947.438z"/>
					</g>
				</g>
				<g>
					<g>
						<path fill="#221F1F" d="M906.608,945.796c0.912,0,1.625,0.721,1.625,1.642v10.124c0,0.993-0.834,1.751-1.842,1.628
							l-11.689-1.454c-0.951-0.116-1.697-0.961-1.697-1.919v-6.631c0-0.959,0.746-1.803,1.697-1.92l11.689-1.455
							C906.465,945.801,906.536,945.796,906.608,945.796L906.608,945.796z M906.549,958.014c0.322,0,0.498-0.187,0.498-0.452
							v-10.124c0-0.269-0.18-0.456-0.439-0.456l-0.07,0.005l-11.691,1.455c-0.35,0.043-0.656,0.391-0.656,0.744v6.631
							c0,0.353,0.307,0.7,0.656,0.743l11.691,1.455C906.542,958.014,906.545,958.014,906.549,958.014L906.549,958.014z"/>
					</g>
				</g>
			</g>
			<g>
				<g>
					<g>
						<path fill="#FFFFFF" d="M903.354,947.973c0-0.651-0.529-1.119-1.178-1.04l-7.402,0.92c-0.646,0.08-1.176,0.68-1.176,1.332
							v6.631c0,0.651,0.529,1.251,1.176,1.331l7.402,0.921c0.648,0.079,1.178-0.389,1.178-1.04V947.973z"/>
					</g>
				</g>
				<g>
					<g>
						<path fill="#221F1F" d="M902.321,946.331c0.91,0,1.625,0.722,1.625,1.642v9.056c0,0.992-0.828,1.753-1.842,1.628l-7.402-0.921
							c-0.951-0.116-1.697-0.961-1.697-1.919v-6.631c0-0.959,0.746-1.803,1.697-1.92l7.402-0.921
							C902.176,946.336,902.249,946.331,902.321,946.331L902.321,946.331z M902.262,957.479c0.32,0,0.498-0.187,0.498-0.451v-9.056
							c0-0.269-0.18-0.456-0.439-0.456l-0.07,0.005l-7.404,0.92c-0.35,0.043-0.656,0.391-0.656,0.744v6.631
							c0,0.353,0.307,0.7,0.656,0.743l7.404,0.92C902.252,957.479,902.258,957.479,902.262,957.479L902.262,957.479z"/>
					</g>
				</g>
			</g>
			<g>
				<g>
					<g>
						<path fill="#FFFFFF" d="M899.065,948.507c0-0.652-0.529-1.12-1.176-1.04l-3.115,0.387c-0.646,0.08-1.176,0.68-1.176,1.332
							v6.631c0,0.651,0.529,1.251,1.176,1.331l3.115,0.388c0.646,0.08,1.176-0.388,1.176-1.039V948.507z"/>
					</g>
				</g>
				<g>
					<g>
						<path fill="#221F1F" d="M898.032,946.865c0.912,0,1.625,0.721,1.625,1.642v7.989c0,0.99-0.83,1.754-1.842,1.627l-3.113-0.388
							c-0.951-0.116-1.697-0.961-1.697-1.919v-6.631c0-0.959,0.746-1.803,1.697-1.92l3.113-0.387
							C897.889,946.869,897.959,946.865,898.032,946.865L898.032,946.865z M897.973,956.947c0.322,0,0.498-0.187,0.498-0.451v-7.989
							c0-0.269-0.18-0.456-0.439-0.456l-0.07,0.004l-3.115,0.387c-0.35,0.043-0.656,0.391-0.656,0.744v6.631
							c0,0.353,0.307,0.7,0.656,0.743l3.115,0.388C897.965,956.947,897.969,956.947,897.973,956.947L897.973,956.947z"/>
					</g>
				</g>
			</g>
		</g>
	</g>
	<g>
		<g>
			<g>
				<path fill="#FFFFFF" d="M972.131,1094.212c-2.746,0-4.992,16.006-4.992,35.568v34.63v23.921v48.652
					c0,19.563,2.246,35.568,4.992,35.568c2.744,0,4.99-16.006,4.99-35.568v-46.569v-24.97v-35.664
					C977.122,1110.218,974.875,1094.212,972.131,1094.212z"/>
			</g>
			<g>
				<path fill="#221F1F" d="M972.131,1093.619c-4.098,0-5.586,21.625-5.586,36.161v34.545v23.808v48.85
					c0,14.536,1.488,36.161,5.586,36.161s5.584-21.625,5.584-36.161v-46.386v-25.111v-35.706
					C977.715,1115.244,976.229,1093.619,972.131,1093.619z M976.53,1190.232v46.751c0,22.963-2.863,34.976-4.398,34.976
					s-4.4-12.013-4.4-34.976v-48.5v-23.99v-34.714c0-22.963,2.865-34.976,4.4-34.976s4.398,12.013,4.398,34.976v35.623V1190.232z"/>
			</g>
		</g>
		<g>
			<g>
				<g>
					<path fill="#FFFFFF" d="M966.098,1142.948c0.123,1.357,0.029,7.348,0.037,8.908c0.01,1.568,11.932,1.568,11.939,0
						c0.012-1.965-0.189-7.508,0-9.156C974.364,1143.499,969.844,1143.125,966.098,1142.948z"/>
				</g>
				<g>
					<path fill="#221F1F" d="M978.758,1141.946l-0.094,0.822c-0.127,1.092-0.072,4.037-0.029,6.403
						c0.02,1.095,0.037,2.067,0.033,2.688c-0.008,1.46-3.574,1.767-6.563,1.767c-2.99,0-6.555-0.307-6.563-1.767
						c-0.002-0.432,0.004-1.2,0.01-2.115c0.016-2.305,0.041-5.788-0.047-6.743l-0.061-0.677l2.08,0.103
						c1.613,0.085,3.285,0.172,4.957,0.172c2.184,0,3.973-0.156,5.467-0.479L978.758,1141.946L978.758,1141.946z M977.483,1151.745
						c0-0.614-0.016-1.529-0.033-2.552c-0.037-1.97-0.08-4.333-0.02-5.767c-1.408,0.24-3.037,0.357-4.947,0.357
						c-1.703,0-3.391-0.088-5.02-0.174l-0.738-0.037c0.047,1.423,0.027,4.119,0.014,6.179c-0.006,0.838-0.012,1.552-0.01,1.993
						c0.393,0.295,2.273,0.695,5.377,0.695S977.09,1152.04,977.483,1151.745L977.483,1151.745z"/>
				</g>
			</g>
			<g>
				<g>
					<path fill="#FFFFFF" d="M965.954,1140.577c0.123,1.357,0.174,6.162,0.182,7.723c0.01,1.568,11.932,1.568,11.939,0
						c0.012-1.965-0.189-6.075,0-7.723C974.364,1141.376,969.698,1140.754,965.954,1140.577z"/>
				</g>
				<g>
					<path fill="#221F1F" d="M978.758,1139.823l-0.094,0.821c-0.123,1.069-0.074,3.255-0.033,5.185
						c0.021,0.947,0.041,1.826,0.037,2.473c-0.008,1.461-3.574,1.768-6.563,1.768c-2.99,0-6.555-0.307-6.563-1.768
						c-0.01-1.964-0.068-6.424-0.182-7.672l-0.061-0.678l0.68,0.032c0.826,0.04,1.695,0.1,2.592,0.162
						c1.662,0.116,3.381,0.235,5.061,0.235c1.703,0,3.115-0.126,4.316-0.385L978.758,1139.823L978.758,1139.823z M973.633,1141.567
						c-1.721,0-3.461-0.121-5.143-0.238c-0.65-0.045-1.287-0.09-1.902-0.125c0.09,1.83,0.131,5.526,0.139,6.984
						c0.393,0.295,2.273,0.695,5.379,0.695c3.104,0,4.984-0.4,5.377-0.695c0-0.627-0.018-1.449-0.037-2.334
						c-0.033-1.58-0.072-3.33-0.018-4.553C976.325,1141.479,975.075,1141.567,973.633,1141.567L973.633,1141.567z"/>
				</g>
			</g>
			<g>
				<g>
					<path fill="#FFFFFF" d="M966.135,1144.743c0.01,1.568,11.932,1.568,11.939,0c0.113-22.445,10.672-22.741,10.672-36.969
						c0-9.195-0.004-30.855-0.004-30.855c0.037-0.652-0.467-1.185-1.119-1.185h-14.275H960.35h-3.762
						c-0.652,0-1.156,0.533-1.121,1.185c0,0-0.002,21.66-0.002,30.855C955.465,1122.002,966.022,1122.298,966.135,1144.743z"/>
				</g>
				<g>
					<path fill="#221F1F" d="M956.588,1075.142h31.035c0.48,0,0.924,0.188,1.248,0.532c0.326,0.345,0.49,0.798,0.463,1.277
						l0.004,30.823c0,6.482-2.182,10.221-4.49,14.178c-2.869,4.912-6.117,10.48-6.18,22.793c-0.008,1.461-3.574,1.768-6.563,1.768
						c-2.99,0-6.555-0.307-6.563-1.768c-0.063-12.313-3.313-17.881-6.18-22.793c-2.311-3.957-4.49-7.695-4.49-14.178l0.002-30.855
						c-0.025-0.447,0.139-0.9,0.463-1.245C955.665,1075.33,956.108,1075.142,956.588,1075.142L956.588,1075.142z M977.483,1144.632
						c0.084-12.554,3.406-18.25,6.34-23.277c2.324-3.98,4.33-7.419,4.33-13.58l-0.002-30.855c0.01-0.185-0.041-0.325-0.141-0.43
						c-0.098-0.104-0.236-0.162-0.387-0.162h-31.035c-0.152,0-0.289,0.058-0.387,0.162c-0.1,0.104-0.15,0.245-0.143,0.397v30.888
						c0,6.161,2.006,9.6,4.33,13.58c2.932,5.027,6.256,10.724,6.338,23.277c0.393,0.295,2.273,0.695,5.379,0.695
						S977.09,1144.927,977.483,1144.632L977.483,1144.632z"/>
				</g>
			</g>
		</g>
		<g>
			<g>
				<g>
					<path fill="#FFFFFF" d="M966.098,1223.815c0.123-1.357,0.029-7.348,0.037-8.908c0.01-1.568,11.932-1.568,11.939,0
						c0.012,1.965-0.189,7.508,0,9.156C974.364,1223.265,969.844,1223.639,966.098,1223.815z"/>
				</g>
				<g>
					<path fill="#221F1F" d="M978.758,1224.817l-0.809-0.174c-1.494-0.322-3.283-0.479-5.467-0.479
						c-1.672,0-3.344,0.087-4.957,0.172l-2.08,0.103l0.061-0.677c0.088-0.955,0.063-4.438,0.047-6.743
						c-0.006-0.915-0.012-1.684-0.01-2.115c0.008-1.46,3.572-1.767,6.563-1.767c2.988,0,6.555,0.307,6.563,1.767
						c0.004,0.62-0.014,1.593-0.033,2.688c-0.043,2.366-0.098,5.312,0.029,6.403L978.758,1224.817L978.758,1224.817z
						 M977.483,1215.019c-0.393-0.295-2.273-0.695-5.377-0.695s-4.984,0.4-5.377,0.695c-0.002,0.441,0.004,1.155,0.01,1.993
						c0.014,2.06,0.033,4.755-0.014,6.179l0.738-0.037c1.629-0.086,3.316-0.174,5.02-0.174c1.91,0,3.539,0.117,4.947,0.357
						c-0.061-1.434-0.018-3.797,0.02-5.767C977.467,1216.548,977.483,1215.633,977.483,1215.019L977.483,1215.019z"/>
				</g>
			</g>
			<g>
				<g>
					<path fill="#FFFFFF" d="M965.954,1226.187c0.123-1.357,0.174-6.162,0.182-7.723c0.01-1.568,11.932-1.568,11.939,0
						c0.012,1.965-0.189,6.074,0,7.723C974.364,1225.388,969.698,1226.01,965.954,1226.187z"/>
				</g>
				<g>
					<path fill="#221F1F" d="M978.758,1226.94l-0.809-0.174c-1.201-0.259-2.613-0.385-4.316-0.385c-1.68,0-3.398,0.119-5.061,0.235
						c-0.896,0.063-1.766,0.122-2.592,0.162l-0.68,0.032l0.061-0.678c0.113-1.248,0.172-5.708,0.182-7.672
						c0.008-1.461,3.572-1.768,6.563-1.768c2.988,0,6.555,0.307,6.563,1.768c0.004,0.646-0.016,1.525-0.037,2.473
						c-0.041,1.93-0.09,4.115,0.033,5.185L978.758,1226.94L978.758,1226.94z M973.633,1225.196c1.441,0,2.691,0.088,3.795,0.266
						c-0.055-1.223-0.016-2.973,0.018-4.553c0.02-0.885,0.037-1.707,0.037-2.334c-0.393-0.295-2.273-0.695-5.377-0.695
						c-3.105,0-4.986,0.4-5.379,0.695c-0.008,1.458-0.049,5.154-0.139,6.984c0.615-0.035,1.252-0.08,1.902-0.125
						C970.172,1225.317,971.913,1225.196,973.633,1225.196L973.633,1225.196z"/>
				</g>
			</g>
			<g>
				<g>
					<path fill="#FFFFFF" d="M966.135,1222.021c0.01-1.568,11.932-1.568,11.939,0c0.113,22.445,10.672,22.741,10.672,36.969
						c0,9.195-0.004,30.855-0.004,30.855c0.037,0.651-0.467,1.185-1.119,1.185h-14.275H960.35h-3.762
						c-0.652,0-1.156-0.533-1.121-1.185c0,0-0.002-21.66-0.002-30.855C955.465,1244.762,966.022,1244.466,966.135,1222.021z"/>
				</g>
				<g>
					<path fill="#221F1F" d="M956.588,1291.622c-0.48,0-0.924-0.189-1.25-0.532c-0.324-0.345-0.488-0.798-0.463-1.245l-0.002-30.855
						c0-6.482,2.18-10.221,4.49-14.178c2.867-4.912,6.117-10.48,6.18-22.793c0.008-1.461,3.572-1.768,6.563-1.768
						c2.988,0,6.555,0.307,6.563,1.768c0.063,12.313,3.311,17.881,6.18,22.793c2.309,3.957,4.49,7.695,4.49,14.178l-0.004,30.823
						c0.027,0.479-0.137,0.933-0.463,1.277c-0.324,0.343-0.768,0.532-1.248,0.532H956.588L956.588,1291.622z M977.483,1222.132
						c-0.393-0.295-2.271-0.695-5.377-0.695s-4.986,0.4-5.379,0.695c-0.082,12.554-3.406,18.25-6.338,23.277
						c-2.324,3.98-4.33,7.419-4.33,13.58v30.888c-0.008,0.152,0.043,0.293,0.143,0.397c0.098,0.104,0.234,0.162,0.387,0.162h31.035
						c0.15,0,0.289-0.058,0.387-0.162c0.1-0.104,0.15-0.245,0.141-0.43l0.002-30.855c0-6.161-2.006-9.6-4.33-13.58
						C980.889,1240.382,977.567,1234.686,977.483,1222.132L977.483,1222.132z"/>
				</g>
			</g>
		</g>
	</g>
	<g>
		<g>
			<g>
				<g>
					<g>
						<path fill="#FFFFFF" d="M1410.782,938.871c0,3.261-2.667,5.928-5.928,5.928h-66.524c-3.261,0-5.928-2.667-5.928-5.928v-11.434
							c0-3.261,2.667-5.928,5.928-5.928h66.524c3.261,0,5.928,2.667,5.928,5.928V938.871z"/>
					</g>
				</g>
				<g>
					<g>
						<path fill="#221F1F" d="M1404.854,945.392h-66.524c-3.596,0-6.521-2.925-6.521-6.521v-11.434c0-3.596,2.925-6.521,6.521-6.521
							h66.524c3.596,0,6.521,2.925,6.521,6.521v11.434C1411.375,942.467,1408.45,945.392,1404.854,945.392L1404.854,945.392z
							 M1338.33,922.103c-2.942,0-5.335,2.393-5.335,5.335v11.434c0,2.942,2.393,5.335,5.335,5.335h66.524
							c2.942,0,5.336-2.393,5.336-5.335v-11.434c0-2.942-2.394-5.335-5.336-5.335H1338.33L1338.33,922.103z"/>
					</g>
				</g>
			</g>
			<g>
				<g>
					<g>
						<path fill="#FFFFFF" d="M1772.039,938.871c0,3.261-2.668,5.928-5.93,5.928h-66.523c-3.262,0-5.928-2.667-5.928-5.928v-11.434
							c0-3.261,2.666-5.928,5.928-5.928h66.523c3.262,0,5.93,2.667,5.93,5.928V938.871z"/>
					</g>
				</g>
				<g>
					<g>
						<path fill="#221F1F" d="M1766.109,945.392h-66.523c-3.596,0-6.521-2.925-6.521-6.521v-11.434c0-3.596,2.926-6.521,6.521-6.521
							h66.523c3.596,0,6.521,2.925,6.521,6.521v11.434C1772.631,942.467,1769.705,945.392,1766.109,945.392L1766.109,945.392z
							 M1699.586,922.103c-2.943,0-5.336,2.393-5.336,5.335v11.434c0,2.942,2.393,5.335,5.336,5.335h66.523
							c2.943,0,5.336-2.393,5.336-5.335v-11.434c0-2.942-2.393-5.335-5.336-5.335H1699.586L1699.586,922.103z"/>
					</g>
				</g>
			</g>
		</g>
		<g>
			<g>
				<g>
					<g>
						<g>
							<path fill="#FFFFFF" d="M1807.916,875.772c0,10.021-32.012,18.223-71.137,18.223h-369.119
								c-39.125,0-71.137-8.201-71.137-18.223s32.012-38.223,71.137-38.223h369.119
								C1775.904,837.55,1807.916,865.751,1807.916,875.772z"/>
						</g>
					</g>
					<g>
						<g>
							<path fill="#221F1F" d="M1736.779,894.588h-369.119c-40.223,0-71.729-8.265-71.729-18.815s31.507-38.815,71.729-38.815
								h369.119c40.223,0,71.73,28.265,71.73,38.815S1777.002,894.588,1736.779,894.588L1736.779,894.588z M1367.661,838.142
								c-38.239,0-70.544,28.074-70.544,37.63s32.305,17.63,70.544,17.63h369.119c38.238,0,70.545-8.073,70.545-17.63
								s-32.307-37.63-70.545-37.63H1367.661L1367.661,838.142z"/>
						</g>
					</g>
				</g>
				<g>
					<g>
						<g>
							<path fill="#FFFFFF" d="M1807.916,925.707c0,6.521-5.336,11.855-11.855,11.855h-487.681c-6.521,0-11.855-5.335-11.855-11.855
								v-47.251c0-6.521,5.335-11.856,11.855-11.856h487.681c6.52,0,11.855,5.335,11.855,11.856V925.707z"/>
						</g>
					</g>
					<g>
						<g>
							<path fill="#221F1F" d="M1796.061,938.155h-487.681c-6.863,0-12.448-5.584-12.448-12.448v-47.251
								c0-6.863,5.585-12.449,12.448-12.449h487.681c6.863,0,12.449,5.586,12.449,12.449v47.251
								C1808.51,932.571,1802.924,938.155,1796.061,938.155L1796.061,938.155z M1308.379,867.192
								c-6.21,0-11.263,5.053-11.263,11.264v47.251c0,6.21,5.053,11.263,11.263,11.263h487.681c6.211,0,11.264-5.053,11.264-11.263
								v-47.251c0-6.211-5.053-11.264-11.264-11.264H1308.379L1308.379,867.192z"/>
						</g>
					</g>
				</g>
				<g>
					<g>
						<rect x="1335.546" y="875.647" fill="#FFFFFF" width="433.346" height="52.868"/>
					</g>
					<g>
						<path fill="#221F1F" d="M1769.486,929.108h-434.533v-54.054h434.533V929.108L1769.486,929.108z M1336.139,927.923h432.162
							V876.24h-432.162V927.923L1336.139,927.923z"/>
					</g>
				</g>
			</g>
			<g>
				<g>
					<g>
						<circle fill="#FFFFFF" cx="1733.937" cy="899.71" r="22.229"/>
					</g>
					<g>
						<path fill="#221F1F" d="M1733.936,922.532c-12.584,0-22.82-10.238-22.82-22.822s10.236-22.821,22.82-22.821
							s22.822,10.237,22.822,22.821S1746.52,922.532,1733.936,922.532L1733.936,922.532z M1733.936,878.074
							c-11.93,0-21.635,9.706-21.635,21.636c0,11.931,9.705,21.637,21.635,21.637c11.932,0,21.637-9.706,21.637-21.637
							C1755.572,887.78,1745.867,878.074,1733.936,878.074L1733.936,878.074z"/>
					</g>
				</g>
				<g>
					<g>
						<g>
							<g>
								<path fill="#FFFFFF" d="M1746.385,901.219c0,6.521-5.336,11.856-11.855,11.856h-1.186c-6.521,0-11.855-5.336-11.855-11.856
									V708.45c0-6.521,5.334-11.855,11.855-11.855h1.186c6.52,0,11.855,5.335,11.855,11.855V901.219z"/>
							</g>
						</g>
						<g>
							<g>
								<path fill="#221F1F" d="M1734.529,913.668h-1.186c-6.863,0-12.449-5.585-12.449-12.449V708.45
									c0-6.863,5.586-12.448,12.449-12.448h1.186c6.863,0,12.449,5.585,12.449,12.448v192.769
									C1746.979,908.083,1741.393,913.668,1734.529,913.668L1734.529,913.668z M1733.344,697.188
									c-6.211,0-11.264,5.053-11.264,11.263v192.769c0,6.211,5.053,11.264,11.264,11.264h1.186
									c6.211,0,11.264-5.053,11.264-11.264V708.45c0-6.21-5.053-11.263-11.264-11.263H1733.344L1733.344,697.188z"/>
							</g>
						</g>
					</g>
					<g>
						<g>
							<rect x="1721.488" y="734.788" fill="#646464" width="24.896" height="6.694"/>
						</g>
						<g>
							<path fill="#221F1F" d="M1746.979,742.075h-26.084v-7.881h26.084V742.075L1746.979,742.075z M1722.08,740.89h23.713v-5.51
								h-23.713V740.89L1722.08,740.89z"/>
						</g>
					</g>
				</g>
			</g>
		</g>
	</g>
	<g>
		<g>
			<g>
				<g>
					<rect x="1396.768" y="886.765" fill="#221F1F" width="37.148" height="24.44"/>
				</g>
			</g>
			<g>
				<g>
					<rect x="1405.079" y="905.579" fill="#221F1F" width="20.527" height="10.274"/>
				</g>
			</g>
			<g>
				<g>
					<rect x="1409.479" y="908.512" fill="#221F1F" width="11.728" height="10.274"/>
				</g>
			</g>
		</g>
		<g>
			<g>
				<g>
					<polygon fill="#FFFFFF" points="1407.432,899.714 1405.653,899.714 1405.653,889.448 1407.432,889.448 1407.432,899.714 					
						"/>
				</g>
			</g>
			<g>
				<g>
					<polygon fill="#FFFFFF" points="1411.832,899.714 1410.053,899.714 1410.053,889.448 1411.832,889.448 1411.832,899.714 					
						"/>
				</g>
			</g>
			<g>
				<g>
					<polygon fill="#FFFFFF" points="1416.231,899.714 1414.452,899.714 1414.452,889.448 1416.231,889.448 1416.231,899.714 					
						"/>
				</g>
			</g>
			<g>
				<g>
					<polygon fill="#FFFFFF" points="1420.629,899.714 1418.852,899.714 1418.852,889.448 1420.629,889.448 1420.629,899.714 					
						"/>
				</g>
			</g>
			<g>
				<g>
					<polygon fill="#FFFFFF" points="1425.029,899.714 1423.25,899.714 1423.25,889.448 1425.029,889.448 1425.029,899.714 					"/>
				</g>
			</g>
		</g>
	</g>
	<g>
		<g>
			<g>
				<g>
					<rect x="1443.904" y="886.765" fill="#221F1F" width="37.148" height="24.44"/>
				</g>
			</g>
			<g>
				<g>
					<rect x="1452.215" y="905.579" fill="#221F1F" width="20.527" height="10.274"/>
				</g>
			</g>
			<g>
				<g>
					<rect x="1456.615" y="908.512" fill="#221F1F" width="11.729" height="10.274"/>
				</g>
			</g>
		</g>
		<g>
			<g>
				<g>
					<polygon fill="#FFFFFF" points="1454.568,899.714 1452.789,899.714 1452.789,889.448 1454.568,889.448 1454.568,899.714 					
						"/>
				</g>
			</g>
			<g>
				<g>
					<polygon fill="#FFFFFF" points="1458.969,899.714 1457.189,899.714 1457.189,889.448 1458.969,889.448 1458.969,899.714 					
						"/>
				</g>
			</g>
			<g>
				<g>
					<polygon fill="#FFFFFF" points="1463.367,899.714 1461.588,899.714 1461.588,889.448 1463.367,889.448 1463.367,899.714 					
						"/>
				</g>
			</g>
			<g>
				<g>
					<polygon fill="#FFFFFF" points="1467.766,899.714 1465.988,899.714 1465.988,889.448 1467.766,889.448 1467.766,899.714 					
						"/>
				</g>
			</g>
			<g>
				<g>
					<polygon fill="#FFFFFF" points="1472.166,899.714 1470.387,899.714 1470.387,889.448 1472.166,889.448 1472.166,899.714 					
						"/>
				</g>
			</g>
		</g>
	</g>
	<g>
		<g>
			<g>
				<g>
					<rect x="1491.328" y="886.765" fill="#221F1F" width="37.148" height="24.44"/>
				</g>
			</g>
			<g>
				<g>
					<rect x="1499.639" y="905.579" fill="#221F1F" width="20.527" height="10.274"/>
				</g>
			</g>
			<g>
				<g>
					<rect x="1504.039" y="908.512" fill="#221F1F" width="11.729" height="10.274"/>
				</g>
			</g>
		</g>
		<g>
			<g>
				<g>
					<polygon fill="#FFFFFF" points="1501.992,899.714 1500.215,899.714 1500.215,889.448 1501.992,889.448 1501.992,899.714 					
						"/>
				</g>
			</g>
			<g>
				<g>
					<polygon fill="#FFFFFF" points="1506.393,899.714 1504.613,899.714 1504.613,889.448 1506.393,889.448 1506.393,899.714 					
						"/>
				</g>
			</g>
			<g>
				<g>
					<polygon fill="#FFFFFF" points="1510.791,899.714 1509.014,899.714 1509.014,889.448 1510.791,889.448 1510.791,899.714 					
						"/>
				</g>
			</g>
			<g>
				<g>
					<polygon fill="#FFFFFF" points="1515.189,899.714 1513.412,899.714 1513.412,889.448 1515.189,889.448 1515.189,899.714 					
						"/>
				</g>
			</g>
			<g>
				<g>
					<polygon fill="#FFFFFF" points="1519.59,899.714 1517.811,899.714 1517.811,889.448 1519.59,889.448 1519.59,899.714 					"/>
				</g>
			</g>
		</g>
	</g>
	<g>
		<g>
			<g>
				<g>
					<rect x="1538.752" y="886.765" fill="#221F1F" width="37.148" height="24.44"/>
				</g>
			</g>
			<g>
				<g>
					<rect x="1547.061" y="905.579" fill="#221F1F" width="20.529" height="10.274"/>
				</g>
			</g>
			<g>
				<g>
					<rect x="1551.461" y="908.512" fill="#221F1F" width="11.729" height="10.274"/>
				</g>
			</g>
		</g>
		<g>
			<g>
				<g>
					<polygon fill="#FFFFFF" points="1549.416,899.714 1547.637,899.714 1547.637,889.448 1549.416,889.448 1549.416,899.714 					
						"/>
				</g>
			</g>
			<g>
				<g>
					<polygon fill="#FFFFFF" points="1553.814,899.714 1552.037,899.714 1552.037,889.448 1553.814,889.448 1553.814,899.714 					
						"/>
				</g>
			</g>
			<g>
				<g>
					<polygon fill="#FFFFFF" points="1558.215,899.714 1556.436,899.714 1556.436,889.448 1558.215,889.448 1558.215,899.714 					
						"/>
				</g>
			</g>
			<g>
				<g>
					<polygon fill="#FFFFFF" points="1562.613,899.714 1560.834,899.714 1560.834,889.448 1562.613,889.448 1562.613,899.714 					
						"/>
				</g>
			</g>
			<g>
				<g>
					<polygon fill="#FFFFFF" points="1567.012,899.714 1565.234,899.714 1565.234,889.448 1567.012,889.448 1567.012,899.714 					
						"/>
				</g>
			</g>
		</g>
	</g>
	<g>
		<g>
			<g>
				<g>
					<rect x="1640.176" y="886.765" fill="#221F1F" width="37.148" height="24.44"/>
				</g>
			</g>
			<g>
				<g>
					<rect x="1648.486" y="905.579" fill="#221F1F" width="20.527" height="10.274"/>
				</g>
			</g>
			<g>
				<g>
					<rect x="1652.887" y="908.512" fill="#221F1F" width="11.729" height="10.274"/>
				</g>
			</g>
		</g>
		<g>
			<g>
				<g>
					<polygon fill="#FFFFFF" points="1650.84,899.714 1649.061,899.714 1649.061,889.448 1650.84,889.448 1650.84,899.714 					"/>
				</g>
			</g>
			<g>
				<g>
					<polygon fill="#FFFFFF" points="1655.238,899.714 1653.461,899.714 1653.461,889.448 1655.238,889.448 1655.238,899.714 					
						"/>
				</g>
			</g>
			<g>
				<g>
					<polygon fill="#FFFFFF" points="1659.639,899.714 1657.859,899.714 1657.859,889.448 1659.639,889.448 1659.639,899.714 					
						"/>
				</g>
			</g>
			<g>
				<g>
					<polygon fill="#FFFFFF" points="1664.037,899.714 1662.26,899.714 1662.26,889.448 1664.037,889.448 1664.037,899.714 					"/>
				</g>
			</g>
			<g>
				<g>
					<polygon fill="#FFFFFF" points="1668.436,899.714 1666.658,899.714 1666.658,889.448 1668.436,889.448 1668.436,899.714 					
						"/>
				</g>
			</g>
		</g>
	</g>
	<g>
		<g>
			<g>
				<circle fill="#221F1F" cx="1368.875" cy="902.081" r="14.228"/>
			</g>
		</g>
		<g>
			<g>
				<circle fill="#FFFFFF" cx="1368.875" cy="902.081" r="3.545"/>
			</g>
		</g>
	</g>
	<g>
		<g>
			<g>
				<g>
					<g>
						<path fill="#FFFFFF" d="M1676.604,895.084c0-1.304-1.066-2.371-2.371-2.371h-31.27c-1.305,0-2.371,1.067-2.371,2.371v18.948
							c0,1.305,1.066,2.371,2.371,2.371h31.27c1.305,0,2.371-1.066,2.371-2.371V895.084z"/>
					</g>
				</g>
				<g>
					<g>
						<path fill="#221F1F" d="M1674.232,916.997h-31.27c-1.635,0-2.965-1.33-2.965-2.965v-18.948c0-1.634,1.33-2.964,2.965-2.964
							h31.27c1.635,0,2.963,1.33,2.963,2.964v18.948C1677.195,915.667,1675.867,916.997,1674.232,916.997L1674.232,916.997z
							 M1642.963,893.306c-0.98,0-1.777,0.797-1.777,1.778v18.948c0,0.98,0.797,1.779,1.777,1.779h31.27
							c0.98,0,1.777-0.799,1.777-1.779v-18.948c0-0.981-0.797-1.778-1.777-1.778H1642.963L1642.963,893.306z"/>
					</g>
				</g>
			</g>
			<g>
				<g>
					<polygon fill="#FFFFFF" points="1676.604,892.713 1640.592,892.713 1644.383,889.869 1672.813,889.869 					"/>
				</g>
				<g>
					<path fill="#221F1F" d="M1676.604,893.306h-36.012c-0.256,0-0.482-0.164-0.563-0.405c-0.08-0.242,0.002-0.509,0.207-0.662
						l3.791-2.843c0.102-0.078,0.227-0.119,0.355-0.119h28.43c0.129,0,0.254,0.041,0.355,0.119l3.791,2.843
						c0.205,0.153,0.287,0.42,0.207,0.662C1677.086,893.142,1676.859,893.306,1676.604,893.306L1676.604,893.306z M1642.369,892.12
						h32.457l-2.211-1.658h-28.035L1642.369,892.12L1642.369,892.12z"/>
				</g>
			</g>
		</g>
		<g>
			<g>
				<g>
					<path fill="#FFFFFF" d="M1670.631,897.975h-24.066c-1.305,0-2.371,1.069-2.371,2.372v8.422c0,1.303,1.066,2.371,2.371,2.371
						h6.449v405.899c0,3.26,2.512,5.928,5.584,5.928s5.584-2.668,5.584-5.928V911.14h6.449c1.305,0,2.371-1.068,2.371-2.371v-8.422
						C1673.002,899.044,1671.936,897.975,1670.631,897.975z"/>
				</g>
				<g>
					<path fill="#221F1F" d="M1658.598,1323.56c-3.406,0-6.178-2.926-6.178-6.521V911.731h-5.855c-1.635,0-2.965-1.329-2.965-2.963
						v-8.422c0-1.634,1.33-2.963,2.965-2.963h24.066c1.635,0,2.965,1.329,2.965,2.963v8.422c0,1.634-1.33,2.963-2.965,2.963h-5.855
						v405.308C1664.775,1320.634,1662.004,1323.56,1658.598,1323.56L1658.598,1323.56z M1646.564,898.569
						c-0.98,0-1.779,0.797-1.779,1.777v8.422c0,0.98,0.799,1.777,1.779,1.777h7.041v406.493c0,2.941,2.24,5.335,4.992,5.335
						s4.992-2.394,4.992-5.335V910.546h7.041c0.98,0,1.779-0.797,1.779-1.777v-8.422c0-0.98-0.799-1.777-1.779-1.777H1646.564
						L1646.564,898.569z"/>
				</g>
			</g>
			<g>
				<g>
					<path fill="#CFD0CB" d="M1807.281,1329.074c0-16.453-13.336-29.787-29.787-29.787c-0.525,0-1.041,0.052-1.561,0.077
						c-5.68-22.76-26.254-39.624-50.771-39.624c-9.727,0-18.828,2.663-26.631,7.285c-6.926-15.036-22.119-25.479-39.76-25.479
						c-17.904,0-33.287,10.755-40.064,26.154c-6.262-2.678-13.152-4.164-20.393-4.164c-23.797,0-43.84,16.019-49.975,37.857
						c-21.385,1.255-38.344,18.988-38.344,40.69c0,22.515,18.252,40.768,40.768,40.768c7.244,0,14.039-1.896,19.936-5.209
						c7.184,11.608,20.029,19.346,34.684,19.346c4.838,0,9.479-0.848,13.783-2.395c9.488,13.982,25.51,23.168,43.678,23.168
						c23.719,0,43.779-15.654,50.416-37.194c7.666,9.219,19.221,15.088,32.146,15.088c21.936,0,39.91-16.903,41.641-38.391
						C1798.807,1353.28,1807.281,1342.177,1807.281,1329.074z"/>
				</g>
			</g>
			<g>
				<g>
					<path fill="#221F1F" d="M1607.611,1340.885v-18.62h3.947v18.62H1607.611z"/>
				</g>
				<g>
					<path fill="#221F1F" d="M1629.084,1340.885h-3.885v-8.316c0-1.027-0.182-1.798-0.547-2.313c-0.365-0.513-0.947-0.77-1.744-0.77
						c-1.088,0-1.873,0.362-2.357,1.09c-0.484,0.725-0.725,1.929-0.725,3.609v6.699h-3.885v-14.238h2.967l0.521,1.821h0.217
						c0.434-0.688,1.029-1.208,1.789-1.56c0.76-0.354,1.625-0.529,2.592-0.529c1.656,0,2.912,0.448,3.771,1.344
						c0.857,0.896,1.285,2.188,1.285,3.878V1340.885z"/>
				</g>
				<g>
					<path fill="#221F1F" d="M1639.082,1338.045c0.68,0,1.494-0.148,2.445-0.445v2.891c-0.969,0.433-2.156,0.649-3.566,0.649
						c-1.553,0-2.686-0.393-3.395-1.179c-0.709-0.785-1.063-1.962-1.063-3.533v-6.865h-1.859v-1.643l2.139-1.299l1.121-3.006h2.484
						v3.031h3.986v2.916h-3.986v6.865c0,0.552,0.154,0.96,0.465,1.223C1638.162,1337.913,1638.572,1338.045,1639.082,1338.045z"/>
				</g>
				<g>
					<path fill="#221F1F" d="M1650.85,1341.14c-2.293,0-4.084-0.632-5.375-1.897s-1.936-3.057-1.936-5.375
						c0-2.386,0.598-4.23,1.789-5.533c1.193-1.304,2.842-1.955,4.949-1.955c2.012,0,3.578,0.573,4.699,1.719
						c1.121,1.146,1.682,2.73,1.682,4.751v1.885h-9.184c0.043,1.104,0.369,1.966,0.98,2.586c0.611,0.619,1.469,0.93,2.574,0.93
						c0.855,0,1.668-0.09,2.432-0.268c0.764-0.179,1.563-0.464,2.395-0.854v3.006c-0.68,0.339-1.406,0.592-2.178,0.758
						C1652.904,1341.057,1651.963,1341.14,1650.85,1341.14z M1650.303,1329.143c-0.824,0-1.469,0.262-1.936,0.782
						c-0.469,0.523-0.734,1.264-0.803,2.224h5.451c-0.018-0.96-0.268-1.7-0.752-2.224
						C1651.779,1329.404,1651.125,1329.143,1650.303,1329.143z"/>
				</g>
				<g>
					<path fill="#221F1F" d="M1667.764,1326.379c0.525,0,0.963,0.038,1.313,0.114l-0.293,3.643
						c-0.314-0.084-0.697-0.127-1.146-0.127c-1.24,0-2.207,0.318-2.898,0.955s-1.037,1.528-1.037,2.675v7.246h-3.885v-14.238h2.941
						l0.574,2.395h0.189c0.441-0.798,1.039-1.441,1.791-1.93C1666.063,1326.623,1666.881,1326.379,1667.764,1326.379z"/>
				</g>
				<g>
					<path fill="#221F1F" d="M1684.805,1340.885h-3.885v-8.316c0-1.027-0.184-1.798-0.549-2.313c-0.365-0.513-0.945-0.77-1.744-0.77
						c-1.088,0-1.871,0.362-2.355,1.09c-0.484,0.725-0.727,1.929-0.727,3.609v6.699h-3.885v-14.238h2.969l0.521,1.821h0.217
						c0.434-0.688,1.029-1.208,1.789-1.56c0.76-0.354,1.623-0.529,2.592-0.529c1.656,0,2.912,0.448,3.77,1.344
						s1.287,2.188,1.287,3.878V1340.885z"/>
				</g>
				<g>
					<path fill="#221F1F" d="M1695.248,1341.14c-2.293,0-4.084-0.632-5.375-1.897s-1.936-3.057-1.936-5.375
						c0-2.386,0.596-4.23,1.789-5.533c1.193-1.304,2.842-1.955,4.947-1.955c2.014,0,3.58,0.573,4.701,1.719
						c1.119,1.146,1.68,2.73,1.68,4.751v1.885h-9.182c0.041,1.104,0.369,1.966,0.98,2.586c0.611,0.619,1.469,0.93,2.572,0.93
						c0.857,0,1.668-0.09,2.434-0.268c0.764-0.179,1.561-0.464,2.393-0.854v3.006c-0.678,0.339-1.404,0.592-2.178,0.758
						C1697.303,1341.057,1696.359,1341.14,1695.248,1341.14z M1694.699,1329.143c-0.822,0-1.469,0.262-1.936,0.782
						c-0.467,0.523-0.734,1.264-0.803,2.224h5.451c-0.018-0.96-0.268-1.7-0.75-2.224
						C1696.178,1329.404,1695.523,1329.143,1694.699,1329.143z"/>
				</g>
				<g>
					<path fill="#221F1F" d="M1710.213,1338.045c0.678,0,1.494-0.148,2.445-0.445v2.891c-0.969,0.433-2.158,0.649-3.566,0.649
						c-1.555,0-2.686-0.393-3.395-1.179c-0.709-0.785-1.063-1.962-1.063-3.533v-6.865h-1.859v-1.643l2.139-1.299l1.121-3.006h2.484
						v3.031h3.986v2.916h-3.986v6.865c0,0.552,0.154,0.96,0.465,1.223C1709.293,1337.913,1709.703,1338.045,1710.213,1338.045z"/>
				</g>
			</g>
		</g>
	</g>
	<g>
		<g>
			<g>
				<g>
					<g>
						<path fill="#FFFFFF" d="M1397.469,895.084c0-1.304,1.066-2.371,2.371-2.371h31.267c1.305,0,2.371,1.067,2.371,2.371v18.948
							c0,1.305-1.066,2.371-2.371,2.371h-31.267c-1.305,0-2.371-1.066-2.371-2.371V895.084z"/>
					</g>
				</g>
				<g>
					<g>
						<path fill="#221F1F" d="M1399.84,916.997c-1.635,0-2.965-1.33-2.965-2.965v-18.948c0-1.634,1.33-2.964,2.965-2.964h31.267
							c1.635,0,2.965,1.33,2.965,2.964v18.948c0,1.635-1.33,2.965-2.965,2.965H1399.84L1399.84,916.997z M1431.107,893.306h-31.267
							c-0.982,0-1.779,0.797-1.779,1.778v18.948c0,0.98,0.797,1.779,1.779,1.779h31.267c0.98,0,1.779-0.799,1.779-1.779v-18.948
							C1432.887,894.103,1432.088,893.306,1431.107,893.306L1431.107,893.306z"/>
					</g>
				</g>
			</g>
			<g>
				<g>
					<polygon fill="#FFFFFF" points="1397.469,892.713 1433.479,892.713 1429.689,889.869 1401.258,889.869 					"/>
				</g>
				<g>
					<path fill="#221F1F" d="M1397.469,893.306c-0.256,0-0.482-0.164-0.563-0.405c-0.082-0.242,0.002-0.509,0.207-0.662l3.789-2.843
						c0.104-0.078,0.229-0.119,0.355-0.119h28.431c0.127,0,0.252,0.041,0.355,0.119l3.789,2.843c0.205,0.153,0.289,0.42,0.207,0.662
						c-0.08,0.241-0.307,0.405-0.563,0.405H1397.469L1397.469,893.306z M1431.701,892.12l-2.209-1.658h-28.037l-2.209,1.658
						H1431.701L1431.701,892.12z"/>
				</g>
			</g>
		</g>
		<g>
			<g>
				<path fill="#FFFFFF" d="M1207.918,1052.452h196.043c3.26,0,5.928-2.667,5.928-5.928V911.14h-6.449
					c-1.305,0-2.371-1.068-2.371-2.371v-8.422c0-1.303,1.066-2.372,2.371-2.372h24.068c1.305,0,2.371,1.069,2.371,2.372v8.422
					c0,1.303-1.066,2.371-2.371,2.371h-6.449v136.554c0,11.259-4.667,15.929-15.927,15.929h-197.213
					c-3.262,0-5.928-2.514-5.928-5.586C1201.991,1054.966,1204.657,1052.452,1207.918,1052.452z"/>
			</g>
			<g>
				<path fill="#221F1F" d="M1207.918,1064.215c-3.596,0-6.521-2.771-6.521-6.179c0-3.406,2.926-6.177,6.521-6.177h196.043
					c2.941,0,5.336-2.393,5.336-5.335V911.731h-5.857c-1.635,0-2.963-1.329-2.963-2.963v-8.422c0-1.634,1.328-2.963,2.963-2.963
					h24.068c1.635,0,2.963,1.329,2.963,2.963v8.422c0,1.634-1.328,2.963-2.963,2.963h-5.857v135.962
					c0,11.594-4.923,16.521-16.519,16.521H1207.918L1207.918,1064.215z M1427.508,898.569h-24.068c-0.98,0-1.777,0.797-1.777,1.777
					v8.422c0,0.98,0.797,1.777,1.777,1.777h7.043v135.979c0,3.595-2.926,6.521-6.521,6.521h-196.043
					c-2.943,0-5.336,2.239-5.336,4.991c0,2.754,2.393,4.993,5.336,4.993h197.213c10.939,0,15.333-4.394,15.333-15.336V910.546h7.043
					c0.98,0,1.777-0.797,1.777-1.777v-8.422C1429.285,899.366,1428.488,898.569,1427.508,898.569L1427.508,898.569z"/>
			</g>
		</g>
		<g>
			<g>
				<g>
					<g>
						<path fill="#FFFFFF" d="M1213.401,1044.568c0.652,0,1.186,0.534,1.186,1.186v24.114c0,0.652-0.533,1.186-1.186,1.186h-25.891
							c-0.652,0-1.186-0.533-1.186-1.186v-24.114c0-0.651,0.533-1.186,1.186-1.186H1213.401z"/>
					</g>
				</g>
				<g>
					<g>
						<path fill="#221F1F" d="M1187.51,1071.646c-0.98,0-1.779-0.798-1.779-1.778v-24.114c0-0.98,0.799-1.777,1.779-1.777h25.891
							c0.98,0,1.779,0.797,1.779,1.777v24.114c0,0.98-0.799,1.778-1.779,1.778H1187.51L1187.51,1071.646z M1213.401,1045.162
							h-25.891c-0.328,0-0.594,0.266-0.594,0.592v24.114c0,0.327,0.266,0.593,0.594,0.593h25.891c0.328,0,0.594-0.266,0.594-0.593
							v-24.114C1213.995,1045.428,1213.729,1045.162,1213.401,1045.162L1213.401,1045.162z"/>
					</g>
				</g>
			</g>
			<g>
				<g>
					<path fill="#FFFFFF" d="M1202.122,1043.545l14.539,0.813c0.389,0.021,0.717,0.24,0.934,0.544l26.268,6.024v13.772
						l-26.266,6.023c-0.217,0.304-0.547,0.524-0.936,0.545l-14.539,0.812c-0.652,0.036-1.186-0.467-1.186-1.119v-26.294
						C1200.936,1044.013,1201.469,1043.51,1202.122,1043.545z"/>
				</g>
				<g>
					<path fill="#221F1F" d="M1202.055,1072.674c-0.459,0-0.889-0.178-1.211-0.498c-0.322-0.322-0.5-0.755-0.5-1.217v-26.294
						c0-0.96,0.748-1.712,1.803-1.712c0.002,0,0.006,0,0.006,0l14.541,0.813c0.465,0.024,0.902,0.242,1.232,0.603l26.527,6.085
						v14.718l-26.527,6.083c-0.33,0.362-0.768,0.58-1.232,0.604l-14.541,0.812L1202.055,1072.674L1202.055,1072.674
						L1202.055,1072.674z M1243.268,1064.227v-12.829l-25.807-5.919l-0.219-0.05l-0.131-0.184c-0.061-0.085-0.229-0.282-0.484-0.297
						l-14.572-0.813c-0.301,0-0.525,0.229-0.525,0.529v26.294c0,0.146,0.053,0.279,0.152,0.377c0.098,0.097,0.23,0.152,0.373,0.152
						l0,0v0.593l0.033-0.594l14.541-0.812c0.254-0.015,0.424-0.214,0.484-0.298l0.129-0.185L1243.268,1064.227L1243.268,1064.227z"
						/>
				</g>
			</g>
		</g>
	</g>
	<g>
		<g>
			<path fill="#221F1F" d="M1219.714,1027.427h-10.724v-18.62h10.724v3.234h-6.775v4.089h6.304v3.234h-6.304v4.802h6.775V1027.427z"
				/>
		</g>
		<g>
			<path fill="#221F1F" d="M1229.292,1024.586c0.68,0,1.494-0.148,2.445-0.445v2.891c-0.968,0.434-2.156,0.649-3.565,0.649
				c-1.554,0-2.686-0.393-3.395-1.179c-0.709-0.784-1.063-1.962-1.063-3.533v-6.864h-1.859v-1.644l2.14-1.299l1.121-3.006h2.483
				v3.031h3.986v2.917h-3.986v6.864c0,0.552,0.154,0.96,0.465,1.223C1228.373,1024.454,1228.783,1024.586,1229.292,1024.586z"/>
		</g>
		<g>
			<path fill="#221F1F" d="M1247.759,1027.427h-3.885v-8.317c0-2.055-0.765-3.082-2.292-3.082c-1.088,0-1.873,0.369-2.356,1.108
				c-0.484,0.738-0.726,1.936-0.726,3.592v6.699h-3.885v-19.817h3.885v4.037c0,0.313-0.031,1.053-0.09,2.216l-0.089,1.146h0.204
				c0.865-1.393,2.241-2.089,4.126-2.089c1.673,0,2.942,0.45,3.808,1.351c0.867,0.899,1.3,2.19,1.3,3.871V1027.427z"/>
		</g>
		<g>
			<path fill="#221F1F" d="M1258.203,1027.681c-2.292,0-4.084-0.632-5.374-1.897c-1.291-1.266-1.937-3.057-1.937-5.374
				c0-2.387,0.597-4.231,1.79-5.533c1.191-1.305,2.842-1.956,4.947-1.956c2.012,0,3.579,0.573,4.699,1.72
				c1.121,1.146,1.682,2.729,1.682,4.75v1.885h-9.183c0.042,1.104,0.369,1.967,0.98,2.586s1.469,0.93,2.573,0.93
				c0.857,0,1.668-0.089,2.432-0.268c0.765-0.179,1.563-0.463,2.395-0.854v3.006c-0.68,0.339-1.405,0.592-2.178,0.758
				C1260.257,1027.598,1259.315,1027.681,1258.203,1027.681z M1257.655,1015.683c-0.824,0-1.469,0.262-1.936,0.783
				c-0.467,0.523-0.734,1.264-0.803,2.224h5.451c-0.018-0.96-0.268-1.7-0.752-2.224
				C1259.132,1015.945,1258.478,1015.683,1257.655,1015.683z"/>
		</g>
		<g>
			<path fill="#221F1F" d="M1275.116,1012.92c0.526,0,0.963,0.038,1.313,0.114l-0.293,3.643c-0.314-0.084-0.697-0.127-1.146-0.127
				c-1.24,0-2.206,0.318-2.897,0.955c-0.692,0.637-1.038,1.528-1.038,2.675v7.247h-3.885v-14.239h2.942l0.573,2.395h0.191
				c0.44-0.798,1.037-1.441,1.789-1.929C1273.416,1013.164,1274.233,1012.92,1275.116,1012.92z"/>
		</g>
		<g>
			<path fill="#221F1F" d="M1292.157,1027.427h-3.885v-8.317c0-1.026-0.183-1.798-0.547-2.312c-0.366-0.514-0.947-0.771-1.745-0.771
				c-1.087,0-1.872,0.362-2.356,1.09c-0.484,0.725-0.727,1.929-0.727,3.61v6.699h-3.884v-14.239h2.968l0.521,1.821h0.217
				c0.434-0.688,1.029-1.208,1.789-1.56c0.76-0.354,1.624-0.529,2.592-0.529c1.656,0,2.912,0.448,3.771,1.345
				c0.857,0.895,1.286,2.188,1.286,3.877V1027.427z"/>
		</g>
		<g>
			<path fill="#221F1F" d="M1302.6,1027.681c-2.292,0-4.084-0.632-5.375-1.897c-1.29-1.266-1.936-3.057-1.936-5.374
				c0-2.387,0.597-4.231,1.789-5.533c1.193-1.305,2.843-1.956,4.948-1.956c2.013,0,3.579,0.573,4.7,1.72
				c1.12,1.146,1.681,2.729,1.681,4.75v1.885h-9.183c0.042,1.104,0.369,1.967,0.98,2.586s1.469,0.93,2.573,0.93
				c0.857,0,1.668-0.089,2.433-0.268c0.764-0.179,1.562-0.463,2.395-0.854v3.006c-0.68,0.339-1.406,0.592-2.179,0.758
				C1304.655,1027.598,1303.712,1027.681,1302.6,1027.681z M1302.052,1015.683c-0.823,0-1.469,0.262-1.936,0.783
				c-0.467,0.523-0.734,1.264-0.803,2.224h5.451c-0.018-0.96-0.268-1.7-0.751-2.224
				C1303.53,1015.945,1302.875,1015.683,1302.052,1015.683z"/>
		</g>
		<g>
			<path fill="#221F1F" d="M1317.565,1024.586c0.679,0,1.494-0.148,2.445-0.445v2.891c-0.968,0.434-2.157,0.649-3.566,0.649
				c-1.554,0-2.686-0.393-3.394-1.179c-0.709-0.784-1.063-1.962-1.063-3.533v-6.864h-1.859v-1.644l2.14-1.299l1.12-3.006h2.484
				v3.031h3.986v2.917h-3.986v6.864c0,0.552,0.154,0.96,0.465,1.223C1316.646,1024.454,1317.055,1024.586,1317.565,1024.586z"/>
		</g>
	</g>
	<g>
		<g>
			<path fill="#221F1F" d="M894.618,919.684c1.799,0,3.232,0.505,4.297,1.516c1.066,1.011,1.6,2.395,1.6,4.152
				c0,2.081-0.641,3.681-1.924,4.802c-1.281,1.12-3.115,1.681-5.502,1.681c-2.072,0-3.744-0.336-5.018-1.006v-3.4
				c0.672,0.356,1.453,0.647,2.344,0.873c0.893,0.225,1.736,0.337,2.535,0.337c2.402,0,3.604-0.985,3.604-2.955
				c0-1.877-1.244-2.814-3.73-2.814c-0.451,0-0.947,0.044-1.49,0.134c-0.545,0.089-0.986,0.185-1.326,0.286l-1.566-0.84l0.701-9.488
				h10.1v3.336h-6.648l-0.344,3.655l0.445-0.089C893.211,919.744,893.854,919.684,894.618,919.684z"/>
		</g>
		<g>
			<path fill="#221F1F" d="M914.651,912.96h3.986l-6.33,18.619h-4.305l-6.316-18.619h3.986l3.502,11.08
				c0.195,0.654,0.398,1.416,0.605,2.285c0.207,0.871,0.338,1.477,0.389,1.815c0.094-0.781,0.41-2.147,0.955-4.101L914.651,912.96z"
				/>
		</g>
	</g>
	<g>
		<g>
			<g>
				<path fill="#FFFFFF" d="M935.282,933.857c0-6.003,4.912-10.914,10.916-10.914h236.923c6.003,0,10.915,4.911,10.915,10.914
					v150.797c0,6.004-4.912,10.915-10.915,10.915H946.198c-6.004,0-10.916-4.911-10.916-10.915V933.857z"/>
			</g>
		</g>
		<g>
			<g>
				<path fill="#221F1F" d="M946.198,922.397h236.923c6.319,0,11.461,5.141,11.461,11.46v150.797
					c0,6.319-5.142,11.461-11.461,11.461H946.198c-6.32,0-11.461-5.142-11.461-11.461V933.857
					C934.737,927.538,939.877,922.397,946.198,922.397L946.198,922.397z M1183.121,1095.023c5.718,0,10.369-4.651,10.369-10.369
					V933.857c0-5.717-4.651-10.368-10.369-10.368H946.198c-5.719,0-10.37,4.651-10.37,10.368v150.797
					c0,5.718,4.651,10.369,10.37,10.369H1183.121L1183.121,1095.023z"/>
			</g>
		</g>
	</g>
	<g>
		<g>
			<path fill="#221F1F" d="M940.741,939.221c0-6.003,4.91-10.915,10.914-10.915h226.008c6.003,0,10.916,4.912,10.916,10.915v140.071
				c0,6.003-4.913,10.915-10.916,10.915H951.655c-6.004,0-10.914-4.912-10.914-10.915V939.221z"/>
		</g>
	</g>
	<g>
		<g>
			<g>
				<path fill="#221F1F" d="M951.655,1042.928c-5.418,0-9.823-4.407-9.823-9.824v-93.883c0-5.417,4.405-9.823,9.823-9.823h226.008
					c5.417,0,9.824,4.406,9.824,9.823v93.883c0,5.417-4.407,9.824-9.824,9.824H951.655 M951.655,1044.02h226.008
					c6.003,0,10.916-4.913,10.916-10.916v-93.883c0-6.003-4.913-10.915-10.916-10.915H951.655c-6.004,0-10.914,4.912-10.914,10.915
					v93.883C940.741,1039.106,945.651,1044.02,951.655,1044.02L951.655,1044.02z"/>
			</g>
		</g>
	</g>
	<g>
		<g>
			<path fill="#FFFFFF" d="M1004.544,1050.246c-1.367,0-2.428,0.514-3.178,1.542c-0.75,1.027-1.126,2.461-1.126,4.298
				c0,3.821,1.435,5.733,4.304,5.733c1.203,0,2.661-0.302,4.373-0.903v3.049c-1.407,0.586-2.978,0.879-4.714,0.879
				c-2.494,0-4.4-0.757-5.722-2.268c-1.321-1.515-1.981-3.685-1.981-6.515c0-1.782,0.324-3.344,0.974-4.685
				c0.647-1.34,1.581-2.368,2.797-3.082c1.215-0.717,2.639-1.074,4.273-1.074c1.665,0,3.337,0.403,5.018,1.208l-1.173,2.955
				c-0.64-0.305-1.286-0.57-1.935-0.798S1005.17,1050.246,1004.544,1050.246z"/>
		</g>
		<g>
			<path fill="#FFFFFF" d="M1021.569,1064.609l-0.481-1.677h-0.187c-0.384,0.609-0.926,1.081-1.63,1.412
				c-0.704,0.333-1.505,0.499-2.403,0.499c-1.541,0-2.702-0.412-3.483-1.236c-0.781-0.825-1.172-2.012-1.172-3.559v-8.548h3.576
				v7.656c0,0.945,0.168,1.655,0.504,2.129c0.336,0.472,0.871,0.708,1.606,0.708c1,0,1.724-0.333,2.169-1.002
				c0.445-0.667,0.668-1.776,0.668-3.324v-6.167h3.577v13.108H1021.569z"/>
		</g>
		<g>
			<path fill="#FFFFFF" d="M1035.357,1051.254c1.549,0,2.761,0.605,3.636,1.812c0.874,1.209,1.313,2.863,1.313,4.966
				c0,2.165-0.452,3.842-1.355,5.03c-0.901,1.188-2.132,1.782-3.687,1.782c-1.54,0-2.749-0.559-3.623-1.677h-0.247l-0.598,1.442
				h-2.732v-18.244h3.577v4.244c0,0.54-0.047,1.402-0.142,2.591h0.142C1032.477,1051.903,1033.715,1051.254,1035.357,1051.254z
				 M1034.208,1054.115c-0.884,0-1.528,0.272-1.935,0.816c-0.407,0.542-0.619,1.439-0.633,2.689v0.387
				c0,1.407,0.208,2.416,0.626,3.025c0.418,0.609,1.081,0.914,1.988,0.914c0.734,0,1.318-0.338,1.753-1.013
				c0.434-0.678,0.651-1.66,0.651-2.95c0-1.289-0.22-2.257-0.657-2.902C1035.564,1054.438,1034.966,1054.115,1034.208,1054.115z"/>
		</g>
		<g>
			<path fill="#FFFFFF" d="M1043.108,1048.112c0-1.165,0.648-1.747,1.946-1.747c1.297,0,1.946,0.582,1.946,1.747
				c0,0.556-0.162,0.987-0.486,1.295c-0.325,0.31-0.813,0.463-1.46,0.463C1043.756,1049.87,1043.108,1049.284,1043.108,1048.112z
				 M1046.836,1064.609h-3.576v-13.108h3.576V1064.609z"/>
		</g>
		<g>
			<path fill="#FFFFFF" d="M1056.521,1064.844c-2.11,0-3.76-0.582-4.947-1.747c-1.188-1.165-1.783-2.814-1.783-4.947
				c0-2.197,0.55-3.896,1.648-5.095c1.098-1.2,2.616-1.801,4.555-1.801c1.853,0,3.295,0.528,4.326,1.583
				c1.032,1.055,1.548,2.515,1.548,4.374v1.735h-8.454c0.04,1.016,0.34,1.81,0.903,2.38c0.563,0.57,1.352,0.856,2.368,0.856
				c0.789,0,1.536-0.083,2.24-0.247c0.703-0.163,1.438-0.426,2.204-0.784v2.766c-0.626,0.313-1.295,0.545-2.005,0.699
				C1058.413,1064.767,1057.544,1064.844,1056.521,1064.844z M1056.017,1053.799c-0.759,0-1.353,0.24-1.782,0.721
				c-0.43,0.481-0.677,1.162-0.738,2.046h5.018c-0.016-0.884-0.245-1.564-0.691-2.046
				C1057.376,1054.039,1056.775,1053.799,1056.017,1053.799z"/>
		</g>
		<g>
			<path fill="#FFFFFF" d="M1065.057,1047.468h5.334c2.433,0,4.196,0.345,5.295,1.038c1.099,0.69,1.647,1.792,1.647,3.3
				c0,1.024-0.241,1.864-0.723,2.521c-0.479,0.657-1.119,1.051-1.915,1.185v0.117c1.086,0.242,1.868,0.696,2.35,1.36
				c0.48,0.663,0.722,1.547,0.722,2.649c0,1.563-0.564,2.783-1.694,3.658c-1.131,0.876-2.663,1.313-4.603,1.313h-6.413V1047.468z
				 M1068.692,1054.256h2.11c0.984,0,1.698-0.151,2.141-0.457c0.44-0.305,0.661-0.81,0.661-1.513c0-0.656-0.239-1.127-0.721-1.412
				c-0.48-0.286-1.241-0.429-2.28-0.429h-1.911V1054.256z M1068.692,1057.141v4.467h2.368c1,0,1.74-0.191,2.217-0.574
				s0.714-0.97,0.714-1.759c0-1.423-1.016-2.134-3.048-2.134H1068.692z"/>
		</g>
		<g>
			<path fill="#FFFFFF" d="M1092.823,1058.031c0,2.134-0.563,3.804-1.688,5.007c-1.126,1.204-2.694,1.806-4.702,1.806
				c-1.259,0-2.368-0.274-3.33-0.827c-0.962-0.55-1.699-1.342-2.216-2.375c-0.516-1.031-0.774-2.235-0.774-3.611
				c0-2.142,0.559-3.806,1.678-4.994c1.118-1.188,2.688-1.783,4.713-1.783c1.258,0,2.367,0.274,3.33,0.821
				c0.962,0.547,1.7,1.332,2.215,2.357C1092.563,1055.456,1092.823,1056.655,1092.823,1058.031z M1083.758,1058.031
				c0,1.297,0.212,2.279,0.639,2.943c0.426,0.663,1.12,0.996,2.082,0.996c0.954,0,1.64-0.33,2.059-0.989
				c0.417-0.661,0.626-1.644,0.626-2.95c0-1.297-0.211-2.271-0.634-2.919c-0.422-0.649-1.112-0.973-2.074-0.973
				c-0.955,0-1.642,0.322-2.064,0.966C1083.97,1055.751,1083.758,1056.725,1083.758,1058.031z"/>
		</g>
		<g>
			<path fill="#FFFFFF" d="M1104.102,1064.609l-0.692-1.782h-0.094c-0.603,0.758-1.221,1.283-1.857,1.577
				c-0.639,0.292-1.469,0.439-2.492,0.439c-1.259,0-2.249-0.359-2.972-1.078c-0.725-0.72-1.085-1.743-1.085-3.072
				c0-1.391,0.485-2.418,1.46-3.078c0.972-0.66,2.44-1.026,4.402-1.097l2.274-0.069v-0.575c0-1.329-0.68-1.993-2.041-1.993
				c-1.046,0-2.278,0.316-3.693,0.95l-1.183-2.415c1.508-0.79,3.181-1.186,5.018-1.186c1.759,0,3.107,0.384,4.045,1.149
				c0.938,0.767,1.407,1.931,1.407,3.494v8.735H1104.102z M1103.046,1058.535l-1.383,0.047c-1.041,0.032-1.814,0.219-2.323,0.563
				c-0.507,0.344-0.761,0.867-0.761,1.571c0,1.008,0.577,1.512,1.735,1.512c0.827,0,1.49-0.238,1.987-0.714
				c0.496-0.477,0.744-1.11,0.744-1.9V1058.535z"/>
		</g>
		<g>
			<path fill="#FFFFFF" d="M1117.596,1051.254c0.485,0,0.889,0.036,1.209,0.106l-0.271,3.354c-0.289-0.078-0.64-0.118-1.056-0.118
				c-1.142,0-2.029,0.293-2.668,0.879c-0.637,0.586-0.955,1.407-0.955,2.462v6.672h-3.576v-13.108h2.71l0.526,2.204h0.177
				c0.406-0.734,0.955-1.327,1.647-1.775C1116.03,1051.479,1116.784,1051.254,1117.596,1051.254z"/>
		</g>
		<g>
			<path fill="#FFFFFF" d="M1125.335,1064.844c-1.541,0-2.749-0.599-3.629-1.794c-0.879-1.195-1.319-2.854-1.319-4.971
				c0-2.15,0.447-3.825,1.343-5.024c0.896-1.2,2.128-1.801,3.699-1.801c1.648,0,2.907,0.642,3.775,1.923h0.117
				c-0.18-0.977-0.27-1.848-0.27-2.614v-4.197h3.589v18.244h-2.744l-0.692-1.7h-0.152
				C1128.239,1064.198,1127,1064.844,1125.335,1064.844z M1126.59,1061.994c0.914,0,1.584-0.265,2.011-0.797
				c0.426-0.532,0.657-1.435,0.697-2.708v-0.387c0-1.407-0.216-2.416-0.651-3.025c-0.433-0.609-1.138-0.914-2.116-0.914
				c-0.796,0-1.417,0.337-1.857,1.013c-0.442,0.677-0.663,1.659-0.663,2.95c0,1.289,0.223,2.256,0.669,2.901
				C1125.125,1061.671,1125.761,1061.994,1126.59,1061.994z"/>
		</g>
	</g>
	<g>
		<g>
			<g>
				<g>
					<path fill="#646464" d="M1131.683,1271.82c8.728,0,15.867,7.142,15.867,15.867v277.477c0,8.728-7.14,15.866-15.867,15.866
						H936.686c-8.727,0-15.867-7.139-15.867-15.866v-277.477c0-8.726,7.141-15.867,15.867-15.867H1131.683z"/>
				</g>
			</g>
			<g>
				<g>
					<path fill="#221F1F" d="M920.026,1565.164v-277.477c0-9.186,7.475-16.659,16.66-16.659h194.997
						c9.187,0,16.66,7.474,16.66,16.659v277.477c0,9.188-7.474,16.661-16.66,16.661H936.686
						C927.5,1581.825,920.026,1574.352,920.026,1565.164L920.026,1565.164z M1146.757,1287.688c0-8.31-6.763-15.072-15.074-15.072
						H936.686c-8.312,0-15.073,6.763-15.073,15.072v277.477c0,8.313,6.762,15.074,15.073,15.074h194.997
						c8.312,0,15.074-6.762,15.074-15.074V1287.688L1146.757,1287.688z"/>
				</g>
			</g>
		</g>
		<g>
			<g>
				<path fill="#FFFFFF" d="M1125.992,1277.573c8.727,0,15.867,7.142,15.867,15.867v265.97c0,8.729-7.141,15.87-15.867,15.87
					H942.377c-8.727,0-15.866-7.142-15.866-15.87v-265.97c0-8.726,7.14-15.867,15.866-15.867H1125.992z"/>
			</g>
		</g>
	</g>
	<g>
		<g>
			<path fill="#221F1F" d="M1025.11,1435.736h-3.936v-8.036h-7.373v8.036h-3.949v-18.62h3.949v7.298h7.373v-7.298h3.936V1435.736z"
				/>
		</g>
		<g>
			<path fill="#221F1F" d="M1045.258,1426.248c0,3.065-0.873,5.413-2.617,7.043s-4.264,2.445-7.559,2.445h-5.273v-18.62h5.848
				c3.039,0,5.398,0.803,7.08,2.407C1044.418,1421.129,1045.258,1423.37,1045.258,1426.248z M1041.159,1426.351
				c0-3.999-1.768-5.999-5.299-5.999h-2.102v12.124h1.693C1039.256,1432.476,1041.159,1430.434,1041.159,1426.351z"/>
		</g>
		<g>
			<path fill="#221F1F" d="M1064.567,1426.248c0,3.065-0.873,5.413-2.617,7.043c-1.746,1.63-4.266,2.445-7.559,2.445h-5.273v-18.62
				h5.846c3.039,0,5.4,0.803,7.082,2.407C1063.725,1421.129,1064.567,1423.37,1064.567,1426.248z M1060.465,1426.351
				c0-3.999-1.768-5.999-5.299-5.999h-2.102v12.124h1.695C1058.563,1432.476,1060.465,1430.434,1060.465,1426.351z"/>
		</g>
	</g>
	<g>
		<g>
			<path fill="#221F1F" d="M907.581,1110.739v12.049c0,1.375-0.307,2.58-0.924,3.616c-0.615,1.037-1.504,1.83-2.668,2.382
				c-1.162,0.553-2.539,0.828-4.125,0.828c-2.395,0-4.254-0.613-5.58-1.841c-1.324-1.227-1.986-2.905-1.986-5.037v-11.997h3.936
				v11.399c0,1.434,0.289,2.487,0.867,3.158c0.576,0.67,1.531,1.006,2.865,1.006c1.289,0,2.227-0.338,2.809-1.012
				c0.58-0.676,0.871-1.734,0.871-3.178v-11.374H907.581z"/>
		</g>
		<g>
			<path fill="#221F1F" d="M923.131,1124.188c0,1.682-0.605,3.006-1.814,3.974c-1.211,0.968-2.895,1.452-5.051,1.452
				c-1.986,0-3.744-0.374-5.271-1.121v-3.668c1.256,0.561,2.32,0.956,3.191,1.185c0.869,0.229,1.664,0.344,2.387,0.344
				c0.865,0,1.531-0.165,1.994-0.496c0.461-0.331,0.693-0.823,0.693-1.478c0-0.365-0.102-0.69-0.307-0.974
				c-0.203-0.285-0.504-0.56-0.896-0.822c-0.396-0.263-1.199-0.684-2.414-1.261c-1.139-0.535-1.992-1.049-2.561-1.541
				s-1.023-1.065-1.363-1.72c-0.338-0.654-0.508-1.418-0.508-2.292c0-1.647,0.557-2.942,1.674-3.885s2.66-1.414,4.629-1.414
				c0.969,0,1.893,0.115,2.77,0.345c0.881,0.229,1.799,0.552,2.758,0.968l-1.273,3.069c-0.992-0.408-1.814-0.692-2.463-0.854
				c-0.65-0.161-1.289-0.242-1.918-0.242c-0.748,0-1.32,0.174-1.719,0.522c-0.4,0.349-0.6,0.802-0.6,1.362
				c0,0.349,0.082,0.652,0.242,0.911c0.162,0.259,0.418,0.51,0.771,0.751c0.352,0.243,1.186,0.677,2.502,1.306
				c1.74,0.833,2.934,1.666,3.58,2.503C922.809,1121.949,923.131,1122.974,923.131,1124.188z"/>
		</g>
		<g>
			<path fill="#221F1F" d="M926.506,1110.739h5.795c2.641,0,4.557,0.376,5.752,1.128c1.191,0.75,1.787,1.946,1.787,3.585
				c0,1.112-0.26,2.024-0.783,2.738c-0.521,0.713-1.215,1.142-2.082,1.286v0.127c1.18,0.263,2.031,0.756,2.555,1.478
				c0.521,0.722,0.783,1.682,0.783,2.878c0,1.699-0.613,3.023-1.842,3.975c-1.227,0.95-2.893,1.426-4.998,1.426h-6.967V1110.739z
				 M930.456,1118.113h2.291c1.07,0,1.846-0.165,2.326-0.496c0.479-0.331,0.719-0.879,0.719-1.644c0-0.713-0.262-1.225-0.783-1.534
				s-1.35-0.465-2.479-0.465h-2.074V1118.113z M930.456,1121.247v4.853h2.572c1.086,0,1.889-0.209,2.406-0.625
				c0.518-0.415,0.777-1.052,0.777-1.91c0-1.545-1.105-2.317-3.311-2.317H930.456z"/>
		</g>
	</g>
	<g>
		<g>
			<g>
				<path fill-rule="evenodd" clip-rule="evenodd" fill="#FFFFFF" d="M1095.134,977.077c-1.041-11.181-8.364-18.443-17.41-22.035
					c0.391-1.422,0.668-2.958,0.544-4.896c-0.946,0.237-2.136,2.575-4.081,2.721c0.279-2.469-0.551-3.827-1.563-5.005
					c-0.636-0.27-1.234-0.615-1.771-1.083c-0.189,0.213-0.296,0.514-0.374,0.474c-0.054,0.698-0.19,1.397-0.48,2.021
					c-0.264,0.744-0.691,1.378-1.284,1.899h0c-3.278,3.984-9.979,4.298-14.385,7.679c-2.472,1.897-4.759,4.985-6.257,8.433
					c-1.416,3.258-3.07,6.951-3.264,11.153c-0.441,9.567,4.552,15.727,11.153,19.587c3.441,2.012,6.848,3.563,9.793,0
					c-2.143-0.595-4.644-0.826-5.168-2.993c-0.315-1.299,0.659-2.187,0.272-3.536c-3.943,1.07-7.877-0.028-9.521-2.448
					c-5.001-7.364,3.954-24.559,14.69-18.227c2.158,1.273,3.005,3.421,4.896,5.441c1.736-4.854,6.02-7.147,10.881-6.257
					c10.179,1.864,14.64,24.329-1.088,22.035c0.792,3.205-0.617,6.169-4.081,5.985c0.065,1.153-0.021,2.154-0.816,2.448
					c0.149,0.658-2.233,0.879-0.816,1.088C1087.954,1000.409,1096.392,990.571,1095.134,977.077z"/>
			</g>
			<g>
				<path fill-rule="evenodd" clip-rule="evenodd" fill="#FFFFFF" d="M1043.992,976.804c-4.878-0.665-4.822-9.208-2.176-12.241
					c2.049-0.729,3.911,0.213,5.44,0.816C1046.913,968.117,1044.814,973.208,1043.992,976.804z"/>
			</g>
			<g>
				<path fill-rule="evenodd" clip-rule="evenodd" fill="#FFFFFF" d="M1095.951,977.349c-0.14-4.576-1.842-7.588-2.992-11.154
					C1100.215,960.118,1102.906,976.548,1095.951,977.349z"/>
			</g>
			<g>
				<path fill-rule="evenodd" clip-rule="evenodd" fill="#FFFFFF" d="M1059.499,985.238c0.375,0.35,0.269,1.181,0.271,1.904
					c-0.771,0.283-1.133,0.283-1.903,0C1057.625,985.721,1058.105,985.023,1059.499,985.238z"/>
			</g>
			<g>
				<path fill-rule="evenodd" clip-rule="evenodd" fill="#FFFFFF" d="M1082.077,985.238c0.583,0.73,0.583,1.445,0,2.176
					c-0.94,0.215-1.148-0.303-1.632-0.544C1080.301,985.637,1080.845,985.093,1082.077,985.238z"/>
			</g>
			<g>
				<path fill-rule="evenodd" clip-rule="evenodd" fill="#FFFFFF" d="M1067.659,995.846c2.096,1.077,5.667,0.681,7.889,1.632
					c-0.196,0.831,0.279,0.992,0.272,1.633c-1.045,1.855-3.765,2.038-6.801,1.904c-2.369,3.505-4.644,6.776-8.433,9.522
					c-1.647,1.192-3.231,2.383-5.168,2.176c-2.464-0.264-4.471-2.745-4.625-4.897c-0.278-3.892,3.733-7.257,5.984-8.976
					c1.224,0.861,2.618,1.552,4.353,1.903c-2.046,1.853-5.031,2.767-6.257,5.44c1.299,0.347,2.134-1.218,2.993-1.904
					c2.662-2.128,6.472-3.865,9.521-5.984C1067.303,997.304,1067.431,996.524,1067.659,995.846z"/>
			</g>
			<g>
				<path fill-rule="evenodd" clip-rule="evenodd" fill="#FFFFFF" d="M1080.172,1017.336c-0.982,1.824-0.915,4.734-2.992,4.897
					c-2.496,0.196-2.894-3.08-1.905-5.985c2.571-1.963,5.454-3.614,8.705-4.896c-1.123-3.501-3.051-6.197-4.08-9.793
					c4.138-2.345,6.251-0.43,7.889,3.808c0.896,2.319,2.254,5.617,1.904,7.346
					C1089.009,1016.102,1083.503,1016.262,1080.172,1017.336z"/>
			</g>
			<g>
				<path fill-rule="evenodd" clip-rule="evenodd" fill="#FFFFFF" d="M1059.499,1015.433c1.718-0.809,3.31-3.52,6.256-3.537
					c2.844-0.018,4.528,1.996,5.985,4.08c0.279,7.624-3.385,11.305-8.977,13.058c0.755,1.741,3.381-1.097,6.256-0.271
					c1.011,0.983,2.058,1.932,1.905,4.08c-4.392,0.149-12.144,1.98-14.418-1.36c2.286-2.94,0.849-4.517-0.816-7.889
					c-1.377-2.791-2.016-5.486-1.632-10.338c0.639,0.27,1.337,0.478,2.177,0.545c6.072-1.998,9.862-6.278,12.785-11.425
					c3.988,0.179,7.407-0.21,10.609-0.816c0.69,3.481,2.158,6.185,3.265,9.249c-2.196,1.603-6.845,2.539-8.161,5.441
					c-1.291,2.848-0.283,6.434,2.449,6.257c2.111-0.137,2.68-2.391,3.264-4.625c2.095-0.081,3.758-0.595,5.441-1.088
					c0.236,6.13-3.315,8.473-5.441,12.241c1.161,0.202,2.099-0.849,3.536-0.815c2.335,0.054,4.653,1.851,4.625,4.352
					c-1.417,1.858-5.844,0.479-9.793,0.272c-2.185-0.114-4.31,0.287-5.441-0.816c-0.263-1.351,0.726-1.451,0.816-2.449
					c-3.181,1.339-3.781-1.69-6.256-1.904c1.947-2.156,4.192-4.715,4.625-7.889c0.573-4.223-1.975-8.28-6.257-8.433
					C1063.109,1011.239,1061.34,1013.507,1059.499,1015.433z"/>
			</g>
			<g>
				<path fill-rule="evenodd" clip-rule="evenodd" fill="#FFFFFF" d="M1062.491,988.774c0.056-1.038,1.317-3.214,0.815-5.714
					c-0.964,0.305-1.367,1.172-2.992,0.816c-1.227-0.695-1.921-3.013-0.544-4.081c-3.812-0.481-5.223,3.095-4.896,6.258
					c0.071,0.688,1.435,2.686,0.544,2.175c-3.781-4.166-1.253-11.288,3.537-11.425
					C1064.054,976.658,1066.637,984.962,1062.491,988.774z"/>
			</g>
			<g>
				<path fill="#221F1F" d="M1070.38,946.881c0.129,1.063,0.272-0.458,0.942-0.285C1070.83,946.202,1070.396,945.97,1070.38,946.881
					z"/>
			</g>
			<g>
				<path fill="#221F1F" d="M1097.039,964.29c-1.747-0.207-3.036,1.069-4.353,1.905c-3.43-5.095-7.82-9.228-14.146-11.425
					c0.102-1.68,0.664-4.154,0-5.714c-1.2,0.165-2.064,3.012-4.08,3.266c0.355-2.813-1.051-4.18-2.449-5.169
					c-0.024-0.017-0.049-0.036-0.073-0.055c1.278,1.394,2.591,2.754,2.249,5.768c1.944-0.146,3.134-2.483,4.081-2.721
					c0.125,1.938-0.153,3.475-0.544,4.896c9.046,3.592,16.369,10.854,17.41,22.035c1.257,13.494-7.181,23.333-20.13,24.482
					c-1.417-0.209,0.965-0.43,0.816-1.088c0.794-0.293,0.881-1.294,0.816-2.448c0.004,0,0.007-0.001,0.011,0
					c-0.063-0.093-0.124-0.185-0.182-0.281c-0.436-0.722-0.903-1.423-1.339-2.145c-2.765,0.15-5.572,0.036-8.14-0.659
					c-0.178,0.172-0.362,0.333-0.552,0.482c-0.031,0.942-0.364,1.823-0.912,2.54c0.078,0.021,0.156,0.041,0.233,0.063
					c-2.945,3.563-6.352,2.012-9.793,0c-6.602-3.86-11.594-10.02-11.153-19.587c0.194-4.202,1.849-7.895,3.264-11.153
					c1.498-3.448,3.785-6.536,6.257-8.433c5.435-4.17,14.362-3.674,16.05-11.153c-1.327,5.753-7.456,5.794-12.242,8.161
					c-4.548,2.248-7.855,5.431-10.065,9.521c-2.467-1.009-4.943-2.573-7.073-0.816c-1.516,1.25-2.035,5.307-1.632,7.889
					c0.333,2.129,1.858,3.596,2.176,4.625c-10.356-1.271-15.544,4.933-16.866,13.601v4.624c0.689,2.304,0.919,5.067,2.721,6.257
					c2.471-1.166,1.783-4.4,1.904-6.801c0.209-4.209,0.866-9.41,3.536-11.154c1.878-1.227,6.356-1.261,8.705-0.271
					c8.297,3.496,0.767,17.833,0.817,26.388c0.055,9.613,5.085,15.698,11.696,17.137c1.041,0.227,2.494-0.08,3.265,0.816
					c0.756,1.308-0.981,1.374-1.633,1.632c-2.798,1.112-7.65,1.477-7.888,4.353c-0.274,3.302,5.918,4.683,9.793,5.44
					c9.127,1.783,19.239,1.806,28.019,0.271c3.671-0.641,10.163-2.462,10.337-5.168c0.195-3.049-3.998-3.314-7.074-4.625
					c-2.434-1.037-3.524-3.021-6.528-1.904c2.014-3.064,4.377-5.778,4.08-11.153c1.554-0.939,3.609-1.337,4.081-3.265
					c0.819-3.347-3.188-12.949-6.529-13.329c7.122-3.94,12.369-9.757,11.97-21.218c1.211-1.538,2.922-1.401,4.08-3.537
					C1102.181,971.207,1100.038,964.646,1097.039,964.29z M1041.816,964.563c2.049-0.729,3.911,0.213,5.44,0.816
					c-0.344,2.738-2.443,7.829-3.265,11.425C1039.114,976.139,1039.17,967.596,1041.816,964.563z M1044.809,985.509
					c-1.692-2.604-4.865-3.762-8.433-3.536c-8.532,0.54-6.903,10.87-8.433,18.77c-2.972-2.458-2.836-7.413-2.449-10.608
					c1.053-8.683,9.37-15.61,18.498-11.426c0.118,2.511,0.443,4.816,1.088,6.8C1045.029,985.818,1044.808,985.66,1044.809,985.509z
					 M1056.778,998.839c1.224,0.861,2.618,1.552,4.353,1.903c-2.046,1.853-5.031,2.767-6.257,5.44
					c1.299,0.347,2.134-1.218,2.993-1.904c2.662-2.128,6.472-3.865,9.521-5.984c-0.084-0.99,0.043-1.771,0.272-2.448
					c2.096,1.077,5.667,0.681,7.889,1.632c-0.196,0.831,0.279,0.992,0.272,1.633c-1.045,1.855-3.765,2.038-6.801,1.904
					c-2.369,3.505-4.644,6.776-8.433,9.522c-1.647,1.192-3.231,2.383-5.168,2.176c-2.464-0.264-4.471-2.745-4.625-4.897
					C1050.516,1003.923,1054.527,1000.558,1056.778,998.839z M1052.426,996.118c1.102,0.792,2.27,1.474,3.264,2.177
					c-3.866,2.668-9.243,11.414-1.904,14.69c-0.65,2.736-0.241,6.522,0.544,8.705c-4.498-1.326-6.798-4.36-7.344-8.977
					c-0.763-6.436,2.45-12.575,2.448-18.498C1050.459,994.134,1051.416,995.392,1052.426,996.118z M1043.177,1012.168
					c-0.708-7.596,3.732-15.627,2.72-23.394c0.395,1.312,2.664,3.151,2.993,4.896c0.448,2.38-0.731,5.556-1.361,8.161
					c-1.513,6.251-2.603,15.403,2.992,19.042c0.927,0.603,2.037,0.26,3.264,1.088c1.543,1.039,1.37,2.577,2.993,4.352
					C1048.918,1026.426,1043.904,1019.974,1043.177,1012.168z M1080.444,1029.034c1.161,0.202,2.099-0.849,3.536-0.815
					c2.335,0.054,4.653,1.851,4.625,4.352c-1.417,1.858-5.844,0.479-9.793,0.272c-2.185-0.114-4.31,0.287-5.441-0.816
					c-0.263-1.351,0.726-1.451,0.816-2.449c-3.181,1.339-3.781-1.69-6.256-1.904c1.947-2.156,4.192-4.715,4.625-7.889
					c0.573-4.223-1.975-8.28-6.257-8.433c-3.19-0.113-4.959,2.155-6.801,4.081c1.718-0.809,3.31-3.52,6.256-3.537
					c2.844-0.018,4.528,1.996,5.985,4.08c0.279,7.624-3.385,11.305-8.977,13.058c0.755,1.741,3.381-1.097,6.256-0.271
					c1.011,0.983,2.058,1.932,1.905,4.08c-4.392,0.149-12.144,1.98-14.418-1.36c2.286-2.94,0.849-4.517-0.816-7.889
					c-1.377-2.791-2.016-5.486-1.632-10.338c0.639,0.27,1.337,0.478,2.177,0.545c6.072-1.998,9.862-6.278,12.785-11.425
					c3.988,0.179,7.407-0.21,10.609-0.816c0.69,3.481,2.158,6.185,3.265,9.249c-2.196,1.603-6.845,2.539-8.161,5.441
					c-1.291,2.848-0.283,6.434,2.449,6.257c2.111-0.137,2.68-2.391,3.264-4.625c2.095-0.081,3.758-0.595,5.441-1.088
					C1086.122,1022.922,1082.57,1025.265,1080.444,1029.034z M1087.79,1005.367c0.896,2.319,2.254,5.617,1.904,7.346
					c-0.685,3.39-6.19,3.55-9.521,4.624c-0.982,1.824-0.915,4.734-2.992,4.897c-2.496,0.196-2.894-3.08-1.905-5.985
					c2.571-1.963,5.454-3.614,8.705-4.896c-1.123-3.501-3.051-6.197-4.08-9.793
					C1084.039,999.214,1086.152,1001.129,1087.79,1005.367z M1095.951,977.349c-0.14-4.576-1.842-7.588-2.992-11.154
					C1100.215,960.118,1102.906,976.548,1095.951,977.349z"/>
			</g>
			<g>
				<path fill-rule="evenodd" clip-rule="evenodd" fill="#FFFFFF" d="M1086.429,983.876c-0.933-0.462-1.907,0.123-2.992-0.544
					c-0.872-1.051-0.924-2.471-0.272-3.809c-4.405-0.476-6.238,3.804-4.897,7.345c-1.81-1.547-1.398-5.964,0-7.889
					c0.854-1.175,2.803-2.14,4.081-2.176c6.561-0.188,7.688,11.042,1.631,13.058c-0.308-0.053-0.15-0.273,0-0.272
					C1085.553,988.441,1086.595,986.762,1086.429,983.876z"/>
			</g>
			<g>
				<path fill-rule="evenodd" clip-rule="evenodd" fill="#FFFFFF" d="M1027.943,1000.743c-2.972-2.458-2.836-7.413-2.449-10.608
					c1.053-8.683,9.37-15.61,18.498-11.426c0.118,2.511,0.443,4.816,1.088,6.8c-0.051,0.309-0.273,0.151-0.272,0
					c-1.692-2.604-4.865-3.762-8.433-3.536C1027.844,982.512,1029.473,992.842,1027.943,1000.743z"/>
			</g>
			<g>
				<path fill-rule="evenodd" clip-rule="evenodd" fill="#FFFFFF" d="M1056.778,1026.313c-7.859,0.113-12.874-6.339-13.601-14.146
					c-0.708-7.596,3.732-15.627,2.72-23.394c0.395,1.312,2.664,3.151,2.993,4.896c0.448,2.38-0.731,5.556-1.361,8.161
					c-1.513,6.251-2.603,15.403,2.992,19.042c0.927,0.603,2.037,0.26,3.264,1.088
					C1055.329,1023,1055.155,1024.539,1056.778,1026.313z"/>
			</g>
		</g>
		<g>
			<g>
				<path fill-rule="evenodd" clip-rule="evenodd" fill="#FFFFFF" d="M1056.149,988.567c-3.482-2.521-2.423-8.826,0-10.611
					c6.06-4.463,11.977,6.198,6.53,10.339c0.252-1.357,1.332-3.108,0.543-4.625c-0.75,0.575-3.345,0.701-4.081-0.816
					c-0.006-1.186-0.162-2.52,0.544-2.992c-2.679,0.042-3.814,1.627-4.353,3.809c-0.45,0.293-0.45,2.427,0,2.721
					C1055.549,987.172,1055.884,987.834,1056.149,988.567z"/>
			</g>
			<g>
				<path fill-rule="evenodd" clip-rule="evenodd" fill="#FFFFFF" d="M1078.186,986.39c0,0.091,0,0.181,0,0.272
					c-2.731-5.41,1.593-10.954,6.258-9.523c4.794,1.472,5.011,10.388,0.272,12.244c0-0.091,0-0.182,0-0.272
					c1.101-1.167,1.881-2.654,1.632-5.169c-1.1,0.086-2.841-0.282-3.537-1.36c-0.112-1.201,0.075-2.103,0.544-2.721
					C1079.161,979.565,1077.925,982.229,1078.186,986.39z"/>
			</g>
			<g>
				<path fill-rule="evenodd" clip-rule="evenodd" fill="#FFFFFF" d="M1063.858,1001.201c1.303-0.223,2.649-0.266,3.983-0.234
					c2.079,0.048,4.157-0.038,6.236-0.069c1.506-0.521,2.383-1.572,1.66-3.625c-2.43-0.834-6.121-0.408-8.162-1.631
					c0.191,1.187-0.462,1.532-0.271,2.72c-1.232,0.731-2.533,1.532-3.839,2.354
					C1063.599,1000.875,1063.728,1001.039,1063.858,1001.201z"/>
			</g>
			<g>
				<path fill-rule="evenodd" clip-rule="evenodd" fill="#FFFFFF" d="M1076.554,999.722c0.027-1.115,0.053-2.231-0.272-2.993
					c-0.883-0.659-2.492-0.592-3.809-0.816c0.858-0.775,2.428-0.837,2.993-1.904c-2.224,1.627-6.822,1.812-8.979,0
					c-0.592-0.569,0.137-0.777,0-1.633c-1.096,0.265-1.531,1.188-2.176,1.904c1.301-0.777,1.719,0.521,2.72,0.816
					c-0.12,1.059-0.206,2.151-0.544,2.992c-0.22,0.053-0.271,0.273-0.544,0.272c-3.476-0.417-6.282-3.185-4.897-6.802
					c-16.722,3.921-12.132-22.125,0.544-22.037c4.369,0.03,7.087,3.147,9.522,6.802c1.395-3.759,4.178-6.512,8.707-6.53
					c11.657-0.046,17.763,23.859,1.088,22.31c0.904,3.25-0.603,6.232-4.082,5.985
					C1076.669,998.567,1077.155,999.688,1076.554,999.722z M1062.679,988.294c5.446-4.141-0.47-14.802-6.53-10.339
					c-2.423,1.786-3.482,8.09,0,10.611C1057.297,990.598,1061.751,990.234,1062.679,988.294z M1084.716,989.111
					c0,0.091,0,0.182,0,0.272c4.739-1.856,4.522-10.772-0.272-12.244c-4.665-1.431-8.989,4.113-6.258,9.523c0-0.091,0-0.181,0-0.272
					C1078.68,988.972,1082.083,991.151,1084.716,989.111z M1068.937,989.111c0.344,1.369,3.366,0.939,3.809,0
					C1072.922,987.347,1068.698,987.064,1068.937,989.111z"/>
				<path fill="#221F1F" d="M1076.169,1000.119l0.01-0.407c0.025-1.007,0.05-2.047-0.204-2.74c-0.558-0.36-1.474-0.453-2.361-0.542
					c-0.41-0.042-0.819-0.083-1.204-0.148l-0.762-0.13l0.574-0.518c0.025-0.022,0.051-0.044,0.077-0.066
					c-1.701,0.245-3.552,0.042-4.88-0.553l-0.056,0.502c-0.103,0.945-0.21,1.923-0.527,2.712l-0.072,0.18l-0.188,0.045
					c-0.168,0.138-0.338,0.283-0.63,0.283c-2.18-0.259-4.017-1.343-4.957-2.902c-0.685-1.134-0.853-2.427-0.498-3.771
					c-4.371,0.853-7.671-0.333-9.396-3.322c-1.99-3.446-1.579-8.971,0.999-13.436c2.259-3.914,5.698-6.158,9.435-6.158
					c4.392,0.03,7.181,3.013,9.5,6.381c1.687-3.931,4.786-6.093,8.791-6.109c6.717,0,11.711,7.493,11.711,14.192
					c0,5.597-3.409,8.939-9.119,8.94c0,0-0.001,0-0.002,0c-0.329,0-0.668-0.011-1.015-0.033c0.35,1.693,0.076,3.272-0.777,4.396
					c-0.787,1.035-2.019,1.568-3.443,1.564c0.006,0.093,0.018,0.193,0.028,0.279c0.046,0.406,0.095,0.826-0.145,1.11
					c-0.082,0.097-0.231,0.216-0.481,0.23L1076.169,1000.119L1076.169,1000.119z M1061.649,991.033l-0.253,0.66
					c-0.516,1.348-0.435,2.646,0.233,3.754c0.822,1.362,2.452,2.313,4.359,2.542c0.063-0.067,0.126-0.128,0.203-0.177
					c0.24-0.675,0.334-1.539,0.426-2.376l0.01-0.095c-0.277-0.135-0.509-0.321-0.72-0.49c-0.462-0.373-0.812-0.601-1.404-0.249
					l-0.471-0.573c0.149-0.165,0.286-0.342,0.423-0.519c0.461-0.594,0.983-1.268,1.944-1.5l0.394-0.095l0.064,0.401
					c0.077,0.479-0.059,0.802-0.158,1.038c-0.101,0.241-0.101,0.241,0.047,0.384c0.891,0.748,2.381,1.186,4.068,1.186
					c1.731,0,3.387-0.456,4.43-1.218l0.553,0.479c-0.394,0.743-1.143,1.055-1.868,1.355c-0.109,0.045-0.218,0.09-0.323,0.136
					c0.027,0.003,0.055,0.006,0.082,0.008c1.034,0.104,2.104,0.212,2.817,0.745l0.081,0.06l0.04,0.093
					c0.143,0.334,0.224,0.72,0.269,1.136c1.354,0.08,2.437-0.354,3.124-1.258c0.796-1.047,0.988-2.598,0.527-4.255l-0.146-0.524
					l0.542,0.05c0.505,0.047,1,0.024,1.468,0.071c5.241-0.001,8.37-3.063,8.369-8.19c0-6.216-4.773-13.442-10.926-13.442
					c-5.019,0.021-7.329,3.43-8.389,6.286l-0.256,0.689l-0.408-0.612c-2.641-3.962-5.218-6.607-9.213-6.635
					c-3.522,0-6.725,2.107-8.847,5.783c-2.45,4.244-2.861,9.461-0.999,12.686c1.636,2.834,4.896,3.842,9.218,2.828L1061.649,991.033
					L1061.649,991.033z M1065.28,993.676c0.27,0.041,0.501,0.157,0.709,0.296c-0.206-0.373-0.075-0.686,0.019-0.909
					c0.016-0.038,0.032-0.075,0.046-0.112C1065.752,993.131,1065.515,993.385,1065.28,993.676L1065.28,993.676z M1070.572,990.359
					L1070.572,990.359c-1.07,0-1.817-0.433-2-1.157c-0.062-0.504,0.06-0.913,0.343-1.231c0.376-0.423,1.029-0.666,1.791-0.666
					c0.837,0,1.622,0.293,2.048,0.764c0.278,0.307,0.403,0.68,0.363,1.079l-0.034,0.122
					C1072.751,989.978,1071.542,990.359,1070.572,990.359L1070.572,990.359z M1070.707,988.055c-0.54,0-1,0.155-1.23,0.414
					c-0.141,0.158-0.196,0.354-0.167,0.598c0.128,0.499,1,0.542,1.263,0.542c0.824,0,1.597-0.31,1.803-0.606
					c0-0.159-0.059-0.3-0.177-0.431C1071.915,988.258,1071.329,988.055,1070.707,988.055L1070.707,988.055z M1059.169,990.304
					C1059.169,990.304,1059.169,990.304,1059.169,990.304c-1.508,0-2.735-0.552-3.305-1.48c-1.489-1.114-2.313-2.972-2.323-5.243
					c-0.01-2.448,0.97-4.885,2.384-5.927c1.031-0.76,2.11-1.145,3.206-1.145c2.788,0,4.846,2.407,5.65,4.792
					c0.753,2.236,0.669,5.301-1.807,7.238C1062.329,989.758,1060.612,990.304,1059.169,990.304L1059.169,990.304z M1059.132,977.259
					c-0.932,0-1.861,0.336-2.761,0.998c-1.214,0.895-2.088,3.132-2.079,5.32c0.005,1.192,0.281,3.386,2.077,4.686l0.107,0.119
					c0.415,0.734,1.421,1.172,2.693,1.172c1.467,0,2.771-0.584,3.172-1.422l0.111-0.136c2.227-1.693,2.296-4.444,1.619-6.455
					C1063.222,979.02,1061.19,977.259,1059.132,977.259L1059.132,977.259z M1082.435,990.291c-2.02,0-3.976-1.527-4.532-3.472
					l-0.052,0.012c-1.235-2.446-1.177-5.201,0.157-7.367c1.438-2.335,4.082-3.439,6.546-2.683c2.297,0.705,3.856,3.136,3.972,6.193
					c0.12,3.185-1.321,5.837-3.673,6.759l-0.512,0.201v-0.131C1083.746,990.124,1083.098,990.291,1082.435,990.291L1082.435,990.291
					z M1078.554,986.32c0.334,1.746,2.111,3.221,3.881,3.221c0.739,0,1.429-0.245,2.051-0.727l0.604-0.469v0.449
					c2.088-1.148,2.761-3.776,2.685-5.793c-0.103-2.733-1.454-4.894-3.442-5.504c-2.143-0.657-4.427,0.311-5.688,2.359
					c-1.167,1.896-1.24,4.303-0.206,6.474L1078.554,986.32L1078.554,986.32z"/>
			</g>
			<g>
				<path fill-rule="evenodd" clip-rule="evenodd" fill="#221F1F" d="M1078.186,986.39c-0.261-4.161,0.975-6.825,5.169-6.529
					c-0.47,0.618-0.657,1.52-0.544,2.721c0.696,1.079,2.437,1.447,3.537,1.36c0.249,2.515-0.531,4.002-1.632,5.169
					C1082.083,991.151,1078.68,988.972,1078.186,986.39z M1080.907,987.479c1.749,0.389,2.262-0.978,1.632-2.177
					C1080.718,984.681,1080.149,986.383,1080.907,987.479z"/>
			</g>
			<g>
				<path fill-rule="evenodd" clip-rule="evenodd" fill="#FFFFFF" d="M1060.23,986.935c-0.509,0.777-2.569,0.823-2.449-0.544
					C1057.711,984.73,1060.853,984.977,1060.23,986.935z"/>
			</g>
			<g>
				<path fill-rule="evenodd" clip-rule="evenodd" fill="#221F1F" d="M1072.745,989.111c-0.442,0.939-3.464,1.369-3.809,0
					C1068.698,987.064,1072.922,987.347,1072.745,989.111z"/>
			</g>
			<g>
				<path fill-rule="evenodd" clip-rule="evenodd" fill="#221F1F" d="M1065.943,998.361c-0.903,0.681-1.891,1.275-2.901,1.849
					c0.074,0.086,0.147,0.172,0.22,0.257c0.069,0.081,0.135,0.166,0.203,0.248c1.306-0.822,2.607-1.623,3.839-2.354
					c-0.191-1.188,0.462-1.533,0.271-2.72c2.041,1.224,5.732,0.797,8.162,1.631c0.723,2.052-0.154,3.104-1.66,3.625
					c0.476-0.007,0.952-0.009,1.428-0.008c0.413-0.326,0.745-0.733,1.049-1.167c0.027-1.115,0.053-2.231-0.272-2.993
					c-0.883-0.659-2.492-0.592-3.809-0.816c0.858-0.775,2.428-0.837,2.993-1.904c-2.224,1.627-6.822,1.812-8.979,0
					c-0.592-0.569,0.137-0.777,0-1.633c-1.096,0.265-1.531,1.188-2.176,1.904c1.301-0.777,1.719,0.521,2.72,0.816
					c-0.12,1.059-0.206,2.151-0.544,2.992C1066.267,998.141,1066.216,998.361,1065.943,998.361z"/>
			</g>
			<g>
				<path fill-rule="evenodd" clip-rule="evenodd" fill="#221F1F" d="M1055.333,983.669c0.539-2.182,1.674-3.767,4.353-3.809
					c-0.706,0.473-0.551,1.806-0.544,2.992c0.736,1.517,3.331,1.392,4.081,0.816c0.789,1.517-0.291,3.268-0.543,4.625
					c-0.928,1.939-5.382,2.304-6.53,0.272c-0.265-0.732-0.6-1.395-0.816-2.177C1055.333,985.483,1055.333,984.576,1055.333,983.669z
					 M1057.782,986.39c-0.12,1.367,1.94,1.321,2.449,0.544C1060.853,984.977,1057.711,984.73,1057.782,986.39z"/>
			</g>
			<g>
				<path fill-rule="evenodd" clip-rule="evenodd" fill="#221F1F" d="M1055.333,983.669c0,0.907,0,1.813,0,2.721"/>
			</g>
			<g>
				<path fill-rule="evenodd" clip-rule="evenodd" fill="#FFFFFF" d="M1082.54,985.302c0.629,1.199,0.116,2.566-1.632,2.177
					C1080.149,986.383,1080.718,984.681,1082.54,985.302z"/>
			</g>
		</g>
	</g>
</g>
</svg>
