<?xml version="1.0" encoding="utf-8"?>
<!-- Generator: Adobe Illustrator 14.0.0, SVG Export Plug-In . SVG Version: 6.00 Build 43363)  -->
<!DOCTYPE svg PUBLIC "-//W3C//DTD SVG 1.1//EN" "http://www.w3.org/Graphics/SVG/1.1/DTD/svg11.dtd">
<svg version="1.1" id="Слой_1" xmlns="http://www.w3.org/2000/svg" xmlns:xlink="http://www.w3.org/1999/xlink" x="0px" y="0px"
	 width="2834.65px" height="2834.65px" viewBox="0 0 2834.65 2834.65" enable-background="new 0 0 2834.65 2834.65"
	 xml:space="preserve">
<g>
	<g>
		<g>
			<g>
				<g>
					<g>
						<path fill="#FFFFFF" d="M1589.188,1349.457c0,3.261-2.667,5.928-5.928,5.928h-66.524c-3.261,0-5.928-2.667-5.928-5.928
							v-11.434c0-3.261,2.667-5.928,5.928-5.928h66.524c3.261,0,5.928,2.667,5.928,5.928V1349.457z"/>
					</g>
				</g>
				<g>
					<g>
						<path fill="#221F1F" d="M1583.26,1355.977h-66.524c-3.596,0-6.521-2.925-6.521-6.521v-11.434c0-3.596,2.925-6.521,6.521-6.521
							h66.524c3.596,0,6.521,2.925,6.521,6.521v11.434C1589.781,1353.052,1586.855,1355.977,1583.26,1355.977L1583.26,1355.977z
							 M1516.735,1332.688c-2.942,0-5.335,2.393-5.335,5.335v11.434c0,2.942,2.393,5.335,5.335,5.335h66.524
							c2.942,0,5.336-2.393,5.336-5.335v-11.434c0-2.942-2.394-5.335-5.336-5.335H1516.735L1516.735,1332.688z"/>
					</g>
				</g>
			</g>
			<g>
				<g>
					<g>
						<path fill="#FFFFFF" d="M1950.445,1349.457c0,3.261-2.668,5.928-5.93,5.928h-66.523c-3.262,0-5.928-2.667-5.928-5.928v-11.434
							c0-3.261,2.666-5.928,5.928-5.928h66.523c3.262,0,5.93,2.667,5.93,5.928V1349.457z"/>
					</g>
				</g>
				<g>
					<g>
						<path fill="#221F1F" d="M1944.516,1355.977h-66.523c-3.596,0-6.521-2.925-6.521-6.521v-11.434
							c0-3.596,2.926-6.521,6.521-6.521h66.523c3.596,0,6.521,2.925,6.521,6.521v11.434
							C1951.037,1353.052,1948.111,1355.977,1944.516,1355.977L1944.516,1355.977z M1877.992,1332.688
							c-2.943,0-5.336,2.393-5.336,5.335v11.434c0,2.942,2.393,5.335,5.336,5.335h66.523c2.943,0,5.336-2.393,5.336-5.335v-11.434
							c0-2.942-2.393-5.335-5.336-5.335H1877.992L1877.992,1332.688z"/>
					</g>
				</g>
			</g>
		</g>
		<g>
			<g>
				<g>
					<g>
						<g>
							<path fill="#FFFFFF" d="M1986.322,1286.358c0,10.021-32.012,18.223-71.137,18.223h-369.119
								c-39.125,0-71.137-8.201-71.137-18.223s32.012-38.223,71.137-38.223h369.119
								C1954.311,1248.135,1986.322,1276.336,1986.322,1286.358z"/>
						</g>
					</g>
					<g>
						<g>
							<path fill="#221F1F" d="M1915.186,1305.173h-369.119c-40.223,0-71.729-8.265-71.729-18.815s31.507-38.815,71.729-38.815
								h369.119c40.223,0,71.73,28.265,71.73,38.815S1955.408,1305.173,1915.186,1305.173L1915.186,1305.173z M1546.066,1248.728
								c-38.239,0-70.544,28.073-70.544,37.63s32.305,17.63,70.544,17.63h369.119c38.238,0,70.545-8.073,70.545-17.63
								s-32.307-37.63-70.545-37.63H1546.066L1546.066,1248.728z"/>
						</g>
					</g>
				</g>
				<g>
					<g>
						<g>
							<path fill="#FFFFFF" d="M1986.322,1336.292c0,6.521-5.336,11.855-11.855,11.855h-487.682
								c-6.521,0-11.855-5.335-11.855-11.855v-47.251c0-6.521,5.335-11.855,11.855-11.855h487.682
								c6.52,0,11.855,5.335,11.855,11.855V1336.292z"/>
						</g>
					</g>
					<g>
						<g>
							<path fill="#221F1F" d="M1974.467,1348.741h-487.682c-6.863,0-12.448-5.584-12.448-12.448v-47.251
								c0-6.863,5.585-12.449,12.448-12.449h487.682c6.863,0,12.449,5.586,12.449,12.449v47.251
								C1986.916,1343.157,1981.33,1348.741,1974.467,1348.741L1974.467,1348.741z M1486.785,1277.778
								c-6.21,0-11.263,5.053-11.263,11.264v47.251c0,6.21,5.053,11.263,11.263,11.263h487.682c6.211,0,11.264-5.053,11.264-11.263
								v-47.251c0-6.211-5.053-11.264-11.264-11.264H1486.785L1486.785,1277.778z"/>
						</g>
					</g>
				</g>
				<g>
					<g>
						<rect x="1513.952" y="1286.233" fill="#FFFFFF" width="433.347" height="52.868"/>
					</g>
					<g>
						<path fill="#221F1F" d="M1947.893,1339.694h-434.533v-54.054h434.533V1339.694L1947.893,1339.694z M1514.545,1338.508h432.162
							v-51.683h-432.162V1338.508L1514.545,1338.508z"/>
					</g>
				</g>
			</g>
			<g>
				<g>
					<g>
						<circle fill="#FFFFFF" cx="1912.343" cy="1310.295" r="22.229"/>
					</g>
					<g>
						<path fill="#221F1F" d="M1912.342,1333.118c-12.584,0-22.82-10.238-22.82-22.822s10.236-22.821,22.82-22.821
							s22.822,10.237,22.822,22.821S1924.926,1333.118,1912.342,1333.118L1912.342,1333.118z M1912.342,1288.66
							c-11.93,0-21.635,9.706-21.635,21.636c0,11.931,9.705,21.637,21.635,21.637c11.932,0,21.637-9.706,21.637-21.637
							C1933.979,1298.366,1924.273,1288.66,1912.342,1288.66L1912.342,1288.66z"/>
					</g>
				</g>
				<g>
					<g>
						<g>
							<g>
								<path fill="#FFFFFF" d="M1924.791,1311.804c0,6.521-5.336,11.856-11.855,11.856h-1.186c-6.521,0-11.855-5.336-11.855-11.856
									v-192.769c0-6.521,5.334-11.855,11.855-11.855h1.186c6.52,0,11.855,5.335,11.855,11.855V1311.804z"/>
							</g>
						</g>
						<g>
							<g>
								<path fill="#221F1F" d="M1912.936,1324.253h-1.186c-6.863,0-12.449-5.585-12.449-12.449v-192.769
									c0-6.863,5.586-12.448,12.449-12.448h1.186c6.863,0,12.449,5.585,12.449,12.448v192.769
									C1925.385,1318.668,1919.799,1324.253,1912.936,1324.253L1912.936,1324.253z M1911.75,1107.773
									c-6.211,0-11.264,5.053-11.264,11.263v192.769c0,6.211,5.053,11.264,11.264,11.264h1.186
									c6.211,0,11.264-5.053,11.264-11.264v-192.769c0-6.21-5.053-11.263-11.264-11.263H1911.75L1911.75,1107.773z"/>
							</g>
						</g>
					</g>
					<g>
						<g>
							<rect x="1899.895" y="1145.374" fill="#646464" width="24.896" height="6.694"/>
						</g>
						<g>
							<path fill="#221F1F" d="M1925.385,1152.661h-26.084v-7.881h26.084V1152.661L1925.385,1152.661z M1900.486,1151.475h23.713
								v-5.51h-23.713V1151.475L1900.486,1151.475z"/>
						</g>
					</g>
				</g>
			</g>
		</g>
	</g>
	<g>
		<g>
			<g>
				<g>
					<rect x="1575.174" y="1297.35" fill="#221F1F" width="37.148" height="24.44"/>
				</g>
			</g>
			<g>
				<g>
					<rect x="1583.484" y="1316.165" fill="#221F1F" width="20.527" height="10.274"/>
				</g>
			</g>
			<g>
				<g>
					<rect x="1587.885" y="1319.097" fill="#221F1F" width="11.729" height="10.274"/>
				</g>
			</g>
		</g>
		<g>
			<g>
				<g>
					<polygon fill="#FFFFFF" points="1585.838,1310.299 1584.059,1310.299 1584.059,1300.034 1585.838,1300.034 1585.838,1310.299 
											"/>
				</g>
			</g>
			<g>
				<g>
					<polygon fill="#FFFFFF" points="1590.237,1310.299 1588.459,1310.299 1588.459,1300.034 1590.237,1300.034 1590.237,1310.299 
											"/>
				</g>
			</g>
			<g>
				<g>
					<polygon fill="#FFFFFF" points="1594.637,1310.299 1592.857,1310.299 1592.857,1300.034 1594.637,1300.034 1594.637,1310.299 
											"/>
				</g>
			</g>
			<g>
				<g>
					<polygon fill="#FFFFFF" points="1599.035,1310.299 1597.258,1310.299 1597.258,1300.034 1599.035,1300.034 1599.035,1310.299 
											"/>
				</g>
			</g>
			<g>
				<g>
					<polygon fill="#FFFFFF" points="1603.435,1310.299 1601.656,1310.299 1601.656,1300.034 1603.435,1300.034 1603.435,1310.299 
											"/>
				</g>
			</g>
		</g>
	</g>
	<g>
		<g>
			<g>
				<g>
					<rect x="1622.31" y="1297.35" fill="#221F1F" width="37.148" height="24.44"/>
				</g>
			</g>
			<g>
				<g>
					<rect x="1630.62" y="1316.165" fill="#221F1F" width="20.528" height="10.274"/>
				</g>
			</g>
			<g>
				<g>
					<rect x="1635.021" y="1319.097" fill="#221F1F" width="11.729" height="10.274"/>
				</g>
			</g>
		</g>
		<g>
			<g>
				<g>
					<polygon fill="#FFFFFF" points="1632.974,1310.299 1631.195,1310.299 1631.195,1300.034 1632.974,1300.034 1632.974,1310.299 
											"/>
				</g>
			</g>
			<g>
				<g>
					<polygon fill="#FFFFFF" points="1637.374,1310.299 1635.595,1310.299 1635.595,1300.034 1637.374,1300.034 1637.374,1310.299 
											"/>
				</g>
			</g>
			<g>
				<g>
					<polygon fill="#FFFFFF" points="1641.772,1310.299 1639.994,1310.299 1639.994,1300.034 1641.772,1300.034 1641.772,1310.299 
											"/>
				</g>
			</g>
			<g>
				<g>
					<polygon fill="#FFFFFF" points="1646.172,1310.299 1644.394,1310.299 1644.394,1300.034 1646.172,1300.034 1646.172,1310.299 
											"/>
				</g>
			</g>
			<g>
				<g>
					<polygon fill="#FFFFFF" points="1650.571,1310.299 1648.792,1310.299 1648.792,1300.034 1650.571,1300.034 1650.571,1310.299 
											"/>
				</g>
			</g>
		</g>
	</g>
	<g>
		<g>
			<g>
				<g>
					<rect x="1669.733" y="1297.35" fill="#221F1F" width="37.149" height="24.44"/>
				</g>
			</g>
			<g>
				<g>
					<rect x="1678.044" y="1316.165" fill="#221F1F" width="20.528" height="10.274"/>
				</g>
			</g>
			<g>
				<g>
					<rect x="1682.444" y="1319.097" fill="#221F1F" width="11.729" height="10.274"/>
				</g>
			</g>
		</g>
		<g>
			<g>
				<g>
					<polygon fill="#FFFFFF" points="1680.397,1310.299 1678.62,1310.299 1678.62,1300.034 1680.397,1300.034 1680.397,1310.299 
											"/>
				</g>
			</g>
			<g>
				<g>
					<polygon fill="#FFFFFF" points="1684.798,1310.299 1683.02,1310.299 1683.02,1300.034 1684.798,1300.034 1684.798,1310.299 
											"/>
				</g>
			</g>
			<g>
				<g>
					<polygon fill="#FFFFFF" points="1689.196,1310.299 1687.419,1310.299 1687.419,1300.034 1689.196,1300.034 1689.196,1310.299 
											"/>
				</g>
			</g>
			<g>
				<g>
					<polygon fill="#FFFFFF" points="1693.596,1310.299 1691.817,1310.299 1691.817,1300.034 1693.596,1300.034 1693.596,1310.299 
											"/>
				</g>
			</g>
			<g>
				<g>
					<polygon fill="#FFFFFF" points="1697.995,1310.299 1696.217,1310.299 1696.217,1300.034 1697.995,1300.034 1697.995,1310.299 
											"/>
				</g>
			</g>
		</g>
	</g>
	<g>
		<g>
			<g>
				<g>
					<rect x="1717.158" y="1297.35" fill="#221F1F" width="37.148" height="24.44"/>
				</g>
			</g>
			<g>
				<g>
					<rect x="1725.467" y="1316.165" fill="#221F1F" width="20.529" height="10.274"/>
				</g>
			</g>
			<g>
				<g>
					<rect x="1729.867" y="1319.097" fill="#221F1F" width="11.729" height="10.274"/>
				</g>
			</g>
		</g>
		<g>
			<g>
				<g>
					<polygon fill="#FFFFFF" points="1727.822,1310.299 1726.043,1310.299 1726.043,1300.034 1727.822,1300.034 1727.822,1310.299 
											"/>
				</g>
			</g>
			<g>
				<g>
					<polygon fill="#FFFFFF" points="1732.221,1310.299 1730.443,1310.299 1730.443,1300.034 1732.221,1300.034 1732.221,1310.299 
											"/>
				</g>
			</g>
			<g>
				<g>
					<polygon fill="#FFFFFF" points="1736.621,1310.299 1734.842,1310.299 1734.842,1300.034 1736.621,1300.034 1736.621,1310.299 
											"/>
				</g>
			</g>
			<g>
				<g>
					<polygon fill="#FFFFFF" points="1741.02,1310.299 1739.24,1310.299 1739.24,1300.034 1741.02,1300.034 1741.02,1310.299 					
						"/>
				</g>
			</g>
			<g>
				<g>
					<polygon fill="#FFFFFF" points="1745.418,1310.299 1743.641,1310.299 1743.641,1300.034 1745.418,1300.034 1745.418,1310.299 
											"/>
				</g>
			</g>
		</g>
	</g>
	<g>
		<g>
			<g>
				<g>
					<rect x="1818.582" y="1297.35" fill="#221F1F" width="37.148" height="24.44"/>
				</g>
			</g>
			<g>
				<g>
					<rect x="1826.893" y="1316.165" fill="#221F1F" width="20.527" height="10.274"/>
				</g>
			</g>
			<g>
				<g>
					<rect x="1831.293" y="1319.097" fill="#221F1F" width="11.729" height="10.274"/>
				</g>
			</g>
		</g>
		<g>
			<g>
				<g>
					<polygon fill="#FFFFFF" points="1829.246,1310.299 1827.467,1310.299 1827.467,1300.034 1829.246,1300.034 1829.246,1310.299 
											"/>
				</g>
			</g>
			<g>
				<g>
					<polygon fill="#FFFFFF" points="1833.645,1310.299 1831.867,1310.299 1831.867,1300.034 1833.645,1300.034 1833.645,1310.299 
											"/>
				</g>
			</g>
			<g>
				<g>
					<polygon fill="#FFFFFF" points="1838.045,1310.299 1836.266,1310.299 1836.266,1300.034 1838.045,1300.034 1838.045,1310.299 
											"/>
				</g>
			</g>
			<g>
				<g>
					<polygon fill="#FFFFFF" points="1842.443,1310.299 1840.666,1310.299 1840.666,1300.034 1842.443,1300.034 1842.443,1310.299 
											"/>
				</g>
			</g>
			<g>
				<g>
					<polygon fill="#FFFFFF" points="1846.842,1310.299 1845.064,1310.299 1845.064,1300.034 1846.842,1300.034 1846.842,1310.299 
											"/>
				</g>
			</g>
		</g>
	</g>
	<g>
		<g>
			<g>
				<circle fill="#221F1F" cx="1547.28" cy="1312.667" r="14.228"/>
			</g>
		</g>
		<g>
			<g>
				<circle fill="#FFFFFF" cx="1547.28" cy="1312.667" r="3.545"/>
			</g>
		</g>
	</g>
	<g>
		<g>
			<g>
				<g>
					<g>
						<path fill="#FFFFFF" d="M1855.01,1305.669c0-1.304-1.066-2.371-2.371-2.371h-31.27c-1.305,0-2.371,1.067-2.371,2.371v18.948
							c0,1.305,1.066,2.371,2.371,2.371h31.27c1.305,0,2.371-1.066,2.371-2.371V1305.669z"/>
					</g>
				</g>
				<g>
					<g>
						<path fill="#221F1F" d="M1852.639,1327.583h-31.27c-1.635,0-2.965-1.33-2.965-2.965v-18.948c0-1.634,1.33-2.964,2.965-2.964
							h31.27c1.635,0,2.963,1.33,2.963,2.964v18.948C1855.602,1326.252,1854.273,1327.583,1852.639,1327.583L1852.639,1327.583z
							 M1821.369,1303.891c-0.98,0-1.777,0.797-1.777,1.778v18.948c0,0.98,0.797,1.779,1.777,1.779h31.27
							c0.98,0,1.777-0.799,1.777-1.779v-18.948c0-0.981-0.797-1.778-1.777-1.778H1821.369L1821.369,1303.891z"/>
					</g>
				</g>
			</g>
			<g>
				<g>
					<polygon fill="#FFFFFF" points="1855.01,1303.298 1818.998,1303.298 1822.789,1300.455 1851.219,1300.455 					"/>
				</g>
				<g>
					<path fill="#221F1F" d="M1855.01,1303.891h-36.012c-0.256,0-0.482-0.164-0.563-0.405c-0.08-0.242,0.002-0.509,0.207-0.662
						l3.791-2.843c0.102-0.078,0.227-0.119,0.355-0.119h28.43c0.129,0,0.254,0.041,0.355,0.119l3.791,2.843
						c0.205,0.153,0.287,0.42,0.207,0.662C1855.492,1303.727,1855.266,1303.891,1855.01,1303.891L1855.01,1303.891z
						 M1820.775,1302.706h32.457l-2.211-1.658h-28.035L1820.775,1302.706L1820.775,1302.706z"/>
				</g>
			</g>
		</g>
		<g>
			<g>
				<g>
					<path fill="#FFFFFF" d="M1849.037,1308.561h-24.066c-1.305,0-2.371,1.068-2.371,2.371v8.422c0,1.303,1.066,2.371,2.371,2.371
						h6.449v405.9c0,3.26,2.512,5.928,5.584,5.928s5.584-2.668,5.584-5.928v-405.9h6.449c1.305,0,2.371-1.068,2.371-2.371v-8.422
						C1851.408,1309.629,1850.342,1308.561,1849.037,1308.561z"/>
				</g>
				<g>
					<path fill="#221F1F" d="M1837.004,1734.145c-3.406,0-6.178-2.926-6.178-6.52v-405.308h-5.855c-1.635,0-2.965-1.329-2.965-2.963
						v-8.422c0-1.634,1.33-2.963,2.965-2.963h24.066c1.635,0,2.965,1.329,2.965,2.963v8.422c0,1.634-1.33,2.963-2.965,2.963h-5.855
						v405.308C1843.182,1731.219,1840.41,1734.145,1837.004,1734.145L1837.004,1734.145z M1824.971,1309.155
						c-0.98,0-1.779,0.797-1.779,1.777v8.422c0,0.98,0.799,1.777,1.779,1.777h7.041v406.494c0,2.941,2.24,5.334,4.992,5.334
						s4.992-2.393,4.992-5.334v-406.494h7.041c0.98,0,1.779-0.797,1.779-1.777v-8.422c0-0.98-0.799-1.777-1.779-1.777H1824.971
						L1824.971,1309.155z"/>
				</g>
			</g>
			<g>
				<g>
					<path fill="#CFD0CB" d="M1985.688,1739.66c0-16.453-13.336-29.787-29.787-29.787c-0.525,0-1.041,0.051-1.561,0.076
						c-5.68-22.76-26.254-39.623-50.771-39.623c-9.727,0-18.828,2.662-26.631,7.285c-6.926-15.037-22.119-25.479-39.76-25.479
						c-17.904,0-33.287,10.754-40.064,26.154c-6.262-2.678-13.152-4.164-20.393-4.164c-23.797,0-43.841,16.018-49.975,37.857
						c-21.385,1.254-38.344,18.988-38.344,40.689c0,22.516,18.252,40.768,40.768,40.768c7.243,0,14.039-1.896,19.935-5.209
						c7.185,11.609,20.03,19.346,34.685,19.346c4.838,0,9.479-0.848,13.783-2.395c9.488,13.982,25.51,23.168,43.678,23.168
						c23.719,0,43.779-15.654,50.416-37.193c7.666,9.219,19.221,15.088,32.146,15.088c21.936,0,39.91-16.904,41.641-38.391
						C1977.213,1763.865,1985.688,1752.762,1985.688,1739.66z"/>
				</g>
			</g>
			<g>
				<g>
					<path fill="#221F1F" d="M1786.018,1751.471v-18.621h3.947v18.621H1786.018z"/>
				</g>
				<g>
					<path fill="#221F1F" d="M1807.49,1751.471h-3.885v-8.316c0-1.027-0.182-1.799-0.547-2.313s-0.947-0.77-1.744-0.77
						c-1.088,0-1.873,0.361-2.357,1.09c-0.484,0.725-0.725,1.928-0.725,3.609v6.699h-3.885v-14.238h2.967l0.521,1.82h0.217
						c0.434-0.688,1.029-1.207,1.789-1.559c0.76-0.354,1.625-0.529,2.592-0.529c1.656,0,2.912,0.447,3.771,1.344
						c0.857,0.895,1.285,2.188,1.285,3.877V1751.471z"/>
				</g>
				<g>
					<path fill="#221F1F" d="M1817.488,1748.631c0.68,0,1.494-0.148,2.445-0.445v2.891c-0.969,0.432-2.156,0.648-3.566,0.648
						c-1.553,0-2.686-0.393-3.395-1.178s-1.063-1.963-1.063-3.533v-6.865h-1.859v-1.643l2.139-1.299l1.121-3.006h2.484v3.031h3.986
						v2.916h-3.986v6.865c0,0.551,0.154,0.959,0.465,1.223C1816.568,1748.498,1816.979,1748.631,1817.488,1748.631z"/>
				</g>
				<g>
					<path fill="#221F1F" d="M1829.256,1751.725c-2.293,0-4.084-0.631-5.375-1.896s-1.936-3.057-1.936-5.375
						c0-2.387,0.598-4.23,1.789-5.533c1.193-1.305,2.842-1.955,4.949-1.955c2.012,0,3.578,0.572,4.699,1.719s1.682,2.73,1.682,4.75
						v1.885h-9.184c0.043,1.104,0.369,1.967,0.98,2.586s1.469,0.93,2.574,0.93c0.855,0,1.668-0.09,2.432-0.268
						s1.563-0.463,2.395-0.854v3.006c-0.68,0.34-1.406,0.592-2.178,0.758C1831.311,1751.643,1830.369,1751.725,1829.256,1751.725z
						 M1828.709,1739.729c-0.824,0-1.469,0.262-1.936,0.781c-0.469,0.523-0.734,1.264-0.803,2.225h5.451
						c-0.018-0.961-0.268-1.701-0.752-2.225C1830.186,1739.99,1829.531,1739.729,1828.709,1739.729z"/>
				</g>
				<g>
					<path fill="#221F1F" d="M1846.17,1736.965c0.525,0,0.963,0.037,1.313,0.113l-0.293,3.643c-0.314-0.084-0.697-0.127-1.146-0.127
						c-1.24,0-2.207,0.318-2.898,0.955s-1.037,1.529-1.037,2.676v7.246h-3.885v-14.238h2.941l0.574,2.395h0.189
						c0.441-0.799,1.039-1.441,1.791-1.93C1844.469,1737.209,1845.287,1736.965,1846.17,1736.965z"/>
				</g>
				<g>
					<path fill="#221F1F" d="M1863.211,1751.471h-3.885v-8.316c0-1.027-0.184-1.799-0.549-2.313s-0.945-0.77-1.744-0.77
						c-1.088,0-1.871,0.361-2.355,1.09c-0.484,0.725-0.727,1.928-0.727,3.609v6.699h-3.885v-14.238h2.969l0.521,1.82h0.217
						c0.434-0.688,1.029-1.207,1.789-1.559c0.76-0.354,1.623-0.529,2.592-0.529c1.656,0,2.912,0.447,3.77,1.344
						c0.857,0.895,1.287,2.188,1.287,3.877V1751.471z"/>
				</g>
				<g>
					<path fill="#221F1F" d="M1873.654,1751.725c-2.293,0-4.084-0.631-5.375-1.896s-1.936-3.057-1.936-5.375
						c0-2.387,0.596-4.23,1.789-5.533c1.193-1.305,2.842-1.955,4.947-1.955c2.014,0,3.58,0.572,4.701,1.719
						c1.119,1.146,1.68,2.73,1.68,4.75v1.885h-9.182c0.041,1.104,0.369,1.967,0.98,2.586s1.469,0.93,2.572,0.93
						c0.857,0,1.668-0.09,2.434-0.268c0.764-0.178,1.561-0.463,2.393-0.854v3.006c-0.678,0.34-1.404,0.592-2.178,0.758
						C1875.709,1751.643,1874.766,1751.725,1873.654,1751.725z M1873.105,1739.729c-0.822,0-1.469,0.262-1.936,0.781
						c-0.467,0.523-0.734,1.264-0.803,2.225h5.451c-0.018-0.961-0.268-1.701-0.75-2.225
						C1874.584,1739.99,1873.93,1739.729,1873.105,1739.729z"/>
				</g>
				<g>
					<path fill="#221F1F" d="M1888.619,1748.631c0.678,0,1.494-0.148,2.445-0.445v2.891c-0.969,0.432-2.158,0.648-3.566,0.648
						c-1.555,0-2.686-0.393-3.395-1.178s-1.063-1.963-1.063-3.533v-6.865h-1.859v-1.643l2.139-1.299l1.121-3.006h2.484v3.031h3.986
						v2.916h-3.986v6.865c0,0.551,0.154,0.959,0.465,1.223C1887.699,1748.498,1888.109,1748.631,1888.619,1748.631z"/>
				</g>
			</g>
		</g>
	</g>
	<g>
		<g>
			<path fill="#221F1F" d="M1276.802,1510.838h-10.724v-18.619h10.724v3.234h-6.775v4.088h6.304v3.234h-6.304v4.803h6.775V1510.838z
				"/>
		</g>
		<g>
			<path fill="#221F1F" d="M1286.379,1507.998c0.68,0,1.494-0.148,2.445-0.445v2.891c-0.968,0.434-2.156,0.648-3.565,0.648
				c-1.554,0-2.686-0.393-3.395-1.178s-1.063-1.963-1.063-3.533v-6.865h-1.859v-1.643l2.14-1.299l1.121-3.006h2.483v3.031h3.986
				v2.916h-3.986v6.865c0,0.551,0.154,0.959,0.465,1.223C1285.46,1507.865,1285.87,1507.998,1286.379,1507.998z"/>
		</g>
		<g>
			<path fill="#221F1F" d="M1304.847,1510.838h-3.885v-8.316c0-2.055-0.765-3.082-2.292-3.082c-1.088,0-1.873,0.369-2.356,1.107
				c-0.484,0.738-0.726,1.936-0.726,3.592v6.699h-3.885v-19.816h3.885v4.037c0,0.313-0.031,1.053-0.09,2.215l-0.089,1.146h0.204
				c0.865-1.393,2.241-2.088,4.126-2.088c1.673,0,2.942,0.449,3.808,1.35c0.867,0.9,1.3,2.191,1.3,3.871V1510.838z"/>
		</g>
		<g>
			<path fill="#221F1F" d="M1315.29,1511.092c-2.292,0-4.084-0.631-5.374-1.896c-1.291-1.266-1.937-3.057-1.937-5.375
				c0-2.387,0.597-4.23,1.79-5.533c1.191-1.305,2.842-1.955,4.947-1.955c2.012,0,3.579,0.572,4.699,1.719
				c1.121,1.146,1.682,2.73,1.682,4.75v1.885h-9.183c0.042,1.104,0.369,1.967,0.98,2.586s1.469,0.93,2.573,0.93
				c0.857,0,1.668-0.088,2.432-0.268c0.765-0.178,1.563-0.463,2.395-0.854v3.006c-0.68,0.34-1.405,0.592-2.178,0.76
				C1317.345,1511.01,1316.402,1511.092,1315.29,1511.092z M1314.742,1499.096c-0.824,0-1.469,0.262-1.936,0.781
				c-0.467,0.523-0.734,1.264-0.803,2.225h5.451c-0.018-0.961-0.268-1.701-0.752-2.225
				C1316.22,1499.357,1315.565,1499.096,1314.742,1499.096z"/>
		</g>
		<g>
			<path fill="#221F1F" d="M1332.203,1496.332c0.526,0,0.963,0.037,1.313,0.113l-0.293,3.643c-0.314-0.084-0.697-0.127-1.146-0.127
				c-1.24,0-2.206,0.318-2.897,0.955c-0.692,0.637-1.038,1.529-1.038,2.676v7.246h-3.885V1496.6h2.942l0.573,2.395h0.191
				c0.44-0.799,1.037-1.441,1.789-1.93C1330.503,1496.576,1331.32,1496.332,1332.203,1496.332z"/>
		</g>
		<g>
			<path fill="#221F1F" d="M1349.244,1510.838h-3.885v-8.316c0-1.027-0.183-1.799-0.547-2.313c-0.366-0.514-0.947-0.77-1.745-0.77
				c-1.087,0-1.872,0.361-2.356,1.09c-0.484,0.725-0.727,1.928-0.727,3.609v6.699h-3.884V1496.6h2.968l0.521,1.82h0.217
				c0.434-0.688,1.029-1.207,1.789-1.559c0.76-0.354,1.624-0.529,2.592-0.529c1.656,0,2.912,0.447,3.771,1.344
				c0.857,0.895,1.286,2.188,1.286,3.877V1510.838z"/>
		</g>
		<g>
			<path fill="#221F1F" d="M1359.688,1511.092c-2.292,0-4.084-0.631-5.375-1.896c-1.29-1.266-1.936-3.057-1.936-5.375
				c0-2.387,0.597-4.23,1.789-5.533c1.193-1.305,2.843-1.955,4.948-1.955c2.013,0,3.579,0.572,4.7,1.719
				c1.12,1.146,1.681,2.73,1.681,4.75v1.885h-9.183c0.042,1.104,0.369,1.967,0.98,2.586s1.469,0.93,2.573,0.93
				c0.857,0,1.668-0.088,2.433-0.268c0.764-0.178,1.562-0.463,2.395-0.854v3.006c-0.68,0.34-1.406,0.592-2.179,0.76
				C1361.742,1511.01,1360.8,1511.092,1359.688,1511.092z M1359.14,1499.096c-0.823,0-1.469,0.262-1.936,0.781
				c-0.467,0.523-0.734,1.264-0.803,2.225h5.451c-0.018-0.961-0.268-1.701-0.751-2.225
				C1360.617,1499.357,1359.963,1499.096,1359.14,1499.096z"/>
		</g>
		<g>
			<path fill="#221F1F" d="M1374.652,1507.998c0.679,0,1.494-0.148,2.445-0.445v2.891c-0.968,0.434-2.157,0.648-3.566,0.648
				c-1.554,0-2.686-0.393-3.394-1.178c-0.709-0.785-1.063-1.963-1.063-3.533v-6.865h-1.859v-1.643l2.14-1.299l1.12-3.006h2.484
				v3.031h3.986v2.916h-3.986v6.865c0,0.551,0.154,0.959,0.465,1.223C1373.733,1507.865,1374.143,1507.998,1374.652,1507.998z"/>
		</g>
	</g>
	<g>
		<g>
			<g>
				<g>
					<g>
						<path fill="#FFFFFF" d="M1419.092,1218.576c-2.746,0-4.992,3.004-4.992,22.566v147.014c0,19.563-8.102,29.641-30.825,29.641
							h-88.532c-19.563,0-35.568,2.247-35.568,4.993c0,2.744,16.006,4.99,35.568,4.99h94.959c19.563,0,34.383-14.819,34.383-34.381
							v-152.256C1424.084,1221.58,1421.838,1218.576,1419.092,1218.576z"/>
					</g>
					<g>
						<path fill="#221F1F" d="M1258.581,1422.789c0-4.098,21.625-5.586,36.161-5.586h88.532c21.191,0,30.232-8.688,30.232-29.047
							v-147.014c0-14.535,1.487-23.16,5.585-23.16s5.585,8.625,5.585,23.16v152.256c0,19.938-15.036,34.975-34.976,34.975h-94.959
							C1280.206,1428.373,1258.581,1426.887,1258.581,1422.789L1258.581,1422.789z M1423.491,1393.398v-152.256
							c0-22.963-2.863-21.975-4.399-21.975c-1.535,0-4.398-0.988-4.398,21.975v147.014c0,21.191-9.396,30.233-31.419,30.233h-88.532
							c-22.963,0-34.976,2.865-34.976,4.4s12.013,4.398,34.976,4.398h94.959C1408.965,1427.188,1423.491,1412.662,1423.491,1393.398
							L1423.491,1393.398z"/>
					</g>
				</g>
			</g>
			<g>
				<g>
					<g>
						<path fill="#FFFFFF" d="M1307.91,1416.755c1.357,0.123,7.348,0.029,8.908,0.037c1.568,0.01,1.568,11.932,0,11.94
							c-1.965,0.012-7.508-0.189-9.156,0C1308.461,1425.021,1308.087,1420.502,1307.91,1416.755z"/>
					</g>
					<g>
						<path fill="#221F1F" d="M1306.908,1429.416l0.174-0.809c0.322-1.494,0.479-3.283,0.479-5.467c0-1.672-0.087-3.344-0.172-4.957
							l-0.103-2.081l0.677,0.061c0.955,0.088,4.438,0.063,6.743,0.047c0.915-0.006,1.684-0.012,2.115-0.01
							c1.46,0.008,1.767,3.573,1.767,6.563c0,2.988-0.307,6.555-1.767,6.563c-0.62,0.004-1.593-0.014-2.688-0.033
							c-2.366-0.043-5.312-0.098-6.403,0.029L1306.908,1429.416L1306.908,1429.416z M1316.707,1428.141
							c0.295-0.393,0.695-2.273,0.695-5.377s-0.4-4.985-0.695-5.377c-0.441-0.002-1.155,0.004-1.993,0.01
							c-2.06,0.014-4.756,0.033-6.179-0.014l0.037,0.739c0.086,1.629,0.174,3.316,0.174,5.02c0,1.91-0.117,3.539-0.357,4.947
							c1.434-0.061,3.797-0.018,5.767,0.02C1315.178,1428.125,1316.093,1428.141,1316.707,1428.141L1316.707,1428.141z"/>
					</g>
				</g>
				<g>
					<g>
						<path fill="#FFFFFF" d="M1305.539,1416.611c1.357,0.123,6.162,0.174,7.723,0.182c1.568,0.01,1.568,11.932,0,11.94
							c-1.965,0.012-6.074-0.189-7.723,0C1306.338,1425.021,1305.716,1420.355,1305.539,1416.611z"/>
					</g>
					<g>
						<path fill="#221F1F" d="M1304.785,1429.416l0.174-0.809c0.259-1.201,0.385-2.613,0.385-4.316c0-1.68-0.119-3.398-0.235-5.061
							c-0.063-0.896-0.122-1.766-0.162-2.592l-0.032-0.68l0.678,0.061c1.248,0.113,5.708,0.172,7.672,0.182
							c1.461,0.008,1.768,3.573,1.768,6.563c0,2.988-0.307,6.555-1.768,6.563c-0.646,0.004-1.525-0.016-2.473-0.037
							c-1.93-0.041-4.115-0.09-5.185,0.033L1304.785,1429.416L1304.785,1429.416z M1306.529,1424.291
							c0,1.441-0.088,2.691-0.266,3.795c1.223-0.055,2.973-0.016,4.553,0.018c0.885,0.02,1.707,0.037,2.334,0.037
							c0.295-0.393,0.695-2.273,0.695-5.377c0-3.105-0.4-4.987-0.695-5.379c-1.458-0.008-5.154-0.049-6.984-0.139
							c0.035,0.615,0.08,1.252,0.125,1.903C1306.408,1420.83,1306.529,1422.57,1306.529,1424.291L1306.529,1424.291z"/>
					</g>
				</g>
				<g>
					<g>
						<path fill="#FFFFFF" d="M1309.705,1416.792c1.568,0.01,1.568,11.932,0,11.94c-22.445,0.113-22.741,10.672-36.969,10.672
							c-9.195,0-30.855-0.004-30.855-0.004c-0.651,0.037-1.185-0.467-1.185-1.119v-14.275v-12.999v-3.762
							c0-0.652,0.533-1.156,1.185-1.121c0,0,21.66-0.002,30.855-0.002C1286.964,1406.123,1287.26,1416.679,1309.705,1416.792z"/>
					</g>
					<g>
						<path fill="#221F1F" d="M1240.104,1407.246c0-0.48,0.188-0.924,0.532-1.25c0.345-0.324,0.798-0.488,1.245-0.463l30.855-0.002
							c6.482,0,10.221,2.18,14.178,4.49c4.912,2.867,10.48,6.117,22.793,6.18c1.461,0.008,1.768,3.573,1.768,6.563
							c0,2.988-0.307,6.555-1.768,6.563c-12.313,0.063-17.881,3.311-22.793,6.18c-3.957,2.309-7.695,4.49-14.178,4.49l-30.823-0.004
							c-0.479,0.027-0.933-0.137-1.277-0.463c-0.344-0.324-0.532-0.768-0.532-1.248V1407.246L1240.104,1407.246z M1309.594,1428.141
							c0.295-0.393,0.695-2.271,0.695-5.377s-0.4-4.987-0.695-5.379c-12.554-0.082-18.25-3.406-23.277-6.338
							c-3.98-2.324-7.419-4.33-13.58-4.33h-30.888c-0.152-0.008-0.293,0.043-0.397,0.143c-0.104,0.098-0.162,0.234-0.162,0.387
							v31.036c0,0.15,0.058,0.289,0.162,0.387c0.104,0.1,0.245,0.15,0.43,0.141l30.855,0.002c6.161,0,9.6-2.006,13.58-4.33
							C1291.344,1431.547,1297.04,1428.225,1309.594,1428.141L1309.594,1428.141z"/>
					</g>
				</g>
			</g>
			<g>
				<g>
					<g>
						<path fill="#FFFFFF" d="M1425.358,1259.843c-0.122,1.357-0.03,7.346-0.038,8.908c-0.008,1.568-11.932,1.568-11.939,0
							c-0.01-1.965,0.189-7.508,0-9.156C1417.093,1260.394,1421.613,1260.019,1425.358,1259.843z"/>
					</g>
					<g>
						<path fill="#221F1F" d="M1412.697,1258.841l0.809,0.174c3.184,0.686,7.031,0.484,10.426,0.307l2.078-0.104l-0.061,0.678
							c-0.041,0.453-0.063,1.557-0.063,3.281c0,1.154,0.009,2.406,0.017,3.461c0.006,0.771,0.011,1.439,0.011,1.887l-0.001,0.229
							c-0.007,1.461-3.573,1.766-6.563,1.766s-6.555-0.305-6.563-1.766l-0.001-0.162c0-0.619,0.017-1.521,0.035-2.525
							c0.022-1.254,0.048-2.67,0.048-3.893c0-1.217-0.026-2.061-0.078-2.51L1412.697,1258.841L1412.697,1258.841z M1413.974,1268.64
							c0.393,0.295,2.272,0.693,5.377,0.693s4.984-0.398,5.377-0.693l0.001-0.115c0-0.447-0.005-1.111-0.011-1.879
							c-0.008-1.057-0.017-2.311-0.017-3.469c0-1.205,0.01-2.102,0.03-2.709l-0.737,0.037c-3.205,0.168-6.806,0.355-9.969-0.184
							c0.054,1.252,0.02,3.727-0.018,5.766c-0.019,0.996-0.035,1.891-0.035,2.504L1413.974,1268.64L1413.974,1268.64z"/>
					</g>
				</g>
				<g>
					<g>
						<path fill="#FFFFFF" d="M1425.504,1257.472c-0.123,1.357-0.176,6.16-0.184,7.721c-0.008,1.57-11.932,1.57-11.939,0
							c-0.01-1.963,0.189-6.072,0-7.721C1417.093,1258.271,1421.758,1257.648,1425.504,1257.472z"/>
					</g>
					<g>
						<path fill="#221F1F" d="M1412.697,1256.718l0.809,0.174c2.815,0.605,6.303,0.363,9.379,0.148
							c0.895-0.061,1.765-0.123,2.591-0.16l0.68-0.033l-0.062,0.678c-0.113,1.248-0.17,5.707-0.181,7.672
							c-0.007,1.461-3.573,1.766-6.563,1.766s-6.555-0.305-6.563-1.766l-0.001-0.158c0-0.629,0.019-1.443,0.037-2.316
							c0.022-0.996,0.046-2.07,0.046-3.027c0-0.994-0.025-1.699-0.078-2.156L1412.697,1256.718L1412.697,1256.718z
							 M1413.974,1265.083c0.393,0.295,2.272,0.693,5.377,0.693c3.105,0,4.985-0.4,5.378-0.693c0.008-1.459,0.049-5.156,0.141-6.984
							c-0.616,0.035-1.253,0.08-1.902,0.125c-2.887,0.199-6.127,0.426-8.938-0.027c0.05,1.082,0.017,2.932-0.019,4.553
							c-0.019,0.863-0.037,1.668-0.037,2.289L1413.974,1265.083L1413.974,1265.083z"/>
					</g>
				</g>
				<g>
					<g>
						<path fill="#FFFFFF" d="M1425.32,1261.636c-0.008,1.57-11.932,1.57-11.939,0c-0.113-22.443-10.67-22.74-10.67-36.967
							c0-9.195,0.002-30.855,0.002-30.855c-0.036-0.652,0.468-1.186,1.119-1.186h14.276h12.997h3.764
							c0.651,0,1.155,0.533,1.119,1.186c0,0,0.002,21.66,0.002,30.855C1435.99,1238.896,1425.434,1239.193,1425.32,1261.636z"/>
					</g>
					<g>
						<path fill="#221F1F" d="M1402.117,1224.669l0.001-30.922c0-0.961,0.753-1.711,1.714-1.711h31.037
							c0.96,0,1.712,0.75,1.712,1.773c0,0,0,0.002,0,0.004l0.003,30.855c0,6.48-2.183,10.221-4.492,14.178
							c-2.867,4.912-6.116,10.48-6.179,22.793c-0.007,1.461-3.573,1.766-6.563,1.766s-6.555-0.305-6.563-1.766
							c-0.063-12.313-3.312-17.881-6.179-22.793C1404.3,1234.89,1402.117,1231.15,1402.117,1224.669L1402.117,1224.669z
							 M1413.973,1261.527c0.393,0.293,2.272,0.693,5.378,0.693s4.985-0.4,5.378-0.693c0.082-12.555,3.406-18.252,6.34-23.277
							c2.323-3.98,4.33-7.418,4.33-13.58l-0.001-30.922c0-0.301-0.228-0.525-0.528-0.525h-31.037c-0.3,0-0.526,0.225-0.526,0.586
							c0,0.002,0,0.004,0,0.006l-0.003,30.855c0,6.162,2.007,9.6,4.33,13.58C1410.566,1243.275,1413.891,1248.972,1413.973,1261.527
							L1413.973,1261.527z"/>
					</g>
				</g>
			</g>
		</g>
		<g>
			<g>
				<g>
					<g>
						<path fill="#646464" d="M1279.566,1211.292c-8.728,0-15.867-7.142-15.867-15.867V917.948c0-8.728,7.14-15.866,15.867-15.866
							h194.997c8.727,0,15.867,7.139,15.867,15.866v277.477c0,8.726-7.141,15.867-15.867,15.867H1279.566z"/>
					</g>
				</g>
				<g>
					<g>
						<path fill="#221F1F" d="M1491.224,917.948v277.477c0,9.186-7.475,16.659-16.66,16.659h-194.997
							c-9.187,0-16.66-7.474-16.66-16.659V917.948c0-9.188,7.474-16.661,16.66-16.661h194.997
							C1483.749,901.287,1491.224,908.76,1491.224,917.948L1491.224,917.948z M1264.492,1195.424c0,8.31,6.763,15.072,15.074,15.072
							h194.997c8.312,0,15.073-6.763,15.073-15.072V917.948c0-8.313-6.762-15.074-15.073-15.074h-194.997
							c-8.312,0-15.074,6.762-15.074,15.074V1195.424L1264.492,1195.424z"/>
					</g>
				</g>
			</g>
			<g>
				<g>
					<path fill="#FFFFFF" d="M1285.259,1205.539c-8.728,0-15.868-7.142-15.868-15.867v-265.97c0-8.729,7.141-15.87,15.868-15.87
						h183.613c8.727,0,15.866,7.142,15.866,15.87v265.97c0,8.726-7.14,15.867-15.866,15.867H1285.259z"/>
				</g>
			</g>
		</g>
	</g>
	<g>
		<g>
			<path fill="#221F1F" d="M1364.965,1023.113h-3.936v-8.036h-7.373v8.036h-3.949v-18.62h3.949v7.298h7.373v-7.298h3.936V1023.113z"
				/>
		</g>
		<g>
			<path fill="#221F1F" d="M1385.113,1013.625c0,3.065-0.873,5.413-2.617,7.043s-4.264,2.445-7.559,2.445h-5.273v-18.62h5.848
				c3.039,0,5.398,0.803,7.08,2.407C1384.273,1008.505,1385.113,1010.747,1385.113,1013.625z M1381.014,1013.727
				c0-3.999-1.768-5.999-5.299-5.999h-2.102v12.124h1.693C1379.111,1019.852,1381.014,1017.81,1381.014,1013.727z"/>
		</g>
		<g>
			<path fill="#221F1F" d="M1404.422,1013.625c0,3.065-0.873,5.413-2.617,7.043c-1.746,1.63-4.266,2.445-7.559,2.445h-5.273v-18.62
				h5.846c3.039,0,5.4,0.803,7.082,2.407C1403.58,1008.505,1404.422,1010.747,1404.422,1013.625z M1400.32,1013.727
				c0-3.999-1.768-5.999-5.299-5.999h-2.102v12.124h1.695C1398.418,1019.852,1400.32,1017.81,1400.32,1013.727z"/>
		</g>
	</g>
	<g>
		<g>
			<path fill="#221F1F" d="M1282.306,1376.901v12.049c0,1.375-0.307,2.58-0.924,3.616c-0.615,1.037-1.504,1.83-2.668,2.382
				c-1.162,0.553-2.539,0.828-4.125,0.828c-2.395,0-4.254-0.613-5.58-1.841c-1.324-1.227-1.986-2.905-1.986-5.037v-11.997h3.936
				v11.399c0,1.434,0.289,2.487,0.867,3.158c0.576,0.67,1.531,1.006,2.865,1.006c1.289,0,2.227-0.338,2.809-1.012
				c0.58-0.676,0.871-1.734,0.871-3.178v-11.374H1282.306z"/>
		</g>
		<g>
			<path fill="#221F1F" d="M1297.856,1390.35c0,1.682-0.605,3.006-1.814,3.974c-1.211,0.968-2.895,1.452-5.051,1.452
				c-1.986,0-3.744-0.374-5.271-1.121v-3.668c1.256,0.561,2.32,0.956,3.191,1.185c0.869,0.229,1.664,0.344,2.387,0.344
				c0.865,0,1.531-0.165,1.994-0.496c0.461-0.331,0.693-0.823,0.693-1.478c0-0.365-0.102-0.69-0.307-0.974
				c-0.203-0.285-0.504-0.56-0.896-0.822c-0.396-0.263-1.199-0.684-2.414-1.261c-1.139-0.535-1.992-1.049-2.561-1.541
				s-1.023-1.065-1.363-1.72c-0.338-0.654-0.508-1.418-0.508-2.292c0-1.647,0.557-2.942,1.674-3.885s2.66-1.414,4.629-1.414
				c0.969,0,1.893,0.115,2.77,0.345c0.881,0.229,1.799,0.552,2.758,0.968l-1.273,3.069c-0.992-0.408-1.814-0.692-2.463-0.854
				c-0.65-0.161-1.289-0.242-1.918-0.242c-0.748,0-1.32,0.174-1.719,0.522c-0.4,0.349-0.6,0.802-0.6,1.362
				c0,0.349,0.082,0.652,0.242,0.911c0.162,0.259,0.418,0.51,0.771,0.751c0.352,0.243,1.186,0.677,2.502,1.306
				c1.74,0.833,2.934,1.666,3.58,2.503C1297.534,1388.111,1297.856,1389.136,1297.856,1390.35z"/>
		</g>
		<g>
			<path fill="#221F1F" d="M1301.231,1376.901h5.795c2.641,0,4.557,0.376,5.752,1.128c1.191,0.75,1.787,1.946,1.787,3.585
				c0,1.112-0.26,2.024-0.783,2.738c-0.521,0.713-1.215,1.142-2.082,1.286v0.127c1.18,0.263,2.031,0.756,2.555,1.478
				c0.521,0.722,0.783,1.682,0.783,2.878c0,1.699-0.613,3.023-1.842,3.975c-1.227,0.95-2.893,1.426-4.998,1.426h-6.967V1376.901z
				 M1305.181,1384.275h2.291c1.07,0,1.846-0.165,2.326-0.496c0.479-0.331,0.719-0.879,0.719-1.644c0-0.713-0.262-1.225-0.783-1.534
				s-1.35-0.465-2.479-0.465h-2.074V1384.275z M1305.181,1387.409v4.853h2.572c1.086,0,1.889-0.209,2.406-0.625
				c0.518-0.415,0.777-1.052,0.777-1.91c0-1.545-1.105-2.317-3.311-2.317H1305.181z"/>
		</g>
	</g>
	<g>
		<g>
			<g>
				<path fill="#221F1F" d="M916.202,1399.624c1.799,0,3.232,0.505,4.297,1.516c1.066,1.011,1.6,2.395,1.6,4.152
					c0,2.081-0.641,3.681-1.924,4.802c-1.281,1.12-3.115,1.681-5.502,1.681c-2.072,0-3.744-0.336-5.018-1.006v-3.4
					c0.672,0.356,1.453,0.647,2.344,0.873c0.893,0.225,1.736,0.337,2.535,0.337c2.402,0,3.604-0.985,3.604-2.955
					c0-1.877-1.244-2.814-3.73-2.814c-0.451,0-0.947,0.044-1.49,0.134c-0.545,0.089-0.986,0.185-1.326,0.286l-1.566-0.84
					l0.701-9.488h10.1v3.336h-6.648l-0.344,3.655l0.445-0.089C914.796,1399.683,915.438,1399.624,916.202,1399.624z"/>
			</g>
			<g>
				<path fill="#221F1F" d="M936.235,1392.9h3.986l-6.33,18.619h-4.305l-6.316-18.619h3.986l3.502,11.08
					c0.195,0.654,0.398,1.416,0.605,2.285c0.207,0.871,0.338,1.477,0.389,1.815c0.094-0.781,0.41-2.147,0.955-4.101L936.235,1392.9z
					"/>
			</g>
		</g>
		<g>
			<path fill="#221F1F" d="M861.164,1429.846c0-1.898,0.277-3.674,0.833-5.328c0.555-1.654,1.355-3.105,2.401-4.352h2.686
				c-1.01,1.383-1.772,2.9-2.288,4.555s-0.773,3.355-0.773,5.104c0,1.754,0.263,3.449,0.79,5.086s1.276,3.117,2.25,4.441h-2.664
				c-1.053-1.217-1.855-2.639-2.406-4.264C861.439,1433.461,861.164,1431.715,861.164,1429.846z"/>
			<path fill="#221F1F" d="M880.209,1435.871h-3.276v-7.014c0-0.867-0.145-1.518-0.435-1.951c-0.29-0.432-0.747-0.648-1.37-0.648
				c-0.838,0-1.447,0.307-1.826,0.924c-0.38,0.615-0.569,1.629-0.569,3.039v5.65h-3.276v-12.01h2.503l0.44,1.537h0.183
				c0.322-0.553,0.788-0.984,1.396-1.295c0.608-0.313,1.307-0.467,2.095-0.467c1.797,0,3.015,0.586,3.652,1.762h0.29
				c0.322-0.559,0.796-0.992,1.423-1.301c0.626-0.307,1.333-0.461,2.122-0.461c1.36,0,2.39,0.348,3.088,1.047
				c0.698,0.697,1.047,1.816,1.047,3.357v7.83h-3.287v-7.014c0-0.867-0.145-1.518-0.435-1.951c-0.29-0.432-0.747-0.648-1.37-0.648
				c-0.802,0-1.402,0.285-1.799,0.859c-0.397,0.572-0.596,1.482-0.596,2.729V1435.871z"/>
			<path fill="#221F1F" d="M890.919,1420.758c0-1.068,0.594-1.602,1.783-1.602c1.188,0,1.783,0.533,1.783,1.602
				c0,0.508-0.149,0.904-0.446,1.186c-0.297,0.283-0.743,0.426-1.337,0.426C891.514,1422.369,890.919,1421.832,890.919,1420.758z
				 M894.335,1435.871h-3.276v-12.01h3.276V1435.871z"/>
			<path fill="#221F1F" d="M902.65,1436.086c-3.738,0-5.607-2.051-5.607-6.154c0-2.041,0.508-3.602,1.525-4.68
				c1.017-1.076,2.474-1.615,4.372-1.615c1.389,0,2.635,0.271,3.738,0.816l-0.967,2.535c-0.516-0.209-0.996-0.379-1.439-0.512
				c-0.444-0.131-0.888-0.197-1.332-0.197c-1.705,0-2.557,1.209-2.557,3.631c0,2.348,0.852,3.523,2.557,3.523
				c0.63,0,1.214-0.084,1.751-0.254c0.537-0.168,1.074-0.43,1.611-0.789v2.805c-0.53,0.336-1.065,0.568-1.606,0.697
				C904.155,1436.021,903.473,1436.086,902.65,1436.086z"/>
			<path fill="#221F1F" d="M915.788,1423.637c0.444,0,0.813,0.031,1.106,0.096l-0.247,3.072c-0.265-0.07-0.587-0.107-0.967-0.107
				c-1.046,0-1.86,0.27-2.444,0.807c-0.584,0.537-0.875,1.289-0.875,2.256v6.111h-3.276v-12.01h2.481l0.483,2.02h0.161
				c0.372-0.672,0.875-1.215,1.509-1.627S915.042,1423.637,915.788,1423.637z"/>
			<path fill="#221F1F" d="M929.989,1429.846c0,1.955-0.516,3.484-1.547,4.586c-1.031,1.104-2.467,1.654-4.308,1.654
				c-1.153,0-2.17-0.252-3.051-0.758c-0.881-0.504-1.558-1.229-2.03-2.174s-0.709-2.049-0.709-3.309
				c0-1.963,0.512-3.488,1.536-4.576c1.024-1.09,2.463-1.633,4.318-1.633c1.153,0,2.17,0.25,3.051,0.752
				c0.881,0.5,1.558,1.221,2.03,2.158C929.752,1427.486,929.989,1428.584,929.989,1429.846z M921.685,1429.846
				c0,1.188,0.195,2.088,0.585,2.695c0.39,0.609,1.026,0.914,1.907,0.914c0.874,0,1.502-0.303,1.885-0.908
				c0.383-0.605,0.575-1.506,0.575-2.701c0-1.189-0.193-2.08-0.58-2.676c-0.387-0.594-1.021-0.891-1.901-0.891
				c-0.874,0-1.504,0.295-1.891,0.885C921.878,1427.756,921.685,1428.648,921.685,1429.846z"/>
			<path fill="#221F1F" d="M951.452,1420.166v10.162c0,1.16-0.26,2.178-0.779,3.051c-0.52,0.875-1.27,1.543-2.25,2.01
				c-0.981,0.465-2.142,0.697-3.48,0.697c-2.02,0-3.588-0.518-4.705-1.553c-1.117-1.033-1.676-2.449-1.676-4.248v-10.119h3.319
				v9.615c0,1.209,0.243,2.098,0.73,2.664c0.487,0.564,1.292,0.848,2.417,0.848c1.088,0,1.878-0.285,2.369-0.854
				c0.49-0.57,0.736-1.463,0.736-2.68v-9.594H951.452z"/>
			<path fill="#221F1F" d="M964.568,1431.51c0,1.418-0.51,2.535-1.531,3.352s-2.44,1.225-4.259,1.225
				c-1.676,0-3.158-0.314-4.447-0.945v-3.094c1.06,0.473,1.957,0.807,2.691,1c0.734,0.193,1.405,0.289,2.014,0.289
				c0.73,0,1.291-0.139,1.681-0.418c0.39-0.279,0.585-0.695,0.585-1.246c0-0.309-0.086-0.582-0.258-0.822s-0.424-0.471-0.757-0.693
				c-0.333-0.221-1.012-0.576-2.036-1.063c-0.96-0.451-1.68-0.885-2.159-1.301c-0.48-0.414-0.863-0.898-1.149-1.449
				c-0.287-0.553-0.43-1.197-0.43-1.934c0-1.391,0.471-2.482,1.413-3.277c0.941-0.795,2.243-1.191,3.905-1.191
				c0.816,0,1.595,0.096,2.336,0.289s1.516,0.467,2.326,0.816l-1.074,2.59c-0.838-0.344-1.531-0.584-2.079-0.721
				c-0.548-0.135-1.087-0.203-1.617-0.203c-0.63,0-1.114,0.146-1.45,0.439c-0.337,0.295-0.505,0.678-0.505,1.15
				c0,0.293,0.068,0.549,0.204,0.768c0.136,0.219,0.353,0.43,0.65,0.633c0.297,0.205,1,0.572,2.111,1.102
				c1.468,0.703,2.474,1.406,3.019,2.111C964.295,1429.621,964.568,1430.486,964.568,1431.51z"/>
			<path fill="#221F1F" d="M967.415,1420.166h4.888c2.227,0,3.844,0.316,4.85,0.951c1.006,0.633,1.509,1.643,1.509,3.023
				c0,0.939-0.22,1.709-0.661,2.311s-1.026,0.963-1.756,1.084v0.107c0.995,0.223,1.713,0.639,2.154,1.246
				c0.44,0.609,0.661,1.418,0.661,2.428c0,1.434-0.518,2.551-1.552,3.352c-1.035,0.803-2.44,1.203-4.216,1.203h-5.876V1420.166z
				 M970.745,1426.387h1.934c0.902,0,1.556-0.141,1.96-0.42c0.404-0.279,0.607-0.74,0.607-1.385c0-0.602-0.22-1.033-0.661-1.295
				s-1.137-0.393-2.089-0.393h-1.751V1426.387z M970.745,1429.029v4.092h2.17c0.917,0,1.593-0.176,2.03-0.525
				c0.437-0.352,0.655-0.889,0.655-1.611c0-1.305-0.931-1.955-2.793-1.955H970.745z"/>
			<path fill="#221F1F" d="M986.793,1429.846c0,1.883-0.278,3.637-0.833,5.264c-0.555,1.625-1.355,3.039-2.401,4.242h-2.664
				c0.967-1.316,1.715-2.795,2.245-4.432c0.53-1.635,0.795-3.334,0.795-5.096c0-1.748-0.258-3.449-0.773-5.104
				s-1.278-3.172-2.288-4.555h2.686c1.053,1.254,1.854,2.709,2.406,4.367C986.518,1426.191,986.793,1427.961,986.793,1429.846z"/>
		</g>
	</g>
	<g>
		<g>
			<g>
				<g>
					<g>
						<path fill="#FFFFFF" d="M1575.875,1305.669c0-1.304,1.066-2.371,2.371-2.371h31.268c1.305,0,2.371,1.067,2.371,2.371v18.948
							c0,1.305-1.066,2.371-2.371,2.371h-31.268c-1.305,0-2.371-1.066-2.371-2.371V1305.669z"/>
					</g>
				</g>
				<g>
					<g>
						<path fill="#221F1F" d="M1578.246,1327.583c-1.635,0-2.965-1.33-2.965-2.965v-18.948c0-1.634,1.33-2.964,2.965-2.964h31.268
							c1.635,0,2.965,1.33,2.965,2.964v18.948c0,1.635-1.33,2.965-2.965,2.965H1578.246L1578.246,1327.583z M1609.514,1303.891
							h-31.268c-0.982,0-1.779,0.797-1.779,1.778v18.948c0,0.98,0.797,1.779,1.779,1.779h31.268c0.98,0,1.779-0.799,1.779-1.779
							v-18.948C1611.293,1304.688,1610.494,1303.891,1609.514,1303.891L1609.514,1303.891z"/>
					</g>
				</g>
			</g>
			<g>
				<g>
					<polygon fill="#FFFFFF" points="1575.875,1303.298 1611.885,1303.298 1608.096,1300.455 1579.664,1300.455 					"/>
				</g>
				<g>
					<path fill="#221F1F" d="M1575.875,1303.891c-0.256,0-0.482-0.164-0.563-0.405c-0.082-0.242,0.002-0.509,0.207-0.662
						l3.789-2.843c0.104-0.078,0.229-0.119,0.355-0.119h28.432c0.127,0,0.252,0.041,0.355,0.119l3.789,2.843
						c0.205,0.153,0.289,0.42,0.207,0.662c-0.08,0.241-0.307,0.405-0.563,0.405H1575.875L1575.875,1303.891z M1610.107,1302.706
						l-2.209-1.658h-28.037l-2.209,1.658H1610.107L1610.107,1302.706z"/>
				</g>
			</g>
		</g>
		<g>
			<g>
				<path fill="#FFFFFF" d="M1271.324,1463.037h311.043c3.26,0,5.928-2.666,5.928-5.928v-135.384h-6.449
					c-1.305,0-2.371-1.068-2.371-2.371v-8.422c0-1.303,1.066-2.371,2.371-2.371h24.068c1.305,0,2.371,1.068,2.371,2.371v8.422
					c0,1.303-1.066,2.371-2.371,2.371h-6.449v136.554c0,11.258-4.668,15.928-15.928,15.928h-312.213
					c-3.261,0-5.928-2.514-5.928-5.586C1265.396,1465.551,1268.063,1463.037,1271.324,1463.037z"/>
			</g>
			<g>
				<path fill="#221F1F" d="M1271.324,1474.801c-3.596,0-6.521-2.771-6.521-6.18c0-3.406,2.925-6.176,6.521-6.176h311.043
					c2.941,0,5.336-2.393,5.336-5.336v-134.792h-5.857c-1.635,0-2.963-1.329-2.963-2.963v-8.422c0-1.634,1.328-2.963,2.963-2.963
					h24.068c1.635,0,2.963,1.329,2.963,2.963v8.422c0,1.634-1.328,2.963-2.963,2.963h-5.857v135.962
					c0,11.594-4.924,16.521-16.52,16.521H1271.324L1271.324,1474.801z M1605.914,1309.155h-24.068c-0.98,0-1.777,0.797-1.777,1.777
					v8.422c0,0.98,0.797,1.777,1.777,1.777h7.043v135.978c0,3.596-2.926,6.521-6.521,6.521h-311.043
					c-2.942,0-5.335,2.238-5.335,4.99c0,2.754,2.393,4.994,5.335,4.994h312.213c10.939,0,15.334-4.395,15.334-15.336v-137.148h7.043
					c0.98,0,1.777-0.797,1.777-1.777v-8.422C1607.691,1309.952,1606.895,1309.155,1605.914,1309.155L1605.914,1309.155z"/>
			</g>
		</g>
		<g>
			<g>
				<g>
					<g>
						<path fill="#FFFFFF" d="M1276.807,1455.154c0.651,0,1.186,0.533,1.186,1.186v24.113c0,0.652-0.534,1.186-1.186,1.186h-25.892
							c-0.652,0-1.186-0.533-1.186-1.186v-24.113c0-0.652,0.533-1.186,1.186-1.186H1276.807z"/>
					</g>
				</g>
				<g>
					<g>
						<path fill="#221F1F" d="M1250.916,1482.232c-0.98,0-1.778-0.799-1.778-1.779v-24.113c0-0.98,0.798-1.777,1.778-1.777h25.892
							c0.98,0,1.778,0.797,1.778,1.777v24.113c0,0.98-0.798,1.779-1.778,1.779H1250.916L1250.916,1482.232z M1276.807,1455.748
							h-25.892c-0.327,0-0.593,0.266-0.593,0.592v24.113c0,0.328,0.266,0.594,0.593,0.594h25.892c0.327,0,0.593-0.266,0.593-0.594
							v-24.113C1277.4,1456.014,1277.134,1455.748,1276.807,1455.748L1276.807,1455.748z"/>
					</g>
				</g>
			</g>
			<g>
				<g>
					<path fill="#FFFFFF" d="M1265.527,1454.131l14.54,0.813c0.388,0.02,0.717,0.24,0.933,0.543l26.268,6.025v13.771l-26.266,6.023
						c-0.217,0.305-0.546,0.525-0.935,0.545l-14.54,0.813c-0.652,0.035-1.185-0.467-1.185-1.119v-26.295
						C1264.342,1454.598,1264.875,1454.096,1265.527,1454.131z"/>
				</g>
				<g>
					<path fill="#221F1F" d="M1265.46,1483.26c-0.459,0-0.889-0.178-1.211-0.498c-0.322-0.322-0.5-0.756-0.5-1.217v-26.295
						c0-0.959,0.749-1.711,1.804-1.711c0.002,0,0.005,0,0.006,0l14.54,0.813c0.466,0.023,0.903,0.242,1.232,0.602l26.528,6.086
						v14.717l-26.527,6.084c-0.33,0.361-0.768,0.58-1.232,0.604l-14.541,0.813L1265.46,1483.26L1265.46,1483.26L1265.46,1483.26z
						 M1306.674,1474.813v-12.83l-25.807-5.918l-0.22-0.051l-0.131-0.184c-0.061-0.084-0.228-0.281-0.483-0.297l-14.573-0.813
						c-0.3,0-0.525,0.229-0.525,0.529v26.295c0,0.145,0.054,0.279,0.152,0.377c0.098,0.098,0.23,0.152,0.373,0.152l0,0v0.592
						l0.033-0.594l14.541-0.811c0.255-0.016,0.424-0.215,0.484-0.299l0.13-0.184L1306.674,1474.813L1306.674,1474.813z"/>
				</g>
			</g>
		</g>
	</g>
	<g>
		<g>
			<g>
				<g>
					<g>
						<path fill="#FFFFFF" d="M850.698,1650.447c-1.303,0-2.371-1.068-2.371-2.371v-78.631c0-1.305,1.068-2.371,2.371-2.371h78.635
							c1.305,0,2.371,1.066,2.371,2.371v78.631c0,1.303-1.066,2.371-2.371,2.371H850.698z"/>
					</g>
				</g>
				<g>
					<g>
						<path fill="#221F1F" d="M847.735,1569.445c0-1.635,1.328-2.965,2.963-2.965h78.635c1.635,0,2.965,1.33,2.965,2.965v78.631
							c0,1.635-1.33,2.963-2.965,2.963h-78.635c-1.635,0-2.963-1.328-2.963-2.963V1569.445L847.735,1569.445z M931.112,1648.076
							v-78.631c0-0.98-0.799-1.779-1.779-1.779h-78.635c-0.98,0-1.777,0.799-1.777,1.779v78.631c0,0.98,0.797,1.777,1.777,1.777
							h78.635C930.313,1649.854,931.112,1649.057,931.112,1648.076L931.112,1648.076z"/>
					</g>
				</g>
			</g>
			<g>
				<g>
					<g>
						<path fill="#FFFFFF" d="M857.466,1643.68c-1.305,0-2.371-1.066-2.371-2.371v-65.098c0-1.303,1.066-2.371,2.371-2.371h65.102
							c1.303,0,2.371,1.068,2.371,2.371v65.098c0,1.305-1.068,2.371-2.371,2.371H857.466z"/>
					</g>
				</g>
				<g>
					<g>
						<path fill="#221F1F" d="M854.501,1576.211c0-1.635,1.33-2.963,2.965-2.963h65.102c1.635,0,2.963,1.328,2.963,2.963v65.098
							c0,1.635-1.328,2.965-2.963,2.965h-65.102c-1.635,0-2.965-1.33-2.965-2.965V1576.211L854.501,1576.211z M924.345,1641.309
							v-65.098c0-0.98-0.797-1.777-1.777-1.777h-65.102c-0.98,0-1.779,0.797-1.779,1.777v65.098c0,0.982,0.799,1.779,1.779,1.779
							h65.102C923.548,1643.088,924.345,1642.291,924.345,1641.309L924.345,1641.309z"/>
					</g>
				</g>
			</g>
			<g>
				<g>
					<g>
						<path fill="#FFFFFF" d="M890.017,1630.021c-13.541,0-22.109-9.523-22.109-21.26c0-11.738,8.568-21.258,22.109-21.258
							s22.107,9.52,22.107,21.258C912.124,1620.498,903.558,1630.021,890.017,1630.021z"/>
					</g>
					<g>
						<path fill="#221F1F" d="M867.315,1608.762c0-12.662,9.547-21.85,22.701-21.85s22.701,9.188,22.701,21.85
							c0,12.66-9.547,21.852-22.701,21.852S867.315,1621.422,867.315,1608.762L867.315,1608.762z M911.532,1608.762
							c0-11.975-9.049-20.664-21.516-20.664c-12.469,0-21.516,8.689-21.516,20.664s9.047,20.666,21.516,20.666
							C902.483,1629.428,911.532,1620.736,911.532,1608.762L911.532,1608.762z"/>
					</g>
				</g>
				<g>
					<g>
						<g>
							<rect x="884.274" y="1601.232" fill="#FFFFFF" width="11.412" height="3.24"/>
						</g>
						<g>
							<path fill="#221F1F" d="M883.681,1600.641h12.6v4.426h-12.6V1600.641L883.681,1600.641z M884.868,1603.881h10.227v-2.055
								h-10.227V1603.881L884.868,1603.881z"/>
						</g>
					</g>
					<g>
						<g>
							<rect x="884.274" y="1613.049" fill="#FFFFFF" width="11.412" height="3.242"/>
						</g>
						<g>
							<path fill="#221F1F" d="M883.681,1612.457h12.6v4.426h-12.6V1612.457L883.681,1612.457z M884.868,1615.697h10.227v-2.055
								h-10.227V1615.697L884.868,1615.697z"/>
						</g>
					</g>
				</g>
			</g>
		</g>
		<g>
			<g>
				<path fill="#221F1F" d="M994.386,1463.045h-96.742c-6.736,0-11.264,4.525-11.264,11.264v12.186
					c-0.008,0-0.018,0.002-0.025,0.002v137.742c0,6.736,7.613,1.258,7.613-1.684v-16.859h0.025v-129.703
					c0-2.941,2.393-5.334,5.334-5.334h95.059c3.658,0,6.521-1.672,6.521-3.809C1000.907,1464.717,998.044,1463.045,994.386,1463.045
					z"/>
			</g>
			<g>
				<path fill="#221F1F" d="M886.28,1568.328l-1.029,1.125c-0.096,0.105-0.15,0.242-0.156,0.385l-0.451,6.768l-5.176,1.393
					c-0.104,0.111-0.16,48.09-0.16,48.09s2.713,3.342,4,3.861c3.008,1.213,9.963,1.213,12.969,0c1.289-0.52,4-3.861,4-3.861
					s0.535-47.979,0.434-48.09l-5.178-1.393l-0.453-6.768c-0.004-0.143-0.061-0.279-0.156-0.385l-1.029-1.125H886.28z"/>
			</g>
			<g>
				<path fill="#221F1F" d="M980.335,1470.928c0,0.779-0.638,1.418-1.417,1.418H966.79c-0.78,0-1.417-0.639-1.417-1.418v-8.166
					c0-0.779,0.638-1.416,1.417-1.416h12.128c0.78,0,1.417,0.637,1.417,1.416V1470.928z"/>
			</g>
			<g>
				<path fill="#221F1F" d="M1007.751,1475.869c0,0.779-0.638,1.416-1.417,1.416h-28.981c-0.78,0-1.417-0.637-1.417-1.416v-18.047
					c0-0.779,0.638-1.418,1.417-1.418h28.981c0.78,0,1.417,0.639,1.417,1.418V1475.869z"/>
			</g>
		</g>
		<g>
			<path fill="#221F1F" d="M1255.258,1491.799c0,3.119-2.551,5.67-5.669,5.67h-247.415c-3.119,0-5.67-2.551-5.67-5.67v-161.288
				c0-3.118,2.551-5.669,5.67-5.669h247.415c3.118,0,5.669,2.551,5.669,5.669V1491.799z"/>
		</g>
	</g>
	<g>
		<g>
			<path fill-rule="evenodd" clip-rule="evenodd" fill="#221F1F" d="M1127.419,1368.083c2.714-0.481,8.564,0.454,8.475,4.237
				c-0.123,5.232-13.396,4.864-14.124,0.472C1121.257,1369.693,1124.631,1368.579,1127.419,1368.083z"/>
		</g>
		<g>
			<path fill-rule="evenodd" clip-rule="evenodd" fill="#221F1F" d="M1120.828,1369.496c-2.266,4.481-6.022,7.474-10.828,9.416
				C1109.927,1372.262,1114.294,1368.022,1120.828,1369.496z"/>
		</g>
		<g>
			<path fill-rule="evenodd" clip-rule="evenodd" fill="#221F1F" d="M1147.666,1378.912c-5.124-1.625-8.213-5.284-11.301-8.945
				C1142.302,1367.301,1148.151,1372.097,1147.666,1378.912z"/>
		</g>
		<g>
			<path fill-rule="evenodd" clip-rule="evenodd" fill="#221F1F" d="M1119.887,1377.029c11.812-2.104,8.984,16.217-0.942,15.536
				C1109.607,1391.925,1112.488,1378.346,1119.887,1377.029z"/>
		</g>
		<g>
			<path fill-rule="evenodd" clip-rule="evenodd" fill="#221F1F" d="M1134.482,1377.029c7.08-2.426,11.947,4.306,10.829,10.358
				c-1.106,5.98-9.02,5.27-11.771,2.824C1129.962,1387.032,1129.158,1378.853,1134.482,1377.029z"/>
		</g>
		<g>
			<path fill-rule="evenodd" clip-rule="evenodd" fill="#221F1F" d="M1109.058,1380.795c3.43,2.857,1.273,10.875-0.941,13.653
				C1102.553,1392.394,1104.121,1382.392,1109.058,1380.795z"/>
		</g>
		<g>
			<path fill-rule="evenodd" clip-rule="evenodd" fill="#221F1F" d="M1147.666,1380.795c5.815,0.229,6.997,11.223,1.883,13.183
				C1147.342,1391.426,1146.482,1385.182,1147.666,1380.795z"/>
		</g>
		<g>
			<path fill-rule="evenodd" clip-rule="evenodd" fill="#221F1F" d="M1126.949,1391.624c5.326-1.322,9.877,0.666,9.888,6.121
				c0.007,3.976-3.567,8.205-8.946,7.533C1121.371,1404.463,1117.897,1393.872,1126.949,1391.624z"/>
		</g>
		<g>
			<path fill-rule="evenodd" clip-rule="evenodd" fill="#221F1F" d="M1138.249,1407.631c-2.62-6.807,3.413-14.457,9.888-13.653
				C1151.436,1400.483,1147.392,1409.167,1138.249,1407.631z"/>
		</g>
		<g>
			<path fill-rule="evenodd" clip-rule="evenodd" fill="#221F1F" d="M1119.416,1407.161c-7.233,2.118-11.76-4.767-9.887-11.771
				C1115.677,1392.566,1121.975,1401.249,1119.416,1407.161z"/>
		</g>
		<g>
			<path fill-rule="evenodd" clip-rule="evenodd" fill="#221F1F" d="M1136.365,1409.515c-1.344,6.737-12.447,5.938-15.065,0.941
				C1123.142,1406.679,1133.419,1406.667,1136.365,1409.515z"/>
		</g>
		<g>
			<path fill-rule="evenodd" clip-rule="evenodd" fill="#FFFFFF" d="M1128.832,1357.254c1.912-1.115,1.297-2.912,2.355-4.237
				c4.361-5.464,15.025-4.473,21.657-0.941c0.994,5.432-1.874,9.187-3.767,12.241c-0.594,0.957-2.317,3.375-4.709,3.295
				c1.275,2.921,3.188,3.355,4.238,5.65c0.592,1.295,0.193,3.051,0.941,4.708c0.943,2.092,2.782,2.74,3.767,4.237
				c1.897,2.89,2.098,6.624,0.471,9.887c-0.482,0.968-1.521,1.784-1.884,2.825c-1.757,5.036-1.085,9.462-4.236,12.241
				c-2.313,2.038-6.668,3.222-9.888,5.179c-3.023,1.838-4.775,4.619-10.829,3.767c-2.453-0.346-5.078-2.679-8.475-4.707
				c-3.692-2.207-7.779-3.286-9.887-6.592c-1.203-1.886-1.566-5.508-2.825-8.475c-0.745-1.758-2.517-3.625-2.825-5.18
				c-1.19-6.008,0.958-9.313,5.18-11.771c-0.303-5.952,2.497-8.802,5.649-11.3c-5.303-3.749-9.755-8.565-8.475-16.479
				C1114.214,1348.601,1126.882,1346.871,1128.832,1357.254z M1141.074,1350.192c-1.363,1.512-4.313,1.871-5.18,0.941
				c0.326,1.74-2.689,1.292-2.824,1.413c-2.348,2.091-4.029,8.516,0,9.887c2.268-1.975,6.205-4.772,8.945-4.708
				c-2.82,2.131-8.068,3.01-8.004,6.121c0.059,2.787,3.972,4.385,8.475,3.296c-0.964,0.232,1.441-1.132,2.354-0.472
				c0.043-1.703,0.828-1.026,2.354-2.354c-0.182,0.157-0.591-0.192-0.471-0.471c0.147-0.346,2.218-0.781,2.354-0.942
				c0.354-0.417-0.529-1.227-0.471-1.412c0.24-0.776,2.376-0.315,1.883-1.412c-2.389-0.131,2.277-2.043-0.471-2.825
				c2.73-1.322-0.284-2.627,1.412-4.708c-2.543,0.299-3.313-1.902-5.649-0.471c1.742-2.369-3.806,0.776-1.884-1.413
				C1141.327,1350.805,1141.424,1352.27,1141.074,1350.192z M1119.887,1351.133c-0.784-0.187-1.815,0.059-2.825,0
				c-1.934-0.111-4.88,0.459-10.358,1.413c-0.075,1.331,1.415,1.097,1.413,2.354c-0.628,0-1.256,0-1.884,0
				c-0.149,1.876,2.178,1.275,2.354,2.825c-0.705,0.08-1.738-0.168-1.884,0.471c1.463,0.208,3.051,1.704,1.413,2.354
				c2.016-0.456,1.169,2.062,1.412,2.354c0.941,1.133,5.098,2.055,3.767,3.767c4.421,1.308,10.249,1.252,11.3-3.295
				c-2.162-2.547-5.76-3.658-8.004-6.121c3.297,1.567,6.45,3.279,9.416,5.179c4.488-4.253-0.479-10.579-4.237-11.3
				C1121.614,1352.71,1120.911,1351.378,1119.887,1351.133z M1121.77,1372.792c0.728,4.393,14.001,4.761,14.124-0.472
				c0.09-3.783-5.761-4.719-8.475-4.237C1124.631,1368.579,1121.257,1369.693,1121.77,1372.792z M1110,1378.912
				c4.806-1.942,8.563-4.935,10.828-9.416C1114.294,1368.022,1109.927,1372.262,1110,1378.912z M1136.365,1369.966
				c3.088,3.661,6.177,7.32,11.301,8.945C1148.151,1372.097,1142.302,1367.301,1136.365,1369.966z M1118.945,1392.565
				c9.927,0.681,12.754-17.641,0.942-15.536C1112.488,1378.346,1109.607,1391.925,1118.945,1392.565z M1133.541,1390.211
				c2.751,2.445,10.664,3.156,11.771-2.824c1.118-6.053-3.749-12.784-10.829-10.358
				C1129.158,1378.853,1129.962,1387.032,1133.541,1390.211z M1108.117,1394.449c2.215-2.778,4.371-10.796,0.941-13.653
				C1104.121,1382.392,1102.553,1392.394,1108.117,1394.449z M1149.548,1393.978c5.114-1.96,3.933-12.954-1.883-13.183
				C1146.482,1385.182,1147.342,1391.426,1149.548,1393.978z M1127.89,1405.278c5.379,0.672,8.953-3.558,8.946-7.533
				c-0.011-5.455-4.562-7.443-9.888-6.121C1117.897,1393.872,1121.371,1404.463,1127.89,1405.278z M1148.136,1393.978
				c-6.475-0.804-12.508,6.847-9.888,13.653C1147.392,1409.167,1151.436,1400.483,1148.136,1393.978z M1109.529,1395.39
				c-1.873,7.004,2.653,13.889,9.887,11.771C1121.975,1401.249,1115.677,1392.566,1109.529,1395.39z M1121.299,1410.457
				c2.618,4.996,13.722,5.796,15.065-0.941C1133.419,1406.667,1123.142,1406.679,1121.299,1410.457z"/>
		</g>
		<g>
			<path fill-rule="evenodd" clip-rule="evenodd" fill="#221F1F" d="M1121.77,1351.133c3.759,0.721,8.726,7.047,4.237,11.3
				c-2.966-1.899-6.119-3.611-9.416-5.179c2.244,2.463,5.842,3.574,8.004,6.121c-1.051,4.547-6.879,4.603-11.3,3.295
				c1.331-1.712-2.825-2.634-3.767-3.767c-0.243-0.292,0.604-2.81-1.412-2.354c1.638-0.65,0.05-2.146-1.413-2.354
				c0.146-0.639,1.179-0.391,1.884-0.471c-0.177-1.55-2.504-0.949-2.354-2.825c0.628,0,1.256,0,1.884,0
				c0.002-1.257-1.488-1.022-1.413-2.354c5.479-0.954,8.425-1.524,10.358-1.413c1.01,0.059,2.041-0.187,2.825,0
				C1120.911,1351.378,1121.614,1352.71,1121.77,1351.133z"/>
		</g>
		<g>
			<path fill-rule="evenodd" clip-rule="evenodd" fill="#221F1F" d="M1143.898,1350.663c-1.922,2.189,3.626-0.956,1.884,1.413
				c2.337-1.432,3.106,0.77,5.649,0.471c-1.696,2.081,1.318,3.386-1.412,4.708c2.748,0.782-1.918,2.694,0.471,2.825
				c0.493,1.097-1.643,0.636-1.883,1.412c-0.059,0.186,0.824,0.995,0.471,1.412c-0.137,0.161-2.207,0.597-2.354,0.942
				c-0.12,0.278,0.289,0.628,0.471,0.471c-1.526,1.327-2.312,0.65-2.354,2.354c-0.912-0.66-3.317,0.704-2.354,0.472
				c-4.503,1.089-8.416-0.509-8.475-3.296c-0.064-3.111,5.184-3.99,8.004-6.121c-2.74-0.064-6.678,2.733-8.945,4.708
				c-4.029-1.371-2.348-7.796,0-9.887c0.135-0.121,3.15,0.327,2.824-1.413c0.867,0.93,3.816,0.57,5.18-0.941
				C1141.424,1352.27,1141.327,1350.805,1143.898,1350.663z"/>
		</g>
	</g>
	<g>
		<path fill="#FFFFFF" d="M1064.891,1436.377v6.027h-3.33v-15.705h4.576c2.134,0,3.713,0.389,4.737,1.166
			c1.024,0.775,1.536,1.955,1.536,3.539c0,0.924-0.254,1.746-0.763,2.465c-0.509,0.721-1.229,1.283-2.159,1.691
			c2.363,3.531,3.903,5.813,4.619,6.844h-3.695l-3.749-6.027H1064.891z M1064.891,1433.67h1.074c1.053,0,1.83-0.176,2.331-0.525
			c0.501-0.352,0.752-0.902,0.752-1.654c0-0.746-0.256-1.275-0.768-1.59c-0.512-0.316-1.305-0.473-2.379-0.473h-1.01V1433.67z"/>
		<path fill="#FFFFFF" d="M1083.453,1442.404l-0.634-1.633h-0.086c-0.552,0.693-1.119,1.176-1.703,1.445
			c-0.584,0.268-1.345,0.402-2.283,0.402c-1.153,0-2.061-0.33-2.723-0.988c-0.663-0.66-0.994-1.598-0.994-2.814
			c0-1.275,0.446-2.215,1.337-2.82s2.236-0.939,4.034-1.004l2.084-0.064v-0.527c0-1.217-0.623-1.826-1.869-1.826
			c-0.96,0-2.088,0.291-3.384,0.871l-1.085-2.213c1.382-0.725,2.915-1.086,4.598-1.086c1.611,0,2.847,0.352,3.706,1.053
			c0.859,0.703,1.289,1.77,1.289,3.201v8.004H1083.453z M1082.486,1436.84l-1.268,0.043c-0.953,0.027-1.662,0.199-2.127,0.516
			c-0.466,0.314-0.698,0.795-0.698,1.439c0,0.924,0.53,1.385,1.59,1.385c0.759,0,1.366-0.219,1.821-0.654
			c0.455-0.438,0.682-1.018,0.682-1.74V1436.84z"/>
		<path fill="#FFFFFF" d="M1097.493,1438.838c0,1.23-0.428,2.17-1.284,2.814c-0.856,0.645-2.136,0.967-3.84,0.967
			c-0.874,0-1.619-0.059-2.234-0.178c-0.616-0.117-1.192-0.291-1.729-0.521v-2.707c0.608,0.287,1.294,0.527,2.057,0.721
			s1.434,0.289,2.014,0.289c1.188,0,1.783-0.344,1.783-1.031c0-0.258-0.079-0.467-0.236-0.627c-0.158-0.162-0.43-0.344-0.816-0.549
			c-0.387-0.203-0.902-0.441-1.547-0.715c-0.924-0.387-1.603-0.744-2.036-1.074c-0.434-0.328-0.749-0.707-0.945-1.133
			c-0.197-0.426-0.295-0.951-0.295-1.574c0-1.066,0.414-1.893,1.241-2.475c0.827-0.584,2-0.877,3.518-0.877
			c1.446,0,2.854,0.316,4.222,0.945l-0.988,2.363c-0.602-0.258-1.164-0.469-1.687-0.633c-0.523-0.166-1.057-0.248-1.601-0.248
			c-0.967,0-1.45,0.262-1.45,0.785c0,0.293,0.156,0.547,0.467,0.762s0.994,0.533,2.046,0.957c0.938,0.379,1.625,0.734,2.063,1.063
			c0.437,0.33,0.759,0.709,0.967,1.139C1097.389,1437.73,1097.493,1438.242,1097.493,1438.838z"/>
		<path fill="#FFFFFF" d="M1106.646,1442.619c-1.411,0-2.518-0.512-3.319-1.537h-0.172c0.114,1.004,0.172,1.584,0.172,1.74v4.867
			h-3.276v-17.295h2.664l0.462,1.557h0.15c0.766-1.188,1.901-1.783,3.405-1.783c1.418,0,2.528,0.549,3.33,1.645
			c0.802,1.096,1.203,2.617,1.203,4.564c0,1.283-0.188,2.396-0.564,3.342s-0.912,1.664-1.606,2.158
			C1108.4,1442.371,1107.583,1442.619,1106.646,1442.619z M1105.679,1432.789c-0.81,0-1.4,0.25-1.772,0.748
			c-0.373,0.496-0.566,1.318-0.58,2.465v0.354c0,1.289,0.191,2.213,0.575,2.771c0.383,0.559,0.99,0.838,1.821,0.838
			c1.468,0,2.202-1.209,2.202-3.631c0-1.182-0.181-2.066-0.542-2.658C1107.02,1433.086,1106.452,1432.789,1105.679,1432.789z"/>
		<path fill="#FFFFFF" d="M1120.653,1430.168c1.418,0,2.528,0.555,3.33,1.66c0.802,1.107,1.203,2.623,1.203,4.549
			c0,1.984-0.414,3.52-1.241,4.609c-0.827,1.088-1.954,1.633-3.378,1.633c-1.411,0-2.518-0.512-3.319-1.537h-0.226l-0.548,1.322
			h-2.503v-16.715h3.276v3.889c0,0.494-0.043,1.285-0.129,2.373h0.129C1118.014,1430.764,1119.149,1430.168,1120.653,1430.168z
			 M1119.601,1432.789c-0.81,0-1.4,0.25-1.772,0.748c-0.373,0.496-0.566,1.318-0.58,2.465v0.354c0,1.289,0.191,2.213,0.575,2.771
			c0.383,0.559,0.99,0.838,1.821,0.838c0.673,0,1.208-0.309,1.606-0.928c0.397-0.621,0.596-1.521,0.596-2.703
			s-0.201-2.066-0.602-2.658C1120.843,1433.086,1120.295,1432.789,1119.601,1432.789z"/>
		<path fill="#FFFFFF" d="M1133.329,1442.619c-1.934,0-3.445-0.533-4.533-1.602c-1.089-1.066-1.633-2.578-1.633-4.533
			c0-2.012,0.503-3.568,1.509-4.666c1.006-1.1,2.397-1.65,4.173-1.65c1.697,0,3.019,0.484,3.964,1.451s1.418,2.303,1.418,4.006v1.59
			h-7.745c0.036,0.932,0.312,1.658,0.827,2.182c0.516,0.521,1.239,0.783,2.17,0.783c0.723,0,1.407-0.074,2.052-0.225
			s1.317-0.391,2.02-0.721v2.535c-0.573,0.287-1.186,0.5-1.837,0.641C1135.062,1442.549,1134.267,1442.619,1133.329,1442.619z
			 M1132.867,1432.5c-0.695,0-1.239,0.221-1.633,0.66c-0.394,0.441-0.62,1.064-0.677,1.875h4.598
			c-0.015-0.811-0.226-1.434-0.634-1.875C1134.113,1432.721,1133.562,1432.5,1132.867,1432.5z"/>
		<path fill="#FFFFFF" d="M1147.595,1430.168c0.444,0,0.813,0.033,1.106,0.098l-0.247,3.072c-0.265-0.072-0.587-0.107-0.967-0.107
			c-1.046,0-1.86,0.268-2.444,0.805c-0.584,0.537-0.875,1.289-0.875,2.256v6.113h-3.276v-12.01h2.481l0.483,2.02h0.161
			c0.372-0.674,0.875-1.217,1.509-1.627C1146.161,1430.375,1146.85,1430.168,1147.595,1430.168z"/>
		<path fill="#FFFFFF" d="M1157.585,1430.168c0.444,0,0.813,0.033,1.106,0.098l-0.247,3.072c-0.265-0.072-0.587-0.107-0.967-0.107
			c-1.046,0-1.86,0.268-2.444,0.805c-0.584,0.537-0.875,1.289-0.875,2.256v6.113h-3.276v-12.01h2.481l0.483,2.02h0.161
			c0.372-0.674,0.875-1.217,1.509-1.627C1156.151,1430.375,1156.84,1430.168,1157.585,1430.168z"/>
		<path fill="#FFFFFF" d="M1159.153,1430.395h3.588l2.267,6.756c0.193,0.588,0.326,1.283,0.397,2.084h0.064
			c0.079-0.736,0.232-1.432,0.462-2.084l2.224-6.756h3.513l-5.081,13.545c-0.466,1.254-1.13,2.191-1.993,2.814
			c-0.863,0.623-1.871,0.936-3.024,0.936c-0.566,0-1.121-0.061-1.665-0.184v-2.6c0.394,0.094,0.823,0.141,1.289,0.141
			c0.58,0,1.086-0.178,1.52-0.531c0.433-0.355,0.771-0.891,1.015-1.607l0.193-0.59L1159.153,1430.395z"/>
		<path fill="#FFFFFF" d="M1190.209,1431.598c0,1.689-0.528,2.982-1.584,3.877c-1.057,0.896-2.559,1.344-4.506,1.344h-1.429v5.586
			h-3.33v-15.705h5.017c1.905,0,3.353,0.41,4.345,1.23C1189.713,1428.748,1190.209,1429.971,1190.209,1431.598z M1182.689,1434.09
			h1.096c1.024,0,1.79-0.203,2.299-0.607c0.508-0.404,0.763-0.994,0.763-1.768c0-0.779-0.213-1.357-0.639-1.729
			c-0.426-0.373-1.094-0.559-2.003-0.559h-1.515V1434.09z"/>
		<path fill="#FFFFFF" d="M1192.776,1427.289c0-1.066,0.594-1.6,1.783-1.6c1.188,0,1.783,0.533,1.783,1.6
			c0,0.51-0.149,0.904-0.446,1.188c-0.297,0.283-0.743,0.424-1.337,0.424C1193.371,1428.9,1192.776,1428.363,1192.776,1427.289z
			 M1196.192,1442.404h-3.276v-12.01h3.276V1442.404z"/>
		<path fill="#FFFFFF" d="M1093.126,1468.805l-3.781-12.322h-0.097c0.136,2.508,0.204,4.18,0.204,5.018v7.305h-2.976V1453.1h4.533
			l3.717,12.01h0.064l3.942-12.01h4.533v15.705h-3.104v-7.434c0-0.352,0.005-0.756,0.016-1.215c0.011-0.457,0.059-1.676,0.145-3.652
			h-0.097l-4.05,12.301H1093.126z"/>
		<path fill="#FFFFFF" d="M1117.876,1462.777c0,1.955-0.516,3.484-1.547,4.588c-1.031,1.102-2.467,1.654-4.308,1.654
			c-1.153,0-2.17-0.252-3.051-0.758c-0.881-0.504-1.558-1.23-2.03-2.176s-0.709-2.047-0.709-3.309c0-1.961,0.512-3.486,1.536-4.576
			c1.024-1.088,2.463-1.633,4.318-1.633c1.153,0,2.17,0.252,3.051,0.752c0.881,0.502,1.558,1.221,2.03,2.16
			C1117.64,1460.418,1117.876,1461.518,1117.876,1462.777z M1109.573,1462.777c0,1.189,0.195,2.088,0.585,2.697
			c0.39,0.607,1.026,0.912,1.907,0.912c0.874,0,1.502-0.303,1.885-0.906c0.383-0.605,0.575-1.506,0.575-2.703
			c0-1.188-0.193-2.08-0.58-2.674c-0.387-0.596-1.021-0.893-1.901-0.893c-0.874,0-1.504,0.297-1.891,0.887
			C1109.766,1460.689,1109.573,1461.582,1109.573,1462.777z"/>
		<path fill="#FFFFFF" d="M1124.386,1469.02c-1.411,0-2.519-0.549-3.325-1.645s-1.208-2.613-1.208-4.555
			c0-1.969,0.41-3.504,1.23-4.602c0.82-1.1,1.95-1.65,3.389-1.65c1.511,0,2.664,0.588,3.459,1.762h0.107
			c-0.165-0.895-0.247-1.693-0.247-2.395v-3.846h3.287v16.715h-2.514l-0.634-1.559h-0.14
			C1127.046,1468.428,1125.912,1469.02,1124.386,1469.02z M1125.536,1466.408c0.838,0,1.452-0.242,1.842-0.73
			c0.39-0.486,0.603-1.314,0.639-2.48v-0.355c0-1.289-0.199-2.213-0.596-2.771s-1.044-0.838-1.939-0.838
			c-0.73,0-1.298,0.311-1.703,0.93c-0.405,0.619-0.607,1.52-0.607,2.701s0.204,2.068,0.612,2.66
			C1124.193,1466.113,1124.776,1466.408,1125.536,1466.408z"/>
		<path fill="#FFFFFF" d="M1139.941,1469.02c-1.934,0-3.445-0.533-4.533-1.602c-1.089-1.066-1.633-2.578-1.633-4.533
			c0-2.012,0.503-3.568,1.509-4.666c1.006-1.1,2.397-1.65,4.173-1.65c1.697,0,3.019,0.484,3.964,1.451s1.418,2.303,1.418,4.006v1.59
			h-7.745c0.036,0.932,0.312,1.658,0.827,2.182c0.516,0.521,1.239,0.783,2.17,0.783c0.723,0,1.407-0.074,2.052-0.225
			s1.317-0.391,2.02-0.721v2.535c-0.573,0.287-1.186,0.5-1.837,0.641C1141.674,1468.949,1140.879,1469.02,1139.941,1469.02z
			 M1139.479,1458.9c-0.695,0-1.239,0.221-1.633,0.66c-0.394,0.441-0.62,1.064-0.677,1.875h4.598
			c-0.015-0.811-0.226-1.434-0.634-1.875C1140.725,1459.121,1140.173,1458.9,1139.479,1458.9z"/>
		<path fill="#FFFFFF" d="M1150.78,1468.805h-3.276v-16.715h3.276V1468.805z"/>
		<path fill="#FFFFFF" d="M1160.19,1453.1h4.888c2.227,0,3.844,0.316,4.85,0.951c1.006,0.633,1.509,1.641,1.509,3.023
			c0,0.938-0.22,1.707-0.661,2.309s-1.026,0.963-1.756,1.086v0.107c0.995,0.221,1.713,0.637,2.154,1.246
			c0.44,0.607,0.661,1.418,0.661,2.428c0,1.432-0.518,2.549-1.552,3.352c-1.035,0.801-2.44,1.203-4.216,1.203h-5.876V1453.1z
			 M1163.52,1459.318h1.934c0.902,0,1.556-0.139,1.96-0.418c0.404-0.279,0.607-0.742,0.607-1.387c0-0.602-0.22-1.033-0.661-1.293
			c-0.44-0.262-1.137-0.393-2.089-0.393h-1.751V1459.318z M1163.52,1461.961v4.094h2.17c0.917,0,1.593-0.176,2.03-0.527
			c0.437-0.35,0.655-0.887,0.655-1.611c0-1.303-0.931-1.955-2.793-1.955H1163.52z"/>
	</g>
</g>
</svg>
