<?xml version="1.0" encoding="utf-8"?>
<!-- Generator: Adobe Illustrator 14.0.0, SVG Export Plug-In . SVG Version: 6.00 Build 43363)  -->
<!DOCTYPE svg PUBLIC "-//W3C//DTD SVG 1.1//EN" "http://www.w3.org/Graphics/SVG/1.1/DTD/svg11.dtd">
<svg version="1.1" id="Слой_1" xmlns="http://www.w3.org/2000/svg" xmlns:xlink="http://www.w3.org/1999/xlink" x="0px" y="0px"
	 width="2834.65px" height="2834.65px" viewBox="0 0 2834.65 2834.65" enable-background="new 0 0 2834.65 2834.65"
	 xml:space="preserve">
<g>
	<g>
		<g>
			<g>
				<path fill="#FFFFFF" d="M1386.172,1089.632c0-1.304,1.068-2.371,2.371-2.371h78.631c1.305,0,2.371,1.067,2.371,2.371v78.635
					c0,1.304-1.066,2.371-2.371,2.371h-78.631c-1.303,0-2.371-1.067-2.371-2.371V1089.632z"/>
			</g>
			<g>
				<path fill="#221F1F" d="M1467.174,1086.668c1.635,0,2.965,1.329,2.965,2.964v78.635c0,1.635-1.33,2.964-2.965,2.964h-78.631
					c-1.635,0-2.963-1.329-2.963-2.964v-78.635c0-1.635,1.328-2.964,2.963-2.964H1467.174L1467.174,1086.668z M1388.543,1170.045
					h78.631c0.98,0,1.779-0.798,1.779-1.778v-78.635c0-0.98-0.799-1.778-1.779-1.778h-78.631c-0.98,0-1.777,0.798-1.777,1.778
					v78.635C1386.766,1169.247,1387.563,1170.045,1388.543,1170.045L1388.543,1170.045z"/>
			</g>
		</g>
		<g>
			<g>
				<path fill="#FFFFFF" d="M1392.939,1096.398c0-1.304,1.066-2.371,2.371-2.371h65.098c1.303,0,2.371,1.067,2.371,2.371v65.102
					c0,1.304-1.068,2.371-2.371,2.371h-65.098c-1.305,0-2.371-1.067-2.371-2.371V1096.398z"/>
			</g>
			<g>
				<path fill="#221F1F" d="M1460.408,1093.435c1.635,0,2.963,1.329,2.963,2.964v65.102c0,1.635-1.328,2.964-2.963,2.964h-65.098
					c-1.635,0-2.965-1.329-2.965-2.964v-65.102c0-1.635,1.33-2.964,2.965-2.964H1460.408L1460.408,1093.435z M1395.311,1163.278
					h65.098c0.98,0,1.777-0.798,1.777-1.778v-65.102c0-0.98-0.797-1.778-1.777-1.778h-65.098c-0.982,0-1.779,0.798-1.779,1.778
					v65.102C1393.531,1162.48,1394.328,1163.278,1395.311,1163.278L1395.311,1163.278z"/>
			</g>
		</g>
		<g>
			<g>
				<path fill="#FFFFFF" d="M1406.598,1128.949c0-13.541,9.523-22.108,21.26-22.108c11.738,0,21.258,8.567,21.258,22.108
					s-9.52,22.108-21.258,22.108C1416.121,1151.058,1406.598,1142.49,1406.598,1128.949z"/>
				<path fill="#221F1F" d="M1427.857,1106.248c12.662,0,21.85,9.547,21.85,22.701s-9.188,22.701-21.85,22.701
					c-12.66,0-21.852-9.547-21.852-22.701S1415.197,1106.248,1427.857,1106.248L1427.857,1106.248z M1427.857,1150.465
					c11.975,0,20.664-9.048,20.664-21.516s-8.689-21.516-20.664-21.516s-20.666,9.048-20.666,21.516
					S1415.883,1150.465,1427.857,1150.465L1427.857,1150.465z"/>
			</g>
			<g>
				<g>
					<rect x="1432.146" y="1123.208" fill="#FFFFFF" width="3.24" height="11.412"/>
					<path fill="#221F1F" d="M1435.979,1122.614v12.599h-4.426v-12.599H1435.979L1435.979,1122.614z M1432.738,1123.801v10.227
						h2.055v-10.227H1432.738L1432.738,1123.801z"/>
				</g>
				<g>
					<rect x="1420.328" y="1123.208" fill="#FFFFFF" width="3.242" height="11.412"/>
					<path fill="#221F1F" d="M1424.162,1122.614v12.599h-4.426v-12.599H1424.162L1424.162,1122.614z M1420.922,1123.801v10.227
						h2.055v-10.227H1420.922L1420.922,1123.801z"/>
				</g>
			</g>
		</g>
	</g>
	<g>
		<g>
			<g>
				<circle fill="#221F1F" cx="1427.857" cy="1128.949" r="21.664"/>
				<path fill="#221F1F" d="M1427.857,1106.692c12.273,0,22.258,9.984,22.258,22.257s-9.984,22.257-22.258,22.257
					c-12.271,0-22.258-9.984-22.258-22.257S1415.586,1106.692,1427.857,1106.692L1427.857,1106.692z M1427.857,1150.021
					c11.619,0,21.072-9.453,21.072-21.071c0-11.619-9.453-21.071-21.072-21.071s-21.072,9.452-21.072,21.071
					C1406.785,1140.567,1416.238,1150.021,1427.857,1150.021L1427.857,1150.021z"/>
			</g>
			<g>
				<path fill="#FFFFFF" d="M1449.293,1126.736v4.945h-3.158v9.411h-0.338c-3.896,5.743-10.475,9.521-17.939,9.521
					c-7.463,0-14.047-3.774-17.943-9.52l-0.092-9.412h-3.064v-4.945h3.016l-0.096-9.573c3.863-5.946,10.563-9.878,18.18-9.878
					c7.686,0,14.438,4.003,18.283,10.037l-0.006,0.577v8.837H1449.293z"/>
				<path fill="#221F1F" d="M1427.857,1106.692c7.646,0,14.668,3.854,18.783,10.312c0.063,0.098,0.094,0.21,0.094,0.324
					l-0.006,8.815h2.564c0.328,0,0.592,0.266,0.592,0.593v4.945c0,0.327-0.264,0.593-0.592,0.593h-2.564v8.818
					c0,0.327-0.266,0.593-0.594,0.593h-0.027c-4.172,5.967-10.969,9.521-18.25,9.521c-7.389,0-14.281-3.656-18.434-9.78
					c-0.064-0.096-0.102-0.21-0.102-0.326l-0.088-8.825h-2.477c-0.328,0-0.592-0.266-0.592-0.593v-4.945
					c0-0.327,0.264-0.593,0.592-0.593h2.416l-0.088-8.976c-0.002-0.116,0.031-0.229,0.096-0.328
					C1413.309,1110.485,1420.291,1106.692,1427.857,1106.692L1427.857,1106.692z M1410.273,1117.337l0.092,9.394
					c0.002,0.159-0.059,0.311-0.17,0.423s-0.264,0.176-0.422,0.176h-2.422v3.76h2.471c0.324,0,0.59,0.262,0.592,0.587l0.092,9.231
					c3.941,5.71,10.414,9.113,17.352,9.113c6.992,0,13.516-3.462,17.447-9.261c0.061-0.089,0.145-0.158,0.238-0.203v-8.875
					c0-0.327,0.266-0.593,0.592-0.593h2.564v-3.76h-2.564c-0.326,0-0.592-0.265-0.592-0.593v-8.843l0.004-0.399
					c-3.91-6.024-10.508-9.616-17.689-9.616C1420.752,1107.878,1414.193,1111.41,1410.273,1117.337L1410.273,1117.337z"/>
			</g>
			<g>
				<path fill="#FFFFFF" d="M1423.461,1170.335l-0.459-16.993l-3.332-3.557v-26.091h16.377v26.091l-3.332,3.557l-0.457,16.993
					l-1.186,1.296v214.618c0,6.423-4.248,10.671-10.67,10.671H1313.66c-3.262,0-5.93-1.446-5.93-3.213
					c0-1.769,2.668-3.214,5.93-3.214h105.059c3.26,0,5.928-2.668,5.928-5.929v-212.934L1423.461,1170.335z"/>
				<path fill="#221F1F" d="M1436.047,1123.101c0.326,0,0.592,0.266,0.592,0.594v26.091c0,0.15-0.057,0.295-0.16,0.405l-3.176,3.393
					l-0.451,16.769c-0.006,0.143-0.061,0.279-0.156,0.385l-1.029,1.125v214.388c0,6.737-4.527,11.264-11.264,11.264H1313.66
					c-3.658,0-6.521-1.672-6.521-3.806c0-2.136,2.863-3.808,6.521-3.808h105.059c2.941,0,5.334-2.393,5.334-5.335v-212.703
					l-1.029-1.125c-0.096-0.105-0.152-0.242-0.156-0.385l-0.453-16.769l-3.178-3.393c-0.102-0.11-0.158-0.255-0.158-0.405v-26.091
					c0-0.328,0.264-0.594,0.592-0.594H1436.047L1436.047,1123.101z M1420.264,1124.286v25.266l3.17,3.385
					c0.1,0.105,0.156,0.244,0.16,0.39l0.455,16.771l1.035,1.133c0.1,0.11,0.156,0.252,0.156,0.4v212.934
					c0,3.595-2.926,6.521-6.521,6.521H1313.66c-3.146,0-5.336,1.381-5.336,2.621c0,1.238,2.189,2.62,5.336,2.62h106.742
					c6.121,0,10.078-3.956,10.078-10.078v-214.618c0-0.148,0.055-0.29,0.154-0.4l1.037-1.133l0.451-16.771
					c0.004-0.146,0.061-0.284,0.16-0.39l3.17-3.385v-25.266H1420.264L1420.264,1124.286z"/>
			</g>
			<g>
				<path fill="#FFFFFF" d="M1446.113,1117.279c0,0-3.736-3.97-12.438-5.327v8.931l2.371,2.812h-16.377l2.371-2.812v-8.96
					c-8.639,1.327-12.361,5.356-12.361,5.356l-0.002-0.116c2.932-4.512,7.496-7.858,12.855-9.213
					c4.512-1.109,6.588-1.109,10.654,0.002C1438.59,1109.319,1443.186,1112.711,1446.113,1117.279z"/>
				<path fill="#221F1F" d="M1428.025,1106.525c1.557,0,3.096,0.248,5.307,0.853c5.496,1.391,10.213,4.793,13.279,9.582
					c0.166,0.257,0.107,0.598-0.135,0.786c-0.238,0.188-0.584,0.161-0.795-0.059c-0.035-0.037-3.529-3.637-11.414-5.036v8.015
					l2.232,2.646c0.148,0.176,0.182,0.423,0.084,0.633c-0.098,0.208-0.307,0.342-0.537,0.342h-16.377
					c-0.23,0-0.439-0.134-0.537-0.342c-0.098-0.21-0.064-0.457,0.084-0.633l2.232-2.646v-8.046
					c-7.82,1.376-11.299,5.025-11.336,5.063c-0.164,0.176-0.422,0.18-0.648,0.09c-0.227-0.087-0.377-0.362-0.379-0.604
					c-0.002-0.116,0.031-0.229,0.096-0.328c3.07-4.727,7.76-8.088,13.209-9.466
					C1424.844,1106.771,1426.477,1106.525,1428.025,1106.525L1428.025,1106.525L1428.025,1106.525z M1412.584,1114.429
					c2.064-1.164,5.139-2.442,9.367-3.092c0.172-0.028,0.346,0.022,0.477,0.135c0.131,0.113,0.207,0.278,0.207,0.451v8.96
					c0,0.14-0.051,0.275-0.141,0.382l-1.549,1.836h13.824l-1.547-1.836c-0.09-0.106-0.141-0.242-0.141-0.382v-8.931
					c0-0.174,0.076-0.338,0.207-0.45s0.309-0.163,0.479-0.136c4.207,0.657,7.275,1.906,9.352,3.049
					c-2.721-2.859-6.197-4.905-10.09-5.891c-2.111-0.578-3.563-0.813-5.004-0.813l0,0c-1.447,0-2.998,0.236-5.348,0.813
					C1418.789,1109.507,1415.309,1111.559,1412.584,1114.429L1412.584,1114.429z"/>
			</g>
		</g>
		<g>
			<g>
				<path fill="#FFFFFF" d="M1300.779,1384.487l11.41,0.53c1.785,0.188,2.613,0.188,2.613,0.188l31.336,3.939v9.002l-31.334,3.937
					c0,0-0.828,0-2.615,0.191l-11.41,0.53c-0.789,0.023-3.084-1.132-3.084-1.557v-15.205
					C1297.695,1385.62,1299.99,1384.464,1300.779,1384.487z"/>
				<path fill="#221F1F" d="M1300.754,1383.895l11.498,0.533c1.723,0.183,2.543,0.186,2.625,0.19l31.855,4.004v10.049l-31.928,4.006
					c-0.008,0-0.828,0.003-2.588,0.19l-11.463,0.532c-0.75,0-3.65-1.12-3.65-2.15v-15.205
					C1297.104,1385.014,1300.004,1383.895,1300.754,1383.895L1300.754,1383.895z M1298.289,1386.196v14.902
					c0.387,0.363,1.951,1.114,2.461,1.116l11.375-0.528c1.789-0.192,2.643-0.197,2.605-0.191l30.816-3.871v-7.956l-30.744-3.869
					c-0.035,0-0.879-0.002-2.643-0.189l-11.398-0.529l-0.008-0.593l0.002,0.593
					C1300.24,1385.08,1298.676,1385.831,1298.289,1386.196L1298.289,1386.196z"/>
			</g>
			<g>
				<g>
					<path fill="#FFFFFF" d="M1332.096,1388.583c0-0.651,0.529-1.119,1.176-1.039l11.691,1.455c0.646,0.08,1.176,0.68,1.176,1.332
						v6.631c0,0.651-0.529,1.251-1.176,1.331l-11.691,1.454c-0.646,0.08-1.176-0.388-1.176-1.04V1388.583z"/>
				</g>
				<g>
					<path fill="#221F1F" d="M1333.129,1386.941c0.072,0,0.143,0.005,0.217,0.015l11.689,1.455c0.951,0.117,1.697,0.961,1.697,1.92
						v6.631c0,0.958-0.746,1.803-1.697,1.919l-11.689,1.454c-1.008,0.123-1.842-0.635-1.842-1.628v-10.124
						C1331.504,1387.663,1332.217,1386.941,1333.129,1386.941L1333.129,1386.941z M1333.188,1399.159c0.004,0,0.008,0,0.012,0
						l11.691-1.454c0.35-0.043,0.656-0.391,0.656-0.743v-6.631c0-0.354-0.307-0.701-0.656-0.744l-11.691-1.455l-0.07-0.005
						c-0.26,0-0.439,0.188-0.439,0.456v10.124C1332.689,1398.973,1332.865,1399.159,1333.188,1399.159L1333.188,1399.159z"/>
				</g>
			</g>
			<g>
				<g>
					<path fill="#FFFFFF" d="M1336.383,1389.118c0-0.651,0.529-1.119,1.178-1.039l7.402,0.92c0.646,0.08,1.176,0.68,1.176,1.332
						v6.631c0,0.651-0.529,1.251-1.176,1.331l-7.402,0.921c-0.648,0.079-1.178-0.389-1.178-1.04V1389.118z"/>
				</g>
				<g>
					<path fill="#221F1F" d="M1337.416,1387.477c0.072,0,0.145,0.005,0.217,0.014l7.402,0.921c0.951,0.117,1.697,0.961,1.697,1.92
						v6.631c0,0.958-0.746,1.803-1.697,1.919l-7.402,0.921c-1.014,0.125-1.842-0.636-1.842-1.628v-9.056
						C1335.791,1388.198,1336.506,1387.477,1337.416,1387.477L1337.416,1387.477z M1337.475,1398.625c0.004,0,0.01,0,0.012,0
						l7.404-0.92c0.35-0.043,0.656-0.391,0.656-0.743v-6.631c0-0.354-0.307-0.701-0.656-0.744l-7.404-0.92l-0.07-0.005
						c-0.26,0-0.439,0.188-0.439,0.456v9.056C1336.977,1398.438,1337.154,1398.625,1337.475,1398.625L1337.475,1398.625z"/>
				</g>
			</g>
			<g>
				<g>
					<path fill="#FFFFFF" d="M1340.672,1389.652c0-0.652,0.529-1.12,1.176-1.04l3.115,0.387c0.646,0.08,1.176,0.68,1.176,1.332
						v6.631c0,0.651-0.529,1.251-1.176,1.331l-3.115,0.388c-0.646,0.08-1.176-0.388-1.176-1.039V1389.652z"/>
				</g>
				<g>
					<path fill="#221F1F" d="M1341.705,1388.011c0.072,0,0.143,0.004,0.217,0.014l3.113,0.387c0.951,0.117,1.697,0.961,1.697,1.92
						v6.631c0,0.958-0.746,1.803-1.697,1.919l-3.113,0.388c-1.012,0.127-1.842-0.637-1.842-1.627v-7.989
						C1340.08,1388.731,1340.793,1388.011,1341.705,1388.011L1341.705,1388.011z M1341.764,1398.093c0.004,0,0.008,0,0.012,0
						l3.115-0.388c0.35-0.043,0.656-0.391,0.656-0.743v-6.631c0-0.354-0.307-0.701-0.656-0.744l-3.115-0.387l-0.07-0.004
						c-0.26,0-0.439,0.188-0.439,0.456v7.989C1341.266,1397.906,1341.441,1398.093,1341.764,1398.093L1341.764,1398.093z"/>
				</g>
			</g>
		</g>
	</g>
</g>
<g>
	<g>
		<g>
			<path fill="#FFFFFF" d="M894.143,1610.191c2.746,0,4.992-3.004,4.992-22.566v-147.014c0-19.563,8.102-29.641,30.825-29.641
				h88.532c19.563,0,35.568-2.246,35.568-4.992c0-2.744-16.006-4.99-35.568-4.99h-94.959c-19.563,0-34.383,14.818-34.383,34.381
				v152.256C889.15,1607.188,891.396,1610.191,894.143,1610.191z"/>
			<path fill="#221F1F" d="M1054.653,1405.979c0,4.098-21.625,5.586-36.161,5.586H929.96c-21.191,0-30.232,8.688-30.232,29.047
				v147.014c0,14.535-1.487,23.16-5.585,23.16s-5.585-8.625-5.585-23.16v-152.256c0-19.938,15.036-34.975,34.976-34.975h94.959
				C1033.028,1400.395,1054.653,1401.881,1054.653,1405.979L1054.653,1405.979z M889.743,1435.369v152.256
				c0,22.963,2.863,21.975,4.399,21.975c1.535,0,4.398,0.988,4.398-21.975v-147.014c0-21.191,9.396-30.232,31.419-30.232h88.532
				c22.963,0,34.976-2.865,34.976-4.4s-12.013-4.398-34.976-4.398h-94.959C904.27,1401.58,889.743,1416.105,889.743,1435.369
				L889.743,1435.369z"/>
		</g>
	</g>
	<g>
		<g>
			<path fill="#FFFFFF" d="M1005.324,1412.012c-1.357-0.123-7.348-0.029-8.908-0.037c-1.568-0.01-1.568-11.932,0-11.939
				c1.965-0.012,7.508,0.189,9.156,0C1004.773,1403.746,1005.147,1408.266,1005.324,1412.012z"/>
			<path fill="#221F1F" d="M1006.326,1399.352l-0.174,0.809c-0.322,1.494-0.479,3.283-0.479,5.467c0,1.672,0.087,3.344,0.172,4.957
				l0.103,2.08l-0.677-0.061c-0.955-0.088-4.438-0.063-6.743-0.047c-0.915,0.006-1.684,0.012-2.115,0.01
				c-1.46-0.008-1.767-3.572-1.767-6.563c0-2.988,0.307-6.555,1.767-6.563c0.62-0.004,1.593,0.014,2.688,0.033
				c2.366,0.043,5.312,0.098,6.403-0.029L1006.326,1399.352L1006.326,1399.352z M996.527,1400.627
				c-0.295,0.393-0.695,2.273-0.695,5.377s0.4,4.984,0.695,5.377c0.441,0.002,1.155-0.004,1.993-0.01
				c2.06-0.014,4.756-0.033,6.179,0.014l-0.037-0.738c-0.086-1.629-0.174-3.316-0.174-5.02c0-1.91,0.117-3.539,0.357-4.947
				c-1.434,0.061-3.797,0.018-5.767-0.02C998.057,1400.643,997.142,1400.627,996.527,1400.627L996.527,1400.627z"/>
		</g>
		<g>
			<path fill="#FFFFFF" d="M1007.695,1412.156c-1.357-0.123-6.162-0.174-7.723-0.182c-1.568-0.01-1.568-11.932,0-11.939
				c1.965-0.012,6.074,0.189,7.723,0C1006.896,1403.746,1007.519,1408.412,1007.695,1412.156z"/>
			<path fill="#221F1F" d="M1008.449,1399.352l-0.174,0.809c-0.259,1.201-0.385,2.613-0.385,4.316c0,1.68,0.119,3.398,0.235,5.061
				c0.063,0.896,0.122,1.766,0.162,2.592l0.032,0.68l-0.678-0.061c-1.248-0.113-5.708-0.172-7.672-0.182
				c-1.461-0.008-1.768-3.572-1.768-6.563c0-2.988,0.307-6.555,1.768-6.563c0.646-0.004,1.525,0.016,2.473,0.037
				c1.93,0.041,4.115,0.09,5.185-0.033L1008.449,1399.352L1008.449,1399.352z M1006.705,1404.477c0-1.441,0.088-2.691,0.266-3.795
				c-1.223,0.055-2.973,0.016-4.553-0.018c-0.885-0.02-1.707-0.037-2.334-0.037c-0.295,0.393-0.695,2.273-0.695,5.377
				c0,3.105,0.4,4.986,0.695,5.379c1.458,0.008,5.154,0.049,6.984,0.139c-0.035-0.615-0.08-1.252-0.125-1.902
				C1006.826,1407.938,1006.705,1406.197,1006.705,1404.477L1006.705,1404.477z"/>
		</g>
		<g>
			<path fill="#FFFFFF" d="M1003.529,1411.975c-1.568-0.01-1.568-11.932,0-11.939c22.445-0.113,22.741-10.672,36.969-10.672
				c9.195,0,30.855,0.004,30.855,0.004c0.651-0.037,1.185,0.467,1.185,1.119v14.275v12.998v3.762c0,0.652-0.533,1.156-1.185,1.121
				c0,0-21.66,0.002-30.855,0.002C1026.271,1422.645,1025.975,1412.088,1003.529,1411.975z"/>
			<path fill="#221F1F" d="M1073.131,1421.521c0,0.48-0.188,0.924-0.532,1.25c-0.345,0.324-0.798,0.488-1.245,0.463l-30.855,0.002
				c-6.482,0-10.221-2.18-14.178-4.49c-4.912-2.867-10.48-6.117-22.793-6.18c-1.461-0.008-1.768-3.572-1.768-6.563
				c0-2.988,0.307-6.555,1.768-6.563c12.313-0.063,17.881-3.311,22.793-6.18c3.957-2.309,7.695-4.49,14.178-4.49l30.823,0.004
				c0.479-0.027,0.933,0.137,1.277,0.463c0.344,0.324,0.532,0.768,0.532,1.248V1421.521L1073.131,1421.521z M1003.641,1400.627
				c-0.295,0.393-0.695,2.271-0.695,5.377s0.4,4.986,0.695,5.379c12.554,0.082,18.25,3.406,23.277,6.338
				c3.98,2.324,7.419,4.33,13.58,4.33h30.888c0.152,0.008,0.293-0.043,0.397-0.143c0.104-0.098,0.162-0.234,0.162-0.387v-31.035
				c0-0.15-0.058-0.289-0.162-0.387c-0.104-0.1-0.245-0.15-0.43-0.141l-30.855-0.002c-6.161,0-9.6,2.006-13.58,4.33
				C1021.891,1397.221,1016.194,1400.543,1003.641,1400.627L1003.641,1400.627z"/>
		</g>
	</g>
	<g>
		<g>
			<path fill="#FFFFFF" d="M887.876,1568.924c0.122-1.357,0.03-7.346,0.038-8.908c0.008-1.568,11.932-1.568,11.939,0
				c0.01,1.965-0.189,7.508,0,9.156C896.142,1568.373,891.621,1568.748,887.876,1568.924z"/>
			<path fill="#221F1F" d="M900.537,1569.926l-0.809-0.174c-3.184-0.686-7.031-0.484-10.426-0.307l-2.078,0.104l0.061-0.678
				c0.041-0.453,0.063-1.557,0.063-3.281c0-1.154-0.009-2.406-0.017-3.461c-0.006-0.771-0.011-1.439-0.011-1.887l0.001-0.229
				c0.007-1.461,3.573-1.766,6.563-1.766s6.555,0.305,6.563,1.766l0.001,0.162c0,0.619-0.017,1.521-0.035,2.525
				c-0.022,1.254-0.048,2.67-0.048,3.893c0,1.217,0.026,2.061,0.078,2.51L900.537,1569.926L900.537,1569.926z M899.261,1560.127
				c-0.393-0.295-2.272-0.693-5.377-0.693s-4.984,0.398-5.377,0.693l-0.001,0.115c0,0.447,0.005,1.111,0.011,1.879
				c0.008,1.057,0.017,2.311,0.017,3.469c0,1.205-0.01,2.102-0.03,2.709l0.737-0.037c3.205-0.168,6.806-0.355,9.969,0.184
				c-0.054-1.252-0.02-3.727,0.018-5.766c0.019-0.996,0.035-1.891,0.035-2.504L899.261,1560.127L899.261,1560.127z"/>
		</g>
		<g>
			<path fill="#FFFFFF" d="M887.73,1571.295c0.123-1.357,0.176-6.16,0.184-7.721c0.008-1.57,11.932-1.57,11.939,0
				c0.01,1.963-0.189,6.072,0,7.721C896.142,1570.496,891.477,1571.119,887.73,1571.295z"/>
			<path fill="#221F1F" d="M900.537,1572.049l-0.809-0.174c-2.815-0.605-6.303-0.363-9.379-0.148
				c-0.895,0.061-1.765,0.123-2.591,0.16l-0.68,0.033l0.062-0.678c0.113-1.248,0.17-5.707,0.181-7.672
				c0.007-1.461,3.573-1.766,6.563-1.766s6.555,0.305,6.563,1.766l0.001,0.158c0,0.629-0.019,1.443-0.037,2.316
				c-0.022,0.996-0.046,2.07-0.046,3.027c0,0.994,0.025,1.699,0.078,2.156L900.537,1572.049L900.537,1572.049z M899.261,1563.684
				c-0.393-0.295-2.272-0.693-5.377-0.693c-3.105,0-4.985,0.4-5.378,0.693c-0.008,1.459-0.049,5.156-0.141,6.984
				c0.616-0.035,1.253-0.08,1.902-0.125c2.887-0.199,6.127-0.426,8.938,0.027c-0.05-1.082-0.017-2.932,0.019-4.553
				c0.019-0.863,0.037-1.668,0.037-2.289L899.261,1563.684L899.261,1563.684z"/>
		</g>
		<g>
			<path fill="#FFFFFF" d="M887.914,1567.131c0.008-1.57,11.932-1.57,11.939,0c0.113,22.443,10.67,22.74,10.67,36.967
				c0,9.195-0.002,30.855-0.002,30.855c0.036,0.652-0.468,1.186-1.119,1.186h-14.276h-12.997h-3.764
				c-0.651,0-1.155-0.533-1.119-1.186c0,0-0.002-21.66-0.002-30.855C877.244,1589.871,887.801,1589.574,887.914,1567.131z"/>
			<path fill="#221F1F" d="M911.117,1604.098l-0.001,30.922c0,0.961-0.753,1.711-1.714,1.711h-31.037
				c-0.96,0-1.712-0.75-1.712-1.773c0,0,0-0.002,0-0.004l-0.003-30.855c0-6.48,2.183-10.221,4.492-14.178
				c2.867-4.912,6.116-10.48,6.179-22.793c0.007-1.461,3.573-1.766,6.563-1.766s6.555,0.305,6.563,1.766
				c0.063,12.313,3.312,17.881,6.179,22.793C908.935,1593.877,911.117,1597.617,911.117,1604.098L911.117,1604.098z
				 M899.262,1567.24c-0.393-0.293-2.272-0.693-5.378-0.693s-4.985,0.4-5.378,0.693c-0.082,12.555-3.406,18.252-6.34,23.277
				c-2.323,3.98-4.33,7.418-4.33,13.58l0.001,30.922c0,0.301,0.228,0.525,0.528,0.525h31.037c0.3,0,0.526-0.225,0.526-0.586
				c0-0.002,0-0.004,0-0.006l0.003-30.855c0-6.162-2.007-9.6-4.33-13.58C902.668,1585.492,899.344,1579.795,899.262,1567.24
				L899.262,1567.24z"/>
		</g>
	</g>
</g>
<g>
	<path fill="#221F1F" d="M1334.67,1360.376c1.799,0,3.232,0.505,4.297,1.516c1.066,1.011,1.6,2.395,1.6,4.152
		c0,2.081-0.641,3.681-1.924,4.802c-1.281,1.12-3.115,1.681-5.502,1.681c-2.072,0-3.744-0.336-5.018-1.006v-3.4
		c0.672,0.356,1.453,0.647,2.344,0.873c0.893,0.225,1.736,0.337,2.535,0.337c2.402,0,3.604-0.985,3.604-2.955
		c0-1.877-1.244-2.814-3.73-2.814c-0.451,0-0.947,0.044-1.49,0.134c-0.545,0.089-0.986,0.185-1.326,0.286l-1.566-0.84l0.701-9.488
		h10.1v3.336h-6.648l-0.344,3.655l0.445-0.089C1333.264,1360.436,1333.906,1360.376,1334.67,1360.376z"/>
	<path fill="#221F1F" d="M1354.703,1353.652h3.986l-6.33,18.619h-4.305l-6.316-18.619h3.986l3.502,11.08
		c0.195,0.654,0.398,1.416,0.605,2.285c0.207,0.871,0.338,1.477,0.389,1.815c0.094-0.781,0.41-2.147,0.955-4.101L1354.703,1353.652z
		"/>
</g>
<g>
	<g>
		<g>
			<path fill="#646464" d="M1033.668,1617.476c8.728,0,15.867,7.142,15.867,15.867v277.477c0,8.728-7.14,15.866-15.867,15.866
				H838.671c-8.727,0-15.867-7.139-15.867-15.866v-277.477c0-8.726,7.141-15.867,15.867-15.867H1033.668z"/>
		</g>
		<g>
			<path fill="#221F1F" d="M822.011,1910.819v-277.477c0-9.186,7.475-16.659,16.66-16.659h194.997c9.187,0,16.66,7.474,16.66,16.659
				v277.477c0,9.188-7.474,16.661-16.66,16.661H838.671C829.485,1927.48,822.011,1920.007,822.011,1910.819L822.011,1910.819z
				 M1048.742,1633.343c0-8.31-6.763-15.072-15.074-15.072H838.671c-8.312,0-15.073,6.763-15.073,15.072v277.477
				c0,8.313,6.762,15.074,15.073,15.074h194.997c8.312,0,15.074-6.762,15.074-15.074V1633.343L1048.742,1633.343z"/>
		</g>
	</g>
	<g>
		<path fill="#FFFFFF" d="M1027.976,1623.229c8.728,0,15.868,7.142,15.868,15.867v265.97c0,8.729-7.141,15.87-15.868,15.87H844.362
			c-8.727,0-15.866-7.142-15.866-15.87v-265.97c0-8.726,7.14-15.867,15.866-15.867H1027.976z"/>
	</g>
</g>
<g>
	<path fill="#221F1F" d="M921.434,1796.116h-3.936v-8.036h-7.373v8.036h-3.949v-18.62h3.949v7.298h7.373v-7.298h3.936V1796.116z"/>
	<path fill="#221F1F" d="M941.582,1786.628c0,3.065-0.873,5.413-2.617,7.043s-4.264,2.445-7.559,2.445h-5.273v-18.62h5.848
		c3.039,0,5.398,0.803,7.08,2.407C940.742,1781.509,941.582,1783.75,941.582,1786.628z M937.482,1786.73
		c0-3.999-1.768-5.999-5.299-5.999h-2.102v12.124h1.693C935.58,1792.855,937.482,1790.813,937.482,1786.73z"/>
	<path fill="#221F1F" d="M960.891,1786.628c0,3.065-0.873,5.413-2.617,7.043c-1.746,1.63-4.266,2.445-7.559,2.445h-5.273v-18.62
		h5.846c3.039,0,5.4,0.803,7.082,2.407C960.049,1781.509,960.891,1783.75,960.891,1786.628z M956.789,1786.73
		c0-3.999-1.768-5.999-5.299-5.999h-2.102v12.124h1.695C954.887,1792.855,956.789,1790.813,956.789,1786.73z"/>
</g>
<g>
	<g>
		<g>
			<g>
				<path fill="#FFFFFF" d="M1614.911,1314.125c0,3.26-2.667,5.928-5.928,5.928h-66.524c-3.261,0-5.928-2.668-5.928-5.928v-11.434
					c0-3.262,2.667-5.928,5.928-5.928h66.524c3.261,0,5.928,2.666,5.928,5.928V1314.125z"/>
			</g>
			<g>
				<path fill="#221F1F" d="M1608.983,1320.645h-66.524c-3.596,0-6.521-2.924-6.521-6.52v-11.434c0-3.596,2.925-6.521,6.521-6.521
					h66.524c3.596,0,6.521,2.926,6.521,6.521v11.434C1615.505,1317.721,1612.579,1320.645,1608.983,1320.645L1608.983,1320.645z
					 M1542.459,1297.355c-2.942,0-5.335,2.393-5.335,5.336v11.434c0,2.941,2.393,5.334,5.335,5.334h66.524
					c2.942,0,5.336-2.393,5.336-5.334v-11.434c0-2.943-2.394-5.336-5.336-5.336H1542.459L1542.459,1297.355z"/>
			</g>
		</g>
		<g>
			<g>
				<path fill="#FFFFFF" d="M1976.169,1314.125c0,3.26-2.668,5.928-5.93,5.928h-66.523c-3.262,0-5.928-2.668-5.928-5.928v-11.434
					c0-3.262,2.666-5.928,5.928-5.928h66.523c3.262,0,5.93,2.666,5.93,5.928V1314.125z"/>
			</g>
			<g>
				<path fill="#221F1F" d="M1970.239,1320.645h-66.523c-3.596,0-6.521-2.924-6.521-6.52v-11.434c0-3.596,2.926-6.521,6.521-6.521
					h66.523c3.596,0,6.521,2.926,6.521,6.521v11.434C1976.761,1317.721,1973.835,1320.645,1970.239,1320.645L1970.239,1320.645z
					 M1903.716,1297.355c-2.943,0-5.336,2.393-5.336,5.336v11.434c0,2.941,2.393,5.334,5.336,5.334h66.523
					c2.943,0,5.336-2.393,5.336-5.334v-11.434c0-2.943-2.393-5.336-5.336-5.336H1903.716L1903.716,1297.355z"/>
			</g>
		</g>
	</g>
	<g>
		<g>
			<g>
				<g>
					<path fill="#FFFFFF" d="M2012.046,1251.025c0,10.021-32.012,18.223-71.137,18.223H1571.79
						c-39.125,0-71.137-8.201-71.137-18.223s32.012-38.223,71.137-38.223h369.119
						C1980.034,1212.803,2012.046,1241.004,2012.046,1251.025z"/>
				</g>
				<g>
					<path fill="#221F1F" d="M1940.909,1269.841H1571.79c-40.223,0-71.729-8.265-71.729-18.815s31.507-38.815,71.729-38.815h369.119
						c40.223,0,71.73,28.265,71.73,38.815S1981.132,1269.841,1940.909,1269.841L1940.909,1269.841z M1571.79,1213.396
						c-38.239,0-70.544,28.073-70.544,37.63s32.305,17.63,70.544,17.63h369.119c38.238,0,70.545-8.073,70.545-17.63
						s-32.307-37.63-70.545-37.63H1571.79L1571.79,1213.396z"/>
				</g>
			</g>
			<g>
				<g>
					<path fill="#FFFFFF" d="M2012.046,1300.961c0,6.52-5.336,11.855-11.855,11.855h-487.682c-6.521,0-11.855-5.336-11.855-11.855
						v-47.252c0-6.521,5.335-11.855,11.855-11.855h487.682c6.52,0,11.855,5.335,11.855,11.855V1300.961z"/>
				</g>
				<g>
					<path fill="#221F1F" d="M2000.19,1313.408h-487.682c-6.863,0-12.448-5.584-12.448-12.447v-47.252
						c0-6.863,5.585-12.449,12.448-12.449h487.682c6.863,0,12.449,5.586,12.449,12.449v47.252
						C2012.64,1307.824,2007.054,1313.408,2000.19,1313.408L2000.19,1313.408z M1512.509,1242.445
						c-6.21,0-11.263,5.053-11.263,11.264v47.252c0,6.209,5.053,11.262,11.263,11.262h487.682c6.211,0,11.264-5.053,11.264-11.262
						v-47.252c0-6.211-5.053-11.264-11.264-11.264H1512.509L1512.509,1242.445z"/>
				</g>
			</g>
			<g>
				<rect x="1539.676" y="1250.9" fill="#FFFFFF" width="433.347" height="52.869"/>
				<path fill="#221F1F" d="M1973.616,1304.361h-434.533v-54.054h434.533V1304.361L1973.616,1304.361z M1540.269,1303.176h432.162
					v-51.683h-432.162V1303.176L1540.269,1303.176z"/>
			</g>
		</g>
		<g>
			<g>
				<circle fill="#FFFFFF" cx="1938.066" cy="1274.963" r="22.229"/>
				<path fill="#221F1F" d="M1938.065,1297.785c-12.584,0-22.82-10.238-22.82-22.822s10.236-22.821,22.82-22.821
					s22.822,10.237,22.822,22.821S1950.649,1297.785,1938.065,1297.785L1938.065,1297.785z M1938.065,1253.327
					c-11.93,0-21.635,9.706-21.635,21.636c0,11.932,9.705,21.637,21.635,21.637c11.932,0,21.637-9.705,21.637-21.637
					C1959.702,1263.033,1949.997,1253.327,1938.065,1253.327L1938.065,1253.327z"/>
			</g>
			<g>
				<g>
					<g>
						<path fill="#FFFFFF" d="M1950.515,1276.472c0,6.521-5.336,11.856-11.855,11.856h-1.186c-6.521,0-11.855-5.336-11.855-11.856
							v-192.769c0-6.521,5.334-11.855,11.855-11.855h1.186c6.52,0,11.855,5.335,11.855,11.855V1276.472z"/>
					</g>
					<g>
						<path fill="#221F1F" d="M1938.659,1288.922h-1.186c-6.863,0-12.449-5.586-12.449-12.45v-192.769
							c0-6.863,5.586-12.448,12.449-12.448h1.186c6.863,0,12.449,5.585,12.449,12.448v192.769
							C1951.108,1283.336,1945.522,1288.922,1938.659,1288.922L1938.659,1288.922z M1937.474,1072.44
							c-6.211,0-11.264,5.053-11.264,11.263v192.769c0,6.212,5.053,11.265,11.264,11.265h1.186c6.211,0,11.264-5.053,11.264-11.265
							v-192.769c0-6.21-5.053-11.263-11.264-11.263H1937.474L1937.474,1072.44z"/>
					</g>
				</g>
				<g>
					<rect x="1925.618" y="1110.041" fill="#646464" width="24.896" height="6.694"/>
					<path fill="#221F1F" d="M1951.108,1117.328h-26.084v-7.881h26.084V1117.328L1951.108,1117.328z M1926.21,1116.143h23.713v-5.51
						h-23.713V1116.143L1926.21,1116.143z"/>
				</g>
			</g>
		</g>
	</g>
</g>
<g>
	<g>
		<g>
			<rect x="1600.897" y="1262.018" fill="#221F1F" width="37.148" height="24.441"/>
		</g>
		<g>
			<rect x="1609.208" y="1280.832" fill="#221F1F" width="20.527" height="10.275"/>
		</g>
		<g>
			<rect x="1613.608" y="1283.766" fill="#221F1F" width="11.729" height="10.273"/>
		</g>
	</g>
	<g>
		<g>
			<polygon fill="#FFFFFF" points="1611.562,1274.967 1609.782,1274.967 1609.782,1264.701 1611.562,1264.701 1611.562,1274.967 			
				"/>
		</g>
		<g>
			<polygon fill="#FFFFFF" points="1615.961,1274.967 1614.183,1274.967 1614.183,1264.701 1615.961,1264.701 1615.961,1274.967 			
				"/>
		</g>
		<g>
			<polygon fill="#FFFFFF" points="1620.36,1274.967 1618.581,1274.967 1618.581,1264.701 1620.36,1264.701 1620.36,1274.967 			"/>
		</g>
		<g>
			<polygon fill="#FFFFFF" points="1624.759,1274.967 1622.981,1274.967 1622.981,1264.701 1624.759,1264.701 1624.759,1274.967 			
				"/>
		</g>
		<g>
			<polygon fill="#FFFFFF" points="1629.158,1274.967 1627.38,1274.967 1627.38,1264.701 1629.158,1264.701 1629.158,1274.967 			
				"/>
		</g>
	</g>
</g>
<g>
	<g>
		<g>
			<rect x="1648.033" y="1262.018" fill="#221F1F" width="37.148" height="24.441"/>
		</g>
		<g>
			<rect x="1656.344" y="1280.832" fill="#221F1F" width="20.528" height="10.275"/>
		</g>
		<g>
			<rect x="1660.744" y="1283.766" fill="#221F1F" width="11.729" height="10.273"/>
		</g>
	</g>
	<g>
		<g>
			<polygon fill="#FFFFFF" points="1658.697,1274.967 1656.919,1274.967 1656.919,1264.701 1658.697,1264.701 1658.697,1274.967 			
				"/>
		</g>
		<g>
			<polygon fill="#FFFFFF" points="1663.098,1274.967 1661.318,1274.967 1661.318,1264.701 1663.098,1264.701 1663.098,1274.967 			
				"/>
		</g>
		<g>
			<polygon fill="#FFFFFF" points="1667.496,1274.967 1665.718,1274.967 1665.718,1264.701 1667.496,1264.701 1667.496,1274.967 			
				"/>
		</g>
		<g>
			<polygon fill="#FFFFFF" points="1671.896,1274.967 1670.117,1274.967 1670.117,1264.701 1671.896,1264.701 1671.896,1274.967 			
				"/>
		</g>
		<g>
			<polygon fill="#FFFFFF" points="1676.295,1274.967 1674.516,1274.967 1674.516,1264.701 1676.295,1264.701 1676.295,1274.967 			
				"/>
		</g>
	</g>
</g>
<g>
	<g>
		<g>
			<rect x="1695.457" y="1262.018" fill="#221F1F" width="37.149" height="24.441"/>
		</g>
		<g>
			<rect x="1703.768" y="1280.832" fill="#221F1F" width="20.528" height="10.275"/>
		</g>
		<g>
			<rect x="1708.168" y="1283.766" fill="#221F1F" width="11.729" height="10.273"/>
		</g>
	</g>
	<g>
		<g>
			<polygon fill="#FFFFFF" points="1706.121,1274.967 1704.344,1274.967 1704.344,1264.701 1706.121,1264.701 1706.121,1274.967 			
				"/>
		</g>
		<g>
			<polygon fill="#FFFFFF" points="1710.521,1274.967 1708.743,1274.967 1708.743,1264.701 1710.521,1264.701 1710.521,1274.967 			
				"/>
		</g>
		<g>
			<polygon fill="#FFFFFF" points="1714.92,1274.967 1713.143,1274.967 1713.143,1264.701 1714.92,1264.701 1714.92,1274.967 			"/>
		</g>
		<g>
			<polygon fill="#FFFFFF" points="1719.319,1274.967 1717.541,1274.967 1717.541,1264.701 1719.319,1264.701 1719.319,1274.967 			
				"/>
		</g>
		<g>
			<polygon fill="#FFFFFF" points="1723.719,1274.967 1721.94,1274.967 1721.94,1264.701 1723.719,1264.701 1723.719,1274.967 			
				"/>
		</g>
	</g>
</g>
<g>
	<g>
		<g>
			<rect x="1742.882" y="1262.018" fill="#221F1F" width="37.148" height="24.441"/>
		</g>
		<g>
			<rect x="1751.19" y="1280.832" fill="#221F1F" width="20.529" height="10.275"/>
		</g>
		<g>
			<rect x="1755.591" y="1283.766" fill="#221F1F" width="11.729" height="10.273"/>
		</g>
	</g>
	<g>
		<g>
			<polygon fill="#FFFFFF" points="1753.546,1274.967 1751.767,1274.967 1751.767,1264.701 1753.546,1264.701 1753.546,1274.967 			
				"/>
		</g>
		<g>
			<polygon fill="#FFFFFF" points="1757.944,1274.967 1756.167,1274.967 1756.167,1264.701 1757.944,1264.701 1757.944,1274.967 			
				"/>
		</g>
		<g>
			<polygon fill="#FFFFFF" points="1762.345,1274.967 1760.565,1274.967 1760.565,1264.701 1762.345,1264.701 1762.345,1274.967 			
				"/>
		</g>
		<g>
			<polygon fill="#FFFFFF" points="1766.743,1274.967 1764.964,1274.967 1764.964,1264.701 1766.743,1264.701 1766.743,1274.967 			
				"/>
		</g>
		<g>
			<polygon fill="#FFFFFF" points="1771.142,1274.967 1769.364,1274.967 1769.364,1264.701 1771.142,1264.701 1771.142,1274.967 			
				"/>
		</g>
	</g>
</g>
<g>
	<g>
		<g>
			<rect x="1844.306" y="1262.018" fill="#221F1F" width="37.148" height="24.441"/>
		</g>
		<g>
			<rect x="1852.616" y="1280.832" fill="#221F1F" width="20.527" height="10.275"/>
		</g>
		<g>
			<rect x="1857.017" y="1283.766" fill="#221F1F" width="11.729" height="10.273"/>
		</g>
	</g>
	<g>
		<g>
			<polygon fill="#FFFFFF" points="1854.97,1274.967 1853.19,1274.967 1853.19,1264.701 1854.97,1264.701 1854.97,1274.967 			"/>
		</g>
		<g>
			<polygon fill="#FFFFFF" points="1859.368,1274.967 1857.591,1274.967 1857.591,1264.701 1859.368,1264.701 1859.368,1274.967 			
				"/>
		</g>
		<g>
			<polygon fill="#FFFFFF" points="1863.769,1274.967 1861.989,1274.967 1861.989,1264.701 1863.769,1264.701 1863.769,1274.967 			
				"/>
		</g>
		<g>
			<polygon fill="#FFFFFF" points="1868.167,1274.967 1866.39,1274.967 1866.39,1264.701 1868.167,1264.701 1868.167,1274.967 			
				"/>
		</g>
		<g>
			<polygon fill="#FFFFFF" points="1872.565,1274.967 1870.788,1274.967 1870.788,1264.701 1872.565,1264.701 1872.565,1274.967 			
				"/>
		</g>
	</g>
</g>
<g>
	<g>
		<circle fill="#221F1F" cx="1573.004" cy="1277.334" r="14.228"/>
	</g>
	<g>
		<circle fill="#FFFFFF" cx="1573.004" cy="1277.334" r="3.545"/>
	</g>
</g>
<g>
	<g>
		<g>
			<g>
				<path fill="#FFFFFF" d="M1880.733,1270.337c0-1.304-1.066-2.371-2.371-2.371h-31.27c-1.305,0-2.371,1.067-2.371,2.371v18.948
					c0,1.305,1.066,2.371,2.371,2.371h31.27c1.305,0,2.371-1.066,2.371-2.371V1270.337z"/>
			</g>
			<g>
				<path fill="#221F1F" d="M1878.362,1292.25h-31.27c-1.635,0-2.965-1.33-2.965-2.965v-18.948c0-1.634,1.33-2.964,2.965-2.964
					h31.27c1.635,0,2.963,1.33,2.963,2.964v18.948C1881.325,1290.92,1879.997,1292.25,1878.362,1292.25L1878.362,1292.25z
					 M1847.093,1268.559c-0.98,0-1.777,0.797-1.777,1.778v18.948c0,0.98,0.797,1.779,1.777,1.779h31.27
					c0.98,0,1.777-0.799,1.777-1.779v-18.948c0-0.981-0.797-1.778-1.777-1.778H1847.093L1847.093,1268.559z"/>
			</g>
		</g>
		<g>
			<polygon fill="#FFFFFF" points="1880.733,1267.966 1844.722,1267.966 1848.513,1265.122 1876.942,1265.122 			"/>
			<path fill="#221F1F" d="M1880.733,1268.559h-36.012c-0.256,0-0.482-0.164-0.563-0.405c-0.08-0.242,0.002-0.509,0.207-0.662
				l3.791-2.843c0.102-0.078,0.227-0.119,0.355-0.119h28.43c0.129,0,0.254,0.041,0.355,0.119l3.791,2.843
				c0.205,0.153,0.287,0.42,0.207,0.662C1881.216,1268.395,1880.989,1268.559,1880.733,1268.559L1880.733,1268.559z
				 M1846.499,1267.373h32.457l-2.211-1.658h-28.035L1846.499,1267.373L1846.499,1267.373z"/>
		</g>
	</g>
	<g>
		<g>
			<path fill="#FFFFFF" d="M1874.761,1273.229h-24.066c-1.305,0-2.371,1.068-2.371,2.371v8.422c0,1.303,1.066,2.371,2.371,2.371
				h6.449v405.9c0,3.26,2.512,5.928,5.584,5.928s5.584-2.668,5.584-5.928v-405.9h6.449c1.305,0,2.371-1.068,2.371-2.371v-8.422
				C1877.132,1274.297,1876.065,1273.229,1874.761,1273.229z"/>
			<path fill="#221F1F" d="M1862.728,1698.813c-3.406,0-6.178-2.926-6.178-6.52v-405.309h-5.855c-1.635,0-2.965-1.328-2.965-2.963
				v-8.422c0-1.634,1.33-2.963,2.965-2.963h24.066c1.635,0,2.965,1.329,2.965,2.963v8.422c0,1.635-1.33,2.963-2.965,2.963h-5.855
				v405.309C1868.905,1695.887,1866.134,1698.813,1862.728,1698.813L1862.728,1698.813z M1850.694,1273.822
				c-0.98,0-1.779,0.797-1.779,1.777v8.422c0,0.98,0.799,1.777,1.779,1.777h7.041v406.494c0,2.941,2.24,5.334,4.992,5.334
				s4.992-2.393,4.992-5.334v-406.494h7.041c0.98,0,1.779-0.797,1.779-1.777v-8.422c0-0.98-0.799-1.777-1.779-1.777H1850.694
				L1850.694,1273.822z"/>
		</g>
		<g>
			<path fill="#CFD0CB" d="M2011.411,1704.328c0-16.453-13.336-29.787-29.787-29.787c-0.525,0-1.041,0.051-1.561,0.076
				c-5.68-22.76-26.254-39.623-50.771-39.623c-9.727,0-18.828,2.662-26.631,7.285c-6.926-15.037-22.119-25.479-39.76-25.479
				c-17.904,0-33.287,10.754-40.064,26.154c-6.262-2.678-13.152-4.164-20.393-4.164c-23.797,0-43.841,16.018-49.975,37.857
				c-21.385,1.254-38.344,18.988-38.344,40.689c0,22.516,18.252,40.768,40.768,40.768c7.243,0,14.039-1.896,19.935-5.209
				c7.185,11.609,20.03,19.346,34.685,19.346c4.838,0,9.479-0.848,13.783-2.395c9.488,13.982,25.51,23.168,43.678,23.168
				c23.719,0,43.779-15.654,50.416-37.193c7.666,9.219,19.221,15.088,32.146,15.088c21.936,0,39.91-16.904,41.641-38.391
				C2002.937,1728.533,2011.411,1717.43,2011.411,1704.328z"/>
		</g>
		<g>
			<path fill="#221F1F" d="M1811.741,1716.139v-18.621h3.947v18.621H1811.741z"/>
			<path fill="#221F1F" d="M1833.214,1716.139h-3.885v-8.316c0-1.027-0.182-1.799-0.547-2.313s-0.947-0.77-1.744-0.77
				c-1.088,0-1.873,0.361-2.357,1.09c-0.484,0.725-0.725,1.928-0.725,3.609v6.699h-3.885V1701.9h2.967l0.521,1.82h0.217
				c0.434-0.688,1.029-1.207,1.789-1.559c0.76-0.354,1.625-0.529,2.592-0.529c1.656,0,2.912,0.447,3.771,1.344
				c0.857,0.895,1.285,2.188,1.285,3.877V1716.139z"/>
			<path fill="#221F1F" d="M1843.212,1713.299c0.68,0,1.494-0.148,2.445-0.445v2.891c-0.969,0.432-2.156,0.648-3.566,0.648
				c-1.553,0-2.686-0.393-3.395-1.178s-1.063-1.963-1.063-3.533v-6.865h-1.859v-1.643l2.139-1.299l1.121-3.006h2.484v3.031h3.986
				v2.916h-3.986v6.865c0,0.551,0.154,0.959,0.465,1.223C1842.292,1713.166,1842.702,1713.299,1843.212,1713.299z"/>
			<path fill="#221F1F" d="M1854.979,1716.393c-2.293,0-4.084-0.631-5.375-1.896s-1.936-3.057-1.936-5.375
				c0-2.387,0.598-4.23,1.789-5.533c1.193-1.305,2.842-1.955,4.949-1.955c2.012,0,3.578,0.572,4.699,1.719s1.682,2.73,1.682,4.75
				v1.885h-9.184c0.043,1.104,0.369,1.967,0.98,2.586s1.469,0.93,2.574,0.93c0.855,0,1.668-0.09,2.432-0.268
				s1.563-0.463,2.395-0.854v3.006c-0.68,0.34-1.406,0.592-2.178,0.758C1857.034,1716.311,1856.093,1716.393,1854.979,1716.393z
				 M1854.433,1704.396c-0.824,0-1.469,0.262-1.936,0.781c-0.469,0.523-0.734,1.264-0.803,2.225h5.451
				c-0.018-0.961-0.268-1.701-0.752-2.225C1855.909,1704.658,1855.255,1704.396,1854.433,1704.396z"/>
			<path fill="#221F1F" d="M1871.894,1701.633c0.525,0,0.963,0.037,1.313,0.113l-0.293,3.643c-0.314-0.084-0.697-0.127-1.146-0.127
				c-1.24,0-2.207,0.318-2.898,0.955s-1.037,1.529-1.037,2.676v7.246h-3.885V1701.9h2.941l0.574,2.395h0.189
				c0.441-0.799,1.039-1.441,1.791-1.93C1870.192,1701.877,1871.011,1701.633,1871.894,1701.633z"/>
			<path fill="#221F1F" d="M1888.935,1716.139h-3.885v-8.316c0-1.027-0.184-1.799-0.549-2.313s-0.945-0.77-1.744-0.77
				c-1.088,0-1.871,0.361-2.355,1.09c-0.484,0.725-0.727,1.928-0.727,3.609v6.699h-3.885V1701.9h2.969l0.521,1.82h0.217
				c0.434-0.688,1.029-1.207,1.789-1.559c0.76-0.354,1.623-0.529,2.592-0.529c1.656,0,2.912,0.447,3.77,1.344
				c0.857,0.895,1.287,2.188,1.287,3.877V1716.139z"/>
			<path fill="#221F1F" d="M1899.378,1716.393c-2.293,0-4.084-0.631-5.375-1.896s-1.936-3.057-1.936-5.375
				c0-2.387,0.596-4.23,1.789-5.533c1.193-1.305,2.842-1.955,4.947-1.955c2.014,0,3.58,0.572,4.701,1.719
				c1.119,1.146,1.68,2.73,1.68,4.75v1.885h-9.182c0.041,1.104,0.369,1.967,0.98,2.586s1.469,0.93,2.572,0.93
				c0.857,0,1.668-0.09,2.434-0.268c0.764-0.178,1.561-0.463,2.393-0.854v3.006c-0.678,0.34-1.404,0.592-2.178,0.758
				C1901.433,1716.311,1900.489,1716.393,1899.378,1716.393z M1898.829,1704.396c-0.822,0-1.469,0.262-1.936,0.781
				c-0.467,0.523-0.734,1.264-0.803,2.225h5.451c-0.018-0.961-0.268-1.701-0.75-2.225
				C1900.308,1704.658,1899.653,1704.396,1898.829,1704.396z"/>
			<path fill="#221F1F" d="M1914.343,1713.299c0.678,0,1.494-0.148,2.445-0.445v2.891c-0.969,0.432-2.158,0.648-3.566,0.648
				c-1.555,0-2.686-0.393-3.395-1.178s-1.063-1.963-1.063-3.533v-6.865h-1.859v-1.643l2.139-1.299l1.121-3.006h2.484v3.031h3.986
				v2.916h-3.986v6.865c0,0.551,0.154,0.959,0.465,1.223C1913.423,1713.166,1913.833,1713.299,1914.343,1713.299z"/>
		</g>
	</g>
</g>
<g>
	<g>
		<g>
			<g>
				<path fill="#FFFFFF" d="M1601.599,1270.337c0-1.304,1.066-2.371,2.371-2.371h31.268c1.305,0,2.371,1.067,2.371,2.371v18.948
					c0,1.305-1.066,2.371-2.371,2.371h-31.268c-1.305,0-2.371-1.066-2.371-2.371V1270.337z"/>
			</g>
			<g>
				<path fill="#221F1F" d="M1603.97,1292.25c-1.635,0-2.965-1.33-2.965-2.965v-18.948c0-1.634,1.33-2.964,2.965-2.964h31.268
					c1.635,0,2.965,1.33,2.965,2.964v18.948c0,1.635-1.33,2.965-2.965,2.965H1603.97L1603.97,1292.25z M1635.237,1268.559h-31.268
					c-0.982,0-1.779,0.797-1.779,1.778v18.948c0,0.98,0.797,1.779,1.779,1.779h31.268c0.98,0,1.779-0.799,1.779-1.779v-18.948
					C1637.017,1269.355,1636.218,1268.559,1635.237,1268.559L1635.237,1268.559z"/>
			</g>
		</g>
		<g>
			<polygon fill="#FFFFFF" points="1601.599,1267.966 1637.608,1267.966 1633.819,1265.122 1605.388,1265.122 			"/>
			<path fill="#221F1F" d="M1601.599,1268.559c-0.256,0-0.482-0.164-0.563-0.405c-0.082-0.242,0.002-0.509,0.207-0.662l3.789-2.843
				c0.104-0.078,0.229-0.119,0.355-0.119h28.432c0.127,0,0.252,0.041,0.355,0.119l3.789,2.843c0.205,0.153,0.289,0.42,0.207,0.662
				c-0.08,0.241-0.307,0.405-0.563,0.405H1601.599L1601.599,1268.559z M1635.831,1267.373l-2.209-1.658h-28.037l-2.209,1.658
				H1635.831L1635.831,1267.373z"/>
		</g>
	</g>
	<g>
		<path fill="#FFFFFF" d="M1328.048,1424.705h280.043c3.26,0,5.928-2.666,5.928-5.928v-132.385h-6.449
			c-1.305,0-2.371-1.068-2.371-2.371v-8.422c0-1.303,1.066-2.371,2.371-2.371h24.068c1.305,0,2.371,1.068,2.371,2.371v8.422
			c0,1.303-1.066,2.371-2.371,2.371h-6.449v133.555c0,11.258-4.668,15.928-15.928,15.928h-281.213c-3.262,0-5.928-2.514-5.928-5.586
			C1322.12,1427.219,1324.786,1424.705,1328.048,1424.705z"/>
		<path fill="#221F1F" d="M1328.048,1436.469c-3.596,0-6.521-2.771-6.521-6.18c0-3.406,2.926-6.176,6.521-6.176h280.043
			c2.941,0,5.336-2.393,5.336-5.336v-131.793h-5.857c-1.635,0-2.963-1.328-2.963-2.963v-8.422c0-1.634,1.328-2.963,2.963-2.963
			h24.068c1.635,0,2.963,1.329,2.963,2.963v8.422c0,1.635-1.328,2.963-2.963,2.963h-5.857v132.963
			c0,11.594-4.924,16.521-16.52,16.521H1328.048L1328.048,1436.469z M1631.638,1273.822h-24.068c-0.98,0-1.777,0.797-1.777,1.777
			v8.422c0,0.98,0.797,1.777,1.777,1.777h7.043v132.979c0,3.596-2.926,6.521-6.521,6.521h-280.043c-2.943,0-5.336,2.238-5.336,4.99
			c0,2.754,2.393,4.994,5.336,4.994h281.213c10.939,0,15.334-4.395,15.334-15.336v-134.148h7.043c0.98,0,1.777-0.797,1.777-1.777
			v-8.422C1633.415,1274.619,1632.618,1273.822,1631.638,1273.822L1631.638,1273.822z"/>
	</g>
	<g>
		<g>
			<g>
				<path fill="#FFFFFF" d="M1333.53,1416.822c0.652,0,1.186,0.533,1.186,1.186v24.113c0,0.652-0.533,1.186-1.186,1.186h-25.891
					c-0.652,0-1.186-0.533-1.186-1.186v-24.113c0-0.652,0.533-1.186,1.186-1.186H1333.53z"/>
			</g>
			<g>
				<path fill="#221F1F" d="M1307.64,1443.9c-0.98,0-1.779-0.799-1.779-1.779v-24.113c0-0.98,0.799-1.777,1.779-1.777h25.891
					c0.98,0,1.779,0.797,1.779,1.777v24.113c0,0.98-0.799,1.779-1.779,1.779H1307.64L1307.64,1443.9z M1333.53,1417.416h-25.891
					c-0.328,0-0.594,0.266-0.594,0.592v24.113c0,0.328,0.266,0.594,0.594,0.594h25.891c0.328,0,0.594-0.266,0.594-0.594v-24.113
					C1334.124,1417.682,1333.858,1417.416,1333.53,1417.416L1333.53,1417.416z"/>
			</g>
		</g>
		<g>
			<path fill="#FFFFFF" d="M1322.251,1415.799l14.539,0.813c0.389,0.02,0.717,0.24,0.934,0.543l26.268,6.025v13.771l-26.266,6.023
				c-0.217,0.305-0.547,0.525-0.936,0.545l-14.539,0.813c-0.652,0.035-1.186-0.467-1.186-1.119v-26.295
				C1321.065,1416.266,1321.599,1415.764,1322.251,1415.799z"/>
			<path fill="#221F1F" d="M1322.185,1444.928c-0.459,0-0.889-0.178-1.211-0.498c-0.322-0.322-0.5-0.756-0.5-1.217v-26.295
				c0-0.959,0.748-1.711,1.803-1.711c0.002,0,0.006,0,0.006,0l14.541,0.813c0.465,0.023,0.902,0.242,1.232,0.602l26.527,6.086
				v14.717l-26.527,6.084c-0.33,0.361-0.768,0.58-1.232,0.604l-14.541,0.813L1322.185,1444.928L1322.185,1444.928L1322.185,1444.928
				z M1363.397,1436.48v-12.83l-25.807-5.918l-0.219-0.051l-0.131-0.184c-0.061-0.084-0.229-0.281-0.484-0.297l-14.572-0.813
				c-0.301,0-0.525,0.229-0.525,0.529v26.295c0,0.145,0.053,0.279,0.152,0.377c0.098,0.098,0.23,0.152,0.373,0.152l0,0v0.592
				l0.033-0.594l14.541-0.811c0.254-0.016,0.424-0.215,0.484-0.299l0.129-0.184L1363.397,1436.48L1363.397,1436.48z"/>
		</g>
	</g>
</g>
<g>
	<path fill="#221F1F" d="M1340.304,1478.175h-10.724v-18.619h10.724v3.234h-6.775v4.088h6.304v3.234h-6.304v4.803h6.775V1478.175z"
		/>
	<path fill="#221F1F" d="M1349.881,1475.335c0.68,0,1.494-0.148,2.445-0.445v2.891c-0.968,0.434-2.156,0.648-3.565,0.648
		c-1.554,0-2.686-0.393-3.395-1.178s-1.063-1.963-1.063-3.533v-6.865h-1.859v-1.643l2.14-1.299l1.121-3.006h2.483v3.031h3.986v2.916
		h-3.986v6.865c0,0.551,0.154,0.959,0.465,1.223C1348.962,1475.202,1349.372,1475.335,1349.881,1475.335z"/>
	<path fill="#221F1F" d="M1368.349,1478.175h-3.885v-8.316c0-2.055-0.765-3.082-2.292-3.082c-1.088,0-1.873,0.369-2.356,1.107
		c-0.484,0.738-0.726,1.936-0.726,3.592v6.699h-3.885v-19.816h3.885v4.037c0,0.313-0.031,1.053-0.09,2.215l-0.089,1.146h0.204
		c0.865-1.393,2.241-2.088,4.126-2.088c1.673,0,2.942,0.449,3.808,1.35c0.867,0.9,1.3,2.191,1.3,3.871V1478.175z"/>
	<path fill="#221F1F" d="M1378.792,1478.429c-2.292,0-4.084-0.631-5.374-1.896c-1.291-1.266-1.937-3.057-1.937-5.375
		c0-2.387,0.597-4.23,1.79-5.533c1.191-1.305,2.842-1.955,4.947-1.955c2.012,0,3.579,0.572,4.699,1.719
		c1.121,1.146,1.682,2.73,1.682,4.75v1.885h-9.183c0.042,1.104,0.369,1.967,0.98,2.586s1.469,0.93,2.573,0.93
		c0.857,0,1.668-0.088,2.432-0.268c0.765-0.178,1.563-0.463,2.395-0.854v3.006c-0.68,0.34-1.405,0.592-2.178,0.76
		C1380.847,1478.347,1379.904,1478.429,1378.792,1478.429z M1378.244,1466.433c-0.824,0-1.469,0.262-1.936,0.781
		c-0.467,0.523-0.734,1.264-0.803,2.225h5.451c-0.018-0.961-0.268-1.701-0.752-2.225
		C1379.722,1466.694,1379.067,1466.433,1378.244,1466.433z"/>
	<path fill="#221F1F" d="M1395.705,1463.669c0.526,0,0.963,0.037,1.313,0.113l-0.293,3.643c-0.314-0.084-0.697-0.127-1.146-0.127
		c-1.24,0-2.206,0.318-2.897,0.955c-0.692,0.637-1.038,1.529-1.038,2.676v7.246h-3.885v-14.238h2.942l0.573,2.395h0.191
		c0.44-0.799,1.037-1.441,1.789-1.93C1394.005,1463.913,1394.822,1463.669,1395.705,1463.669z"/>
	<path fill="#221F1F" d="M1412.746,1478.175h-3.885v-8.316c0-1.027-0.183-1.799-0.547-2.313c-0.366-0.514-0.947-0.77-1.745-0.77
		c-1.087,0-1.872,0.361-2.356,1.09c-0.484,0.725-0.727,1.928-0.727,3.609v6.699h-3.884v-14.238h2.968l0.521,1.82h0.217
		c0.434-0.688,1.029-1.207,1.789-1.559c0.76-0.354,1.624-0.529,2.592-0.529c1.656,0,2.912,0.447,3.771,1.344
		c0.857,0.895,1.286,2.188,1.286,3.877V1478.175z"/>
	<path fill="#221F1F" d="M1423.189,1478.429c-2.292,0-4.084-0.631-5.375-1.896c-1.29-1.266-1.936-3.057-1.936-5.375
		c0-2.387,0.597-4.23,1.789-5.533c1.193-1.305,2.843-1.955,4.948-1.955c2.013,0,3.579,0.572,4.7,1.719
		c1.12,1.146,1.681,2.73,1.681,4.75v1.885h-9.183c0.042,1.104,0.369,1.967,0.98,2.586s1.469,0.93,2.573,0.93
		c0.857,0,1.668-0.088,2.433-0.268c0.764-0.178,1.562-0.463,2.395-0.854v3.006c-0.68,0.34-1.406,0.592-2.179,0.76
		C1425.244,1478.347,1424.302,1478.429,1423.189,1478.429z M1422.642,1466.433c-0.823,0-1.469,0.262-1.936,0.781
		c-0.467,0.523-0.734,1.264-0.803,2.225h5.451c-0.018-0.961-0.268-1.701-0.751-2.225
		C1424.119,1466.694,1423.465,1466.433,1422.642,1466.433z"/>
	<path fill="#221F1F" d="M1438.154,1475.335c0.679,0,1.494-0.148,2.445-0.445v2.891c-0.968,0.434-2.157,0.648-3.566,0.648
		c-1.554,0-2.686-0.393-3.394-1.178c-0.709-0.785-1.063-1.963-1.063-3.533v-6.865h-1.859v-1.643l2.14-1.299l1.12-3.006h2.484v3.031
		h3.986v2.916h-3.986v6.865c0,0.551,0.154,0.959,0.465,1.223C1437.235,1475.202,1437.645,1475.335,1438.154,1475.335z"/>
</g>
<g>
	<path fill="#221F1F" d="M1001.804,1362.785v12.049c0,1.375-0.307,2.58-0.924,3.616c-0.615,1.037-1.504,1.83-2.668,2.382
		c-1.162,0.553-2.539,0.828-4.125,0.828c-2.395,0-4.254-0.613-5.58-1.841c-1.324-1.227-1.986-2.905-1.986-5.037v-11.997h3.936
		v11.399c0,1.434,0.289,2.487,0.867,3.158c0.576,0.67,1.531,1.006,2.865,1.006c1.289,0,2.227-0.338,2.809-1.012
		c0.58-0.676,0.871-1.734,0.871-3.178v-11.374H1001.804z"/>
	<path fill="#221F1F" d="M1017.354,1376.234c0,1.682-0.605,3.006-1.814,3.974c-1.211,0.968-2.895,1.452-5.051,1.452
		c-1.986,0-3.744-0.374-5.271-1.121v-3.668c1.256,0.561,2.32,0.956,3.191,1.185c0.869,0.229,1.664,0.344,2.387,0.344
		c0.865,0,1.531-0.165,1.994-0.496c0.461-0.331,0.693-0.823,0.693-1.478c0-0.365-0.102-0.69-0.307-0.974
		c-0.203-0.285-0.504-0.56-0.896-0.822c-0.396-0.263-1.199-0.684-2.414-1.261c-1.139-0.535-1.992-1.049-2.561-1.541
		s-1.023-1.065-1.363-1.72c-0.338-0.654-0.508-1.418-0.508-2.292c0-1.647,0.557-2.942,1.674-3.885s2.66-1.414,4.629-1.414
		c0.969,0,1.893,0.115,2.77,0.345c0.881,0.229,1.799,0.552,2.758,0.968l-1.273,3.069c-0.992-0.408-1.814-0.692-2.463-0.854
		c-0.65-0.161-1.289-0.242-1.918-0.242c-0.748,0-1.32,0.174-1.719,0.522c-0.4,0.349-0.6,0.802-0.6,1.362
		c0,0.349,0.082,0.652,0.242,0.911c0.162,0.259,0.418,0.51,0.771,0.751c0.352,0.243,1.186,0.677,2.502,1.306
		c1.74,0.833,2.934,1.666,3.58,2.503C1017.032,1373.995,1017.354,1375.021,1017.354,1376.234z"/>
	<path fill="#221F1F" d="M1020.729,1362.785h5.795c2.641,0,4.557,0.376,5.752,1.128c1.191,0.75,1.787,1.946,1.787,3.585
		c0,1.112-0.26,2.024-0.783,2.738c-0.521,0.713-1.215,1.142-2.082,1.286v0.127c1.18,0.263,2.031,0.756,2.555,1.478
		c0.521,0.722,0.783,1.682,0.783,2.878c0,1.699-0.613,3.023-1.842,3.975c-1.227,0.95-2.893,1.426-4.998,1.426h-6.967V1362.785z
		 M1024.679,1370.159h2.291c1.07,0,1.846-0.165,2.326-0.496c0.479-0.331,0.719-0.879,0.719-1.644c0-0.713-0.262-1.225-0.783-1.534
		s-1.35-0.465-2.479-0.465h-2.074V1370.159z M1024.679,1373.293v4.853h2.572c1.086,0,1.889-0.209,2.406-0.625
		c0.518-0.415,0.777-1.052,0.777-1.91c0-1.545-1.105-2.317-3.311-2.317H1024.679z"/>
</g>
<path fill="#221F1F" d="M1052.787,1368.758c0-3.118,2.551-5.669,5.669-5.669h247.415c3.118,0,5.67,2.551,5.67,5.669v161.288
	c0,3.118-2.552,5.669-5.67,5.669h-247.415c-3.118,0-5.669-2.551-5.669-5.669V1368.758z"/>
<text transform="matrix(1 0 0 1 1083.9043 1455.4023)" fill="#FFFFFF" font-family="'OpenSans-Bold'" font-size="22">BeagleBone Black</text>
</svg>
