<?xml version="1.0" encoding="utf-8"?>
<!-- Generator: Adobe Illustrator 14.0.0, SVG Export Plug-In . SVG Version: 6.00 Build 43363)  -->
<!DOCTYPE svg PUBLIC "-//W3C//DTD SVG 1.1//EN" "http://www.w3.org/Graphics/SVG/1.1/DTD/svg11.dtd">
<svg version="1.1" id="Слой_1" xmlns="http://www.w3.org/2000/svg" xmlns:xlink="http://www.w3.org/1999/xlink" x="0px" y="0px"
	 width="2834.65px" height="2834.65px" viewBox="0 0 2834.65 2834.65" enable-background="new 0 0 2834.65 2834.65"
	 xml:space="preserve">
<g>
	<g>
		<g>
			<g>
				<path fill="#FFFFFF" d="M977.949,789.443c0-1.304-1.068-2.371-2.371-2.371h-78.631c-1.305,0-2.371,1.067-2.371,2.371v78.635
					c0,1.304,1.066,2.371,2.371,2.371h78.631c1.303,0,2.371-1.067,2.371-2.371V789.443z"/>
			</g>
			<g>
				<path fill="#221F1F" d="M896.947,786.479h78.631c1.635,0,2.963,1.329,2.963,2.964v78.635c0,1.635-1.328,2.964-2.963,2.964
					h-78.631c-1.635,0-2.965-1.329-2.965-2.964v-78.635C893.982,787.809,895.313,786.479,896.947,786.479L896.947,786.479z
					 M975.578,869.856c0.98,0,1.777-0.798,1.777-1.778v-78.635c0-0.98-0.797-1.778-1.777-1.778h-78.631
					c-0.98,0-1.779,0.798-1.779,1.778v78.635c0,0.98,0.799,1.778,1.779,1.778H975.578L975.578,869.856z"/>
			</g>
		</g>
		<g>
			<g>
				<path fill="#FFFFFF" d="M971.182,796.21c0-1.304-1.066-2.371-2.371-2.371h-65.098c-1.303,0-2.371,1.067-2.371,2.371v65.102
					c0,1.304,1.068,2.371,2.371,2.371h65.098c1.305,0,2.371-1.067,2.371-2.371V796.21z"/>
			</g>
			<g>
				<path fill="#221F1F" d="M903.713,793.246h65.098c1.635,0,2.965,1.329,2.965,2.964v65.102c0,1.635-1.33,2.964-2.965,2.964
					h-65.098c-1.635,0-2.963-1.329-2.963-2.964V796.21C900.75,794.575,902.078,793.246,903.713,793.246L903.713,793.246z
					 M968.811,863.09c0.982,0,1.779-0.798,1.779-1.778V796.21c0-0.98-0.797-1.778-1.779-1.778h-65.098
					c-0.98,0-1.777,0.798-1.777,1.778v65.102c0,0.98,0.797,1.778,1.777,1.778H968.811L968.811,863.09z"/>
			</g>
		</g>
		<g>
			<g>
				<path fill="#FFFFFF" d="M957.523,828.761c0-13.541-9.523-22.108-21.26-22.108c-11.738,0-21.258,8.567-21.258,22.108
					s9.52,22.108,21.258,22.108C948,850.869,957.523,842.302,957.523,828.761z"/>
				<path fill="#221F1F" d="M936.264,806.06c12.66,0,21.852,9.547,21.852,22.701s-9.191,22.701-21.852,22.701
					c-12.662,0-21.85-9.547-21.85-22.701S923.602,806.06,936.264,806.06L936.264,806.06z M936.264,850.276
					c11.975,0,20.666-9.048,20.666-21.516s-8.691-21.516-20.666-21.516s-20.664,9.048-20.664,21.516
					S924.289,850.276,936.264,850.276L936.264,850.276z"/>
			</g>
			<g>
				<g>
					<rect x="928.734" y="823.02" fill="#FFFFFF" width="3.24" height="11.412"/>
					<path fill="#221F1F" d="M928.143,822.426h4.426v12.599h-4.426V822.426L928.143,822.426z M931.383,823.612h-2.055v10.227h2.055
						V823.612L931.383,823.612z"/>
				</g>
				<g>
					<rect x="940.551" y="823.02" fill="#FFFFFF" width="3.242" height="11.412"/>
					<path fill="#221F1F" d="M939.959,822.426h4.426v12.599h-4.426V822.426L939.959,822.426z M943.199,823.612h-2.055v10.227h2.055
						V823.612L943.199,823.612z"/>
				</g>
			</g>
		</g>
	</g>
	<g>
		<g>
			<g>
				<circle fill="#221F1F" cx="936.264" cy="828.761" r="21.664"/>
				<path fill="#221F1F" d="M936.264,806.504c12.271,0,22.258,9.984,22.258,22.257s-9.986,22.257-22.258,22.257
					c-12.273,0-22.258-9.984-22.258-22.257S923.99,806.504,936.264,806.504L936.264,806.504z M936.264,849.832
					c11.619,0,21.072-9.453,21.072-21.071c0-11.619-9.453-21.071-21.072-21.071s-21.072,9.452-21.072,21.071
					C915.191,840.379,924.645,849.832,936.264,849.832L936.264,849.832z"/>
			</g>
			<g>
				<path fill="#FFFFFF" d="M914.828,826.548v4.945h3.158v9.411h0.338c3.896,5.743,10.475,9.521,17.939,9.521
					c7.463,0,14.047-3.774,17.943-9.52l0.092-9.412h3.064v-4.945h-3.016l0.096-9.573c-3.863-5.946-10.563-9.878-18.18-9.878
					c-7.686,0-14.438,4.003-18.283,10.037l0.006,0.577v8.837H914.828z"/>
				<path fill="#221F1F" d="M936.264,806.504c7.566,0,14.549,3.793,18.676,10.147c0.064,0.099,0.098,0.212,0.096,0.328l-0.088,8.976
					h2.416c0.328,0,0.592,0.266,0.592,0.593v4.945c0,0.327-0.264,0.593-0.592,0.593h-2.477l-0.088,8.825
					c0,0.116-0.037,0.23-0.102,0.326c-4.152,6.124-11.045,9.78-18.434,9.78c-7.281,0-14.078-3.554-18.25-9.521h-0.027
					c-0.328,0-0.594-0.266-0.594-0.593v-8.818h-2.564c-0.328,0-0.592-0.266-0.592-0.593v-4.945c0-0.327,0.264-0.593,0.592-0.593
					h2.564l-0.006-8.815c0-0.114,0.031-0.227,0.094-0.324C921.596,810.358,928.617,806.504,936.264,806.504L936.264,806.504z
					 M953.848,817.148c-3.92-5.927-10.479-9.459-17.584-9.459c-7.182,0-13.779,3.592-17.689,9.616l0.004,0.399v8.843
					c0,0.328-0.266,0.593-0.592,0.593h-2.564v3.76h2.564c0.326,0,0.592,0.266,0.592,0.593v8.875
					c0.094,0.045,0.178,0.114,0.238,0.203c3.932,5.799,10.455,9.261,17.447,9.261c6.938,0,13.41-3.403,17.352-9.113l0.092-9.231
					c0.002-0.325,0.268-0.587,0.592-0.587h2.471v-3.76h-2.422c-0.158,0-0.311-0.063-0.422-0.176s-0.172-0.264-0.17-0.423
					L953.848,817.148L953.848,817.148z"/>
			</g>
			<g>
				<path fill="#FFFFFF" d="M940.66,870.146l0.459-16.993l3.332-3.557v-26.091h-16.377v26.091l3.332,3.557l0.457,16.993l1.186,1.296
					v113.618c0,6.423,4.248,10.671,10.67,10.671h156.742c3.262,0,5.93-1.446,5.93-3.213c0-1.769-2.668-3.214-5.93-3.214H945.402
					c-3.26,0-5.928-2.668-5.928-5.929V871.442L940.66,870.146z"/>
				<path fill="#221F1F" d="M928.074,822.912h16.377c0.328,0,0.592,0.266,0.592,0.594v26.091c0,0.15-0.057,0.295-0.158,0.405
					l-3.178,3.393l-0.453,16.769c-0.004,0.143-0.061,0.279-0.156,0.385l-1.029,1.125v111.703c0,2.942,2.393,5.335,5.334,5.335
					h155.059c3.658,0,6.521,1.672,6.521,3.808c0,2.134-2.863,3.806-6.521,3.806H943.719c-6.736,0-11.264-4.526-11.264-11.264
					V871.673l-1.029-1.125c-0.096-0.105-0.15-0.242-0.156-0.385l-0.451-16.769l-3.176-3.393c-0.104-0.11-0.16-0.255-0.16-0.405
					v-26.091C927.482,823.178,927.748,822.912,928.074,822.912L928.074,822.912z M943.857,824.098h-15.189v25.266l3.17,3.385
					c0.1,0.105,0.156,0.244,0.16,0.39l0.451,16.771l1.037,1.133c0.1,0.11,0.154,0.252,0.154,0.4v113.618
					c0,6.122,3.957,10.078,10.078,10.078h156.742c3.146,0,5.336-1.382,5.336-2.62c0-1.24-2.189-2.621-5.336-2.621H945.402
					c-3.596,0-6.521-2.927-6.521-6.521V871.442c0-0.148,0.057-0.29,0.156-0.4l1.035-1.133l0.455-16.771
					c0.004-0.146,0.061-0.284,0.16-0.39l3.17-3.385V824.098L943.857,824.098z"/>
			</g>
			<g>
				<path fill="#FFFFFF" d="M918.008,817.091c0,0,3.736-3.97,12.438-5.327v8.931l-2.371,2.812h16.377l-2.371-2.812v-8.96
					c8.639,1.327,12.361,5.356,12.361,5.356l0.002-0.116c-2.932-4.512-7.496-7.858-12.855-9.213
					c-4.512-1.109-6.588-1.109-10.654,0.002C925.531,809.131,920.936,812.522,918.008,817.091z"/>
				<path fill="#221F1F" d="M936.096,806.337L936.096,806.337c1.549,0,3.182,0.246,5.635,0.849
					c5.449,1.378,10.139,4.739,13.209,9.466c0.064,0.099,0.098,0.212,0.096,0.328c-0.002,0.242-0.152,0.518-0.379,0.604
					c-0.227,0.09-0.484,0.086-0.648-0.09c-0.037-0.037-3.516-3.687-11.336-5.063v8.046l2.232,2.646
					c0.148,0.176,0.182,0.423,0.084,0.633c-0.098,0.208-0.307,0.342-0.537,0.342h-16.377c-0.23,0-0.439-0.134-0.537-0.342
					c-0.098-0.21-0.064-0.457,0.084-0.633l2.232-2.646v-8.015c-7.885,1.399-11.379,4.999-11.414,5.036
					c-0.211,0.22-0.557,0.246-0.795,0.059c-0.242-0.188-0.301-0.529-0.135-0.786c3.066-4.789,7.783-8.191,13.279-9.582
					C933,806.585,934.539,806.337,936.096,806.337L936.096,806.337z M951.537,814.24c-2.725-2.87-6.205-4.922-10.094-5.904
					c-2.35-0.577-3.9-0.813-5.348-0.813l0,0c-1.441,0-2.893,0.235-5.004,0.813c-3.893,0.985-7.369,3.031-10.09,5.891
					c2.076-1.143,5.145-2.392,9.352-3.049c0.17-0.027,0.348,0.023,0.479,0.136s0.207,0.276,0.207,0.45v8.931
					c0,0.14-0.051,0.275-0.141,0.382l-1.547,1.836h13.824l-1.549-1.836c-0.09-0.106-0.141-0.242-0.141-0.382v-8.96
					c0-0.173,0.076-0.338,0.207-0.451c0.131-0.112,0.305-0.163,0.477-0.135C946.398,811.798,949.473,813.076,951.537,814.24
					L951.537,814.24z"/>
			</g>
		</g>
		<g>
			<g>
				<path fill="#FFFFFF" d="M1113.342,983.299l-11.41,0.53c-1.785,0.188-2.613,0.188-2.613,0.188l-31.336,3.939v9.002l31.334,3.937
					c0,0,0.828,0,2.615,0.191l11.41,0.53c0.789,0.023,3.084-1.132,3.084-1.557v-15.205
					C1116.426,984.432,1114.131,983.275,1113.342,983.299z"/>
				<path fill="#221F1F" d="M1113.367,982.706c0.75,0,3.65,1.119,3.65,2.149v15.205c0,1.03-2.9,2.15-3.65,2.15l-11.463-0.532
					c-1.76-0.188-2.58-0.19-2.588-0.19l-31.928-4.006v-10.049l31.855-4.004c0.082-0.005,0.902-0.008,2.625-0.19L1113.367,982.706
					L1113.367,982.706z M1115.832,985.008c-0.387-0.365-1.951-1.116-2.467-1.116l0.002-0.593l-0.008,0.593l-11.398,0.529
					c-1.764,0.188-2.607,0.189-2.643,0.189l-30.744,3.869v7.956l30.816,3.871c-0.037-0.006,0.816-0.001,2.605,0.191l11.375,0.528
					c0.51-0.002,2.074-0.753,2.461-1.116V985.008L1115.832,985.008z"/>
			</g>
			<g>
				<g>
					<path fill="#FFFFFF" d="M1082.025,987.395c0-0.651-0.529-1.119-1.176-1.039l-11.691,1.455c-0.646,0.08-1.176,0.68-1.176,1.332
						v6.631c0,0.651,0.529,1.251,1.176,1.331l11.691,1.454c0.646,0.08,1.176-0.388,1.176-1.04V987.395z"/>
				</g>
				<g>
					<path fill="#221F1F" d="M1080.992,985.753c0.912,0,1.625,0.722,1.625,1.642v10.124c0,0.993-0.834,1.751-1.842,1.628
						l-11.689-1.454c-0.951-0.116-1.697-0.961-1.697-1.919v-6.631c0-0.959,0.746-1.803,1.697-1.92l11.689-1.455
						C1080.85,985.758,1080.92,985.753,1080.992,985.753L1080.992,985.753z M1080.934,997.971c0.322,0,0.498-0.187,0.498-0.452
						v-10.124c0-0.269-0.18-0.456-0.439-0.456l-0.07,0.005l-11.691,1.455c-0.35,0.043-0.656,0.391-0.656,0.744v6.631
						c0,0.353,0.307,0.7,0.656,0.743l11.691,1.454C1080.926,997.971,1080.93,997.971,1080.934,997.971L1080.934,997.971z"/>
				</g>
			</g>
			<g>
				<g>
					<path fill="#FFFFFF" d="M1077.738,987.93c0-0.651-0.529-1.119-1.178-1.039l-7.402,0.92c-0.646,0.08-1.176,0.68-1.176,1.332
						v6.631c0,0.651,0.529,1.251,1.176,1.331l7.402,0.921c0.648,0.079,1.178-0.389,1.178-1.04V987.93z"/>
				</g>
				<g>
					<path fill="#221F1F" d="M1076.705,986.288c0.91,0,1.625,0.722,1.625,1.642v9.056c0,0.992-0.828,1.753-1.842,1.628l-7.402-0.921
						c-0.951-0.116-1.697-0.961-1.697-1.919v-6.631c0-0.959,0.746-1.803,1.697-1.92l7.402-0.921
						C1076.561,986.293,1076.633,986.288,1076.705,986.288L1076.705,986.288z M1076.646,997.437c0.32,0,0.498-0.187,0.498-0.451
						v-9.056c0-0.269-0.18-0.456-0.439-0.456l-0.07,0.005l-7.404,0.92c-0.35,0.043-0.656,0.391-0.656,0.744v6.631
						c0,0.353,0.307,0.7,0.656,0.743l7.404,0.92C1076.637,997.437,1076.643,997.437,1076.646,997.437L1076.646,997.437z"/>
				</g>
			</g>
			<g>
				<g>
					<path fill="#FFFFFF" d="M1073.449,988.464c0-0.652-0.529-1.12-1.176-1.04l-3.115,0.387c-0.646,0.08-1.176,0.68-1.176,1.332
						v6.631c0,0.651,0.529,1.251,1.176,1.331l3.115,0.388c0.646,0.08,1.176-0.388,1.176-1.039V988.464z"/>
				</g>
				<g>
					<path fill="#221F1F" d="M1072.416,986.822c0.912,0,1.625,0.721,1.625,1.642v7.989c0,0.99-0.83,1.754-1.842,1.627l-3.113-0.388
						c-0.951-0.116-1.697-0.961-1.697-1.919v-6.631c0-0.959,0.746-1.803,1.697-1.92l3.113-0.387
						C1072.273,986.826,1072.344,986.822,1072.416,986.822L1072.416,986.822z M1072.357,996.904c0.322,0,0.498-0.187,0.498-0.451
						v-7.989c0-0.269-0.18-0.456-0.439-0.456l-0.07,0.004l-3.115,0.387c-0.35,0.043-0.656,0.391-0.656,0.744v6.631
						c0,0.353,0.307,0.7,0.656,0.743l3.115,0.388C1072.35,996.904,1072.354,996.904,1072.357,996.904L1072.357,996.904z"/>
				</g>
			</g>
		</g>
	</g>
	<g>
		<g>
			<path fill="#FFFFFF" d="M1146.516,1134.169c-2.746,0-4.992,16.006-4.992,35.568v34.63v23.921v48.652
				c0,19.563,2.246,35.568,4.992,35.568c2.744,0,4.99-16.006,4.99-35.568v-46.569v-24.97v-35.664
				C1151.506,1150.175,1149.26,1134.169,1146.516,1134.169z"/>
			<path fill="#221F1F" d="M1146.516,1133.576c-4.098,0-5.586,21.625-5.586,36.161v34.545v23.808v48.85
				c0,14.536,1.488,36.161,5.586,36.161s5.584-21.625,5.584-36.161v-46.386v-25.111v-35.706
				C1152.1,1155.201,1150.613,1133.576,1146.516,1133.576z M1150.914,1230.189v46.751c0,22.963-2.863,34.976-4.398,34.976
				s-4.4-12.013-4.4-34.976v-48.5v-23.99v-34.714c0-22.963,2.865-34.976,4.4-34.976s4.398,12.013,4.398,34.976v35.623V1230.189z"/>
		</g>
		<g>
			<g>
				<path fill="#FFFFFF" d="M1140.482,1182.905c0.123,1.357,0.029,7.348,0.037,8.908c0.01,1.568,11.932,1.568,11.939,0
					c0.012-1.965-0.189-7.508,0-9.156C1148.748,1183.456,1144.229,1183.082,1140.482,1182.905z"/>
				<path fill="#221F1F" d="M1153.143,1181.903l-0.094,0.822c-0.127,1.092-0.072,4.037-0.029,6.403
					c0.02,1.095,0.037,2.067,0.033,2.688c-0.008,1.46-3.574,1.767-6.563,1.767c-2.99,0-6.555-0.307-6.563-1.767
					c-0.002-0.432,0.004-1.2,0.01-2.115c0.016-2.305,0.041-5.788-0.047-6.743l-0.061-0.677l2.08,0.103
					c1.613,0.085,3.285,0.172,4.957,0.172c2.184,0,3.973-0.156,5.467-0.479L1153.143,1181.903L1153.143,1181.903z
					 M1151.867,1191.702c0-0.614-0.016-1.529-0.033-2.552c-0.037-1.97-0.08-4.333-0.02-5.767c-1.408,0.24-3.037,0.357-4.947,0.357
					c-1.703,0-3.391-0.088-5.02-0.174l-0.738-0.037c0.047,1.423,0.027,4.119,0.014,6.179c-0.006,0.838-0.012,1.552-0.01,1.993
					c0.393,0.295,2.273,0.695,5.377,0.695S1151.475,1191.997,1151.867,1191.702L1151.867,1191.702z"/>
			</g>
			<g>
				<path fill="#FFFFFF" d="M1140.338,1180.534c0.123,1.357,0.174,6.162,0.182,7.723c0.01,1.568,11.932,1.568,11.939,0
					c0.012-1.965-0.189-6.074,0-7.723C1148.748,1181.333,1144.082,1180.711,1140.338,1180.534z"/>
				<path fill="#221F1F" d="M1153.143,1179.78l-0.094,0.821c-0.123,1.069-0.074,3.255-0.033,5.185
					c0.021,0.947,0.041,1.826,0.037,2.473c-0.008,1.461-3.574,1.768-6.563,1.768c-2.99,0-6.555-0.307-6.563-1.768
					c-0.01-1.964-0.068-6.424-0.182-7.672l-0.061-0.678l0.68,0.032c0.826,0.04,1.695,0.1,2.592,0.162
					c1.662,0.116,3.381,0.235,5.061,0.235c1.703,0,3.115-0.126,4.316-0.385L1153.143,1179.78L1153.143,1179.78z M1148.018,1181.524
					c-1.721,0-3.461-0.121-5.143-0.238c-0.65-0.045-1.287-0.09-1.902-0.125c0.09,1.83,0.131,5.526,0.139,6.984
					c0.393,0.295,2.273,0.695,5.379,0.695c3.104,0,4.984-0.4,5.377-0.695c0-0.627-0.018-1.449-0.037-2.334
					c-0.033-1.58-0.072-3.33-0.018-4.553C1150.709,1181.437,1149.459,1181.524,1148.018,1181.524L1148.018,1181.524z"/>
			</g>
			<g>
				<path fill="#FFFFFF" d="M1140.52,1184.7c0.01,1.568,11.932,1.568,11.939,0c0.113-22.445,10.672-22.741,10.672-36.969
					c0-9.195-0.004-30.855-0.004-30.855c0.037-0.651-0.467-1.185-1.119-1.185h-14.275h-12.998h-3.762
					c-0.652,0-1.156,0.533-1.121,1.185c0,0-0.002,21.66-0.002,30.855C1129.85,1161.959,1140.406,1162.255,1140.52,1184.7z"/>
				<path fill="#221F1F" d="M1130.973,1115.099h31.035c0.48,0,0.924,0.188,1.248,0.532c0.326,0.345,0.49,0.798,0.463,1.277
					l0.004,30.823c0,6.482-2.182,10.221-4.49,14.178c-2.869,4.912-6.117,10.48-6.18,22.793c-0.008,1.461-3.574,1.768-6.563,1.768
					c-2.99,0-6.555-0.307-6.563-1.768c-0.063-12.313-3.313-17.881-6.18-22.793c-2.311-3.957-4.49-7.695-4.49-14.178l0.002-30.855
					c-0.025-0.447,0.139-0.9,0.463-1.245C1130.049,1115.287,1130.492,1115.099,1130.973,1115.099L1130.973,1115.099z
					 M1151.867,1184.589c0.084-12.554,3.406-18.25,6.34-23.277c2.324-3.98,4.33-7.419,4.33-13.58l-0.002-30.855
					c0.01-0.185-0.041-0.325-0.141-0.43c-0.098-0.104-0.236-0.162-0.387-0.162h-31.035c-0.152,0-0.289,0.058-0.387,0.162
					c-0.1,0.104-0.15,0.245-0.143,0.397v30.888c0,6.161,2.006,9.6,4.33,13.58c2.932,5.027,6.256,10.724,6.338,23.277
					c0.393,0.295,2.273,0.695,5.379,0.695S1151.475,1184.884,1151.867,1184.589L1151.867,1184.589z"/>
			</g>
		</g>
		<g>
			<g>
				<path fill="#FFFFFF" d="M1140.482,1263.772c0.123-1.357,0.029-7.348,0.037-8.908c0.01-1.568,11.932-1.568,11.939,0
					c0.012,1.965-0.189,7.508,0,9.156C1148.748,1263.222,1144.229,1263.596,1140.482,1263.772z"/>
				<path fill="#221F1F" d="M1153.143,1264.774l-0.809-0.174c-1.494-0.322-3.283-0.479-5.467-0.479
					c-1.672,0-3.344,0.087-4.957,0.172l-2.08,0.103l0.061-0.677c0.088-0.955,0.063-4.438,0.047-6.743
					c-0.006-0.915-0.012-1.684-0.01-2.115c0.008-1.46,3.572-1.767,6.563-1.767c2.988,0,6.555,0.307,6.563,1.767
					c0.004,0.62-0.014,1.593-0.033,2.688c-0.043,2.366-0.098,5.312,0.029,6.403L1153.143,1264.774L1153.143,1264.774z
					 M1151.867,1254.976c-0.393-0.295-2.273-0.695-5.377-0.695s-4.984,0.4-5.377,0.695c-0.002,0.441,0.004,1.155,0.01,1.993
					c0.014,2.06,0.033,4.756-0.014,6.179l0.738-0.037c1.629-0.086,3.316-0.174,5.02-0.174c1.91,0,3.539,0.117,4.947,0.357
					c-0.061-1.434-0.018-3.797,0.02-5.767C1151.852,1256.505,1151.867,1255.59,1151.867,1254.976L1151.867,1254.976z"/>
			</g>
			<g>
				<path fill="#FFFFFF" d="M1140.338,1266.144c0.123-1.357,0.174-6.162,0.182-7.723c0.01-1.568,11.932-1.568,11.939,0
					c0.012,1.965-0.189,6.074,0,7.723C1148.748,1265.345,1144.082,1265.967,1140.338,1266.144z"/>
				<path fill="#221F1F" d="M1153.143,1266.897l-0.809-0.174c-1.201-0.259-2.613-0.385-4.316-0.385c-1.68,0-3.398,0.119-5.061,0.235
					c-0.896,0.063-1.766,0.122-2.592,0.162l-0.68,0.032l0.061-0.678c0.113-1.248,0.172-5.708,0.182-7.672
					c0.008-1.461,3.572-1.768,6.563-1.768c2.988,0,6.555,0.307,6.563,1.768c0.004,0.646-0.016,1.525-0.037,2.473
					c-0.041,1.93-0.09,4.115,0.033,5.185L1153.143,1266.897L1153.143,1266.897z M1148.018,1265.153c1.441,0,2.691,0.088,3.795,0.266
					c-0.055-1.223-0.016-2.973,0.018-4.553c0.02-0.885,0.037-1.707,0.037-2.334c-0.393-0.295-2.273-0.695-5.377-0.695
					c-3.105,0-4.986,0.4-5.379,0.695c-0.008,1.458-0.049,5.154-0.139,6.984c0.615-0.035,1.252-0.08,1.902-0.125
					C1144.557,1265.274,1146.297,1265.153,1148.018,1265.153L1148.018,1265.153z"/>
			</g>
			<g>
				<path fill="#FFFFFF" d="M1140.52,1261.978c0.01-1.568,11.932-1.568,11.939,0c0.113,22.445,10.672,22.741,10.672,36.969
					c0,9.195-0.004,30.855-0.004,30.855c0.037,0.651-0.467,1.185-1.119,1.185h-14.275h-12.998h-3.762
					c-0.652,0-1.156-0.533-1.121-1.185c0,0-0.002-21.66-0.002-30.855C1129.85,1284.719,1140.406,1284.423,1140.52,1261.978z"/>
				<path fill="#221F1F" d="M1130.973,1331.579c-0.48,0-0.924-0.188-1.25-0.532c-0.324-0.345-0.488-0.798-0.463-1.245l-0.002-30.855
					c0-6.482,2.18-10.221,4.49-14.178c2.867-4.912,6.117-10.48,6.18-22.793c0.008-1.461,3.572-1.768,6.563-1.768
					c2.988,0,6.555,0.307,6.563,1.768c0.063,12.313,3.311,17.881,6.18,22.793c2.309,3.957,4.49,7.695,4.49,14.178l-0.004,30.823
					c0.027,0.479-0.137,0.933-0.463,1.277c-0.324,0.344-0.768,0.532-1.248,0.532H1130.973L1130.973,1331.579z M1151.867,1262.089
					c-0.393-0.295-2.271-0.695-5.377-0.695s-4.986,0.4-5.379,0.695c-0.082,12.554-3.406,18.25-6.338,23.277
					c-2.324,3.98-4.33,7.419-4.33,13.58v30.888c-0.008,0.152,0.043,0.293,0.143,0.397c0.098,0.104,0.234,0.162,0.387,0.162h31.035
					c0.15,0,0.289-0.058,0.387-0.162c0.1-0.104,0.15-0.245,0.141-0.43l0.002-30.855c0-6.161-2.006-9.6-4.33-13.58
					C1155.273,1280.339,1151.951,1274.643,1151.867,1262.089L1151.867,1262.089z"/>
			</g>
		</g>
	</g>
	<g>
		<g>
			<g>
				<g>
					<path fill="#FFFFFF" d="M1585.166,978.828c0,3.261-2.667,5.928-5.928,5.928h-66.524c-3.261,0-5.928-2.667-5.928-5.928v-11.434
						c0-3.261,2.667-5.928,5.928-5.928h66.524c3.261,0,5.928,2.667,5.928,5.928V978.828z"/>
				</g>
				<g>
					<path fill="#221F1F" d="M1579.238,985.349h-66.524c-3.596,0-6.521-2.925-6.521-6.521v-11.434c0-3.596,2.925-6.521,6.521-6.521
						h66.524c3.596,0,6.521,2.925,6.521,6.521v11.434C1585.76,982.424,1582.834,985.349,1579.238,985.349L1579.238,985.349z
						 M1512.714,962.06c-2.942,0-5.335,2.393-5.335,5.335v11.434c0,2.942,2.393,5.335,5.335,5.335h66.524
						c2.942,0,5.336-2.393,5.336-5.335v-11.434c0-2.942-2.394-5.335-5.336-5.335H1512.714L1512.714,962.06z"/>
				</g>
			</g>
			<g>
				<g>
					<path fill="#FFFFFF" d="M1946.424,978.828c0,3.261-2.668,5.928-5.93,5.928h-66.523c-3.262,0-5.928-2.667-5.928-5.928v-11.434
						c0-3.261,2.666-5.928,5.928-5.928h66.523c3.262,0,5.93,2.667,5.93,5.928V978.828z"/>
				</g>
				<g>
					<path fill="#221F1F" d="M1940.494,985.349h-66.523c-3.596,0-6.521-2.925-6.521-6.521v-11.434c0-3.596,2.926-6.521,6.521-6.521
						h66.523c3.596,0,6.521,2.925,6.521,6.521v11.434C1947.016,982.424,1944.09,985.349,1940.494,985.349L1940.494,985.349z
						 M1873.971,962.06c-2.943,0-5.336,2.393-5.336,5.335v11.434c0,2.942,2.393,5.335,5.336,5.335h66.523
						c2.943,0,5.336-2.393,5.336-5.335v-11.434c0-2.942-2.393-5.335-5.336-5.335H1873.971L1873.971,962.06z"/>
				</g>
			</g>
		</g>
		<g>
			<g>
				<g>
					<g>
						<path fill="#FFFFFF" d="M1982.301,915.729c0,10.021-32.012,18.223-71.137,18.223h-369.119
							c-39.125,0-71.137-8.201-71.137-18.223s32.012-38.223,71.137-38.223h369.119
							C1950.289,877.507,1982.301,905.708,1982.301,915.729z"/>
					</g>
					<g>
						<path fill="#221F1F" d="M1911.164,934.545h-369.119c-40.223,0-71.729-8.265-71.729-18.815s31.507-38.815,71.729-38.815
							h369.119c40.223,0,71.73,28.265,71.73,38.815S1951.387,934.545,1911.164,934.545L1911.164,934.545z M1542.045,878.1
							c-38.239,0-70.544,28.073-70.544,37.63s32.305,17.63,70.544,17.63h369.119c38.238,0,70.545-8.073,70.545-17.63
							s-32.307-37.63-70.545-37.63H1542.045L1542.045,878.1z"/>
					</g>
				</g>
				<g>
					<g>
						<path fill="#FFFFFF" d="M1982.301,965.664c0,6.521-5.336,11.855-11.855,11.855h-487.682c-6.521,0-11.855-5.335-11.855-11.855
							v-47.251c0-6.521,5.335-11.855,11.855-11.855h487.682c6.52,0,11.855,5.335,11.855,11.855V965.664z"/>
					</g>
					<g>
						<path fill="#221F1F" d="M1970.445,978.112h-487.682c-6.863,0-12.448-5.584-12.448-12.448v-47.251
							c0-6.863,5.585-12.449,12.448-12.449h487.682c6.863,0,12.449,5.586,12.449,12.449v47.251
							C1982.895,972.528,1977.309,978.112,1970.445,978.112L1970.445,978.112z M1482.764,907.149
							c-6.21,0-11.263,5.053-11.263,11.264v47.251c0,6.21,5.053,11.263,11.263,11.263h487.682c6.211,0,11.264-5.053,11.264-11.263
							v-47.251c0-6.211-5.053-11.264-11.264-11.264H1482.764L1482.764,907.149z"/>
					</g>
				</g>
				<g>
					<rect x="1509.931" y="915.604" fill="#FFFFFF" width="433.347" height="52.868"/>
					<path fill="#221F1F" d="M1943.871,969.065h-434.533v-54.054h434.533V969.065L1943.871,969.065z M1510.523,967.88h432.162
						v-51.683h-432.162V967.88L1510.523,967.88z"/>
				</g>
			</g>
			<g>
				<g>
					<circle fill="#FFFFFF" cx="1908.321" cy="939.667" r="22.229"/>
					<path fill="#221F1F" d="M1908.32,962.489c-12.584,0-22.82-10.238-22.82-22.822s10.236-22.821,22.82-22.821
						s22.822,10.237,22.822,22.821S1920.904,962.489,1908.32,962.489L1908.32,962.489z M1908.32,918.031
						c-11.93,0-21.635,9.706-21.635,21.636c0,11.931,9.705,21.637,21.635,21.637c11.932,0,21.637-9.706,21.637-21.637
						C1929.957,927.737,1920.252,918.031,1908.32,918.031L1908.32,918.031z"/>
				</g>
				<g>
					<g>
						<g>
							<path fill="#FFFFFF" d="M1920.77,941.176c0,6.521-5.336,11.856-11.855,11.856h-1.186c-6.521,0-11.855-5.336-11.855-11.856
								V748.407c0-6.521,5.334-11.855,11.855-11.855h1.186c6.52,0,11.855,5.335,11.855,11.855V941.176z"/>
						</g>
						<g>
							<path fill="#221F1F" d="M1908.914,953.625h-1.186c-6.863,0-12.449-5.585-12.449-12.449V748.407
								c0-6.863,5.586-12.448,12.449-12.448h1.186c6.863,0,12.449,5.585,12.449,12.448v192.769
								C1921.363,948.04,1915.777,953.625,1908.914,953.625L1908.914,953.625z M1907.729,737.145
								c-6.211,0-11.264,5.053-11.264,11.263v192.769c0,6.211,5.053,11.264,11.264,11.264h1.186c6.211,0,11.264-5.053,11.264-11.264
								V748.407c0-6.21-5.053-11.263-11.264-11.263H1907.729L1907.729,737.145z"/>
						</g>
					</g>
					<g>
						<rect x="1895.873" y="774.745" fill="#646464" width="24.896" height="6.694"/>
						<path fill="#221F1F" d="M1921.363,782.032h-26.084v-7.881h26.084V782.032L1921.363,782.032z M1896.465,780.847h23.713v-5.51
							h-23.713V780.847L1896.465,780.847z"/>
					</g>
				</g>
			</g>
		</g>
	</g>
	<g>
		<g>
			<g>
				<rect x="1571.152" y="926.722" fill="#221F1F" width="37.148" height="24.44"/>
			</g>
			<g>
				<rect x="1579.463" y="945.536" fill="#221F1F" width="20.527" height="10.274"/>
			</g>
			<g>
				<rect x="1583.863" y="948.469" fill="#221F1F" width="11.729" height="10.274"/>
			</g>
		</g>
		<g>
			<g>
				<polygon fill="#FFFFFF" points="1581.816,939.671 1580.037,939.671 1580.037,929.405 1581.816,929.405 1581.816,939.671 				"/>
			</g>
			<g>
				<polygon fill="#FFFFFF" points="1586.216,939.671 1584.438,939.671 1584.438,929.405 1586.216,929.405 1586.216,939.671 				"/>
			</g>
			<g>
				<polygon fill="#FFFFFF" points="1590.615,939.671 1588.836,939.671 1588.836,929.405 1590.615,929.405 1590.615,939.671 				"/>
			</g>
			<g>
				<polygon fill="#FFFFFF" points="1595.014,939.671 1593.236,939.671 1593.236,929.405 1595.014,929.405 1595.014,939.671 				"/>
			</g>
			<g>
				<polygon fill="#FFFFFF" points="1599.413,939.671 1597.635,939.671 1597.635,929.405 1599.413,929.405 1599.413,939.671 				"/>
			</g>
		</g>
	</g>
	<g>
		<g>
			<g>
				<rect x="1618.288" y="926.722" fill="#221F1F" width="37.148" height="24.44"/>
			</g>
			<g>
				<rect x="1626.599" y="945.536" fill="#221F1F" width="20.528" height="10.274"/>
			</g>
			<g>
				<rect x="1630.999" y="948.469" fill="#221F1F" width="11.729" height="10.274"/>
			</g>
		</g>
		<g>
			<g>
				<polygon fill="#FFFFFF" points="1628.952,939.671 1627.174,939.671 1627.174,929.405 1628.952,929.405 1628.952,939.671 				"/>
			</g>
			<g>
				<polygon fill="#FFFFFF" points="1633.353,939.671 1631.573,939.671 1631.573,929.405 1633.353,929.405 1633.353,939.671 				"/>
			</g>
			<g>
				<polygon fill="#FFFFFF" points="1637.751,939.671 1635.973,939.671 1635.973,929.405 1637.751,929.405 1637.751,939.671 				"/>
			</g>
			<g>
				<polygon fill="#FFFFFF" points="1642.15,939.671 1640.372,939.671 1640.372,929.405 1642.15,929.405 1642.15,939.671 				"/>
			</g>
			<g>
				<polygon fill="#FFFFFF" points="1646.55,939.671 1644.771,939.671 1644.771,929.405 1646.55,929.405 1646.55,939.671 				"/>
			</g>
		</g>
	</g>
	<g>
		<g>
			<g>
				<rect x="1665.712" y="926.722" fill="#221F1F" width="37.149" height="24.44"/>
			</g>
			<g>
				<rect x="1674.022" y="945.536" fill="#221F1F" width="20.528" height="10.274"/>
			</g>
			<g>
				<rect x="1678.423" y="948.469" fill="#221F1F" width="11.729" height="10.274"/>
			</g>
		</g>
		<g>
			<g>
				<polygon fill="#FFFFFF" points="1676.376,939.671 1674.599,939.671 1674.599,929.405 1676.376,929.405 1676.376,939.671 				"/>
			</g>
			<g>
				<polygon fill="#FFFFFF" points="1680.776,939.671 1678.998,939.671 1678.998,929.405 1680.776,929.405 1680.776,939.671 				"/>
			</g>
			<g>
				<polygon fill="#FFFFFF" points="1685.175,939.671 1683.397,939.671 1683.397,929.405 1685.175,929.405 1685.175,939.671 				"/>
			</g>
			<g>
				<polygon fill="#FFFFFF" points="1689.574,939.671 1687.796,939.671 1687.796,929.405 1689.574,929.405 1689.574,939.671 				"/>
			</g>
			<g>
				<polygon fill="#FFFFFF" points="1693.974,939.671 1692.195,939.671 1692.195,929.405 1693.974,929.405 1693.974,939.671 				"/>
			</g>
		</g>
	</g>
	<g>
		<g>
			<g>
				<rect x="1713.137" y="926.722" fill="#221F1F" width="37.148" height="24.44"/>
			</g>
			<g>
				<rect x="1721.445" y="945.536" fill="#221F1F" width="20.529" height="10.274"/>
			</g>
			<g>
				<rect x="1725.846" y="948.469" fill="#221F1F" width="11.729" height="10.274"/>
			</g>
		</g>
		<g>
			<g>
				<polygon fill="#FFFFFF" points="1723.801,939.671 1722.021,939.671 1722.021,929.405 1723.801,929.405 1723.801,939.671 				"/>
			</g>
			<g>
				<polygon fill="#FFFFFF" points="1728.199,939.671 1726.422,939.671 1726.422,929.405 1728.199,929.405 1728.199,939.671 				"/>
			</g>
			<g>
				<polygon fill="#FFFFFF" points="1732.6,939.671 1730.82,939.671 1730.82,929.405 1732.6,929.405 1732.6,939.671 				"/>
			</g>
			<g>
				<polygon fill="#FFFFFF" points="1736.998,939.671 1735.219,939.671 1735.219,929.405 1736.998,929.405 1736.998,939.671 				"/>
			</g>
			<g>
				<polygon fill="#FFFFFF" points="1741.396,939.671 1739.619,939.671 1739.619,929.405 1741.396,929.405 1741.396,939.671 				"/>
			</g>
		</g>
	</g>
	<g>
		<g>
			<g>
				<rect x="1814.561" y="926.722" fill="#221F1F" width="37.148" height="24.44"/>
			</g>
			<g>
				<rect x="1822.871" y="945.536" fill="#221F1F" width="20.527" height="10.274"/>
			</g>
			<g>
				<rect x="1827.271" y="948.469" fill="#221F1F" width="11.729" height="10.274"/>
			</g>
		</g>
		<g>
			<g>
				<polygon fill="#FFFFFF" points="1825.225,939.671 1823.445,939.671 1823.445,929.405 1825.225,929.405 1825.225,939.671 				"/>
			</g>
			<g>
				<polygon fill="#FFFFFF" points="1829.623,939.671 1827.846,939.671 1827.846,929.405 1829.623,929.405 1829.623,939.671 				"/>
			</g>
			<g>
				<polygon fill="#FFFFFF" points="1834.023,939.671 1832.244,939.671 1832.244,929.405 1834.023,929.405 1834.023,939.671 				"/>
			</g>
			<g>
				<polygon fill="#FFFFFF" points="1838.422,939.671 1836.645,939.671 1836.645,929.405 1838.422,929.405 1838.422,939.671 				"/>
			</g>
			<g>
				<polygon fill="#FFFFFF" points="1842.82,939.671 1841.043,939.671 1841.043,929.405 1842.82,929.405 1842.82,939.671 				"/>
			</g>
		</g>
	</g>
	<g>
		<g>
			<circle fill="#221F1F" cx="1543.259" cy="942.038" r="14.228"/>
		</g>
		<g>
			<circle fill="#FFFFFF" cx="1543.259" cy="942.038" r="3.545"/>
		</g>
	</g>
	<g>
		<g>
			<g>
				<g>
					<path fill="#FFFFFF" d="M1850.988,935.041c0-1.304-1.066-2.371-2.371-2.371h-31.27c-1.305,0-2.371,1.067-2.371,2.371v18.948
						c0,1.305,1.066,2.371,2.371,2.371h31.27c1.305,0,2.371-1.066,2.371-2.371V935.041z"/>
				</g>
				<g>
					<path fill="#221F1F" d="M1848.617,956.954h-31.27c-1.635,0-2.965-1.33-2.965-2.965v-18.948c0-1.634,1.33-2.964,2.965-2.964
						h31.27c1.635,0,2.963,1.33,2.963,2.964v18.948C1851.58,955.624,1850.252,956.954,1848.617,956.954L1848.617,956.954z
						 M1817.348,933.263c-0.98,0-1.777,0.797-1.777,1.778v18.948c0,0.98,0.797,1.779,1.777,1.779h31.27
						c0.98,0,1.777-0.799,1.777-1.779v-18.948c0-0.981-0.797-1.778-1.777-1.778H1817.348L1817.348,933.263z"/>
				</g>
			</g>
			<g>
				<polygon fill="#FFFFFF" points="1850.988,932.67 1814.977,932.67 1818.768,929.826 1847.197,929.826 				"/>
				<path fill="#221F1F" d="M1850.988,933.263h-36.012c-0.256,0-0.482-0.164-0.563-0.405c-0.08-0.242,0.002-0.509,0.207-0.662
					l3.791-2.843c0.102-0.078,0.227-0.119,0.355-0.119h28.43c0.129,0,0.254,0.041,0.355,0.119l3.791,2.843
					c0.205,0.153,0.287,0.42,0.207,0.662C1851.471,933.099,1851.244,933.263,1850.988,933.263L1850.988,933.263z M1816.754,932.077
					h32.457l-2.211-1.658h-28.035L1816.754,932.077L1816.754,932.077z"/>
			</g>
		</g>
		<g>
			<g>
				<path fill="#FFFFFF" d="M1845.016,937.933h-24.066c-1.305,0-2.371,1.068-2.371,2.371v8.422c0,1.303,1.066,2.371,2.371,2.371
					h6.449v405.899c0,3.26,2.512,5.928,5.584,5.928s5.584-2.668,5.584-5.928V951.097h6.449c1.305,0,2.371-1.068,2.371-2.371v-8.422
					C1847.387,939.001,1846.32,937.933,1845.016,937.933z"/>
				<path fill="#221F1F" d="M1832.982,1363.517c-3.406,0-6.178-2.926-6.178-6.521V951.688h-5.855c-1.635,0-2.965-1.329-2.965-2.963
					v-8.422c0-1.634,1.33-2.963,2.965-2.963h24.066c1.635,0,2.965,1.329,2.965,2.963v8.422c0,1.634-1.33,2.963-2.965,2.963h-5.855
					v405.308C1839.16,1360.591,1836.389,1363.517,1832.982,1363.517L1832.982,1363.517z M1820.949,938.526
					c-0.98,0-1.779,0.797-1.779,1.777v8.422c0,0.98,0.799,1.777,1.779,1.777h7.041v406.493c0,2.941,2.24,5.335,4.992,5.335
					s4.992-2.394,4.992-5.335V950.503h7.041c0.98,0,1.779-0.797,1.779-1.777v-8.422c0-0.98-0.799-1.777-1.779-1.777H1820.949
					L1820.949,938.526z"/>
			</g>
			<g>
				<path fill="#CFD0CB" d="M1981.666,1369.031c0-16.453-13.336-29.787-29.787-29.787c-0.525,0-1.041,0.052-1.561,0.077
					c-5.68-22.76-26.254-39.624-50.771-39.624c-9.727,0-18.828,2.663-26.631,7.285c-6.926-15.036-22.119-25.479-39.76-25.479
					c-17.904,0-33.287,10.755-40.064,26.154c-6.262-2.678-13.152-4.164-20.393-4.164c-23.797,0-43.841,16.019-49.975,37.857
					c-21.385,1.255-38.344,18.988-38.344,40.69c0,22.515,18.252,40.768,40.768,40.768c7.243,0,14.039-1.896,19.935-5.209
					c7.185,11.608,20.03,19.346,34.685,19.346c4.838,0,9.479-0.848,13.783-2.395c9.488,13.982,25.51,23.168,43.678,23.168
					c23.719,0,43.779-15.654,50.416-37.194c7.666,9.219,19.221,15.088,32.146,15.088c21.936,0,39.91-16.903,41.641-38.391
					C1973.191,1393.237,1981.666,1382.134,1981.666,1369.031z"/>
			</g>
			<g>
				<path fill="#221F1F" d="M1781.996,1380.842v-18.62h3.947v18.62H1781.996z"/>
				<path fill="#221F1F" d="M1803.469,1380.842h-3.885v-8.316c0-1.027-0.182-1.798-0.547-2.313c-0.365-0.513-0.947-0.77-1.744-0.77
					c-1.088,0-1.873,0.362-2.357,1.09c-0.484,0.725-0.725,1.929-0.725,3.609v6.699h-3.885v-14.238h2.967l0.521,1.821h0.217
					c0.434-0.688,1.029-1.208,1.789-1.56c0.76-0.354,1.625-0.529,2.592-0.529c1.656,0,2.912,0.448,3.771,1.344
					c0.857,0.896,1.285,2.188,1.285,3.878V1380.842z"/>
				<path fill="#221F1F" d="M1813.467,1378.002c0.68,0,1.494-0.148,2.445-0.445v2.891c-0.969,0.433-2.156,0.649-3.566,0.649
					c-1.553,0-2.686-0.393-3.395-1.179c-0.709-0.785-1.063-1.962-1.063-3.533v-6.865h-1.859v-1.643l2.139-1.299l1.121-3.006h2.484
					v3.031h3.986v2.916h-3.986v6.865c0,0.552,0.154,0.96,0.465,1.223C1812.547,1377.87,1812.957,1378.002,1813.467,1378.002z"/>
				<path fill="#221F1F" d="M1825.234,1381.097c-2.293,0-4.084-0.632-5.375-1.897s-1.936-3.057-1.936-5.375
					c0-2.386,0.598-4.23,1.789-5.533c1.193-1.304,2.842-1.955,4.949-1.955c2.012,0,3.578,0.573,4.699,1.719
					c1.121,1.146,1.682,2.73,1.682,4.751v1.885h-9.184c0.043,1.104,0.369,1.966,0.98,2.586c0.611,0.619,1.469,0.93,2.574,0.93
					c0.855,0,1.668-0.09,2.432-0.268c0.764-0.179,1.563-0.464,2.395-0.854v3.006c-0.68,0.339-1.406,0.592-2.178,0.758
					C1827.289,1381.014,1826.348,1381.097,1825.234,1381.097z M1824.688,1369.1c-0.824,0-1.469,0.262-1.936,0.782
					c-0.469,0.523-0.734,1.264-0.803,2.224h5.451c-0.018-0.96-0.268-1.7-0.752-2.224
					C1826.164,1369.361,1825.51,1369.1,1824.688,1369.1z"/>
				<path fill="#221F1F" d="M1842.148,1366.336c0.525,0,0.963,0.038,1.313,0.114l-0.293,3.643c-0.314-0.084-0.697-0.127-1.146-0.127
					c-1.24,0-2.207,0.318-2.898,0.955s-1.037,1.528-1.037,2.675v7.246h-3.885v-14.238h2.941l0.574,2.395h0.189
					c0.441-0.798,1.039-1.441,1.791-1.93C1840.447,1366.58,1841.266,1366.336,1842.148,1366.336z"/>
				<path fill="#221F1F" d="M1859.189,1380.842h-3.885v-8.316c0-1.027-0.184-1.798-0.549-2.313c-0.365-0.513-0.945-0.77-1.744-0.77
					c-1.088,0-1.871,0.362-2.355,1.09c-0.484,0.725-0.727,1.929-0.727,3.609v6.699h-3.885v-14.238h2.969l0.521,1.821h0.217
					c0.434-0.688,1.029-1.208,1.789-1.56c0.76-0.354,1.623-0.529,2.592-0.529c1.656,0,2.912,0.448,3.77,1.344
					s1.287,2.188,1.287,3.878V1380.842z"/>
				<path fill="#221F1F" d="M1869.633,1381.097c-2.293,0-4.084-0.632-5.375-1.897s-1.936-3.057-1.936-5.375
					c0-2.386,0.596-4.23,1.789-5.533c1.193-1.304,2.842-1.955,4.947-1.955c2.014,0,3.58,0.573,4.701,1.719
					c1.119,1.146,1.68,2.73,1.68,4.751v1.885h-9.182c0.041,1.104,0.369,1.966,0.98,2.586c0.611,0.619,1.469,0.93,2.572,0.93
					c0.857,0,1.668-0.09,2.434-0.268c0.764-0.179,1.561-0.464,2.393-0.854v3.006c-0.678,0.339-1.404,0.592-2.178,0.758
					C1871.688,1381.014,1870.744,1381.097,1869.633,1381.097z M1869.084,1369.1c-0.822,0-1.469,0.262-1.936,0.782
					c-0.467,0.523-0.734,1.264-0.803,2.224h5.451c-0.018-0.96-0.268-1.7-0.75-2.224
					C1870.563,1369.361,1869.908,1369.1,1869.084,1369.1z"/>
				<path fill="#221F1F" d="M1884.598,1378.002c0.678,0,1.494-0.148,2.445-0.445v2.891c-0.969,0.433-2.158,0.649-3.566,0.649
					c-1.555,0-2.686-0.393-3.395-1.179c-0.709-0.785-1.063-1.962-1.063-3.533v-6.865h-1.859v-1.643l2.139-1.299l1.121-3.006h2.484
					v3.031h3.986v2.916h-3.986v6.865c0,0.552,0.154,0.96,0.465,1.223C1883.678,1377.87,1884.088,1378.002,1884.598,1378.002z"/>
			</g>
		</g>
	</g>
	<g>
		<g>
			<g>
				<g>
					<path fill="#FFFFFF" d="M1571.854,935.041c0-1.304,1.066-2.371,2.371-2.371h31.268c1.305,0,2.371,1.067,2.371,2.371v18.948
						c0,1.305-1.066,2.371-2.371,2.371h-31.268c-1.305,0-2.371-1.066-2.371-2.371V935.041z"/>
				</g>
				<g>
					<path fill="#221F1F" d="M1574.225,956.954c-1.635,0-2.965-1.33-2.965-2.965v-18.948c0-1.634,1.33-2.964,2.965-2.964h31.268
						c1.635,0,2.965,1.33,2.965,2.964v18.948c0,1.635-1.33,2.965-2.965,2.965H1574.225L1574.225,956.954z M1605.492,933.263h-31.268
						c-0.982,0-1.779,0.797-1.779,1.778v18.948c0,0.98,0.797,1.779,1.779,1.779h31.268c0.98,0,1.779-0.799,1.779-1.779v-18.948
						C1607.271,934.06,1606.473,933.263,1605.492,933.263L1605.492,933.263z"/>
				</g>
			</g>
			<g>
				<polygon fill="#FFFFFF" points="1571.854,932.67 1607.863,932.67 1604.074,929.826 1575.643,929.826 				"/>
				<path fill="#221F1F" d="M1571.854,933.263c-0.256,0-0.482-0.164-0.563-0.405c-0.082-0.242,0.002-0.509,0.207-0.662l3.789-2.843
					c0.104-0.078,0.229-0.119,0.355-0.119h28.432c0.127,0,0.252,0.041,0.355,0.119l3.789,2.843c0.205,0.153,0.289,0.42,0.207,0.662
					c-0.08,0.241-0.307,0.405-0.563,0.405H1571.854L1571.854,933.263z M1606.086,932.077l-2.209-1.658h-28.037l-2.209,1.658
					H1606.086L1606.086,932.077z"/>
			</g>
		</g>
		<g>
			<path fill="#FFFFFF" d="M1382.303,1092.409h196.043c3.26,0,5.928-2.667,5.928-5.928V951.097h-6.449
				c-1.305,0-2.371-1.068-2.371-2.371v-8.422c0-1.303,1.066-2.371,2.371-2.371h24.068c1.305,0,2.371,1.068,2.371,2.371v8.422
				c0,1.303-1.066,2.371-2.371,2.371h-6.449v136.554c0,11.259-4.668,15.929-15.928,15.929h-197.213
				c-3.262,0-5.928-2.514-5.928-5.586C1376.375,1094.923,1379.041,1092.409,1382.303,1092.409z"/>
			<path fill="#221F1F" d="M1382.303,1104.172c-3.596,0-6.521-2.771-6.521-6.179c0-3.406,2.926-6.177,6.521-6.177h196.043
				c2.941,0,5.336-2.393,5.336-5.335V951.688h-5.857c-1.635,0-2.963-1.329-2.963-2.963v-8.422c0-1.634,1.328-2.963,2.963-2.963
				h24.068c1.635,0,2.963,1.329,2.963,2.963v8.422c0,1.634-1.328,2.963-2.963,2.963h-5.857v135.962
				c0,11.594-4.924,16.521-16.52,16.521H1382.303L1382.303,1104.172z M1601.893,938.526h-24.068c-0.98,0-1.777,0.797-1.777,1.777
				v8.422c0,0.98,0.797,1.777,1.777,1.777h7.043v135.979c0,3.595-2.926,6.521-6.521,6.521h-196.043
				c-2.943,0-5.336,2.239-5.336,4.991c0,2.754,2.393,4.993,5.336,4.993h197.213c10.939,0,15.334-4.394,15.334-15.336V950.503h7.043
				c0.98,0,1.777-0.797,1.777-1.777v-8.422C1603.67,939.323,1602.873,938.526,1601.893,938.526L1601.893,938.526z"/>
		</g>
		<g>
			<g>
				<g>
					<path fill="#FFFFFF" d="M1387.785,1084.525c0.652,0,1.186,0.534,1.186,1.186v24.114c0,0.652-0.533,1.186-1.186,1.186h-25.891
						c-0.652,0-1.186-0.533-1.186-1.186v-24.114c0-0.651,0.533-1.186,1.186-1.186H1387.785z"/>
				</g>
				<g>
					<path fill="#221F1F" d="M1361.895,1111.604c-0.98,0-1.779-0.798-1.779-1.778v-24.114c0-0.98,0.799-1.777,1.779-1.777h25.891
						c0.98,0,1.779,0.797,1.779,1.777v24.114c0,0.98-0.799,1.778-1.779,1.778H1361.895L1361.895,1111.604z M1387.785,1085.119
						h-25.891c-0.328,0-0.594,0.266-0.594,0.592v24.114c0,0.327,0.266,0.593,0.594,0.593h25.891c0.328,0,0.594-0.266,0.594-0.593
						v-24.114C1388.379,1085.385,1388.113,1085.119,1387.785,1085.119L1387.785,1085.119z"/>
				</g>
			</g>
			<g>
				<path fill="#FFFFFF" d="M1376.506,1083.502l14.539,0.813c0.389,0.021,0.717,0.24,0.934,0.544l26.268,6.024v13.772l-26.266,6.023
					c-0.217,0.304-0.547,0.524-0.936,0.545l-14.539,0.812c-0.652,0.036-1.186-0.467-1.186-1.119v-26.294
					C1375.32,1083.97,1375.854,1083.467,1376.506,1083.502z"/>
				<path fill="#221F1F" d="M1376.439,1112.631c-0.459,0-0.889-0.178-1.211-0.498c-0.322-0.322-0.5-0.755-0.5-1.217v-26.294
					c0-0.96,0.748-1.712,1.803-1.712c0.002,0,0.006,0,0.006,0l14.541,0.813c0.465,0.024,0.902,0.242,1.232,0.603l26.527,6.085
					v14.718l-26.527,6.083c-0.33,0.362-0.768,0.58-1.232,0.604l-14.541,0.812L1376.439,1112.631L1376.439,1112.631
					L1376.439,1112.631z M1417.652,1104.184v-12.829l-25.807-5.919l-0.219-0.05l-0.131-0.184c-0.061-0.085-0.229-0.282-0.484-0.297
					l-14.572-0.813c-0.301,0-0.525,0.229-0.525,0.529v26.294c0,0.146,0.053,0.279,0.152,0.377c0.098,0.098,0.23,0.152,0.373,0.152
					l0,0v0.593l0.033-0.594l14.541-0.812c0.254-0.015,0.424-0.214,0.484-0.298l0.129-0.185L1417.652,1104.184L1417.652,1104.184z"/>
			</g>
		</g>
	</g>
	<g>
		<path fill="#221F1F" d="M1394.099,1067.384h-10.724v-18.62h10.724v3.234h-6.775v4.089h6.304v3.234h-6.304v4.802h6.775V1067.384z"
			/>
		<path fill="#221F1F" d="M1403.676,1064.543c0.68,0,1.494-0.148,2.445-0.445v2.891c-0.968,0.434-2.156,0.649-3.565,0.649
			c-1.554,0-2.686-0.393-3.395-1.179c-0.709-0.784-1.063-1.962-1.063-3.533v-6.864h-1.859v-1.644l2.14-1.299l1.121-3.006h2.483
			v3.031h3.986v2.917h-3.986v6.864c0,0.552,0.154,0.96,0.465,1.223C1402.757,1064.411,1403.167,1064.543,1403.676,1064.543z"/>
		<path fill="#221F1F" d="M1422.144,1067.384h-3.885v-8.317c0-2.055-0.765-3.082-2.292-3.082c-1.088,0-1.873,0.369-2.356,1.108
			c-0.484,0.738-0.726,1.936-0.726,3.592v6.699H1409v-19.817h3.885v4.037c0,0.313-0.031,1.053-0.09,2.216l-0.089,1.146h0.204
			c0.865-1.393,2.241-2.089,4.126-2.089c1.673,0,2.942,0.45,3.808,1.351c0.867,0.899,1.3,2.19,1.3,3.871V1067.384z"/>
		<path fill="#221F1F" d="M1432.587,1067.638c-2.292,0-4.084-0.632-5.374-1.897c-1.291-1.266-1.937-3.057-1.937-5.374
			c0-2.387,0.597-4.231,1.79-5.533c1.191-1.305,2.842-1.956,4.947-1.956c2.012,0,3.579,0.573,4.699,1.72
			c1.121,1.146,1.682,2.729,1.682,4.75v1.885h-9.183c0.042,1.104,0.369,1.967,0.98,2.586s1.469,0.93,2.573,0.93
			c0.857,0,1.668-0.089,2.432-0.268c0.765-0.179,1.563-0.463,2.395-0.854v3.006c-0.68,0.339-1.405,0.592-2.178,0.759
			C1434.642,1067.555,1433.699,1067.638,1432.587,1067.638z M1432.039,1055.641c-0.824,0-1.469,0.262-1.936,0.782
			c-0.467,0.523-0.734,1.264-0.803,2.224h5.451c-0.018-0.96-0.268-1.7-0.752-2.224
			C1433.517,1055.902,1432.862,1055.641,1432.039,1055.641z"/>
		<path fill="#221F1F" d="M1449.5,1052.877c0.526,0,0.963,0.038,1.313,0.114l-0.293,3.643c-0.314-0.084-0.697-0.127-1.146-0.127
			c-1.24,0-2.206,0.318-2.897,0.955c-0.692,0.637-1.038,1.528-1.038,2.675v7.247h-3.885v-14.239h2.942l0.573,2.395h0.191
			c0.44-0.798,1.037-1.441,1.789-1.929C1447.8,1053.121,1448.617,1052.877,1449.5,1052.877z"/>
		<path fill="#221F1F" d="M1466.541,1067.384h-3.885v-8.317c0-1.026-0.183-1.798-0.547-2.312c-0.366-0.514-0.947-0.771-1.745-0.771
			c-1.087,0-1.872,0.362-2.356,1.09c-0.484,0.725-0.727,1.929-0.727,3.61v6.699h-3.884v-14.239h2.968l0.521,1.821h0.217
			c0.434-0.688,1.029-1.208,1.789-1.56c0.76-0.354,1.624-0.529,2.592-0.529c1.656,0,2.912,0.448,3.771,1.345
			c0.857,0.895,1.286,2.188,1.286,3.877V1067.384z"/>
		<path fill="#221F1F" d="M1476.984,1067.638c-2.292,0-4.084-0.632-5.375-1.897c-1.29-1.266-1.936-3.057-1.936-5.374
			c0-2.387,0.597-4.231,1.789-5.533c1.193-1.305,2.843-1.956,4.948-1.956c2.013,0,3.579,0.573,4.7,1.72
			c1.12,1.146,1.681,2.729,1.681,4.75v1.885h-9.183c0.042,1.104,0.369,1.967,0.98,2.586s1.469,0.93,2.573,0.93
			c0.857,0,1.668-0.089,2.433-0.268c0.764-0.179,1.562-0.463,2.395-0.854v3.006c-0.68,0.339-1.406,0.592-2.179,0.759
			C1479.039,1067.555,1478.097,1067.638,1476.984,1067.638z M1476.437,1055.641c-0.823,0-1.469,0.262-1.936,0.782
			c-0.467,0.523-0.734,1.264-0.803,2.224h5.451c-0.018-0.96-0.268-1.7-0.751-2.224
			C1477.914,1055.902,1477.26,1055.641,1476.437,1055.641z"/>
		<path fill="#221F1F" d="M1491.949,1064.543c0.679,0,1.494-0.148,2.445-0.445v2.891c-0.968,0.434-2.157,0.649-3.566,0.649
			c-1.554,0-2.686-0.393-3.394-1.179c-0.709-0.784-1.063-1.962-1.063-3.533v-6.864h-1.859v-1.644l2.14-1.299l1.12-3.006h2.484v3.031
			h3.986v2.917h-3.986v6.864c0,0.552,0.154,0.96,0.465,1.223C1491.03,1064.411,1491.439,1064.543,1491.949,1064.543z"/>
	</g>
	<g>
		<path fill="#221F1F" d="M1069.002,959.641c1.799,0,3.232,0.504,4.297,1.516c1.066,1.011,1.6,2.395,1.6,4.152
			c0,2.081-0.641,3.681-1.924,4.802c-1.281,1.12-3.115,1.681-5.502,1.681c-2.072,0-3.744-0.336-5.018-1.006v-3.4
			c0.672,0.356,1.453,0.647,2.344,0.873c0.893,0.225,1.736,0.337,2.535,0.337c2.402,0,3.604-0.985,3.604-2.955
			c0-1.877-1.244-2.814-3.73-2.814c-0.451,0-0.947,0.044-1.49,0.134c-0.545,0.089-0.986,0.185-1.326,0.286l-1.566-0.84l0.701-9.488
			h10.1v3.336h-6.648l-0.344,3.655l0.445-0.089C1067.596,959.701,1068.238,959.641,1069.002,959.641z"/>
		<path fill="#221F1F" d="M1089.035,952.917h3.986l-6.33,18.619h-4.305l-6.316-18.619h3.986l3.502,11.08
			c0.195,0.654,0.398,1.416,0.605,2.285c0.207,0.871,0.338,1.477,0.389,1.815c0.094-0.781,0.41-2.147,0.955-4.101L1089.035,952.917z
			"/>
	</g>
	<g>
		<g>
			<path fill="#FFFFFF" d="M1109.666,973.814c0-6.003,4.912-10.914,10.916-10.914h236.923c6.003,0,10.915,4.911,10.915,10.914
				v150.797c0,6.004-4.912,10.915-10.915,10.915h-236.923c-6.004,0-10.916-4.911-10.916-10.915V973.814z"/>
		</g>
		<g>
			<path fill="#221F1F" d="M1120.582,962.354h236.923c6.319,0,11.461,5.141,11.461,11.46v150.797
				c0,6.319-5.142,11.461-11.461,11.461h-236.923c-6.32,0-11.461-5.142-11.461-11.461V973.814
				C1109.121,967.495,1114.262,962.354,1120.582,962.354L1120.582,962.354z M1357.505,1134.98c5.718,0,10.369-4.651,10.369-10.369
				V973.814c0-5.717-4.651-10.368-10.369-10.368h-236.923c-5.719,0-10.37,4.651-10.37,10.368v150.797
				c0,5.718,4.651,10.369,10.37,10.369H1357.505L1357.505,1134.98z"/>
		</g>
	</g>
	<g>
		<path fill="#221F1F" d="M1115.125,979.178c0-6.003,4.91-10.915,10.914-10.915h226.008c6.003,0,10.916,4.912,10.916,10.915v140.071
			c0,6.003-4.913,10.915-10.916,10.915h-226.008c-6.004,0-10.914-4.912-10.914-10.915V979.178z"/>
	</g>
	<g>
		<path fill="#221F1F" d="M1126.039,1082.885c-5.418,0-9.823-4.407-9.823-9.824v-93.883c0-5.417,4.405-9.823,9.823-9.823h226.008
			c5.417,0,9.824,4.406,9.824,9.823v93.883c0,5.417-4.407,9.824-9.824,9.824H1126.039 M1126.039,1083.977h226.008
			c6.003,0,10.916-4.913,10.916-10.916v-93.883c0-6.003-4.913-10.915-10.916-10.915h-226.008c-6.004,0-10.914,4.912-10.914,10.915
			v93.883C1115.125,1079.063,1120.035,1083.977,1126.039,1083.977L1126.039,1083.977z"/>
	</g>
	<g>
		<path fill="#FFFFFF" d="M1178.929,1040.203c-1.367,0-2.428,0.514-3.178,1.542c-0.75,1.027-1.126,2.461-1.126,4.298
			c0,3.821,1.435,5.733,4.304,5.733c1.203,0,2.661-0.302,4.373-0.903v3.049c-1.407,0.586-2.978,0.879-4.714,0.879
			c-2.494,0-4.4-0.757-5.722-2.268c-1.321-1.515-1.981-3.685-1.981-6.515c0-1.782,0.324-3.344,0.974-4.685
			c0.647-1.34,1.581-2.368,2.797-3.082c1.215-0.717,2.639-1.074,4.273-1.074c1.665,0,3.337,0.403,5.018,1.208l-1.173,2.955
			c-0.64-0.305-1.286-0.57-1.935-0.798S1179.555,1040.203,1178.929,1040.203z"/>
		<path fill="#FFFFFF" d="M1195.953,1054.566l-0.481-1.677h-0.187c-0.384,0.609-0.926,1.081-1.63,1.412
			c-0.704,0.333-1.505,0.499-2.403,0.499c-1.541,0-2.702-0.412-3.483-1.236c-0.781-0.825-1.172-2.012-1.172-3.559v-8.548h3.576
			v7.656c0,0.945,0.168,1.655,0.504,2.129c0.336,0.472,0.871,0.708,1.606,0.708c1,0,1.724-0.333,2.169-1.002
			c0.445-0.667,0.668-1.776,0.668-3.324v-6.167h3.577v13.108H1195.953z"/>
		<path fill="#FFFFFF" d="M1209.741,1041.211c1.549,0,2.761,0.605,3.636,1.812c0.874,1.209,1.313,2.863,1.313,4.966
			c0,2.165-0.452,3.842-1.355,5.03c-0.901,1.188-2.132,1.782-3.687,1.782c-1.54,0-2.749-0.559-3.623-1.677h-0.247l-0.598,1.442
			h-2.732v-18.244h3.577v4.244c0,0.54-0.047,1.402-0.142,2.591h0.142C1206.861,1041.86,1208.1,1041.211,1209.741,1041.211z
			 M1208.593,1044.072c-0.884,0-1.528,0.272-1.935,0.816c-0.407,0.542-0.619,1.439-0.633,2.689v0.387
			c0,1.407,0.208,2.416,0.626,3.025s1.081,0.914,1.988,0.914c0.734,0,1.318-0.338,1.753-1.013c0.434-0.678,0.651-1.66,0.651-2.95
			c0-1.289-0.22-2.257-0.657-2.902C1209.948,1044.396,1209.351,1044.072,1208.593,1044.072z"/>
		<path fill="#FFFFFF" d="M1217.492,1038.069c0-1.165,0.648-1.747,1.946-1.747c1.297,0,1.946,0.582,1.946,1.747
			c0,0.556-0.162,0.987-0.486,1.295c-0.325,0.31-0.813,0.463-1.46,0.463C1218.141,1039.827,1217.492,1039.241,1217.492,1038.069z
			 M1221.221,1054.566h-3.576v-13.108h3.576V1054.566z"/>
		<path fill="#FFFFFF" d="M1230.905,1054.801c-2.11,0-3.76-0.582-4.947-1.747c-1.188-1.165-1.783-2.814-1.783-4.947
			c0-2.197,0.55-3.896,1.648-5.095c1.098-1.2,2.616-1.801,4.555-1.801c1.853,0,3.295,0.528,4.326,1.583
			c1.032,1.056,1.548,2.515,1.548,4.374v1.735h-8.454c0.04,1.016,0.34,1.81,0.903,2.38c0.563,0.57,1.352,0.856,2.368,0.856
			c0.789,0,1.536-0.082,2.24-0.247c0.703-0.163,1.438-0.426,2.204-0.784v2.766c-0.626,0.313-1.295,0.545-2.005,0.699
			C1232.797,1054.724,1231.929,1054.801,1230.905,1054.801z M1230.401,1043.756c-0.759,0-1.353,0.24-1.782,0.721
			c-0.43,0.481-0.677,1.162-0.738,2.046h5.018c-0.016-0.884-0.245-1.564-0.691-2.046
			C1231.761,1043.996,1231.159,1043.756,1230.401,1043.756z"/>
		<path fill="#FFFFFF" d="M1239.441,1037.425h5.334c2.433,0,4.196,0.345,5.295,1.038c1.099,0.69,1.647,1.792,1.647,3.3
			c0,1.024-0.241,1.864-0.723,2.521c-0.479,0.657-1.119,1.051-1.915,1.185v0.117c1.086,0.242,1.868,0.696,2.35,1.36
			c0.48,0.663,0.722,1.547,0.722,2.649c0,1.563-0.564,2.783-1.694,3.658c-1.131,0.876-2.663,1.313-4.603,1.313h-6.413V1037.425z
			 M1243.076,1044.213h2.11c0.984,0,1.698-0.151,2.141-0.457c0.44-0.305,0.661-0.81,0.661-1.513c0-0.656-0.239-1.127-0.721-1.412
			c-0.48-0.286-1.241-0.429-2.28-0.429h-1.911V1044.213z M1243.076,1047.098v4.467h2.368c1,0,1.74-0.191,2.217-0.574
			s0.714-0.97,0.714-1.759c0-1.423-1.016-2.134-3.048-2.134H1243.076z"/>
		<path fill="#FFFFFF" d="M1267.207,1047.988c0,2.134-0.563,3.804-1.688,5.007c-1.126,1.204-2.694,1.806-4.702,1.806
			c-1.259,0-2.368-0.274-3.33-0.827c-0.962-0.55-1.699-1.342-2.216-2.374c-0.516-1.031-0.774-2.235-0.774-3.611
			c0-2.142,0.559-3.806,1.678-4.994c1.118-1.188,2.688-1.783,4.713-1.783c1.258,0,2.367,0.274,3.33,0.821
			c0.962,0.547,1.7,1.332,2.215,2.357C1266.947,1045.413,1267.207,1046.612,1267.207,1047.988z M1258.143,1047.988
			c0,1.297,0.212,2.279,0.639,2.943c0.426,0.663,1.12,0.996,2.082,0.996c0.954,0,1.64-0.33,2.059-0.989
			c0.417-0.661,0.626-1.644,0.626-2.95c0-1.297-0.211-2.271-0.634-2.919c-0.422-0.649-1.112-0.973-2.074-0.973
			c-0.955,0-1.642,0.322-2.064,0.966C1258.354,1045.708,1258.143,1046.683,1258.143,1047.988z"/>
		<path fill="#FFFFFF" d="M1278.486,1054.566l-0.692-1.782h-0.094c-0.603,0.758-1.221,1.283-1.857,1.577
			c-0.639,0.292-1.469,0.439-2.492,0.439c-1.259,0-2.249-0.359-2.972-1.078c-0.725-0.72-1.085-1.743-1.085-3.072
			c0-1.391,0.485-2.418,1.46-3.078c0.972-0.66,2.44-1.026,4.402-1.097l2.274-0.069v-0.575c0-1.329-0.68-1.993-2.041-1.993
			c-1.046,0-2.278,0.316-3.693,0.95l-1.183-2.415c1.508-0.79,3.181-1.186,5.018-1.186c1.759,0,3.107,0.384,4.045,1.149
			c0.938,0.767,1.407,1.931,1.407,3.494v8.735H1278.486z M1277.431,1048.492l-1.383,0.047c-1.041,0.032-1.814,0.219-2.323,0.563
			c-0.507,0.344-0.761,0.867-0.761,1.571c0,1.008,0.577,1.512,1.735,1.512c0.827,0,1.49-0.238,1.987-0.714
			c0.496-0.477,0.744-1.11,0.744-1.9V1048.492z"/>
		<path fill="#FFFFFF" d="M1291.98,1041.211c0.485,0,0.889,0.036,1.209,0.106l-0.271,3.354c-0.289-0.078-0.64-0.118-1.056-0.118
			c-1.142,0-2.029,0.293-2.668,0.88c-0.637,0.586-0.955,1.406-0.955,2.462v6.672h-3.576v-13.108h2.71l0.526,2.204h0.177
			c0.406-0.734,0.955-1.327,1.647-1.775C1290.414,1041.437,1291.168,1041.211,1291.98,1041.211z"/>
		<path fill="#FFFFFF" d="M1299.72,1054.801c-1.541,0-2.749-0.599-3.629-1.794c-0.879-1.195-1.319-2.854-1.319-4.971
			c0-2.15,0.447-3.825,1.343-5.024c0.896-1.2,2.128-1.801,3.699-1.801c1.648,0,2.907,0.642,3.775,1.923h0.117
			c-0.18-0.977-0.27-1.848-0.27-2.614v-4.197h3.589v18.244h-2.744l-0.692-1.7h-0.152
			C1302.623,1054.155,1301.385,1054.801,1299.72,1054.801z M1300.975,1051.951c0.914,0,1.584-0.265,2.011-0.797
			c0.426-0.532,0.657-1.435,0.697-2.708v-0.387c0-1.407-0.216-2.416-0.651-3.025c-0.433-0.609-1.138-0.914-2.116-0.914
			c-0.796,0-1.417,0.337-1.857,1.013c-0.442,0.677-0.663,1.659-0.663,2.95c0,1.289,0.223,2.256,0.669,2.901
			C1299.51,1051.628,1300.146,1051.951,1300.975,1051.951z"/>
	</g>
	<g>
		<g>
			<g>
				<path fill="#646464" d="M1306.067,1311.777c8.728,0,15.867,7.142,15.867,15.867v277.477c0,8.727-7.14,15.865-15.867,15.865
					H1111.07c-8.727,0-15.867-7.139-15.867-15.865v-277.477c0-8.726,7.141-15.867,15.867-15.867H1306.067z"/>
			</g>
			<g>
				<path fill="#221F1F" d="M1094.41,1605.121v-277.477c0-9.186,7.475-16.659,16.66-16.659h194.997
					c9.187,0,16.66,7.474,16.66,16.659v277.477c0,9.188-7.474,16.66-16.66,16.66H1111.07
					C1101.885,1621.781,1094.41,1614.309,1094.41,1605.121L1094.41,1605.121z M1321.142,1327.645c0-8.31-6.763-15.072-15.074-15.072
					H1111.07c-8.312,0-15.073,6.763-15.073,15.072v277.477c0,8.313,6.762,15.074,15.073,15.074h194.997
					c8.312,0,15.074-6.762,15.074-15.074V1327.645L1321.142,1327.645z"/>
			</g>
		</g>
		<g>
			<path fill="#FFFFFF" d="M1300.376,1317.53c8.727,0,15.867,7.142,15.867,15.867v265.97c0,8.729-7.141,15.869-15.867,15.869
				h-183.614c-8.727,0-15.866-7.141-15.866-15.869v-265.97c0-8.726,7.14-15.867,15.866-15.867H1300.376z"/>
		</g>
	</g>
	<g>
		<path fill="#221F1F" d="M1199.494,1475.693h-3.936v-8.036h-7.373v8.036h-3.949v-18.62h3.949v7.298h7.373v-7.298h3.936V1475.693z"
			/>
		<path fill="#221F1F" d="M1219.643,1466.205c0,3.065-0.873,5.413-2.617,7.043c-1.744,1.629-4.264,2.445-7.559,2.445h-5.273v-18.62
			h5.848c3.039,0,5.398,0.803,7.08,2.407C1218.803,1461.086,1219.643,1463.327,1219.643,1466.205z M1215.543,1466.308
			c0-3.999-1.768-5.999-5.299-5.999h-2.102v12.124h1.693C1213.641,1472.433,1215.543,1470.391,1215.543,1466.308z"/>
		<path fill="#221F1F" d="M1238.951,1466.205c0,3.065-0.873,5.413-2.617,7.043c-1.746,1.629-4.266,2.445-7.559,2.445h-5.273v-18.62
			h5.846c3.039,0,5.4,0.803,7.082,2.407C1238.109,1461.086,1238.951,1463.327,1238.951,1466.205z M1234.85,1466.308
			c0-3.999-1.768-5.999-5.299-5.999h-2.102v12.124h1.695C1232.947,1472.433,1234.85,1470.391,1234.85,1466.308z"/>
	</g>
	<g>
		<path fill="#221F1F" d="M1081.965,1150.696v12.049c0,1.375-0.307,2.58-0.924,3.616c-0.615,1.037-1.504,1.83-2.668,2.382
			c-1.162,0.553-2.539,0.828-4.125,0.828c-2.395,0-4.254-0.613-5.58-1.841c-1.324-1.226-1.986-2.905-1.986-5.037v-11.997h3.936
			v11.399c0,1.434,0.289,2.487,0.867,3.158c0.576,0.67,1.531,1.006,2.865,1.006c1.289,0,2.227-0.338,2.809-1.012
			c0.58-0.676,0.871-1.734,0.871-3.178v-11.374H1081.965z"/>
		<path fill="#221F1F" d="M1097.516,1164.145c0,1.682-0.605,3.006-1.814,3.974c-1.211,0.968-2.895,1.452-5.051,1.452
			c-1.986,0-3.744-0.374-5.271-1.121v-3.668c1.256,0.561,2.32,0.956,3.191,1.185c0.869,0.229,1.664,0.344,2.387,0.344
			c0.865,0,1.531-0.165,1.994-0.496c0.461-0.331,0.693-0.823,0.693-1.478c0-0.365-0.102-0.691-0.307-0.974
			c-0.203-0.285-0.504-0.56-0.896-0.822c-0.396-0.263-1.199-0.684-2.414-1.261c-1.139-0.535-1.992-1.049-2.561-1.541
			s-1.023-1.065-1.363-1.72c-0.338-0.654-0.508-1.418-0.508-2.292c0-1.647,0.557-2.942,1.674-3.885s2.66-1.414,4.629-1.414
			c0.969,0,1.893,0.115,2.77,0.345c0.881,0.229,1.799,0.552,2.758,0.968l-1.273,3.069c-0.992-0.408-1.814-0.692-2.463-0.854
			c-0.65-0.161-1.289-0.242-1.918-0.242c-0.748,0-1.32,0.174-1.719,0.522c-0.4,0.349-0.6,0.802-0.6,1.362
			c0,0.349,0.082,0.652,0.242,0.911c0.162,0.259,0.418,0.51,0.771,0.751c0.352,0.243,1.186,0.676,2.502,1.306
			c1.74,0.833,2.934,1.666,3.58,2.503C1097.193,1161.906,1097.516,1162.931,1097.516,1164.145z"/>
		<path fill="#221F1F" d="M1100.891,1150.696h5.795c2.641,0,4.557,0.376,5.752,1.128c1.191,0.75,1.787,1.946,1.787,3.585
			c0,1.112-0.26,2.024-0.783,2.738c-0.521,0.713-1.215,1.142-2.082,1.286v0.127c1.18,0.263,2.031,0.756,2.555,1.478
			c0.521,0.722,0.783,1.682,0.783,2.878c0,1.699-0.613,3.023-1.842,3.975c-1.227,0.95-2.893,1.426-4.998,1.426h-6.967V1150.696z
			 M1104.84,1158.07h2.291c1.07,0,1.846-0.165,2.326-0.496c0.479-0.331,0.719-0.879,0.719-1.644c0-0.713-0.262-1.225-0.783-1.535
			c-0.521-0.309-1.35-0.464-2.479-0.464h-2.074V1158.07z M1104.84,1161.204v4.853h2.572c1.086,0,1.889-0.209,2.406-0.625
			c0.518-0.415,0.777-1.052,0.777-1.911c0-1.544-1.105-2.317-3.311-2.317H1104.84z"/>
	</g>
</g>
</svg>
