<?xml version="1.0" encoding="utf-8"?>
<!-- Generator: Adobe Illustrator 14.0.0, SVG Export Plug-In . SVG Version: 6.00 Build 43363)  -->
<!DOCTYPE svg PUBLIC "-//W3C//DTD SVG 1.1//EN" "http://www.w3.org/Graphics/SVG/1.1/DTD/svg11.dtd">
<svg version="1.1" id="Слой_1" xmlns="http://www.w3.org/2000/svg" xmlns:xlink="http://www.w3.org/1999/xlink" x="0px" y="0px"
	 width="2834.65px" height="2834.65px" viewBox="0 0 2834.65 2834.65" enable-background="new 0 0 2834.65 2834.65"
	 xml:space="preserve">
<g>
	<g>
		<g>
			<g>
				<g>
					<g>
						<path fill="#FFFFFF" d="M1490.877,1312.622c0,3.261-2.667,5.928-5.928,5.928h-66.524c-3.261,0-5.928-2.667-5.928-5.928
							v-11.434c0-3.261,2.667-5.928,5.928-5.928h66.524c3.261,0,5.928,2.667,5.928,5.928V1312.622z"/>
					</g>
				</g>
				<g>
					<g>
						<path fill="#221F1F" d="M1484.949,1319.143h-66.524c-3.596,0-6.521-2.925-6.521-6.521v-11.434
							c0-3.596,2.925-6.521,6.521-6.521h66.524c3.596,0,6.521,2.925,6.521,6.521v11.434
							C1491.471,1316.218,1488.545,1319.143,1484.949,1319.143L1484.949,1319.143z M1418.425,1295.854
							c-2.942,0-5.335,2.393-5.335,5.335v11.434c0,2.942,2.393,5.335,5.335,5.335h66.524c2.942,0,5.336-2.393,5.336-5.335v-11.434
							c0-2.942-2.394-5.335-5.336-5.335H1418.425L1418.425,1295.854z"/>
					</g>
				</g>
			</g>
			<g>
				<g>
					<g>
						<path fill="#FFFFFF" d="M1852.135,1312.622c0,3.261-2.668,5.928-5.93,5.928h-66.523c-3.262,0-5.928-2.667-5.928-5.928v-11.434
							c0-3.261,2.666-5.928,5.928-5.928h66.523c3.262,0,5.93,2.667,5.93,5.928V1312.622z"/>
					</g>
				</g>
				<g>
					<g>
						<path fill="#221F1F" d="M1846.205,1319.143h-66.523c-3.596,0-6.521-2.925-6.521-6.521v-11.434
							c0-3.596,2.926-6.521,6.521-6.521h66.523c3.596,0,6.521,2.925,6.521,6.521v11.434
							C1852.727,1316.218,1849.801,1319.143,1846.205,1319.143L1846.205,1319.143z M1779.682,1295.854
							c-2.943,0-5.336,2.393-5.336,5.335v11.434c0,2.942,2.393,5.335,5.336,5.335h66.523c2.943,0,5.336-2.393,5.336-5.335v-11.434
							c0-2.942-2.393-5.335-5.336-5.335H1779.682L1779.682,1295.854z"/>
					</g>
				</g>
			</g>
		</g>
		<g>
			<g>
				<g>
					<g>
						<g>
							<path fill="#FFFFFF" d="M1888.012,1249.523c0,10.021-32.012,18.223-71.137,18.223h-369.119
								c-39.125,0-71.137-8.201-71.137-18.223s32.012-38.223,71.137-38.223h369.119
								C1856,1211.301,1888.012,1239.502,1888.012,1249.523z"/>
						</g>
					</g>
					<g>
						<g>
							<path fill="#221F1F" d="M1816.875,1268.339h-369.119c-40.223,0-71.729-8.265-71.729-18.815s31.507-38.815,71.729-38.815
								h369.119c40.223,0,71.73,28.265,71.73,38.815S1857.098,1268.339,1816.875,1268.339L1816.875,1268.339z M1447.756,1211.894
								c-38.239,0-70.544,28.073-70.544,37.63s32.305,17.63,70.544,17.63h369.119c38.238,0,70.545-8.073,70.545-17.63
								s-32.307-37.63-70.545-37.63H1447.756L1447.756,1211.894z"/>
						</g>
					</g>
				</g>
				<g>
					<g>
						<g>
							<path fill="#FFFFFF" d="M1888.012,1299.458c0,6.521-5.336,11.855-11.855,11.855h-487.682
								c-6.521,0-11.855-5.335-11.855-11.855v-47.251c0-6.521,5.335-11.855,11.855-11.855h487.682
								c6.52,0,11.855,5.335,11.855,11.855V1299.458z"/>
						</g>
					</g>
					<g>
						<g>
							<path fill="#221F1F" d="M1876.156,1311.906h-487.682c-6.863,0-12.448-5.584-12.448-12.448v-47.251
								c0-6.863,5.585-12.449,12.448-12.449h487.682c6.863,0,12.449,5.586,12.449,12.449v47.251
								C1888.605,1306.322,1883.02,1311.906,1876.156,1311.906L1876.156,1311.906z M1388.475,1240.943
								c-6.21,0-11.263,5.053-11.263,11.264v47.251c0,6.21,5.053,11.263,11.263,11.263h487.682c6.211,0,11.264-5.053,11.264-11.263
								v-47.251c0-6.211-5.053-11.264-11.264-11.264H1388.475L1388.475,1240.943z"/>
						</g>
					</g>
				</g>
				<g>
					<g>
						<rect x="1415.642" y="1249.398" fill="#FFFFFF" width="433.347" height="52.868"/>
					</g>
					<g>
						<path fill="#221F1F" d="M1849.582,1302.859h-434.533v-54.054h434.533V1302.859L1849.582,1302.859z M1416.234,1301.674h432.162
							v-51.683h-432.162V1301.674L1416.234,1301.674z"/>
					</g>
				</g>
			</g>
			<g>
				<g>
					<g>
						<circle fill="#FFFFFF" cx="1814.032" cy="1273.461" r="22.229"/>
					</g>
					<g>
						<path fill="#221F1F" d="M1814.031,1296.283c-12.584,0-22.82-10.238-22.82-22.822s10.236-22.821,22.82-22.821
							s22.822,10.237,22.822,22.821S1826.615,1296.283,1814.031,1296.283L1814.031,1296.283z M1814.031,1251.825
							c-11.93,0-21.635,9.706-21.635,21.636c0,11.931,9.705,21.637,21.635,21.637c11.932,0,21.637-9.706,21.637-21.637
							C1835.668,1261.531,1825.963,1251.825,1814.031,1251.825L1814.031,1251.825z"/>
					</g>
				</g>
				<g>
					<g>
						<g>
							<g>
								<path fill="#FFFFFF" d="M1826.48,1274.97c0,6.521-5.336,11.856-11.855,11.856h-1.186c-6.521,0-11.855-5.336-11.855-11.856
									v-192.769c0-6.521,5.334-11.855,11.855-11.855h1.186c6.52,0,11.855,5.335,11.855,11.855V1274.97z"/>
							</g>
						</g>
						<g>
							<g>
								<path fill="#221F1F" d="M1814.625,1287.419h-1.186c-6.863,0-12.449-5.585-12.449-12.449v-192.769
									c0-6.863,5.586-12.448,12.449-12.448h1.186c6.863,0,12.449,5.585,12.449,12.448v192.769
									C1827.074,1281.834,1821.488,1287.419,1814.625,1287.419L1814.625,1287.419z M1813.439,1070.938
									c-6.211,0-11.264,5.053-11.264,11.263v192.769c0,6.211,5.053,11.264,11.264,11.264h1.186
									c6.211,0,11.264-5.053,11.264-11.264v-192.769c0-6.21-5.053-11.263-11.264-11.263H1813.439L1813.439,1070.938z"/>
							</g>
						</g>
					</g>
					<g>
						<g>
							<rect x="1801.584" y="1108.539" fill="#646464" width="24.896" height="6.694"/>
						</g>
						<g>
							<path fill="#221F1F" d="M1827.074,1115.826h-26.084v-7.881h26.084V1115.826L1827.074,1115.826z M1802.176,1114.641h23.713
								v-5.51h-23.713V1114.641L1802.176,1114.641z"/>
						</g>
					</g>
				</g>
			</g>
		</g>
	</g>
	<g>
		<g>
			<g>
				<g>
					<rect x="1476.863" y="1260.516" fill="#221F1F" width="37.148" height="24.44"/>
				</g>
			</g>
			<g>
				<g>
					<rect x="1485.174" y="1279.33" fill="#221F1F" width="20.527" height="10.274"/>
				</g>
			</g>
			<g>
				<g>
					<rect x="1489.574" y="1282.263" fill="#221F1F" width="11.729" height="10.274"/>
				</g>
			</g>
		</g>
		<g>
			<g>
				<g>
					<polygon fill="#FFFFFF" points="1487.527,1273.465 1485.748,1273.465 1485.748,1263.199 1487.527,1263.199 1487.527,1273.465 
											"/>
				</g>
			</g>
			<g>
				<g>
					<polygon fill="#FFFFFF" points="1491.927,1273.465 1490.148,1273.465 1490.148,1263.199 1491.927,1263.199 1491.927,1273.465 
											"/>
				</g>
			</g>
			<g>
				<g>
					<polygon fill="#FFFFFF" points="1496.326,1273.465 1494.547,1273.465 1494.547,1263.199 1496.326,1263.199 1496.326,1273.465 
											"/>
				</g>
			</g>
			<g>
				<g>
					<polygon fill="#FFFFFF" points="1500.725,1273.465 1498.947,1273.465 1498.947,1263.199 1500.725,1263.199 1500.725,1273.465 
											"/>
				</g>
			</g>
			<g>
				<g>
					<polygon fill="#FFFFFF" points="1505.124,1273.465 1503.346,1273.465 1503.346,1263.199 1505.124,1263.199 1505.124,1273.465 
											"/>
				</g>
			</g>
		</g>
	</g>
	<g>
		<g>
			<g>
				<g>
					<rect x="1523.999" y="1260.516" fill="#221F1F" width="37.148" height="24.44"/>
				</g>
			</g>
			<g>
				<g>
					<rect x="1532.31" y="1279.33" fill="#221F1F" width="20.528" height="10.274"/>
				</g>
			</g>
			<g>
				<g>
					<rect x="1536.71" y="1282.263" fill="#221F1F" width="11.729" height="10.274"/>
				</g>
			</g>
		</g>
		<g>
			<g>
				<g>
					<polygon fill="#FFFFFF" points="1534.663,1273.465 1532.885,1273.465 1532.885,1263.199 1534.663,1263.199 1534.663,1273.465 
											"/>
				</g>
			</g>
			<g>
				<g>
					<polygon fill="#FFFFFF" points="1539.063,1273.465 1537.284,1273.465 1537.284,1263.199 1539.063,1263.199 1539.063,1273.465 
											"/>
				</g>
			</g>
			<g>
				<g>
					<polygon fill="#FFFFFF" points="1543.462,1273.465 1541.684,1273.465 1541.684,1263.199 1543.462,1263.199 1543.462,1273.465 
											"/>
				</g>
			</g>
			<g>
				<g>
					<polygon fill="#FFFFFF" points="1547.861,1273.465 1546.083,1273.465 1546.083,1263.199 1547.861,1263.199 1547.861,1273.465 
											"/>
				</g>
			</g>
			<g>
				<g>
					<polygon fill="#FFFFFF" points="1552.261,1273.465 1550.481,1273.465 1550.481,1263.199 1552.261,1263.199 1552.261,1273.465 
											"/>
				</g>
			</g>
		</g>
	</g>
	<g>
		<g>
			<g>
				<g>
					<rect x="1571.423" y="1260.516" fill="#221F1F" width="37.149" height="24.44"/>
				</g>
			</g>
			<g>
				<g>
					<rect x="1579.733" y="1279.33" fill="#221F1F" width="20.528" height="10.274"/>
				</g>
			</g>
			<g>
				<g>
					<rect x="1584.134" y="1282.263" fill="#221F1F" width="11.729" height="10.274"/>
				</g>
			</g>
		</g>
		<g>
			<g>
				<g>
					<polygon fill="#FFFFFF" points="1582.087,1273.465 1580.31,1273.465 1580.31,1263.199 1582.087,1263.199 1582.087,1273.465 
											"/>
				</g>
			</g>
			<g>
				<g>
					<polygon fill="#FFFFFF" points="1586.487,1273.465 1584.709,1273.465 1584.709,1263.199 1586.487,1263.199 1586.487,1273.465 
											"/>
				</g>
			</g>
			<g>
				<g>
					<polygon fill="#FFFFFF" points="1590.886,1273.465 1589.108,1273.465 1589.108,1263.199 1590.886,1263.199 1590.886,1273.465 
											"/>
				</g>
			</g>
			<g>
				<g>
					<polygon fill="#FFFFFF" points="1595.285,1273.465 1593.507,1273.465 1593.507,1263.199 1595.285,1263.199 1595.285,1273.465 
											"/>
				</g>
			</g>
			<g>
				<g>
					<polygon fill="#FFFFFF" points="1599.685,1273.465 1597.906,1273.465 1597.906,1263.199 1599.685,1263.199 1599.685,1273.465 
											"/>
				</g>
			</g>
		</g>
	</g>
	<g>
		<g>
			<g>
				<g>
					<rect x="1618.848" y="1260.516" fill="#221F1F" width="37.148" height="24.44"/>
				</g>
			</g>
			<g>
				<g>
					<rect x="1627.156" y="1279.33" fill="#221F1F" width="20.529" height="10.274"/>
				</g>
			</g>
			<g>
				<g>
					<rect x="1631.557" y="1282.263" fill="#221F1F" width="11.729" height="10.274"/>
				</g>
			</g>
		</g>
		<g>
			<g>
				<g>
					<polygon fill="#FFFFFF" points="1629.512,1273.465 1627.732,1273.465 1627.732,1263.199 1629.512,1263.199 1629.512,1273.465 
											"/>
				</g>
			</g>
			<g>
				<g>
					<polygon fill="#FFFFFF" points="1633.91,1273.465 1632.133,1273.465 1632.133,1263.199 1633.91,1263.199 1633.91,1273.465 
											"/>
				</g>
			</g>
			<g>
				<g>
					<polygon fill="#FFFFFF" points="1638.311,1273.465 1636.531,1273.465 1636.531,1263.199 1638.311,1263.199 1638.311,1273.465 
											"/>
				</g>
			</g>
			<g>
				<g>
					<polygon fill="#FFFFFF" points="1642.709,1273.465 1640.93,1273.465 1640.93,1263.199 1642.709,1263.199 1642.709,1273.465 
											"/>
				</g>
			</g>
			<g>
				<g>
					<polygon fill="#FFFFFF" points="1647.107,1273.465 1645.33,1273.465 1645.33,1263.199 1647.107,1263.199 1647.107,1273.465 
											"/>
				</g>
			</g>
		</g>
	</g>
	<g>
		<g>
			<g>
				<g>
					<rect x="1720.271" y="1260.516" fill="#221F1F" width="37.148" height="24.44"/>
				</g>
			</g>
			<g>
				<g>
					<rect x="1728.582" y="1279.33" fill="#221F1F" width="20.527" height="10.274"/>
				</g>
			</g>
			<g>
				<g>
					<rect x="1732.982" y="1282.263" fill="#221F1F" width="11.729" height="10.274"/>
				</g>
			</g>
		</g>
		<g>
			<g>
				<g>
					<polygon fill="#FFFFFF" points="1730.936,1273.465 1729.156,1273.465 1729.156,1263.199 1730.936,1263.199 1730.936,1273.465 
											"/>
				</g>
			</g>
			<g>
				<g>
					<polygon fill="#FFFFFF" points="1735.334,1273.465 1733.557,1273.465 1733.557,1263.199 1735.334,1263.199 1735.334,1273.465 
											"/>
				</g>
			</g>
			<g>
				<g>
					<polygon fill="#FFFFFF" points="1739.734,1273.465 1737.955,1273.465 1737.955,1263.199 1739.734,1263.199 1739.734,1273.465 
											"/>
				</g>
			</g>
			<g>
				<g>
					<polygon fill="#FFFFFF" points="1744.133,1273.465 1742.355,1273.465 1742.355,1263.199 1744.133,1263.199 1744.133,1273.465 
											"/>
				</g>
			</g>
			<g>
				<g>
					<polygon fill="#FFFFFF" points="1748.531,1273.465 1746.754,1273.465 1746.754,1263.199 1748.531,1263.199 1748.531,1273.465 
											"/>
				</g>
			</g>
		</g>
	</g>
	<g>
		<g>
			<g>
				<circle fill="#221F1F" cx="1448.97" cy="1275.832" r="14.228"/>
			</g>
		</g>
		<g>
			<g>
				<circle fill="#FFFFFF" cx="1448.97" cy="1275.832" r="3.545"/>
			</g>
		</g>
	</g>
	<g>
		<g>
			<g>
				<g>
					<g>
						<path fill="#FFFFFF" d="M1756.699,1268.835c0-1.304-1.066-2.371-2.371-2.371h-31.27c-1.305,0-2.371,1.067-2.371,2.371v18.948
							c0,1.305,1.066,2.371,2.371,2.371h31.27c1.305,0,2.371-1.066,2.371-2.371V1268.835z"/>
					</g>
				</g>
				<g>
					<g>
						<path fill="#221F1F" d="M1754.328,1290.748h-31.27c-1.635,0-2.965-1.33-2.965-2.965v-18.948c0-1.634,1.33-2.964,2.965-2.964
							h31.27c1.635,0,2.963,1.33,2.963,2.964v18.948C1757.291,1289.418,1755.963,1290.748,1754.328,1290.748L1754.328,1290.748z
							 M1723.059,1267.057c-0.98,0-1.777,0.797-1.777,1.778v18.948c0,0.98,0.797,1.779,1.777,1.779h31.27
							c0.98,0,1.777-0.799,1.777-1.779v-18.948c0-0.981-0.797-1.778-1.777-1.778H1723.059L1723.059,1267.057z"/>
					</g>
				</g>
			</g>
			<g>
				<g>
					<polygon fill="#FFFFFF" points="1756.699,1266.464 1720.688,1266.464 1724.479,1263.62 1752.908,1263.62 					"/>
				</g>
				<g>
					<path fill="#221F1F" d="M1756.699,1267.057h-36.012c-0.256,0-0.482-0.164-0.563-0.405c-0.08-0.242,0.002-0.509,0.207-0.662
						l3.791-2.843c0.102-0.078,0.227-0.119,0.355-0.119h28.43c0.129,0,0.254,0.041,0.355,0.119l3.791,2.843
						c0.205,0.153,0.287,0.42,0.207,0.662C1757.182,1266.893,1756.955,1267.057,1756.699,1267.057L1756.699,1267.057z
						 M1722.465,1265.871h32.457l-2.211-1.658h-28.035L1722.465,1265.871L1722.465,1265.871z"/>
				</g>
			</g>
		</g>
		<g>
			<g>
				<g>
					<path fill="#FFFFFF" d="M1750.727,1271.727h-24.066c-1.305,0-2.371,1.068-2.371,2.371v8.422c0,1.303,1.066,2.371,2.371,2.371
						h6.449v405.899c0,3.26,2.512,5.928,5.584,5.928s5.584-2.668,5.584-5.928v-405.899h6.449c1.305,0,2.371-1.068,2.371-2.371
						v-8.422C1753.098,1272.795,1752.031,1271.727,1750.727,1271.727z"/>
				</g>
				<g>
					<path fill="#221F1F" d="M1738.693,1697.311c-3.406,0-6.178-2.926-6.178-6.521v-405.308h-5.855
						c-1.635,0-2.965-1.329-2.965-2.963v-8.422c0-1.634,1.33-2.963,2.965-2.963h24.066c1.635,0,2.965,1.329,2.965,2.963v8.422
						c0,1.634-1.33,2.963-2.965,2.963h-5.855v405.308C1744.871,1694.385,1742.1,1697.311,1738.693,1697.311L1738.693,1697.311z
						 M1726.66,1272.32c-0.98,0-1.779,0.797-1.779,1.777v8.422c0,0.98,0.799,1.777,1.779,1.777h7.041v406.493
						c0,2.941,2.24,5.335,4.992,5.335s4.992-2.394,4.992-5.335v-406.493h7.041c0.98,0,1.779-0.797,1.779-1.777v-8.422
						c0-0.98-0.799-1.777-1.779-1.777H1726.66L1726.66,1272.32z"/>
				</g>
			</g>
			<g>
				<g>
					<path fill="#CFD0CB" d="M1887.377,1702.825c0-16.453-13.336-29.787-29.787-29.787c-0.525,0-1.041,0.052-1.561,0.077
						c-5.68-22.76-26.254-39.624-50.771-39.624c-9.727,0-18.828,2.663-26.631,7.285c-6.926-15.036-22.119-25.479-39.76-25.479
						c-17.904,0-33.287,10.755-40.064,26.154c-6.262-2.678-13.152-4.164-20.393-4.164c-23.797,0-43.841,16.019-49.975,37.857
						c-21.385,1.255-38.344,18.988-38.344,40.69c0,22.515,18.252,40.768,40.768,40.768c7.243,0,14.039-1.896,19.935-5.209
						c7.185,11.608,20.03,19.346,34.685,19.346c4.838,0,9.479-0.848,13.783-2.395c9.488,13.982,25.51,23.168,43.678,23.168
						c23.719,0,43.779-15.654,50.416-37.194c7.666,9.219,19.221,15.088,32.146,15.088c21.936,0,39.91-16.903,41.641-38.391
						C1878.902,1727.031,1887.377,1715.928,1887.377,1702.825z"/>
				</g>
			</g>
			<g>
				<g>
					<path fill="#221F1F" d="M1687.707,1714.636v-18.62h3.947v18.62H1687.707z"/>
				</g>
				<g>
					<path fill="#221F1F" d="M1709.18,1714.636h-3.885v-8.316c0-1.027-0.182-1.798-0.547-2.313c-0.365-0.513-0.947-0.77-1.744-0.77
						c-1.088,0-1.873,0.362-2.357,1.09c-0.484,0.725-0.725,1.929-0.725,3.609v6.699h-3.885v-14.238h2.967l0.521,1.821h0.217
						c0.434-0.688,1.029-1.208,1.789-1.56c0.76-0.354,1.625-0.529,2.592-0.529c1.656,0,2.912,0.448,3.771,1.344
						c0.857,0.896,1.285,2.188,1.285,3.878V1714.636z"/>
				</g>
				<g>
					<path fill="#221F1F" d="M1719.178,1711.796c0.68,0,1.494-0.148,2.445-0.445v2.891c-0.969,0.433-2.156,0.649-3.566,0.649
						c-1.553,0-2.686-0.393-3.395-1.179c-0.709-0.785-1.063-1.962-1.063-3.533v-6.865h-1.859v-1.643l2.139-1.299l1.121-3.006h2.484
						v3.031h3.986v2.916h-3.986v6.865c0,0.552,0.154,0.96,0.465,1.223C1718.258,1711.664,1718.668,1711.796,1719.178,1711.796z"/>
				</g>
				<g>
					<path fill="#221F1F" d="M1730.945,1714.891c-2.293,0-4.084-0.632-5.375-1.897s-1.936-3.057-1.936-5.375
						c0-2.386,0.598-4.23,1.789-5.533c1.193-1.304,2.842-1.955,4.949-1.955c2.012,0,3.578,0.573,4.699,1.719
						c1.121,1.146,1.682,2.73,1.682,4.751v1.885h-9.184c0.043,1.104,0.369,1.966,0.98,2.586c0.611,0.619,1.469,0.93,2.574,0.93
						c0.855,0,1.668-0.09,2.432-0.268c0.764-0.179,1.563-0.464,2.395-0.854v3.006c-0.68,0.339-1.406,0.592-2.178,0.758
						C1733,1714.808,1732.059,1714.891,1730.945,1714.891z M1730.398,1702.894c-0.824,0-1.469,0.262-1.936,0.782
						c-0.469,0.523-0.734,1.264-0.803,2.224h5.451c-0.018-0.96-0.268-1.7-0.752-2.224
						C1731.875,1703.155,1731.221,1702.894,1730.398,1702.894z"/>
				</g>
				<g>
					<path fill="#221F1F" d="M1747.859,1700.13c0.525,0,0.963,0.038,1.313,0.114l-0.293,3.643c-0.314-0.084-0.697-0.127-1.146-0.127
						c-1.24,0-2.207,0.318-2.898,0.955s-1.037,1.528-1.037,2.675v7.246h-3.885v-14.238h2.941l0.574,2.395h0.189
						c0.441-0.798,1.039-1.441,1.791-1.93C1746.158,1700.374,1746.977,1700.13,1747.859,1700.13z"/>
				</g>
				<g>
					<path fill="#221F1F" d="M1764.9,1714.636h-3.885v-8.316c0-1.027-0.184-1.798-0.549-2.313c-0.365-0.513-0.945-0.77-1.744-0.77
						c-1.088,0-1.871,0.362-2.355,1.09c-0.484,0.725-0.727,1.929-0.727,3.609v6.699h-3.885v-14.238h2.969l0.521,1.821h0.217
						c0.434-0.688,1.029-1.208,1.789-1.56c0.76-0.354,1.623-0.529,2.592-0.529c1.656,0,2.912,0.448,3.77,1.344
						s1.287,2.188,1.287,3.878V1714.636z"/>
				</g>
				<g>
					<path fill="#221F1F" d="M1775.344,1714.891c-2.293,0-4.084-0.632-5.375-1.897s-1.936-3.057-1.936-5.375
						c0-2.386,0.596-4.23,1.789-5.533c1.193-1.304,2.842-1.955,4.947-1.955c2.014,0,3.58,0.573,4.701,1.719
						c1.119,1.146,1.68,2.73,1.68,4.751v1.885h-9.182c0.041,1.104,0.369,1.966,0.98,2.586c0.611,0.619,1.469,0.93,2.572,0.93
						c0.857,0,1.668-0.09,2.434-0.268c0.764-0.179,1.561-0.464,2.393-0.854v3.006c-0.678,0.339-1.404,0.592-2.178,0.758
						C1777.398,1714.808,1776.455,1714.891,1775.344,1714.891z M1774.795,1702.894c-0.822,0-1.469,0.262-1.936,0.782
						c-0.467,0.523-0.734,1.264-0.803,2.224h5.451c-0.018-0.96-0.268-1.7-0.75-2.224
						C1776.273,1703.155,1775.619,1702.894,1774.795,1702.894z"/>
				</g>
				<g>
					<path fill="#221F1F" d="M1790.309,1711.796c0.678,0,1.494-0.148,2.445-0.445v2.891c-0.969,0.433-2.158,0.649-3.566,0.649
						c-1.555,0-2.686-0.393-3.395-1.179c-0.709-0.785-1.063-1.962-1.063-3.533v-6.865h-1.859v-1.643l2.139-1.299l1.121-3.006h2.484
						v3.031h3.986v2.916h-3.986v6.865c0,0.552,0.154,0.96,0.465,1.223C1789.389,1711.664,1789.799,1711.796,1790.309,1711.796z"/>
				</g>
			</g>
		</g>
	</g>
	<g>
		<g>
			<path fill="#221F1F" d="M1178.491,1474.004h-10.724v-18.62h10.724v3.234h-6.775v4.089h6.304v3.234h-6.304v4.802h6.775V1474.004z"
				/>
		</g>
		<g>
			<path fill="#221F1F" d="M1188.068,1471.163c0.68,0,1.494-0.148,2.445-0.445v2.891c-0.968,0.434-2.156,0.649-3.565,0.649
				c-1.554,0-2.686-0.393-3.395-1.179c-0.709-0.784-1.063-1.962-1.063-3.533v-6.864h-1.859v-1.644l2.14-1.299l1.121-3.006h2.483
				v3.031h3.986v2.917h-3.986v6.864c0,0.552,0.154,0.96,0.465,1.223C1187.149,1471.031,1187.56,1471.163,1188.068,1471.163z"/>
		</g>
		<g>
			<path fill="#221F1F" d="M1206.536,1474.004h-3.885v-8.317c0-2.055-0.765-3.082-2.292-3.082c-1.088,0-1.873,0.369-2.356,1.108
				c-0.484,0.738-0.726,1.936-0.726,3.592v6.699h-3.885v-19.817h3.885v4.037c0,0.313-0.031,1.053-0.09,2.216l-0.089,1.146h0.204
				c0.865-1.393,2.241-2.089,4.126-2.089c1.673,0,2.942,0.45,3.808,1.351c0.867,0.899,1.3,2.19,1.3,3.871V1474.004z"/>
		</g>
		<g>
			<path fill="#221F1F" d="M1216.979,1474.258c-2.292,0-4.084-0.632-5.374-1.897c-1.291-1.266-1.937-3.057-1.937-5.374
				c0-2.387,0.597-4.231,1.79-5.533c1.191-1.305,2.842-1.956,4.947-1.956c2.012,0,3.579,0.573,4.699,1.72
				c1.121,1.146,1.682,2.729,1.682,4.75v1.885h-9.183c0.042,1.104,0.369,1.967,0.98,2.586s1.469,0.93,2.573,0.93
				c0.857,0,1.668-0.089,2.432-0.268c0.765-0.179,1.563-0.463,2.395-0.854v3.006c-0.68,0.339-1.405,0.592-2.178,0.759
				C1219.034,1474.175,1218.092,1474.258,1216.979,1474.258z M1216.432,1462.261c-0.824,0-1.469,0.262-1.936,0.782
				c-0.467,0.523-0.734,1.264-0.803,2.224h5.451c-0.018-0.96-0.268-1.7-0.752-2.224
				C1217.909,1462.522,1217.255,1462.261,1216.432,1462.261z"/>
		</g>
		<g>
			<path fill="#221F1F" d="M1233.893,1459.497c0.526,0,0.963,0.038,1.313,0.114l-0.293,3.643c-0.314-0.084-0.697-0.127-1.146-0.127
				c-1.24,0-2.206,0.318-2.897,0.955c-0.692,0.637-1.038,1.528-1.038,2.675v7.247h-3.885v-14.239h2.942l0.573,2.395h0.191
				c0.44-0.798,1.037-1.441,1.789-1.929C1232.192,1459.741,1233.01,1459.497,1233.893,1459.497z"/>
		</g>
		<g>
			<path fill="#221F1F" d="M1250.934,1474.004h-3.885v-8.317c0-1.026-0.183-1.798-0.547-2.312c-0.366-0.514-0.947-0.771-1.745-0.771
				c-1.087,0-1.872,0.362-2.356,1.09c-0.484,0.725-0.727,1.929-0.727,3.61v6.699h-3.884v-14.239h2.968l0.521,1.821h0.217
				c0.434-0.688,1.029-1.208,1.789-1.56c0.76-0.354,1.624-0.529,2.592-0.529c1.656,0,2.912,0.448,3.771,1.345
				c0.857,0.895,1.286,2.188,1.286,3.877V1474.004z"/>
		</g>
		<g>
			<path fill="#221F1F" d="M1261.377,1474.258c-2.292,0-4.084-0.632-5.375-1.897c-1.29-1.266-1.936-3.057-1.936-5.374
				c0-2.387,0.597-4.231,1.789-5.533c1.193-1.305,2.843-1.956,4.948-1.956c2.013,0,3.579,0.573,4.7,1.72
				c1.12,1.146,1.681,2.729,1.681,4.75v1.885h-9.183c0.042,1.104,0.369,1.967,0.98,2.586s1.469,0.93,2.573,0.93
				c0.857,0,1.668-0.089,2.433-0.268c0.764-0.179,1.562-0.463,2.395-0.854v3.006c-0.68,0.339-1.406,0.592-2.179,0.759
				C1263.432,1474.175,1262.489,1474.258,1261.377,1474.258z M1260.829,1462.261c-0.823,0-1.469,0.262-1.936,0.782
				c-0.467,0.523-0.734,1.264-0.803,2.224h5.451c-0.018-0.96-0.268-1.7-0.751-2.224
				C1262.307,1462.522,1261.652,1462.261,1260.829,1462.261z"/>
		</g>
		<g>
			<path fill="#221F1F" d="M1276.342,1471.163c0.679,0,1.494-0.148,2.445-0.445v2.891c-0.968,0.434-2.157,0.649-3.566,0.649
				c-1.554,0-2.686-0.393-3.394-1.179c-0.709-0.784-1.063-1.962-1.063-3.533v-6.864h-1.859v-1.644l2.14-1.299l1.12-3.006h2.484
				v3.031h3.986v2.917h-3.986v6.864c0,0.552,0.154,0.96,0.465,1.223C1275.423,1471.031,1275.832,1471.163,1276.342,1471.163z"/>
		</g>
	</g>
	<g>
		<g>
			<g>
				<g>
					<g>
						<path fill="#FFFFFF" d="M1320.781,1181.741c-2.746,0-4.992,3.004-4.992,22.566v147.014c0,19.563-8.102,29.641-30.825,29.641
							h-88.532c-19.563,0-35.568,2.246-35.568,4.992c0,2.744,16.006,4.99,35.568,4.99h94.959c19.563,0,34.383-14.818,34.383-34.381
							v-152.256C1325.773,1184.745,1323.527,1181.741,1320.781,1181.741z"/>
					</g>
					<g>
						<path fill="#221F1F" d="M1160.271,1385.954c0-4.098,21.625-5.586,36.161-5.586h88.532c21.191,0,30.232-8.688,30.232-29.047
							v-147.014c0-14.535,1.487-23.16,5.585-23.16s5.585,8.625,5.585,23.16v152.256c0,19.938-15.036,34.975-34.976,34.975h-94.959
							C1181.896,1391.538,1160.271,1390.052,1160.271,1385.954L1160.271,1385.954z M1325.181,1356.563v-152.256
							c0-22.963-2.863-21.975-4.399-21.975c-1.535,0-4.398-0.988-4.398,21.975v147.014c0,21.191-9.396,30.232-31.419,30.232h-88.532
							c-22.963,0-34.976,2.865-34.976,4.4s12.013,4.398,34.976,4.398h94.959C1310.654,1390.353,1325.181,1375.827,1325.181,1356.563
							L1325.181,1356.563z"/>
					</g>
				</g>
			</g>
			<g>
				<g>
					<g>
						<path fill="#FFFFFF" d="M1209.6,1379.921c1.357,0.123,7.348,0.029,8.908,0.037c1.568,0.01,1.568,11.932,0,11.939
							c-1.965,0.012-7.508-0.189-9.156,0C1210.15,1388.187,1209.776,1383.667,1209.6,1379.921z"/>
					</g>
					<g>
						<path fill="#221F1F" d="M1208.598,1392.581l0.174-0.809c0.322-1.494,0.479-3.283,0.479-5.467c0-1.672-0.087-3.344-0.172-4.957
							l-0.103-2.08l0.677,0.061c0.955,0.088,4.438,0.063,6.743,0.047c0.915-0.006,1.684-0.012,2.115-0.01
							c1.46,0.008,1.767,3.572,1.767,6.563c0,2.988-0.307,6.555-1.767,6.563c-0.62,0.004-1.593-0.014-2.688-0.033
							c-2.366-0.043-5.312-0.098-6.403,0.029L1208.598,1392.581L1208.598,1392.581z M1218.396,1391.306
							c0.295-0.393,0.695-2.273,0.695-5.377s-0.4-4.984-0.695-5.377c-0.441-0.002-1.155,0.004-1.993,0.01
							c-2.06,0.014-4.756,0.033-6.179-0.014l0.037,0.738c0.086,1.629,0.174,3.316,0.174,5.02c0,1.91-0.117,3.539-0.357,4.947
							c1.434-0.061,3.797-0.018,5.767,0.02C1216.867,1391.29,1217.782,1391.306,1218.396,1391.306L1218.396,1391.306z"/>
					</g>
				</g>
				<g>
					<g>
						<path fill="#FFFFFF" d="M1207.229,1379.776c1.357,0.123,6.162,0.174,7.723,0.182c1.568,0.01,1.568,11.932,0,11.939
							c-1.965,0.012-6.074-0.189-7.723,0C1208.027,1388.187,1207.405,1383.521,1207.229,1379.776z"/>
					</g>
					<g>
						<path fill="#221F1F" d="M1206.475,1392.581l0.174-0.809c0.259-1.201,0.385-2.613,0.385-4.316c0-1.68-0.119-3.398-0.235-5.061
							c-0.063-0.896-0.122-1.766-0.162-2.592l-0.032-0.68l0.678,0.061c1.248,0.113,5.708,0.172,7.672,0.182
							c1.461,0.008,1.768,3.572,1.768,6.563c0,2.988-0.307,6.555-1.768,6.563c-0.646,0.004-1.525-0.016-2.473-0.037
							c-1.93-0.041-4.115-0.09-5.185,0.033L1206.475,1392.581L1206.475,1392.581z M1208.219,1387.456
							c0,1.441-0.088,2.691-0.266,3.795c1.223-0.055,2.973-0.016,4.553,0.018c0.885,0.02,1.707,0.037,2.334,0.037
							c0.295-0.393,0.695-2.273,0.695-5.377c0-3.105-0.4-4.986-0.695-5.379c-1.458-0.008-5.154-0.049-6.984-0.139
							c0.035,0.615,0.08,1.252,0.125,1.902C1208.098,1383.995,1208.219,1385.735,1208.219,1387.456L1208.219,1387.456z"/>
					</g>
				</g>
				<g>
					<g>
						<path fill="#FFFFFF" d="M1211.395,1379.958c1.568,0.01,1.568,11.932,0,11.939c-22.445,0.113-22.741,10.672-36.969,10.672
							c-9.195,0-30.855-0.004-30.855-0.004c-0.651,0.037-1.185-0.467-1.185-1.119v-14.275v-12.998v-3.762
							c0-0.652,0.533-1.156,1.185-1.121c0,0,21.66-0.002,30.855-0.002C1188.653,1369.288,1188.949,1379.845,1211.395,1379.958z"/>
					</g>
					<g>
						<path fill="#221F1F" d="M1141.793,1370.411c0-0.48,0.188-0.924,0.532-1.25c0.345-0.324,0.798-0.488,1.245-0.463l30.855-0.002
							c6.482,0,10.221,2.18,14.178,4.49c4.912,2.867,10.48,6.117,22.793,6.18c1.461,0.008,1.768,3.572,1.768,6.563
							c0,2.988-0.307,6.555-1.768,6.563c-12.313,0.063-17.881,3.311-22.793,6.18c-3.957,2.309-7.695,4.49-14.178,4.49l-30.823-0.004
							c-0.479,0.027-0.933-0.137-1.277-0.463c-0.344-0.324-0.532-0.768-0.532-1.248V1370.411L1141.793,1370.411z M1211.283,1391.306
							c0.295-0.393,0.695-2.271,0.695-5.377s-0.4-4.986-0.695-5.379c-12.554-0.082-18.25-3.406-23.277-6.338
							c-3.98-2.324-7.419-4.33-13.58-4.33h-30.888c-0.152-0.008-0.293,0.043-0.397,0.143c-0.104,0.098-0.162,0.234-0.162,0.387
							v31.035c0,0.15,0.058,0.289,0.162,0.387c0.104,0.1,0.245,0.15,0.43,0.141l30.855,0.002c6.161,0,9.6-2.006,13.58-4.33
							C1193.033,1394.712,1198.729,1391.39,1211.283,1391.306L1211.283,1391.306z"/>
					</g>
				</g>
			</g>
			<g>
				<g>
					<g>
						<path fill="#FFFFFF" d="M1327.048,1223.009c-0.122,1.357-0.03,7.346-0.038,8.908c-0.008,1.568-11.932,1.568-11.939,0
							c-0.01-1.965,0.189-7.508,0-9.156C1318.782,1223.56,1323.303,1223.185,1327.048,1223.009z"/>
					</g>
					<g>
						<path fill="#221F1F" d="M1314.387,1222.007l0.809,0.174c3.184,0.686,7.031,0.484,10.426,0.307l2.078-0.104l-0.061,0.678
							c-0.041,0.453-0.063,1.557-0.063,3.281c0,1.154,0.009,2.406,0.017,3.461c0.006,0.771,0.011,1.439,0.011,1.887l-0.001,0.229
							c-0.007,1.461-3.573,1.766-6.563,1.766s-6.555-0.305-6.563-1.766l-0.001-0.162c0-0.619,0.017-1.521,0.035-2.525
							c0.022-1.254,0.048-2.67,0.048-3.893c0-1.217-0.026-2.061-0.078-2.51L1314.387,1222.007L1314.387,1222.007z
							 M1315.663,1231.806c0.393,0.295,2.272,0.693,5.377,0.693s4.984-0.398,5.377-0.693l0.001-0.115
							c0-0.447-0.005-1.111-0.011-1.879c-0.008-1.057-0.017-2.311-0.017-3.469c0-1.205,0.01-2.102,0.03-2.709l-0.737,0.037
							c-3.205,0.168-6.806,0.355-9.969-0.184c0.054,1.252,0.02,3.727-0.018,5.766c-0.019,0.996-0.035,1.891-0.035,2.504
							L1315.663,1231.806L1315.663,1231.806z"/>
					</g>
				</g>
				<g>
					<g>
						<path fill="#FFFFFF" d="M1327.193,1220.638c-0.123,1.357-0.176,6.16-0.184,7.721c-0.008,1.57-11.932,1.57-11.939,0
							c-0.01-1.963,0.189-6.072,0-7.721C1318.782,1221.437,1323.447,1220.813,1327.193,1220.638z"/>
					</g>
					<g>
						<path fill="#221F1F" d="M1314.387,1219.884l0.809,0.174c2.815,0.605,6.303,0.363,9.379,0.148
							c0.895-0.061,1.765-0.123,2.591-0.16l0.68-0.033l-0.062,0.678c-0.113,1.248-0.17,5.707-0.181,7.672
							c-0.007,1.461-3.573,1.766-6.563,1.766s-6.555-0.305-6.563-1.766l-0.001-0.158c0-0.629,0.019-1.443,0.037-2.316
							c0.022-0.996,0.046-2.07,0.046-3.027c0-0.994-0.025-1.699-0.078-2.156L1314.387,1219.884L1314.387,1219.884z
							 M1315.663,1228.249c0.393,0.295,2.272,0.693,5.377,0.693c3.105,0,4.985-0.4,5.378-0.693c0.008-1.459,0.049-5.156,0.141-6.984
							c-0.616,0.035-1.253,0.08-1.902,0.125c-2.887,0.199-6.127,0.426-8.938-0.027c0.05,1.082,0.017,2.932-0.019,4.553
							c-0.019,0.863-0.037,1.668-0.037,2.289L1315.663,1228.249L1315.663,1228.249z"/>
					</g>
				</g>
				<g>
					<g>
						<path fill="#FFFFFF" d="M1327.01,1224.802c-0.008,1.57-11.932,1.57-11.939,0c-0.113-22.443-10.67-22.74-10.67-36.967
							c0-9.195,0.002-30.855,0.002-30.855c-0.036-0.652,0.468-1.186,1.119-1.186h14.276h12.997h3.764
							c0.651,0,1.155,0.533,1.119,1.186c0,0,0.002,21.66,0.002,30.855C1337.68,1202.062,1327.123,1202.358,1327.01,1224.802z"/>
					</g>
					<g>
						<path fill="#221F1F" d="M1303.807,1187.835l0.001-30.922c0-0.961,0.753-1.711,1.714-1.711h31.037
							c0.96,0,1.712,0.75,1.712,1.773c0,0,0,0.002,0,0.004l0.003,30.855c0,6.48-2.183,10.221-4.492,14.178
							c-2.867,4.912-6.116,10.48-6.179,22.793c-0.007,1.461-3.573,1.766-6.563,1.766s-6.555-0.305-6.563-1.766
							c-0.063-12.313-3.312-17.881-6.179-22.793C1305.989,1198.056,1303.807,1194.315,1303.807,1187.835L1303.807,1187.835z
							 M1315.662,1224.692c0.393,0.293,2.272,0.693,5.378,0.693s4.985-0.4,5.378-0.693c0.082-12.555,3.406-18.252,6.34-23.277
							c2.323-3.98,4.33-7.418,4.33-13.58l-0.001-30.922c0-0.301-0.228-0.525-0.528-0.525h-31.037c-0.3,0-0.526,0.225-0.526,0.586
							c0,0.002,0,0.004,0,0.006l-0.003,30.855c0,6.162,2.007,9.6,4.33,13.58C1312.256,1206.44,1315.58,1212.138,1315.662,1224.692
							L1315.662,1224.692z"/>
					</g>
				</g>
			</g>
		</g>
		<g>
			<g>
				<g>
					<g>
						<path fill="#646464" d="M1181.256,1174.457c-8.728,0-15.867-7.142-15.867-15.867V881.113c0-8.728,7.14-15.866,15.867-15.866
							h194.997c8.727,0,15.867,7.139,15.867,15.866v277.477c0,8.726-7.141,15.867-15.867,15.867H1181.256z"/>
					</g>
				</g>
				<g>
					<g>
						<path fill="#221F1F" d="M1392.913,881.113v277.477c0,9.186-7.475,16.659-16.66,16.659h-194.997
							c-9.187,0-16.66-7.474-16.66-16.659V881.113c0-9.188,7.474-16.661,16.66-16.661h194.997
							C1385.438,864.452,1392.913,871.926,1392.913,881.113L1392.913,881.113z M1166.182,1158.59c0,8.31,6.763,15.072,15.074,15.072
							h194.997c8.312,0,15.073-6.763,15.073-15.072V881.113c0-8.313-6.762-15.074-15.073-15.074h-194.997
							c-8.312,0-15.074,6.762-15.074,15.074V1158.59L1166.182,1158.59z"/>
					</g>
				</g>
			</g>
			<g>
				<g>
					<path fill="#FFFFFF" d="M1186.948,1168.704c-8.728,0-15.868-7.142-15.868-15.867v-265.97c0-8.729,7.141-15.87,15.868-15.87
						h183.613c8.727,0,15.866,7.142,15.866,15.87v265.97c0,8.726-7.14,15.867-15.866,15.867H1186.948z"/>
				</g>
			</g>
		</g>
	</g>
	<g>
		<g>
			<path fill="#221F1F" d="M1266.654,986.278h-3.936v-8.036h-7.373v8.036h-3.949v-18.62h3.949v7.298h7.373v-7.298h3.936V986.278z"/>
		</g>
		<g>
			<path fill="#221F1F" d="M1286.803,976.79c0,3.065-0.873,5.413-2.617,7.043s-4.264,2.445-7.559,2.445h-5.273v-18.62h5.848
				c3.039,0,5.398,0.803,7.08,2.407C1285.963,971.671,1286.803,973.912,1286.803,976.79z M1282.703,976.893
				c0-3.999-1.768-5.999-5.299-5.999h-2.102v12.124h1.693C1280.801,983.018,1282.703,980.976,1282.703,976.893z"/>
		</g>
		<g>
			<path fill="#221F1F" d="M1306.111,976.79c0,3.065-0.873,5.413-2.617,7.043c-1.746,1.63-4.266,2.445-7.559,2.445h-5.273v-18.62
				h5.846c3.039,0,5.4,0.803,7.082,2.407C1305.27,971.671,1306.111,973.912,1306.111,976.79z M1302.01,976.893
				c0-3.999-1.768-5.999-5.299-5.999h-2.102v12.124h1.695C1300.107,983.018,1302.01,980.976,1302.01,976.893z"/>
		</g>
	</g>
	<g>
		<g>
			<path fill="#221F1F" d="M1183.995,1340.066v12.049c0,1.375-0.307,2.58-0.924,3.616c-0.615,1.037-1.504,1.83-2.668,2.382
				c-1.162,0.553-2.539,0.828-4.125,0.828c-2.395,0-4.254-0.613-5.58-1.841c-1.324-1.227-1.986-2.905-1.986-5.037v-11.997h3.936
				v11.399c0,1.434,0.289,2.487,0.867,3.158c0.576,0.67,1.531,1.006,2.865,1.006c1.289,0,2.227-0.338,2.809-1.012
				c0.58-0.676,0.871-1.734,0.871-3.178v-11.374H1183.995z"/>
		</g>
		<g>
			<path fill="#221F1F" d="M1199.546,1353.516c0,1.682-0.605,3.006-1.814,3.974c-1.211,0.968-2.895,1.452-5.051,1.452
				c-1.986,0-3.744-0.374-5.271-1.121v-3.668c1.256,0.561,2.32,0.956,3.191,1.185c0.869,0.229,1.664,0.344,2.387,0.344
				c0.865,0,1.531-0.165,1.994-0.496c0.461-0.331,0.693-0.823,0.693-1.478c0-0.365-0.102-0.69-0.307-0.974
				c-0.203-0.285-0.504-0.56-0.896-0.822c-0.396-0.263-1.199-0.684-2.414-1.261c-1.139-0.535-1.992-1.049-2.561-1.541
				s-1.023-1.065-1.363-1.72c-0.338-0.654-0.508-1.418-0.508-2.292c0-1.647,0.557-2.942,1.674-3.885s2.66-1.414,4.629-1.414
				c0.969,0,1.893,0.115,2.77,0.345c0.881,0.229,1.799,0.552,2.758,0.968l-1.273,3.069c-0.992-0.408-1.814-0.692-2.463-0.854
				c-0.65-0.161-1.289-0.242-1.918-0.242c-0.748,0-1.32,0.174-1.719,0.522c-0.4,0.349-0.6,0.802-0.6,1.362
				c0,0.349,0.082,0.652,0.242,0.911c0.162,0.259,0.418,0.51,0.771,0.751c0.352,0.243,1.186,0.677,2.502,1.306
				c1.74,0.833,2.934,1.666,3.58,2.503C1199.224,1351.276,1199.546,1352.302,1199.546,1353.516z"/>
		</g>
		<g>
			<path fill="#221F1F" d="M1202.921,1340.066h5.795c2.641,0,4.557,0.376,5.752,1.128c1.191,0.75,1.787,1.946,1.787,3.585
				c0,1.112-0.26,2.024-0.783,2.738c-0.521,0.713-1.215,1.142-2.082,1.286v0.127c1.18,0.263,2.031,0.756,2.555,1.478
				c0.521,0.722,0.783,1.682,0.783,2.878c0,1.699-0.613,3.023-1.842,3.975c-1.227,0.95-2.893,1.426-4.998,1.426h-6.967V1340.066z
				 M1206.87,1347.44h2.291c1.07,0,1.846-0.165,2.326-0.496c0.479-0.331,0.719-0.879,0.719-1.644c0-0.713-0.262-1.225-0.783-1.534
				s-1.35-0.465-2.479-0.465h-2.074V1347.44z M1206.87,1350.574v4.853h2.572c1.086,0,1.889-0.209,2.406-0.625
				c0.518-0.415,0.777-1.052,0.777-1.91c0-1.545-1.105-2.317-3.311-2.317H1206.87z"/>
		</g>
	</g>
	<g>
		<g>
			<g>
				<path fill="#221F1F" d="M817.892,1362.789c1.799,0,3.232,0.505,4.297,1.516c1.066,1.011,1.6,2.395,1.6,4.152
					c0,2.081-0.641,3.681-1.924,4.802c-1.281,1.12-3.115,1.681-5.502,1.681c-2.072,0-3.744-0.336-5.018-1.006v-3.4
					c0.672,0.356,1.453,0.647,2.344,0.873c0.893,0.225,1.736,0.337,2.535,0.337c2.402,0,3.604-0.985,3.604-2.955
					c0-1.877-1.244-2.814-3.73-2.814c-0.451,0-0.947,0.044-1.49,0.134c-0.545,0.089-0.986,0.185-1.326,0.286l-1.566-0.84
					l0.701-9.488h10.1v3.336h-6.648l-0.344,3.655l0.445-0.089C816.485,1362.849,817.128,1362.789,817.892,1362.789z"/>
			</g>
			<g>
				<path fill="#221F1F" d="M837.925,1356.065h3.986l-6.33,18.619h-4.305l-6.316-18.619h3.986l3.502,11.08
					c0.195,0.654,0.398,1.416,0.605,2.285c0.207,0.871,0.338,1.477,0.389,1.815c0.094-0.781,0.41-2.147,0.955-4.101
					L837.925,1356.065z"/>
			</g>
		</g>
		<g>
			<path fill="#221F1F" d="M762.853,1393.011c0-1.897,0.277-3.674,0.833-5.328c0.555-1.654,1.355-3.104,2.401-4.351h2.686
				c-1.01,1.382-1.772,2.9-2.288,4.555s-0.773,3.355-0.773,5.103c0,1.755,0.263,3.45,0.79,5.087c0.526,1.636,1.276,3.116,2.25,4.441
				h-2.664c-1.053-1.218-1.855-2.639-2.406-4.265C763.128,1396.627,762.853,1394.88,762.853,1393.011z"/>
			<path fill="#221F1F" d="M781.899,1399.037h-3.276v-7.015c0-0.866-0.145-1.517-0.435-1.95c-0.29-0.433-0.747-0.649-1.37-0.649
				c-0.838,0-1.447,0.308-1.826,0.924c-0.38,0.616-0.569,1.629-0.569,3.04v5.65h-3.276v-12.01h2.503l0.44,1.536h0.183
				c0.322-0.552,0.788-0.983,1.396-1.294c0.608-0.313,1.307-0.468,2.095-0.468c1.797,0,3.015,0.587,3.652,1.762h0.29
				c0.322-0.559,0.796-0.992,1.423-1.3c0.626-0.308,1.333-0.462,2.122-0.462c1.36,0,2.39,0.349,3.088,1.048
				c0.698,0.697,1.047,1.816,1.047,3.356v7.831h-3.287v-7.015c0-0.866-0.145-1.517-0.435-1.95c-0.29-0.433-0.747-0.649-1.37-0.649
				c-0.802,0-1.402,0.286-1.799,0.859s-0.596,1.482-0.596,2.729V1399.037z"/>
			<path fill="#221F1F" d="M792.609,1383.923c0-1.067,0.594-1.601,1.783-1.601c1.188,0,1.783,0.533,1.783,1.601
				c0,0.509-0.149,0.904-0.446,1.187c-0.297,0.283-0.743,0.425-1.337,0.425C793.203,1385.534,792.609,1384.997,792.609,1383.923z
				 M796.025,1399.037h-3.276v-12.01h3.276V1399.037z"/>
			<path fill="#221F1F" d="M804.339,1399.252c-3.738,0-5.607-2.052-5.607-6.155c0-2.041,0.508-3.601,1.525-4.679
				c1.017-1.077,2.474-1.616,4.372-1.616c1.389,0,2.635,0.272,3.738,0.816l-0.967,2.535c-0.516-0.208-0.996-0.378-1.439-0.511
				c-0.444-0.132-0.888-0.198-1.332-0.198c-1.705,0-2.557,1.21-2.557,3.631c0,2.349,0.852,3.523,2.557,3.523
				c0.63,0,1.214-0.084,1.751-0.253c0.537-0.168,1.074-0.431,1.611-0.789v2.804c-0.53,0.337-1.065,0.569-1.606,0.698
				C805.845,1399.188,805.163,1399.252,804.339,1399.252z"/>
			<path fill="#221F1F" d="M817.477,1386.802c0.444,0,0.813,0.032,1.106,0.097l-0.247,3.072c-0.265-0.071-0.587-0.107-0.967-0.107
				c-1.046,0-1.86,0.269-2.444,0.806c-0.584,0.537-0.875,1.289-0.875,2.256v6.112h-3.276v-12.01h2.481l0.483,2.02h0.161
				c0.372-0.673,0.875-1.216,1.509-1.627C816.043,1387.008,816.732,1386.802,817.477,1386.802z"/>
			<path fill="#221F1F" d="M831.678,1393.011c0,1.955-0.516,3.484-1.547,4.587s-2.467,1.654-4.308,1.654
				c-1.153,0-2.17-0.252-3.051-0.758c-0.881-0.504-1.558-1.229-2.03-2.175s-0.709-2.048-0.709-3.309
				c0-1.962,0.512-3.487,1.536-4.576c1.024-1.089,2.463-1.633,4.318-1.633c1.153,0,2.17,0.251,3.051,0.752s1.558,1.221,2.03,2.159
				S831.678,1391.75,831.678,1393.011z M823.375,1393.011c0,1.188,0.195,2.088,0.585,2.696c0.39,0.608,1.026,0.913,1.907,0.913
				c0.874,0,1.502-0.303,1.885-0.907c0.383-0.605,0.575-1.506,0.575-2.702c0-1.188-0.193-2.08-0.58-2.675s-1.021-0.892-1.901-0.892
				c-0.874,0-1.504,0.296-1.891,0.886C823.568,1390.922,823.375,1391.814,823.375,1393.011z"/>
			<path fill="#221F1F" d="M853.141,1383.332v10.162c0,1.16-0.26,2.177-0.779,3.051c-0.52,0.874-1.27,1.543-2.25,2.009
				c-0.981,0.466-2.142,0.698-3.48,0.698c-2.02,0-3.588-0.518-4.705-1.553c-1.117-1.034-1.676-2.45-1.676-4.248v-10.119h3.319v9.614
				c0,1.21,0.243,2.099,0.73,2.664c0.487,0.565,1.292,0.849,2.417,0.849c1.088,0,1.878-0.285,2.369-0.854
				c0.49-0.57,0.736-1.463,0.736-2.681v-9.593H853.141z"/>
			<path fill="#221F1F" d="M866.257,1394.676c0,1.418-0.51,2.535-1.531,3.352s-2.44,1.225-4.259,1.225
				c-1.676,0-3.158-0.315-4.447-0.945v-3.094c1.06,0.473,1.957,0.806,2.691,0.999c0.734,0.193,1.405,0.29,2.014,0.29
				c0.73,0,1.291-0.14,1.681-0.419c0.39-0.279,0.585-0.694,0.585-1.246c0-0.308-0.086-0.582-0.258-0.821
				c-0.172-0.24-0.424-0.472-0.757-0.693s-1.012-0.576-2.036-1.063c-0.96-0.451-1.68-0.885-2.159-1.3
				c-0.48-0.415-0.863-0.898-1.149-1.45c-0.287-0.552-0.43-1.196-0.43-1.934c0-1.39,0.471-2.481,1.413-3.276
				c0.941-0.795,2.243-1.192,3.905-1.192c0.816,0,1.595,0.097,2.336,0.29s1.516,0.466,2.326,0.816l-1.074,2.589
				c-0.838-0.344-1.531-0.584-2.079-0.72s-1.087-0.204-1.617-0.204c-0.63,0-1.114,0.146-1.45,0.44
				c-0.337,0.294-0.505,0.677-0.505,1.149c0,0.294,0.068,0.55,0.204,0.769c0.136,0.218,0.353,0.43,0.65,0.633
				c0.297,0.205,1,0.571,2.111,1.102c1.468,0.702,2.474,1.405,3.019,2.111C865.985,1392.787,866.257,1393.651,866.257,1394.676z"/>
			<path fill="#221F1F" d="M869.104,1383.332h4.888c2.227,0,3.844,0.316,4.85,0.951c1.006,0.633,1.509,1.642,1.509,3.023
				c0,0.938-0.22,1.708-0.661,2.31s-1.026,0.963-1.756,1.085v0.107c0.995,0.222,1.713,0.638,2.154,1.246s0.661,1.418,0.661,2.428
				c0,1.433-0.518,2.55-1.552,3.352c-1.035,0.802-2.44,1.203-4.216,1.203h-5.876V1383.332z M872.434,1389.552h1.934
				c0.902,0,1.556-0.14,1.96-0.419c0.404-0.279,0.607-0.741,0.607-1.386c0-0.602-0.22-1.033-0.661-1.294
				c-0.44-0.262-1.137-0.393-2.089-0.393h-1.751V1389.552z M872.434,1392.194v4.093h2.17c0.917,0,1.593-0.176,2.03-0.526
				c0.437-0.351,0.655-0.888,0.655-1.611c0-1.304-0.931-1.955-2.793-1.955H872.434z"/>
			<path fill="#221F1F" d="M888.483,1393.011c0,1.884-0.278,3.638-0.833,5.264c-0.555,1.626-1.355,3.04-2.401,4.243h-2.664
				c0.967-1.317,1.715-2.795,2.245-4.432c0.53-1.636,0.795-3.335,0.795-5.097c0-1.747-0.258-3.448-0.773-5.103
				s-1.278-3.173-2.288-4.555h2.686c1.053,1.253,1.854,2.709,2.406,4.367C888.207,1389.356,888.483,1391.127,888.483,1393.011z"/>
		</g>
	</g>
	<g>
		<g>
			<g>
				<g>
					<g>
						<path fill="#FFFFFF" d="M1477.564,1268.835c0-1.304,1.066-2.371,2.371-2.371h31.268c1.305,0,2.371,1.067,2.371,2.371v18.948
							c0,1.305-1.066,2.371-2.371,2.371h-31.268c-1.305,0-2.371-1.066-2.371-2.371V1268.835z"/>
					</g>
				</g>
				<g>
					<g>
						<path fill="#221F1F" d="M1479.936,1290.748c-1.635,0-2.965-1.33-2.965-2.965v-18.948c0-1.634,1.33-2.964,2.965-2.964h31.268
							c1.635,0,2.965,1.33,2.965,2.964v18.948c0,1.635-1.33,2.965-2.965,2.965H1479.936L1479.936,1290.748z M1511.203,1267.057
							h-31.268c-0.982,0-1.779,0.797-1.779,1.778v18.948c0,0.98,0.797,1.779,1.779,1.779h31.268c0.98,0,1.779-0.799,1.779-1.779
							v-18.948C1512.982,1267.854,1512.184,1267.057,1511.203,1267.057L1511.203,1267.057z"/>
					</g>
				</g>
			</g>
			<g>
				<g>
					<polygon fill="#FFFFFF" points="1477.564,1266.464 1513.574,1266.464 1509.785,1263.62 1481.354,1263.62 					"/>
				</g>
				<g>
					<path fill="#221F1F" d="M1477.564,1267.057c-0.256,0-0.482-0.164-0.563-0.405c-0.082-0.242,0.002-0.509,0.207-0.662
						l3.789-2.843c0.104-0.078,0.229-0.119,0.355-0.119h28.432c0.127,0,0.252,0.041,0.355,0.119l3.789,2.843
						c0.205,0.153,0.289,0.42,0.207,0.662c-0.08,0.241-0.307,0.405-0.563,0.405H1477.564L1477.564,1267.057z M1511.797,1265.871
						l-2.209-1.658h-28.037l-2.209,1.658H1511.797L1511.797,1265.871z"/>
				</g>
			</g>
		</g>
		<g>
			<g>
				<path fill="#FFFFFF" d="M1173.014,1426.203h311.043c3.26,0,5.928-2.667,5.928-5.928v-135.385h-6.449
					c-1.305,0-2.371-1.068-2.371-2.371v-8.422c0-1.303,1.066-2.371,2.371-2.371h24.068c1.305,0,2.371,1.068,2.371,2.371v8.422
					c0,1.303-1.066,2.371-2.371,2.371h-6.449v136.554c0,11.259-4.668,15.929-15.928,15.929h-312.213
					c-3.262,0-5.928-2.514-5.928-5.586C1167.086,1428.717,1169.752,1426.203,1173.014,1426.203z"/>
			</g>
			<g>
				<path fill="#221F1F" d="M1173.014,1437.966c-3.596,0-6.521-2.771-6.521-6.179c0-3.406,2.926-6.177,6.521-6.177h311.043
					c2.941,0,5.336-2.393,5.336-5.335v-134.793h-5.857c-1.635,0-2.963-1.329-2.963-2.963v-8.422c0-1.634,1.328-2.963,2.963-2.963
					h24.068c1.635,0,2.963,1.329,2.963,2.963v8.422c0,1.634-1.328,2.963-2.963,2.963h-5.857v135.962
					c0,11.594-4.924,16.521-16.52,16.521H1173.014L1173.014,1437.966z M1507.604,1272.32h-24.068c-0.98,0-1.777,0.797-1.777,1.777
					v8.422c0,0.98,0.797,1.777,1.777,1.777h7.043v135.979c0,3.595-2.926,6.521-6.521,6.521h-311.043
					c-2.943,0-5.336,2.239-5.336,4.991c0,2.754,2.393,4.993,5.336,4.993h312.213c10.939,0,15.334-4.394,15.334-15.336v-137.147
					h7.043c0.98,0,1.777-0.797,1.777-1.777v-8.422C1509.381,1273.117,1508.584,1272.32,1507.604,1272.32L1507.604,1272.32z"/>
			</g>
		</g>
		<g>
			<g>
				<g>
					<g>
						<path fill="#FFFFFF" d="M1178.496,1418.319c0.652,0,1.186,0.534,1.186,1.186v24.114c0,0.652-0.533,1.186-1.186,1.186h-25.891
							c-0.652,0-1.186-0.533-1.186-1.186v-24.114c0-0.651,0.533-1.186,1.186-1.186H1178.496z"/>
					</g>
				</g>
				<g>
					<g>
						<path fill="#221F1F" d="M1152.605,1445.397c-0.98,0-1.779-0.798-1.779-1.778v-24.114c0-0.98,0.799-1.777,1.779-1.777h25.891
							c0.98,0,1.779,0.797,1.779,1.777v24.114c0,0.98-0.799,1.778-1.779,1.778H1152.605L1152.605,1445.397z M1178.496,1418.913
							h-25.891c-0.328,0-0.594,0.266-0.594,0.592v24.114c0,0.327,0.266,0.593,0.594,0.593h25.891c0.328,0,0.594-0.266,0.594-0.593
							v-24.114C1179.09,1419.179,1178.824,1418.913,1178.496,1418.913L1178.496,1418.913z"/>
					</g>
				</g>
			</g>
			<g>
				<g>
					<path fill="#FFFFFF" d="M1167.217,1417.296l14.539,0.813c0.389,0.021,0.717,0.24,0.934,0.544l26.268,6.024v13.772
						l-26.266,6.023c-0.217,0.304-0.547,0.524-0.936,0.545l-14.539,0.812c-0.652,0.036-1.186-0.467-1.186-1.119v-26.294
						C1166.031,1417.764,1166.564,1417.261,1167.217,1417.296z"/>
				</g>
				<g>
					<path fill="#221F1F" d="M1167.15,1446.425c-0.459,0-0.889-0.178-1.211-0.498c-0.322-0.322-0.5-0.755-0.5-1.217v-26.294
						c0-0.96,0.748-1.712,1.803-1.712c0.002,0,0.006,0,0.006,0l14.541,0.813c0.465,0.024,0.902,0.242,1.232,0.603l26.527,6.085
						v14.718l-26.527,6.083c-0.33,0.362-0.768,0.58-1.232,0.604l-14.541,0.812L1167.15,1446.425L1167.15,1446.425L1167.15,1446.425z
						 M1208.363,1437.978v-12.829l-25.807-5.919l-0.219-0.05l-0.131-0.184c-0.061-0.085-0.229-0.282-0.484-0.297l-14.572-0.813
						c-0.301,0-0.525,0.229-0.525,0.529v26.294c0,0.146,0.053,0.279,0.152,0.377c0.098,0.098,0.23,0.152,0.373,0.152l0,0v0.593
						l0.033-0.594l14.541-0.812c0.254-0.015,0.424-0.214,0.484-0.298l0.129-0.185L1208.363,1437.978L1208.363,1437.978z"/>
				</g>
			</g>
		</g>
	</g>
	<g>
		<g>
			<g>
				<g>
					<g>
						<path fill="#FFFFFF" d="M752.388,1613.613c-1.303,0-2.371-1.068-2.371-2.371v-78.631c0-1.305,1.068-2.371,2.371-2.371h78.635
							c1.305,0,2.371,1.066,2.371,2.371v78.631c0,1.303-1.066,2.371-2.371,2.371H752.388z"/>
					</g>
				</g>
				<g>
					<g>
						<path fill="#221F1F" d="M749.425,1532.611c0-1.635,1.328-2.965,2.963-2.965h78.635c1.635,0,2.965,1.33,2.965,2.965v78.631
							c0,1.635-1.33,2.963-2.965,2.963h-78.635c-1.635,0-2.963-1.328-2.963-2.963V1532.611L749.425,1532.611z M832.802,1611.242
							v-78.631c0-0.98-0.799-1.779-1.779-1.779h-78.635c-0.98,0-1.777,0.799-1.777,1.779v78.631c0,0.98,0.797,1.777,1.777,1.777
							h78.635C832.003,1613.02,832.802,1612.223,832.802,1611.242L832.802,1611.242z"/>
					</g>
				</g>
			</g>
			<g>
				<g>
					<g>
						<path fill="#FFFFFF" d="M759.155,1606.846c-1.305,0-2.371-1.066-2.371-2.371v-65.098c0-1.303,1.066-2.371,2.371-2.371h65.102
							c1.303,0,2.371,1.068,2.371,2.371v65.098c0,1.305-1.068,2.371-2.371,2.371H759.155z"/>
					</g>
				</g>
				<g>
					<g>
						<path fill="#221F1F" d="M756.19,1539.377c0-1.635,1.33-2.963,2.965-2.963h65.102c1.635,0,2.963,1.328,2.963,2.963v65.098
							c0,1.635-1.328,2.965-2.963,2.965h-65.102c-1.635,0-2.965-1.33-2.965-2.965V1539.377L756.19,1539.377z M826.034,1604.475
							v-65.098c0-0.98-0.797-1.777-1.777-1.777h-65.102c-0.98,0-1.779,0.797-1.779,1.777v65.098c0,0.982,0.799,1.779,1.779,1.779
							h65.102C825.237,1606.254,826.034,1605.457,826.034,1604.475L826.034,1604.475z"/>
					</g>
				</g>
			</g>
			<g>
				<g>
					<g>
						<path fill="#FFFFFF" d="M791.706,1593.188c-13.541,0-22.109-9.523-22.109-21.26c0-11.738,8.568-21.258,22.109-21.258
							s22.107,9.52,22.107,21.258C813.813,1583.664,805.247,1593.188,791.706,1593.188z"/>
					</g>
					<g>
						<path fill="#221F1F" d="M769.005,1571.928c0-12.662,9.547-21.85,22.701-21.85s22.701,9.188,22.701,21.85
							c0,12.66-9.547,21.852-22.701,21.852S769.005,1584.588,769.005,1571.928L769.005,1571.928z M813.222,1571.928
							c0-11.975-9.049-20.664-21.516-20.664c-12.469,0-21.516,8.689-21.516,20.664s9.047,20.666,21.516,20.666
							C804.173,1592.594,813.222,1583.902,813.222,1571.928L813.222,1571.928z"/>
					</g>
				</g>
				<g>
					<g>
						<g>
							<rect x="785.964" y="1564.398" fill="#FFFFFF" width="11.412" height="3.24"/>
						</g>
						<g>
							<path fill="#221F1F" d="M785.37,1563.807h12.6v4.426h-12.6V1563.807L785.37,1563.807z M786.558,1567.047h10.227v-2.055
								h-10.227V1567.047L786.558,1567.047z"/>
						</g>
					</g>
					<g>
						<g>
							<rect x="785.964" y="1576.215" fill="#FFFFFF" width="11.412" height="3.242"/>
						</g>
						<g>
							<path fill="#221F1F" d="M785.37,1575.623h12.6v4.426h-12.6V1575.623L785.37,1575.623z M786.558,1578.863h10.227v-2.055
								h-10.227V1578.863L786.558,1578.863z"/>
						</g>
					</g>
				</g>
			</g>
		</g>
		<g>
			<g>
				<path fill="#221F1F" d="M896.075,1426.21h-96.742c-6.736,0-11.264,4.526-11.264,11.264v12.187c-0.008,0-0.018,0.001-0.025,0.001
					v137.743c0,6.736,7.613,1.258,7.613-1.684v-16.859h0.025v-129.703c0-2.942,2.393-5.335,5.334-5.335h95.059
					c3.658,0,6.521-1.672,6.521-3.808C902.597,1427.882,899.733,1426.21,896.075,1426.21z"/>
			</g>
			<g>
				<path fill="#221F1F" d="M787.97,1531.493l-1.029,1.125c-0.096,0.105-0.15,0.242-0.156,0.385l-0.451,6.769l-5.176,1.393
					c-0.104,0.11-0.16,48.09-0.16,48.09s2.713,3.341,4,3.86c3.008,1.214,9.963,1.214,12.969,0c1.289-0.52,4-3.86,4-3.86
					s0.535-47.979,0.434-48.09l-5.178-1.393l-0.453-6.769c-0.004-0.143-0.061-0.279-0.156-0.385l-1.029-1.125H787.97z"/>
			</g>
			<g>
				<path fill="#221F1F" d="M882.024,1434.094c0,0.779-0.638,1.417-1.417,1.417h-12.129c-0.779,0-1.417-0.638-1.417-1.417v-8.166
					c0-0.779,0.638-1.417,1.417-1.417h12.129c0.779,0,1.417,0.638,1.417,1.417V1434.094z"/>
			</g>
			<g>
				<path fill="#221F1F" d="M909.44,1439.034c0,0.779-0.638,1.417-1.417,1.417h-28.982c-0.779,0-1.417-0.638-1.417-1.417v-18.047
					c0-0.779,0.638-1.417,1.417-1.417h28.982c0.779,0,1.417,0.638,1.417,1.417V1439.034z"/>
			</g>
		</g>
		<g>
			<path fill="#221F1F" d="M1156.947,1454.965c0,3.118-2.551,5.669-5.668,5.669H903.864c-3.119,0-5.67-2.551-5.67-5.669v-161.288
				c0-3.118,2.551-5.669,5.67-5.669h247.415c3.117,0,5.668,2.551,5.668,5.669V1454.965z"/>
		</g>
	</g>
	<g>
		<path fill="#FFFFFF" d="M966.58,1359.543v6.026h-3.33v-15.705h4.576c2.134,0,3.713,0.389,4.737,1.166
			c1.024,0.776,1.536,1.956,1.536,3.539c0,0.924-0.254,1.746-0.763,2.465c-0.509,0.721-1.229,1.284-2.159,1.692
			c2.363,3.53,3.903,5.812,4.619,6.843h-3.695l-3.749-6.026H966.58z M966.58,1356.836h1.074c1.053,0,1.83-0.176,2.331-0.526
			c0.501-0.351,0.752-0.902,0.752-1.654c0-0.745-0.256-1.274-0.768-1.59c-0.512-0.315-1.305-0.473-2.379-0.473h-1.01V1356.836z"/>
		<path fill="#FFFFFF" d="M985.143,1365.569l-0.634-1.633h-0.086c-0.552,0.694-1.119,1.176-1.703,1.445
			c-0.584,0.268-1.345,0.402-2.283,0.402c-1.153,0-2.061-0.329-2.723-0.988c-0.663-0.659-0.994-1.597-0.994-2.814
			c0-1.274,0.446-2.215,1.337-2.82c0.892-0.604,2.236-0.939,4.034-1.004l2.084-0.064v-0.526c0-1.218-0.623-1.826-1.869-1.826
			c-0.96,0-2.088,0.29-3.384,0.87l-1.085-2.213c1.382-0.724,2.915-1.085,4.598-1.085c1.611,0,2.847,0.351,3.706,1.053
			s1.289,1.769,1.289,3.201v8.003H985.143z M984.176,1360.005l-1.268,0.043c-0.953,0.028-1.662,0.2-2.127,0.516
			c-0.466,0.315-0.698,0.795-0.698,1.439c0,0.924,0.53,1.386,1.59,1.386c0.759,0,1.366-0.219,1.821-0.655
			c0.455-0.437,0.682-1.017,0.682-1.74V1360.005z"/>
		<path fill="#FFFFFF" d="M999.183,1362.003c0,1.231-0.428,2.17-1.284,2.814c-0.856,0.645-2.136,0.967-3.84,0.967
			c-0.874,0-1.619-0.059-2.234-0.178c-0.616-0.117-1.192-0.291-1.729-0.521v-2.707c0.608,0.286,1.294,0.526,2.057,0.72
			s1.434,0.29,2.014,0.29c1.188,0,1.783-0.344,1.783-1.031c0-0.258-0.079-0.468-0.236-0.628c-0.158-0.162-0.43-0.344-0.816-0.549
			c-0.387-0.203-0.902-0.441-1.547-0.714c-0.924-0.387-1.603-0.745-2.036-1.074c-0.434-0.329-0.749-0.707-0.945-1.134
			c-0.197-0.426-0.295-0.95-0.295-1.573c0-1.067,0.414-1.893,1.241-2.476c0.827-0.584,2-0.876,3.518-0.876
			c1.446,0,2.854,0.315,4.222,0.945l-0.988,2.363c-0.602-0.258-1.164-0.469-1.687-0.634c-0.523-0.165-1.057-0.247-1.601-0.247
			c-0.967,0-1.45,0.262-1.45,0.784c0,0.294,0.156,0.548,0.467,0.763s0.994,0.533,2.046,0.956c0.938,0.38,1.625,0.734,2.063,1.063
			c0.437,0.329,0.759,0.709,0.967,1.139C999.079,1360.896,999.183,1361.408,999.183,1362.003z"/>
		<path fill="#FFFFFF" d="M1008.335,1365.784c-1.411,0-2.518-0.512-3.319-1.536h-0.172c0.114,1.003,0.172,1.583,0.172,1.74v4.866
			h-3.276v-17.295h2.664l0.462,1.558h0.15c0.766-1.188,1.901-1.783,3.405-1.783c1.418,0,2.528,0.548,3.33,1.644
			c0.802,1.096,1.203,2.617,1.203,4.565c0,1.282-0.188,2.396-0.564,3.341s-0.912,1.665-1.606,2.159
			C1010.089,1365.537,1009.273,1365.784,1008.335,1365.784z M1007.368,1355.955c-0.81,0-1.4,0.249-1.772,0.747
			c-0.373,0.497-0.566,1.319-0.58,2.465v0.354c0,1.289,0.191,2.213,0.575,2.771c0.383,0.559,0.99,0.838,1.821,0.838
			c1.468,0,2.202-1.21,2.202-3.631c0-1.182-0.181-2.067-0.542-2.659C1008.709,1356.251,1008.142,1355.955,1007.368,1355.955z"/>
		<path fill="#FFFFFF" d="M1022.343,1353.334c1.418,0,2.528,0.554,3.33,1.659c0.802,1.107,1.203,2.623,1.203,4.55
			c0,1.983-0.414,3.52-1.241,4.608s-1.954,1.633-3.378,1.633c-1.411,0-2.518-0.512-3.319-1.536h-0.226l-0.548,1.321h-2.503v-16.715
			h3.276v3.889c0,0.494-0.043,1.285-0.129,2.374h0.129C1019.704,1353.929,1020.839,1353.334,1022.343,1353.334z M1021.29,1355.955
			c-0.81,0-1.4,0.249-1.772,0.747c-0.373,0.497-0.566,1.319-0.58,2.465v0.354c0,1.289,0.191,2.213,0.575,2.771
			c0.383,0.559,0.99,0.838,1.821,0.838c0.673,0,1.208-0.31,1.606-0.929c0.397-0.62,0.596-1.521,0.596-2.702
			s-0.201-2.067-0.602-2.659C1022.532,1356.251,1021.984,1355.955,1021.29,1355.955z"/>
		<path fill="#FFFFFF" d="M1035.019,1365.784c-1.934,0-3.445-0.533-4.533-1.601c-1.089-1.067-1.633-2.578-1.633-4.533
			c0-2.013,0.503-3.568,1.509-4.667c1.006-1.1,2.397-1.649,4.173-1.649c1.697,0,3.019,0.483,3.964,1.45s1.418,2.303,1.418,4.007
			v1.59h-7.745c0.036,0.931,0.312,1.658,0.827,2.181s1.239,0.784,2.17,0.784c0.723,0,1.407-0.075,2.052-0.226s1.317-0.391,2.02-0.72
			v2.535c-0.573,0.286-1.186,0.499-1.837,0.64C1036.751,1365.714,1035.957,1365.784,1035.019,1365.784z M1034.557,1355.665
			c-0.695,0-1.239,0.221-1.633,0.66c-0.394,0.441-0.62,1.065-0.677,1.875h4.598c-0.015-0.81-0.226-1.434-0.634-1.875
			C1035.803,1355.886,1035.251,1355.665,1034.557,1355.665z"/>
		<path fill="#FFFFFF" d="M1049.284,1353.334c0.444,0,0.813,0.032,1.106,0.097l-0.247,3.072c-0.265-0.071-0.587-0.107-0.967-0.107
			c-1.046,0-1.86,0.269-2.444,0.806c-0.584,0.537-0.875,1.289-0.875,2.256v6.112h-3.276v-12.01h2.481l0.483,2.02h0.161
			c0.372-0.673,0.875-1.216,1.509-1.627C1047.85,1353.54,1048.539,1353.334,1049.284,1353.334z"/>
		<path fill="#FFFFFF" d="M1059.274,1353.334c0.444,0,0.813,0.032,1.106,0.097l-0.247,3.072c-0.265-0.071-0.587-0.107-0.967-0.107
			c-1.046,0-1.86,0.269-2.444,0.806c-0.584,0.537-0.875,1.289-0.875,2.256v6.112h-3.276v-12.01h2.481l0.483,2.02h0.161
			c0.372-0.673,0.875-1.216,1.509-1.627C1057.84,1353.54,1058.529,1353.334,1059.274,1353.334z"/>
		<path fill="#FFFFFF" d="M1060.843,1353.56h3.588l2.267,6.757c0.193,0.587,0.326,1.282,0.397,2.084h0.064
			c0.079-0.737,0.232-1.433,0.462-2.084l2.224-6.757h3.513l-5.081,13.546c-0.466,1.253-1.13,2.191-1.993,2.814
			c-0.863,0.623-1.871,0.935-3.024,0.935c-0.566,0-1.121-0.061-1.665-0.183v-2.6c0.394,0.093,0.823,0.14,1.289,0.14
			c0.58,0,1.086-0.178,1.52-0.531c0.433-0.355,0.771-0.891,1.015-1.606l0.193-0.591L1060.843,1353.56z"/>
		<path fill="#FFFFFF" d="M1091.898,1354.763c0,1.69-0.528,2.982-1.584,3.878c-1.057,0.896-2.559,1.343-4.506,1.343h-1.429v5.586
			h-3.33v-15.705h5.017c1.905,0,3.353,0.41,4.345,1.23C1091.402,1351.914,1091.898,1353.137,1091.898,1354.763z M1084.379,1357.255
			h1.096c1.024,0,1.79-0.202,2.299-0.607c0.508-0.404,0.763-0.993,0.763-1.767c0-0.78-0.213-1.357-0.639-1.729
			c-0.426-0.372-1.094-0.559-2.003-0.559h-1.515V1357.255z"/>
		<path fill="#FFFFFF" d="M1094.466,1350.455c0-1.067,0.594-1.601,1.783-1.601c1.188,0,1.783,0.533,1.783,1.601
			c0,0.509-0.149,0.904-0.446,1.187c-0.297,0.283-0.743,0.425-1.337,0.425C1095.06,1352.066,1094.466,1351.529,1094.466,1350.455z
			 M1097.882,1365.569h-3.276v-12.01h3.276V1365.569z"/>
		<path fill="#FFFFFF" d="M994.816,1391.97l-3.781-12.321h-0.097c0.136,2.507,0.204,4.179,0.204,5.017v7.305h-2.976v-15.705h4.533
			l3.717,12.01h0.064l3.942-12.01h4.533v15.705h-3.104v-7.434c0-0.351,0.005-0.756,0.016-1.214s0.059-1.676,0.145-3.652h-0.097
			l-4.05,12.3H994.816z"/>
		<path fill="#FFFFFF" d="M1019.566,1385.943c0,1.955-0.516,3.484-1.547,4.587s-2.467,1.654-4.308,1.654
			c-1.153,0-2.17-0.252-3.051-0.758c-0.881-0.504-1.558-1.229-2.03-2.175s-0.709-2.048-0.709-3.309c0-1.962,0.512-3.487,1.536-4.576
			c1.024-1.089,2.463-1.633,4.318-1.633c1.153,0,2.17,0.251,3.051,0.752s1.558,1.221,2.03,2.159
			S1019.566,1384.683,1019.566,1385.943z M1011.262,1385.943c0,1.188,0.195,2.088,0.585,2.696c0.39,0.608,1.026,0.913,1.907,0.913
			c0.874,0,1.502-0.303,1.885-0.907c0.383-0.605,0.575-1.506,0.575-2.702c0-1.188-0.193-2.08-0.58-2.675s-1.021-0.892-1.901-0.892
			c-0.874,0-1.504,0.296-1.891,0.886C1011.456,1383.854,1011.262,1384.747,1011.262,1385.943z"/>
		<path fill="#FFFFFF" d="M1026.076,1392.185c-1.411,0-2.519-0.548-3.325-1.644s-1.208-2.614-1.208-4.555
			c0-1.97,0.41-3.504,1.23-4.603c0.82-1.1,1.95-1.649,3.389-1.649c1.511,0,2.664,0.587,3.459,1.762h0.107
			c-0.165-0.896-0.247-1.693-0.247-2.396v-3.846h3.287v16.715h-2.514l-0.634-1.558h-0.14
			C1028.736,1391.594,1027.601,1392.185,1026.076,1392.185z M1027.225,1389.574c0.838,0,1.452-0.243,1.842-0.73
			c0.39-0.487,0.603-1.314,0.639-2.481v-0.354c0-1.289-0.199-2.213-0.596-2.771s-1.044-0.838-1.939-0.838
			c-0.73,0-1.298,0.31-1.703,0.929c-0.405,0.62-0.607,1.521-0.607,2.702s0.204,2.067,0.612,2.659
			C1025.882,1389.278,1026.466,1389.574,1027.225,1389.574z"/>
		<path fill="#FFFFFF" d="M1041.63,1392.185c-1.934,0-3.445-0.533-4.533-1.601c-1.089-1.067-1.633-2.578-1.633-4.533
			c0-2.013,0.503-3.568,1.509-4.667c1.006-1.1,2.397-1.649,4.173-1.649c1.697,0,3.019,0.483,3.964,1.45s1.418,2.303,1.418,4.007
			v1.59h-7.745c0.036,0.931,0.312,1.658,0.827,2.181s1.239,0.784,2.17,0.784c0.723,0,1.407-0.075,2.052-0.226s1.317-0.391,2.02-0.72
			v2.535c-0.573,0.286-1.186,0.499-1.837,0.64C1043.363,1392.114,1042.568,1392.185,1041.63,1392.185z M1041.168,1382.065
			c-0.695,0-1.239,0.221-1.633,0.66c-0.394,0.441-0.62,1.065-0.677,1.875h4.598c-0.015-0.81-0.226-1.434-0.634-1.875
			C1042.415,1382.286,1041.863,1382.065,1041.168,1382.065z"/>
		<path fill="#FFFFFF" d="M1052.469,1391.97h-3.276v-16.715h3.276V1391.97z"/>
		<path fill="#FFFFFF" d="M1061.879,1376.265h4.888c2.227,0,3.844,0.316,4.85,0.951c1.006,0.633,1.509,1.642,1.509,3.023
			c0,0.938-0.22,1.708-0.661,2.31s-1.026,0.963-1.756,1.085v0.107c0.995,0.222,1.713,0.638,2.154,1.246s0.661,1.418,0.661,2.428
			c0,1.433-0.518,2.55-1.552,3.352c-1.035,0.802-2.44,1.203-4.216,1.203h-5.876V1376.265z M1065.209,1382.484h1.934
			c0.902,0,1.556-0.14,1.96-0.419c0.404-0.279,0.607-0.741,0.607-1.386c0-0.602-0.22-1.033-0.661-1.294
			c-0.44-0.262-1.137-0.393-2.089-0.393h-1.751V1382.484z M1065.209,1385.127v4.093h2.17c0.917,0,1.593-0.176,2.03-0.526
			c0.437-0.351,0.655-0.888,0.655-1.611c0-1.304-0.931-1.955-2.793-1.955H1065.209z"/>
	</g>
</g>
</svg>
