<?xml version="1.0" encoding="UTF-8" standalone="no"?>
<!-- Created with Inkscape (http://www.inkscape.org/) -->

<svg
   xmlns:dc="http://purl.org/dc/elements/1.1/"
   xmlns:cc="http://creativecommons.org/ns#"
   xmlns:rdf="http://www.w3.org/1999/02/22-rdf-syntax-ns#"
   xmlns:svg="http://www.w3.org/2000/svg"
   xmlns="http://www.w3.org/2000/svg"
   xmlns:sodipodi="http://sodipodi.sourceforge.net/DTD/sodipodi-0.dtd"
   xmlns:inkscape="http://www.inkscape.org/namespaces/inkscape"
   id="svg3355"
   version="1.1"
   inkscape:version="0.91 r13725"
   xml:space="preserve"
   width="140"
   height="140"
   viewBox="0 0 140 140"
   sodipodi:docname="syncloud-graphics-spacing.svg"><metadata
     id="metadata3361"><rdf:RDF><cc:Work
         rdf:about=""><dc:format>image/svg+xml</dc:format><dc:type
           rdf:resource="http://purl.org/dc/dcmitype/StillImage" /><dc:title></dc:title></cc:Work></rdf:RDF></metadata><defs
     id="defs3359"><clipPath
       clipPathUnits="userSpaceOnUse"
       id="clipPath3369"><path
         d="M 0,100 100,100 100,0 0,0 0,100 Z"
         id="path3371"
         inkscape:connector-curvature="0" /></clipPath><clipPath
       clipPathUnits="userSpaceOnUse"
       id="clipPath3385"><path
         d="m 70.493,85.87 -19.551,0 c -4.545,0 -9.096,-0.577 -13.33,-2.042 l 0,0 c -3.624,-1.253 -6.913,-3.015 -9.669,-5.414 l 0,0 c -2.609,-2.27 -4.62,-4.909 -5.992,-7.878 l 0,0 c -1.405,-3.041 -2.083,-6.217 -2.079,-9.49 l 0,0 c 0.002,-2.516 0.521,-4.989 1.426,-7.378 l 0,0 c 0.96,-2.529 2.313,-4.908 4.059,-7.106 l 0,0 c 1.749,-2.205 3.853,-4.134 6.286,-5.787 l 0,0 c 2.397,-1.63 5.072,-2.845 7.979,-3.65 l 0,0 c 3.027,-0.838 6.202,-1.057 9.36,-0.816 l 0,0 c 0.425,0.035 0.918,0.138 1.335,0.227 l 0,0 c 0.397,0.083 0.778,0.243 1.122,0.431 l 0,0 c 0.241,0.125 0.402,0.303 0.539,0.513 l 0,0 c 0.217,0.326 0.267,0.899 0.267,1.264 l 0,0 c 0,0.246 -0.034,0.766 -0.192,0.988 l 0,0 c -0.11,0.159 -0.253,0.323 -0.444,0.416 l 0,0 c -0.34,0.167 -0.716,0.317 -1.099,0.389 l 0,0 c -0.474,0.088 -0.97,0.174 -1.454,0.215 l 0,0 c -3.491,0.309 -6.963,1.031 -10.155,2.297 l 0,0 c -2.559,1.018 -4.958,2.343 -6.92,4.098 l 0,0 c -1.665,1.487 -3.079,3.162 -4.055,5.056 l 0,0 c -0.817,1.589 -1.457,3.254 -1.779,4.973 l 0,0 c -0.25,1.354 -0.417,2.739 -0.403,4.11 l 0,0 c 0.016,1.756 0.267,3.492 0.757,5.197 l 0,0 c 0.552,1.928 1.461,3.758 2.612,5.472 l 0,0 c 1.279,1.91 2.952,3.565 4.908,4.982 l 0,0 c 2.201,1.595 4.773,2.733 7.486,3.537 l 0,0 c 3.012,0.891 6.216,1.268 9.392,1.302 l 0,0 c 5.29,0.054 10.583,0.007 15.876,0.007 l 0,0 3.718,0 0,-4 16.801,6.042 -16.801,6.042 0,-3.997 z"
         id="path3387"
         inkscape:connector-curvature="0" /></clipPath><linearGradient
       x1="0"
       y1="0"
       x2="1"
       y2="0"
       gradientUnits="userSpaceOnUse"
       gradientTransform="matrix(-3.05e-5,-777.19196,-777.19196,3.05e-5,53.583008,451.61914)"
       spreadMethod="pad"
       id="linearGradient3393"><stop
         style="stop-opacity:1;stop-color:#6acff6"
         offset="0"
         id="stop3395" /><stop
         style="stop-opacity:1;stop-color:#00aeef"
         offset="1"
         id="stop3397" /></linearGradient><clipPath
       clipPathUnits="userSpaceOnUse"
       id="clipPath3405"><path
         d="m 51.018,63.696 c -0.425,-0.035 -0.92,-0.143 -1.335,-0.23 l 0,0 C 49.287,63.385 48.905,63.223 48.56,63.039 l 0,0 c -0.239,-0.127 -0.4,-0.306 -0.539,-0.515 l 0,0 c -0.217,-0.329 -0.267,-0.896 -0.267,-1.263 l 0,0 c 0,-0.247 0.035,-0.767 0.192,-0.987 l 0,0 c 0.111,-0.16 0.253,-0.323 0.445,-0.418 l 0,0 c 0.339,-0.167 0.716,-0.317 1.098,-0.388 l 0,0 c 0.475,-0.088 0.971,-0.174 1.455,-0.216 l 0,0 c 3.489,-0.307 6.963,-1.029 10.154,-2.298 l 0,0 c 2.56,-1.015 4.959,-2.343 6.922,-4.094 l 0,0 c 1.662,-1.488 3.077,-3.163 4.053,-5.059 l 0,0 c 0.82,-1.591 1.458,-3.254 1.777,-4.973 l 0,0 c 0.252,-1.353 0.419,-2.738 0.404,-4.109 l 0,0 c -0.016,-1.758 -0.266,-3.492 -0.753,-5.198 l 0,0 c -0.555,-1.926 -1.464,-3.757 -2.613,-5.47 l 0,0 c -1.28,-1.912 -2.951,-3.565 -4.908,-4.982 l 0,0 c -2.204,-1.599 -4.776,-2.735 -7.489,-3.54 l 0,0 C 55.48,18.643 52.277,18.264 49.102,18.227 l 0,0 C 43.81,18.176 38.517,18.222 33.227,18.222 l 0,0 -3.721,0 0,3.996 -16.802,-6.04 16.802,-6.041 0,3.996 19.552,0 c 4.543,0 9.096,0.577 13.33,2.043 l 0,0 c 3.624,1.252 6.916,3.017 9.671,5.414 l 0,0 c 2.604,2.272 4.618,4.91 5.988,7.879 l 0,0 c 1.403,3.041 2.084,6.217 2.081,9.49 l 0,0 c -0.003,2.516 -0.521,4.988 -1.425,7.379 l 0,0 c -0.963,2.528 -2.315,4.906 -4.059,7.104 l 0,0 c -1.751,2.206 -3.856,4.134 -6.288,5.788 l 0,0 c -2.394,1.631 -5.071,2.845 -7.977,3.65 l 0,0 c -2.27,0.626 -4.622,0.907 -6.987,0.908 l 0,0 c -0.791,0 -1.583,-0.032 -2.374,-0.092"
         id="path3407"
         inkscape:connector-curvature="0" /></clipPath><linearGradient
       x1="0"
       y1="0"
       x2="1"
       y2="0"
       gradientUnits="userSpaceOnUse"
       gradientTransform="matrix(-3.05e-5,764.73645,764.73645,3.05e-5,46.416504,-345.42773)"
       spreadMethod="pad"
       id="linearGradient3413"><stop
         style="stop-opacity:1;stop-color:#9dce6f"
         offset="0"
         id="stop3415" /><stop
         style="stop-opacity:1;stop-color:#65bc45"
         offset="1"
         id="stop3417" /></linearGradient></defs><sodipodi:namedview
     pagecolor="#ffffff"
     bordercolor="#666666"
     borderopacity="1"
     objecttolerance="10"
     gridtolerance="10"
     guidetolerance="10"
     inkscape:pageopacity="0"
     inkscape:pageshadow="2"
     inkscape:window-width="1440"
     inkscape:window-height="775"
     id="namedview3357"
     showgrid="false"
     inkscape:zoom="3.7134713"
     inkscape:cx="62.5"
     inkscape:cy="62.5"
     inkscape:window-x="0"
     inkscape:window-y="0"
     inkscape:window-maximized="1"
     inkscape:current-layer="g3363" /><g
     id="g3363"
     inkscape:groupmode="layer"
     inkscape:label="syncloud-graphics-spacing"
     transform="matrix(1.25,0,0,-1.25,0,140)"><g
       id="g3365"
       transform="translate(6.0001,5.9998)"><g
         id="g3367"
         clip-path="url(#clipPath3369)"><g
           id="g3373"
           transform="translate(3.0474,16.1777)"><path
             d="m 0,0 15.089,5.426 15.091,5.428 0,-2.36 0,-3.246 15.831,0 0,0.008 c 3.125,0.06 5.847,0.437 8.184,1.129 2.49,0.74 4.582,1.73 6.299,2.961 1.698,1.244 3.08,2.615 4.103,4.131 1.027,1.515 1.762,3.064 2.222,4.636 0.458,1.569 0.689,3.047 0.666,4.453 0.023,1.012 -0.103,2.182 -0.356,3.52 -0.25,1.332 -0.75,2.705 -1.505,4.131 -0.732,1.443 -1.842,2.815 -3.306,4.113 -1.487,1.316 -3.414,2.471 -5.82,3.445 -2.409,0.975 -5.402,1.677 -8.981,2.111 -0.481,0.053 -1.087,0.144 -1.821,0.29 -0.71,0.124 -1.423,0.377 -2.157,0.721 -0.707,0.359 -1.317,0.864 -1.797,1.532 -0.482,0.668 -0.734,1.553 -0.755,2.654 0.021,1.189 0.271,2.128 0.732,2.865 0.48,0.724 1.088,1.264 1.801,1.662 0.711,0.378 1.445,0.649 2.176,0.794 0.755,0.162 1.402,0.27 1.947,0.306 3.854,0.308 7.473,-0.018 10.821,-0.938 3.372,-0.921 6.428,-2.31 9.147,-4.167 2.746,-1.857 5.089,-4.023 7.057,-6.495 1.967,-2.471 3.475,-5.103 4.523,-7.902 1.066,-2.796 1.59,-5.61 1.611,-8.423 0,-3.771 -0.798,-7.326 -2.345,-10.678 C 76.909,8.75 74.626,5.775 71.652,3.176 68.659,0.559 65.016,-1.479 60.728,-2.977 56.417,-4.455 51.515,-5.213 46.011,-5.246 l -15.831,0 0,-3.25 0,-2.361 L 15.089,-5.428 0,0 Z"
             style="fill:#65bc45;fill-opacity:1;fill-rule:evenodd;stroke:none"
             id="path3375"
             inkscape:connector-curvature="0" /></g><g
           id="g3377"
           transform="translate(50.9414,89.0757)"><path
             d="m 0,0 c -5.505,-0.035 -10.404,-0.794 -14.715,-2.273 -4.292,-1.497 -7.934,-3.535 -10.927,-6.132 -2.973,-2.599 -5.255,-5.594 -6.805,-8.949 -1.547,-3.354 -2.321,-6.908 -2.342,-10.681 0.021,-2.796 0.545,-5.59 1.611,-8.368 1.049,-2.796 2.554,-5.43 4.522,-7.919 1.968,-2.472 4.312,-4.636 7.054,-6.494 2.721,-1.859 5.777,-3.266 9.146,-4.185 3.352,-0.938 6.972,-1.264 10.824,-0.959 0.523,0.037 1.151,0.146 1.884,0.306 0.732,0.147 1.466,0.416 2.194,0.815 0.736,0.379 1.343,0.92 1.825,1.662 0.482,0.72 0.732,1.676 0.752,2.847 -0.02,1.102 -0.27,1.983 -0.731,2.651 -0.481,0.668 -1.068,1.174 -1.779,1.533 -0.711,0.344 -1.426,0.598 -2.158,0.74 -0.709,0.127 -1.339,0.235 -1.863,0.27 -3.579,0.383 -6.572,1.066 -8.977,2.023 -2.409,0.955 -4.334,2.092 -5.799,3.409 -1.487,1.316 -2.597,2.687 -3.33,4.13 -0.753,1.444 -1.254,2.834 -1.507,4.183 -0.252,1.356 -0.377,2.545 -0.356,3.576 0,1.406 0.208,2.887 0.649,4.455 0.461,1.571 1.193,3.12 2.22,4.635 1.004,1.516 2.364,2.887 4.081,4.131 1.695,1.227 3.787,2.22 6.301,2.959 2.335,0.693 5.08,1.068 8.226,1.129 l 0,0.008 15.833,0 0,-3.248 0,-2.358 15.091,5.425 15.087,5.429 -15.087,5.428 -15.091,5.426 0,-2.359 L 15.833,0 0,0 Z"
             style="fill:#00aeef;fill-opacity:1;fill-rule:nonzero;stroke:none"
             id="path3379"
             inkscape:connector-curvature="0" /></g></g></g><g
       id="g3381"
       transform="translate(6.0001,5.9998)"><g
         id="g3383"
         clip-path="url(#clipPath3385)"><g
           id="g3389"><g
             id="g3391"><path
               d="m 70.493,85.87 -19.551,0 c -4.545,0 -9.096,-0.577 -13.33,-2.042 l 0,0 c -3.624,-1.253 -6.913,-3.015 -9.669,-5.414 l 0,0 c -2.609,-2.27 -4.62,-4.909 -5.992,-7.878 l 0,0 c -1.405,-3.041 -2.083,-6.217 -2.079,-9.49 l 0,0 c 0.002,-2.516 0.521,-4.989 1.426,-7.378 l 0,0 c 0.96,-2.529 2.313,-4.908 4.059,-7.106 l 0,0 c 1.749,-2.205 3.853,-4.134 6.286,-5.787 l 0,0 c 2.397,-1.63 5.072,-2.845 7.979,-3.65 l 0,0 c 3.027,-0.838 6.202,-1.057 9.36,-0.816 l 0,0 c 0.425,0.035 0.918,0.138 1.335,0.227 l 0,0 c 0.397,0.083 0.778,0.243 1.122,0.431 l 0,0 c 0.241,0.125 0.402,0.303 0.539,0.513 l 0,0 c 0.217,0.326 0.267,0.899 0.267,1.264 l 0,0 c 0,0.246 -0.034,0.766 -0.192,0.988 l 0,0 c -0.11,0.159 -0.253,0.323 -0.444,0.416 l 0,0 c -0.34,0.167 -0.716,0.317 -1.099,0.389 l 0,0 c -0.474,0.088 -0.97,0.174 -1.454,0.215 l 0,0 c -3.491,0.309 -6.963,1.031 -10.155,2.297 l 0,0 c -2.559,1.018 -4.958,2.343 -6.92,4.098 l 0,0 c -1.665,1.487 -3.079,3.162 -4.055,5.056 l 0,0 c -0.817,1.589 -1.457,3.254 -1.779,4.973 l 0,0 c -0.25,1.354 -0.417,2.739 -0.403,4.11 l 0,0 c 0.016,1.756 0.267,3.492 0.757,5.197 l 0,0 c 0.552,1.928 1.461,3.758 2.612,5.472 l 0,0 c 1.279,1.91 2.952,3.565 4.908,4.982 l 0,0 c 2.201,1.595 4.773,2.733 7.486,3.537 l 0,0 c 3.012,0.891 6.216,1.268 9.392,1.302 l 0,0 c 5.29,0.054 10.583,0.007 15.876,0.007 l 0,0 3.718,0 0,-4 16.801,6.042 -16.801,6.042 0,-3.997 z"
               style="fill:url(#linearGradient3393);stroke:none"
               id="path3399"
               inkscape:connector-curvature="0" /></g></g></g></g><g
       id="g3401"
       transform="translate(6.0001,5.9998)"><g
         id="g3403"
         clip-path="url(#clipPath3405)"><g
           id="g3409"><g
             id="g3411"><path
               d="m 51.018,63.696 c -0.425,-0.035 -0.92,-0.143 -1.335,-0.23 l 0,0 C 49.287,63.385 48.905,63.223 48.56,63.039 l 0,0 c -0.239,-0.127 -0.4,-0.306 -0.539,-0.515 l 0,0 c -0.217,-0.329 -0.267,-0.896 -0.267,-1.263 l 0,0 c 0,-0.247 0.035,-0.767 0.192,-0.987 l 0,0 c 0.111,-0.16 0.253,-0.323 0.445,-0.418 l 0,0 c 0.339,-0.167 0.716,-0.317 1.098,-0.388 l 0,0 c 0.475,-0.088 0.971,-0.174 1.455,-0.216 l 0,0 c 3.489,-0.307 6.963,-1.029 10.154,-2.298 l 0,0 c 2.56,-1.015 4.959,-2.343 6.922,-4.094 l 0,0 c 1.662,-1.488 3.077,-3.163 4.053,-5.059 l 0,0 c 0.82,-1.591 1.458,-3.254 1.777,-4.973 l 0,0 c 0.252,-1.353 0.419,-2.738 0.404,-4.109 l 0,0 c -0.016,-1.758 -0.266,-3.492 -0.753,-5.198 l 0,0 c -0.555,-1.926 -1.464,-3.757 -2.613,-5.47 l 0,0 c -1.28,-1.912 -2.951,-3.565 -4.908,-4.982 l 0,0 c -2.204,-1.599 -4.776,-2.735 -7.489,-3.54 l 0,0 C 55.48,18.643 52.277,18.264 49.102,18.227 l 0,0 C 43.81,18.176 38.517,18.222 33.227,18.222 l 0,0 -3.721,0 0,3.996 -16.802,-6.04 16.802,-6.041 0,3.996 19.552,0 c 4.543,0 9.096,0.577 13.33,2.043 l 0,0 c 3.624,1.252 6.916,3.017 9.671,5.414 l 0,0 c 2.604,2.272 4.618,4.91 5.988,7.879 l 0,0 c 1.403,3.041 2.084,6.217 2.081,9.49 l 0,0 c -0.003,2.516 -0.521,4.988 -1.425,7.379 l 0,0 c -0.963,2.528 -2.315,4.906 -4.059,7.104 l 0,0 c -1.751,2.206 -3.856,4.134 -6.288,5.788 l 0,0 c -2.394,1.631 -5.071,2.845 -7.977,3.65 l 0,0 c -2.27,0.626 -4.622,0.907 -6.987,0.908 l 0,0 c -0.791,0 -1.583,-0.032 -2.374,-0.092"
               style="fill:url(#linearGradient3413);stroke:none"
               id="path3419"
               inkscape:connector-curvature="0" /></g></g></g></g></g></svg>