<?xml version="1.0" encoding="UTF-8" standalone="no"?>
<!-- Created with Inkscape (http://www.inkscape.org/) -->

<svg
   xmlns:dc="http://purl.org/dc/elements/1.1/"
   xmlns:cc="http://creativecommons.org/ns#"
   xmlns:rdf="http://www.w3.org/1999/02/22-rdf-syntax-ns#"
   xmlns:svg="http://www.w3.org/2000/svg"
   xmlns="http://www.w3.org/2000/svg"
   xmlns:sodipodi="http://sodipodi.sourceforge.net/DTD/sodipodi-0.dtd"
   xmlns:inkscape="http://www.inkscape.org/namespaces/inkscape"
   id="svg5318"
   version="1.1"
   inkscape:version="0.48.5 r10040"
   width="512"
   height="512"
   xml:space="preserve"
   sodipodi:docname="syncloud_icon.svg"><metadata
     id="metadata5324"><rdf:RDF><cc:Work
         rdf:about=""><dc:format>image/svg+xml</dc:format><dc:type
           rdf:resource="http://purl.org/dc/dcmitype/StillImage" /></cc:Work></rdf:RDF></metadata><defs
     id="defs5322"><linearGradient
       x1="0"
       y1="0"
       x2="1"
       y2="0"
       gradientUnits="userSpaceOnUse"
       gradientTransform="matrix(-0.35826,-22.21223,22.21506,-0.35831,245.3732,758.503)"
       spreadMethod="pad"
       id="linearGradient5346"><stop
         style="stop-opacity:1;stop-color:#70d0f6"
         offset="0"
         id="stop5348" /><stop
         style="stop-opacity:1;stop-color:#00b0f0"
         offset="1"
         id="stop5350" /></linearGradient><linearGradient
       x1="0"
       y1="0"
       x2="1"
       y2="0"
       gradientUnits="userSpaceOnUse"
       gradientTransform="matrix(0,21.86759,-21.86872,0,264.9115,726.4689)"
       spreadMethod="pad"
       id="linearGradient5364"><stop
         style="stop-opacity:1;stop-color:#93e872"
         offset="0"
         id="stop5366" /><stop
         style="stop-opacity:1;stop-color:#66bc45"
         offset="1"
         id="stop5368" /></linearGradient><linearGradient
       x1="0"
       y1="0"
       x2="1"
       y2="0"
       gradientUnits="userSpaceOnUse"
       gradientTransform="matrix(-0.35826,-22.21223,22.21563,-0.35832,251.0748,651.3814)"
       spreadMethod="pad"
       id="linearGradient5392"><stop
         style="stop-opacity:1;stop-color:#70d0f6"
         offset="0"
         id="stop5394" /><stop
         style="stop-opacity:1;stop-color:#00b0f0"
         offset="1"
         id="stop5396" /></linearGradient><linearGradient
       x1="0"
       y1="0"
       x2="1"
       y2="0"
       gradientUnits="userSpaceOnUse"
       gradientTransform="matrix(0,21.86759,-21.86816,0,270.6131,619.3474)"
       spreadMethod="pad"
       id="linearGradient5410"><stop
         style="stop-opacity:1;stop-color:#93e872"
         offset="0"
         id="stop5412" /><stop
         style="stop-opacity:1;stop-color:#66bc45"
         offset="1"
         id="stop5414" /></linearGradient><linearGradient
       x1="0"
       y1="0"
       x2="1"
       y2="0"
       gradientUnits="userSpaceOnUse"
       gradientTransform="matrix(-0.35827,-22.21251,22.2162,-0.35833,259.5685,544.2596)"
       spreadMethod="pad"
       id="linearGradient5438"><stop
         style="stop-opacity:1;stop-color:#70d0f6"
         offset="0"
         id="stop5440" /><stop
         style="stop-opacity:1;stop-color:#00b0f0"
         offset="1"
         id="stop5442" /></linearGradient><linearGradient
       x1="0"
       y1="0"
       x2="1"
       y2="0"
       gradientUnits="userSpaceOnUse"
       gradientTransform="matrix(0,21.86759,-21.86872,0,279.1071,512.2256)"
       spreadMethod="pad"
       id="linearGradient5456"><stop
         style="stop-opacity:1;stop-color:#93e872"
         offset="0"
         id="stop5458" /><stop
         style="stop-opacity:1;stop-color:#66bc45"
         offset="1"
         id="stop5460" /></linearGradient><linearGradient
       x1="0"
       y1="0"
       x2="1"
       y2="0"
       gradientUnits="userSpaceOnUse"
       gradientTransform="matrix(-0.35826,-22.21223,22.21563,-0.35832,250.0815,437.1381)"
       spreadMethod="pad"
       id="linearGradient5484"><stop
         style="stop-opacity:1;stop-color:#70d0f6"
         offset="0"
         id="stop5486" /><stop
         style="stop-opacity:1;stop-color:#00b0f0"
         offset="1"
         id="stop5488" /></linearGradient><linearGradient
       x1="0"
       y1="0"
       x2="1"
       y2="0"
       gradientUnits="userSpaceOnUse"
       gradientTransform="matrix(0,21.86759,-21.86816,0,269.6199,405.1043)"
       spreadMethod="pad"
       id="linearGradient5502"><stop
         style="stop-opacity:1;stop-color:#93e872"
         offset="0"
         id="stop5504" /><stop
         style="stop-opacity:1;stop-color:#66bc45"
         offset="1"
         id="stop5506" /></linearGradient><linearGradient
       x1="0"
       y1="0"
       x2="1"
       y2="0"
       gradientUnits="userSpaceOnUse"
       gradientTransform="matrix(-0.35827,-22.21251,22.21506,-0.35831,245.8851,222.895)"
       spreadMethod="pad"
       id="linearGradient5530"><stop
         style="stop-opacity:1;stop-color:#70d0f6"
         offset="0"
         id="stop5532" /><stop
         style="stop-opacity:1;stop-color:#00b0f0"
         offset="1"
         id="stop5534" /></linearGradient><linearGradient
       x1="0"
       y1="0"
       x2="1"
       y2="0"
       gradientUnits="userSpaceOnUse"
       gradientTransform="matrix(0,21.86759,-21.86872,0,265.4235,190.8612)"
       spreadMethod="pad"
       id="linearGradient5548"><stop
         style="stop-opacity:1;stop-color:#93e872"
         offset="0"
         id="stop5550" /><stop
         style="stop-opacity:1;stop-color:#66bc45"
         offset="1"
         id="stop5552" /></linearGradient><linearGradient
       x1="0"
       y1="0"
       x2="1"
       y2="0"
       gradientUnits="userSpaceOnUse"
       gradientTransform="matrix(-0.35826,-22.21223,22.21506,-0.35831,255.7905,330.0165)"
       spreadMethod="pad"
       id="linearGradient5576"><stop
         style="stop-opacity:1;stop-color:#70d0f6"
         offset="0"
         id="stop5578" /><stop
         style="stop-opacity:1;stop-color:#00b0f0"
         offset="1"
         id="stop5580" /></linearGradient><linearGradient
       x1="0"
       y1="0"
       x2="1"
       y2="0"
       gradientUnits="userSpaceOnUse"
       gradientTransform="matrix(0,21.86759,-21.86872,0,275.3289,297.9828)"
       spreadMethod="pad"
       id="linearGradient5594"><stop
         style="stop-opacity:1;stop-color:#93e872"
         offset="0"
         id="stop5596" /><stop
         style="stop-opacity:1;stop-color:#66bc45"
         offset="1"
         id="stop5598" /></linearGradient><linearGradient
       x1="0"
       y1="0"
       x2="1"
       y2="0"
       gradientUnits="userSpaceOnUse"
       gradientTransform="matrix(-0.35826,-22.21223,22.21563,-0.35832,248.7679,115.78)"
       spreadMethod="pad"
       id="linearGradient5622"><stop
         style="stop-opacity:1;stop-color:#70d0f6"
         offset="0"
         id="stop5624" /><stop
         style="stop-opacity:1;stop-color:#00b0f0"
         offset="1"
         id="stop5626" /></linearGradient><linearGradient
       x1="0"
       y1="0"
       x2="1"
       y2="0"
       gradientUnits="userSpaceOnUse"
       gradientTransform="matrix(0,21.86759,-21.86872,0,268.3066,83.7462)"
       spreadMethod="pad"
       id="linearGradient5640"><stop
         style="stop-opacity:1;stop-color:#93e872"
         offset="0"
         id="stop5642" /><stop
         style="stop-opacity:1;stop-color:#66bc45"
         offset="1"
         id="stop5644" /></linearGradient></defs><sodipodi:namedview
     pagecolor="#ffffff"
     bordercolor="#666666"
     borderopacity="1"
     objecttolerance="10"
     gridtolerance="10"
     guidetolerance="10"
     inkscape:pageopacity="0"
     inkscape:pageshadow="2"
     inkscape:window-width="1920"
     inkscape:window-height="1004"
     id="namedview5320"
     showgrid="false"
     inkscape:zoom="0.89702947"
     inkscape:cx="114.51773"
     inkscape:cy="290.45594"
     inkscape:window-x="-4"
     inkscape:window-y="0"
     inkscape:window-maximized="1"
     inkscape:current-layer="g5326" /><g
     id="g5326"
     inkscape:groupmode="layer"
     inkscape:label="syncloud_logo"
     transform="matrix(1.25,0,0,-1.25,0,512.00001)"><path
       d="m 29.624633,58.367817 56.295568,23.489105 56.299009,23.500558 0,-10.215806 0,-14.047433 59.06433,0 0,0.03436 c 11.66286,0.256453 21.82002,1.887639 30.53582,4.887621 9.28979,3.204739 17.10262,7.49879 23.50633,12.814306 6.32317,5.383402 11.48456,11.324692 15.30586,17.877952 3.83163,6.56013 6.56129,13.27444 8.28557,20.07959 1.71166,6.78906 2.57899,13.19276 2.49155,19.28013 0.092,4.37919 -0.38533,9.45314 -1.32399,15.23454 -0.9398,5.77103 -2.80789,11.71234 -5.6215,17.88482 -2.7331,6.24727 -6.87074,12.18855 -12.34155,17.80662 -5.54328,5.69971 -12.73608,10.70122 -21.70957,14.91706 -8.98727,4.21585 -20.1509,7.25836 -33.50702,9.1368 -1.79329,0.2311 -4.05938,0.62576 -6.7925,1.25153 -2.65372,0.54179 -5.31091,1.63688 -8.04747,3.12421 -2.6434,1.55866 -4.91637,3.74308 -6.70969,6.6326 -1.79676,2.89533 -2.73657,6.72352 -2.81477,11.48689 0.0806,5.14874 1.0111,9.21503 2.72966,12.41054 1.79676,3.12999 4.06285,5.47084 6.72003,7.19284 2.6572,1.63341 5.39029,2.81018 8.12224,3.43709 2.81479,0.70052 5.23041,1.16985 7.26184,1.32628 14.3764,1.32743 27.88207,-0.0805 40.38004,-4.06285 12.56701,-3.98694 23.97566,-10.00299 34.12702,-18.04129 10.23536,-8.04402 18.97648,-17.41778 26.32342,-28.1167 7.33659,-10.69778 12.95811,-22.09722 16.86681,-34.20754 3.98233,-12.10688 5.93438,-24.28855 6.01376,-36.47364 0,-16.32386 -2.96776,-31.71026 -8.7457,-46.22702 C 316.56522,96.251578 308.04152,83.368235 296.95494,72.118339 285.78786,60.784454 272.19709,51.967431 256.1907,45.485495 240.10149,39.085236 221.8221,35.804578 201.28354,35.648148 l -59.06433,0 0,-14.060073 0,-10.215809 -56.299011,23.499422 -56.295567,23.497125 z"
       style="fill:#66bd45;fill-opacity:1;fill-rule:evenodd;stroke:none"
       id="path5332"
       inkscape:connector-curvature="0" /><path
       d="m 208.31071,373.96577 c -20.53625,-0.15297 -38.81564,-3.43939 -54.90369,-9.84079 -16.0133,-6.48194 -29.59717,-15.30816 -40.76539,-26.55118 -11.09002,-11.24989 -19.606858,-24.21146 -25.384791,-38.7374 -5.774471,-14.52596 -8.662889,-29.91005 -8.741121,-46.23966 0.08055,-12.10691 2.034899,-24.20459 6.012612,-36.2298 3.909882,-12.10687 9.527923,-23.51206 16.87029,-34.28574 7.34003,-10.69778 16.08576,-20.06927 26.32109,-28.11674 10.14678,-8.04059 21.54969,-14.13831 34.12243,-18.11948 12.50145,-4.0571 26.00708,-5.46508 40.38006,-4.14109 1.94975,0.1599 4.29521,0.62924 7.0306,1.324 2.73196,0.62923 5.46508,1.80252 8.19359,3.51761 2.73653,1.64377 5.00495,3.98808 6.79938,7.19051 1.79562,3.12308 2.73198,7.25722 2.81018,12.33811 -0.0805,4.76337 -1.01456,8.59155 -2.73194,11.4742 -1.79333,2.89529 -3.98233,5.08319 -6.63608,6.63493 -2.66062,1.49077 -5.31781,2.58931 -8.04747,3.20934 -2.65028,0.54408 -5.00151,1.01338 -6.9547,1.16984 -13.35264,1.64721 -24.51746,4.61383 -33.49667,8.75262 -8.98381,4.13417 -16.16744,9.05398 -21.6348,14.76059 -5.54672,5.6963 -9.6878,11.63412 -12.4209,17.87795 -2.81018,6.25071 -4.6817,12.27022 -5.62379,18.11028 -0.93981,5.86652 -1.40567,11.02099 -1.32747,15.47841 0,6.08736 0.7799,12.50142 2.42252,19.28704 1.71856,6.80171 4.45051,13.51254 8.27869,20.06924 3.74999,6.56128 8.82394,12.49798 15.22764,17.88482 6.3255,5.31208 14.13143,9.6096 23.50979,12.81202 8.7158,2.99881 18.95117,4.61958 30.68994,4.88762 l 0,0.0344 c 19.69425,0 39.3793,0 59.07008,0 l 0,-14.05666 0,-10.21234 56.29557,23.49025 56.29901,23.49598 -56.29901,23.49941 -56.29557,23.49369 0,-10.21234 0,-14.04743 -59.07008,0 z"
       style="fill:#00b0f0;fill-opacity:1;fill-rule:nonzero;stroke:none"
       id="path5334"
       inkscape:connector-curvature="0" /><g
       id="g5336"
       transform="matrix(11.502976,0,0,11.502976,-2730.0635,-8333.9734)"><g
         id="g5338"><g
           id="g5344"><path
             d="m 261.7863,752.7662 5.4491,2.2737 -5.4491,2.274 0,-1.5041 -6.3414,0 c -1.474,0 -2.9505,-0.2177 -4.3234,-0.7685 -1.1758,-0.4717 -2.2422,-1.135 -3.1362,-2.0378 -0.8459,-0.8546 -1.4987,-1.8476 -1.9432,-2.965 -0.4555,-1.1444 -0.6757,-2.3398 -0.6743,-3.5717 3e-4,-0.9471 0.1686,-1.8779 0.4623,-2.7768 0.3115,-0.9519 0.7506,-1.8474 1.3164,-2.6745 0.5675,-0.83 1.2501,-1.5557 2.039,-2.1781 0.7772,-0.6135 1.6452,-1.0707 2.588,-1.3734 0.9819,-0.315 2.0112,-0.3977 3.0354,-0.3073 0.1383,0.0127 0.2982,0.053 0.4331,0.0862 0.129,0.0309 0.2526,0.0918 0.3642,0.161 0.078,0.0479 0.1299,0.1148 0.1747,0.1939 0.0702,0.1236 0.0867,0.3373 0.0867,0.4753 0,0.0927 -0.0113,0.2883 -0.0621,0.3717 -0.036,0.0601 -0.0819,0.1213 -0.1446,0.1567 -0.1097,0.0629 -0.2318,0.1196 -0.356,0.1463 -0.1539,0.0329 -0.3146,0.0655 -0.4714,0.0811 -1.1321,0.1159 -2.2589,0.3883 -3.2941,0.8645 -0.83,0.3827 -1.6076,0.8822 -2.2445,1.5423 -0.54,0.5596 -0.9986,1.19 -1.3147,1.9029 -0.2653,0.5982 -0.4728,1.2246 -0.5774,1.8718 -0.0811,0.5093 -0.135,1.0306 -0.1307,1.5468 0.005,0.6611 0.087,1.3145 0.2455,1.9562 0.1794,0.7254 0.4739,1.4137 0.847,2.0591 0.415,0.7189 0.9575,1.3416 1.5919,1.8748 0.7146,0.6007 1.5486,1.029 2.4284,1.3315 0.9769,0.335 2.0158,0.477 3.0456,0.4898 1.7161,0.0204 3.4333,0.003 5.1494,0.003 l 1.2064,0 0,-1.5055 z"
             style="fill:url(#linearGradient5346);fill-rule:evenodd;stroke:none"
             id="path5352"
             inkscape:connector-curvature="0" /></g></g></g><g
       id="g5354"
       transform="matrix(11.502976,0,0,11.502976,-2730.0635,-8333.9734)"><g
         id="g5356"><g
           id="g5362"><path
             d="m 248.4924,731.8542 -5.4493,-2.2737 5.4493,-2.2736 0,1.5037 6.3414,0 c 1.474,0 2.9506,0.218 4.3234,0.7685 1.1758,0.472 2.2425,1.1356 3.1365,2.0378 0.8456,0.855 1.4984,1.848 1.9429,2.9651 0.4555,1.1443 0.6755,2.3403 0.6746,3.5722 -8e-4,0.9471 -0.1686,1.8777 -0.4626,2.7768 -0.3115,0.9516 -0.7506,1.8468 -1.3164,2.6739 -0.5678,0.83 -1.2501,1.5557 -2.0392,2.1785 -0.7767,0.6134 -1.645,1.0706 -2.5878,1.3736 -0.9819,0.3147 -2.0112,0.3975 -3.0356,0.307 -0.138,-0.013 -0.2982,-0.0535 -0.4328,-0.0864 -0.1287,-0.0306 -0.2526,-0.0916 -0.3646,-0.161 -0.0776,-0.0477 -0.1295,-0.1148 -0.1746,-0.1936 -0.0703,-0.1239 -0.0867,-0.3374 -0.0867,-0.4754 0,-0.093 0.0113,-0.2883 0.0623,-0.3713 0.036,-0.0607 0.0819,-0.1214 0.1446,-0.1571 0.1097,-0.0629 0.2319,-0.1196 0.356,-0.146 0.1539,-0.0334 0.315,-0.066 0.4717,-0.0816 1.1319,-0.1157 2.2587,-0.3875 3.2939,-0.8646 0.83,-0.3824 1.6078,-0.8818 2.2444,-1.5415 0.54,-0.5598 0.9987,-1.1902 1.3145,-1.9034 0.2656,-0.5984 0.4731,-1.2246 0.5774,-1.8717 0.0816,-0.5091 0.1352,-1.0307 0.1307,-1.5469 -0.005,-0.661 -0.0865,-1.3147 -0.2452,-1.9562 -0.1792,-0.7251 -0.4743,-1.4136 -0.847,-2.0591 -0.415,-0.7191 -0.9573,-1.3416 -1.592,-1.8748 -0.7146,-0.601 -1.5485,-1.0293 -2.4287,-1.3314 -0.9765,-0.3348 -2.0157,-0.4771 -3.0455,-0.4899 -1.7161,-0.0204 -3.4328,-0.003 -5.1489,-0.003 l -1.2067,0 0,1.5049 z"
             style="fill:url(#linearGradient5364);fill-rule:evenodd;stroke:none"
             id="path5370"
             inkscape:connector-curvature="0" /></g></g></g></g></svg>