<?xml version="1.0" encoding="UTF-8" standalone="no"?>
<!-- Created with Inkscape (http://www.inkscape.org/) -->

<svg
   xmlns:dc="http://purl.org/dc/elements/1.1/"
   xmlns:cc="http://creativecommons.org/ns#"
   xmlns:rdf="http://www.w3.org/1999/02/22-rdf-syntax-ns#"
   xmlns:svg="http://www.w3.org/2000/svg"
   xmlns="http://www.w3.org/2000/svg"
   xmlns:sodipodi="http://sodipodi.sourceforge.net/DTD/sodipodi-0.dtd"
   xmlns:inkscape="http://www.inkscape.org/namespaces/inkscape"
   id="svg5318"
   version="1.1"
   inkscape:version="0.48.5 r10040"
   width="1024"
   height="500"
   xml:space="preserve"
   sodipodi:docname="syncloud_icon.svg"
   inkscape:export-filename="/disk/projects/stuff/logo/sources/syncloud_icon.png"
   inkscape:export-xdpi="65.830002"
   inkscape:export-ydpi="65.830002"><metadata
     id="metadata5324"><rdf:RDF><cc:Work
         rdf:about=""><dc:format>image/svg+xml</dc:format><dc:type
           rdf:resource="http://purl.org/dc/dcmitype/StillImage" /><dc:title></dc:title></cc:Work></rdf:RDF></metadata><defs
     id="defs5322"><linearGradient
       x1="0"
       y1="0"
       x2="1"
       y2="0"
       gradientUnits="userSpaceOnUse"
       gradientTransform="matrix(-0.35826,-22.21223,22.21506,-0.35831,245.3732,758.503)"
       spreadMethod="pad"
       id="linearGradient5346"><stop
         style="stop-opacity:1;stop-color:#70d0f6"
         offset="0"
         id="stop5348" /><stop
         style="stop-opacity:1;stop-color:#00b0f0"
         offset="1"
         id="stop5350" /></linearGradient><linearGradient
       x1="0"
       y1="0"
       x2="1"
       y2="0"
       gradientUnits="userSpaceOnUse"
       gradientTransform="matrix(0,21.86759,-21.86872,0,264.9115,726.4689)"
       spreadMethod="pad"
       id="linearGradient5364"><stop
         style="stop-opacity:1;stop-color:#93e872"
         offset="0"
         id="stop5366" /><stop
         style="stop-opacity:1;stop-color:#66bc45"
         offset="1"
         id="stop5368" /></linearGradient><linearGradient
       x1="0"
       y1="0"
       x2="1"
       y2="0"
       gradientUnits="userSpaceOnUse"
       gradientTransform="matrix(-0.35826,-22.21223,22.21563,-0.35832,251.0748,651.3814)"
       spreadMethod="pad"
       id="linearGradient5392"><stop
         style="stop-opacity:1;stop-color:#70d0f6"
         offset="0"
         id="stop5394" /><stop
         style="stop-opacity:1;stop-color:#00b0f0"
         offset="1"
         id="stop5396" /></linearGradient><linearGradient
       x1="0"
       y1="0"
       x2="1"
       y2="0"
       gradientUnits="userSpaceOnUse"
       gradientTransform="matrix(0,21.86759,-21.86816,0,270.6131,619.3474)"
       spreadMethod="pad"
       id="linearGradient5410"><stop
         style="stop-opacity:1;stop-color:#93e872"
         offset="0"
         id="stop5412" /><stop
         style="stop-opacity:1;stop-color:#66bc45"
         offset="1"
         id="stop5414" /></linearGradient><linearGradient
       x1="0"
       y1="0"
       x2="1"
       y2="0"
       gradientUnits="userSpaceOnUse"
       gradientTransform="matrix(-0.35827,-22.21251,22.2162,-0.35833,259.5685,544.2596)"
       spreadMethod="pad"
       id="linearGradient5438"><stop
         style="stop-opacity:1;stop-color:#70d0f6"
         offset="0"
         id="stop5440" /><stop
         style="stop-opacity:1;stop-color:#00b0f0"
         offset="1"
         id="stop5442" /></linearGradient><linearGradient
       x1="0"
       y1="0"
       x2="1"
       y2="0"
       gradientUnits="userSpaceOnUse"
       gradientTransform="matrix(0,21.86759,-21.86872,0,279.1071,512.2256)"
       spreadMethod="pad"
       id="linearGradient5456"><stop
         style="stop-opacity:1;stop-color:#93e872"
         offset="0"
         id="stop5458" /><stop
         style="stop-opacity:1;stop-color:#66bc45"
         offset="1"
         id="stop5460" /></linearGradient><linearGradient
       x1="0"
       y1="0"
       x2="1"
       y2="0"
       gradientUnits="userSpaceOnUse"
       gradientTransform="matrix(-0.35826,-22.21223,22.21563,-0.35832,250.0815,437.1381)"
       spreadMethod="pad"
       id="linearGradient5484"><stop
         style="stop-opacity:1;stop-color:#70d0f6"
         offset="0"
         id="stop5486" /><stop
         style="stop-opacity:1;stop-color:#00b0f0"
         offset="1"
         id="stop5488" /></linearGradient><linearGradient
       x1="0"
       y1="0"
       x2="1"
       y2="0"
       gradientUnits="userSpaceOnUse"
       gradientTransform="matrix(0,21.86759,-21.86816,0,269.6199,405.1043)"
       spreadMethod="pad"
       id="linearGradient5502"><stop
         style="stop-opacity:1;stop-color:#93e872"
         offset="0"
         id="stop5504" /><stop
         style="stop-opacity:1;stop-color:#66bc45"
         offset="1"
         id="stop5506" /></linearGradient><linearGradient
       x1="0"
       y1="0"
       x2="1"
       y2="0"
       gradientUnits="userSpaceOnUse"
       gradientTransform="matrix(-0.35827,-22.21251,22.21506,-0.35831,245.8851,222.895)"
       spreadMethod="pad"
       id="linearGradient5530"><stop
         style="stop-opacity:1;stop-color:#70d0f6"
         offset="0"
         id="stop5532" /><stop
         style="stop-opacity:1;stop-color:#00b0f0"
         offset="1"
         id="stop5534" /></linearGradient><linearGradient
       x1="0"
       y1="0"
       x2="1"
       y2="0"
       gradientUnits="userSpaceOnUse"
       gradientTransform="matrix(0,21.86759,-21.86872,0,265.4235,190.8612)"
       spreadMethod="pad"
       id="linearGradient5548"><stop
         style="stop-opacity:1;stop-color:#93e872"
         offset="0"
         id="stop5550" /><stop
         style="stop-opacity:1;stop-color:#66bc45"
         offset="1"
         id="stop5552" /></linearGradient><linearGradient
       x1="0"
       y1="0"
       x2="1"
       y2="0"
       gradientUnits="userSpaceOnUse"
       gradientTransform="matrix(-0.35826,-22.21223,22.21506,-0.35831,255.7905,330.0165)"
       spreadMethod="pad"
       id="linearGradient5576"><stop
         style="stop-opacity:1;stop-color:#70d0f6"
         offset="0"
         id="stop5578" /><stop
         style="stop-opacity:1;stop-color:#00b0f0"
         offset="1"
         id="stop5580" /></linearGradient><linearGradient
       x1="0"
       y1="0"
       x2="1"
       y2="0"
       gradientUnits="userSpaceOnUse"
       gradientTransform="matrix(0,21.86759,-21.86872,0,275.3289,297.9828)"
       spreadMethod="pad"
       id="linearGradient5594"><stop
         style="stop-opacity:1;stop-color:#93e872"
         offset="0"
         id="stop5596" /><stop
         style="stop-opacity:1;stop-color:#66bc45"
         offset="1"
         id="stop5598" /></linearGradient><linearGradient
       x1="0"
       y1="0"
       x2="1"
       y2="0"
       gradientUnits="userSpaceOnUse"
       gradientTransform="matrix(-0.35826,-22.21223,22.21563,-0.35832,248.7679,115.78)"
       spreadMethod="pad"
       id="linearGradient5622"><stop
         style="stop-opacity:1;stop-color:#70d0f6"
         offset="0"
         id="stop5624" /><stop
         style="stop-opacity:1;stop-color:#00b0f0"
         offset="1"
         id="stop5626" /></linearGradient><linearGradient
       x1="0"
       y1="0"
       x2="1"
       y2="0"
       gradientUnits="userSpaceOnUse"
       gradientTransform="matrix(0,21.86759,-21.86872,0,268.3066,83.7462)"
       spreadMethod="pad"
       id="linearGradient5640"><stop
         style="stop-opacity:1;stop-color:#93e872"
         offset="0"
         id="stop5642" /><stop
         style="stop-opacity:1;stop-color:#66bc45"
         offset="1"
         id="stop5644" /></linearGradient></defs><sodipodi:namedview
     pagecolor="#ffffff"
     bordercolor="#666666"
     borderopacity="1"
     objecttolerance="10"
     gridtolerance="10"
     guidetolerance="10"
     inkscape:pageopacity="0"
     inkscape:pageshadow="2"
     inkscape:window-width="1698"
     inkscape:window-height="899"
     id="namedview5320"
     showgrid="false"
     inkscape:zoom="0.63429562"
     inkscape:cx="154.10258"
     inkscape:cy="333.71587"
     inkscape:window-x="188"
     inkscape:window-y="51"
     inkscape:window-maximized="0"
     inkscape:current-layer="g5326" /><g
     id="g5326"
     inkscape:groupmode="layer"
     inkscape:label="syncloud_logo"
     transform="matrix(1.25,0,0,-1.25,0,500)"><path
       d="m 243.85931,61.454447 53.26357,22.22402 53.26682,22.234863 0,-9.665603 0,-13.29086 55.88322,0 0,0.0325 c 11.03472,0.24264 20.64483,1.78597 28.89121,4.62438 8.78946,3.03213 16.18151,7.09492 22.24032,12.12415 5.98262,5.093463 10.86602,10.714763 14.48151,16.915063 3.62526,6.20682 6.2079,12.55951 7.83932,18.99814 1.61947,6.42342 2.44009,12.48223 2.35736,18.24174 0.0871,4.14332 -0.36458,8.944 -1.25268,14.41402 -0.88919,5.46022 -2.65666,11.08155 -5.31874,16.92158 -2.58589,5.9108 -6.50069,11.5321 -11.67685,16.84758 -5.24473,5.39273 -12.05014,10.12487 -20.54033,14.11366 -8.50322,3.98878 -19.0656,6.86743 -31.70238,8.6447 -1.6967,0.21865 -3.84075,0.59206 -6.42668,1.18412 -2.51078,0.51262 -5.02486,1.54873 -7.61404,2.95595 -2.50102,1.47471 -4.65158,3.54148 -6.34831,6.27538 -1.7,2.73939 -2.58918,6.36139 -2.66317,10.86822 0.0762,4.87144 0.95664,8.71873 2.58264,11.74214 1.69999,2.9614 3.84403,5.17618 6.35811,6.80543 2.51407,1.54544 5.09997,2.65883 7.68477,3.25198 2.66321,0.66279 4.94872,1.10684 6.87073,1.25485 13.60212,1.25593 26.38039,-0.0762 38.20525,-3.84403 11.89017,-3.77221 22.68437,-9.46424 32.28899,-17.06961 9.6841,-7.61079 17.95443,-16.47969 24.90568,-26.60238 6.94145,-10.12162 12.2602,-20.90711 15.95839,-32.36518 3.76786,-11.45483 5.61476,-22.98042 5.68986,-34.50923 0,-15.44469 -2.80791,-30.0024 -8.27466,-43.7373 -5.46351,-13.746873 -13.52814,-25.936353 -24.01761,-36.580333 -10.56564,-10.72347 -23.42443,-19.06562 -38.56874,-25.19845 -15.22267,-6.05555 -32.51756,-9.15952 -51.94995,-9.30752 l -55.88322,0 0,-13.30282 0,-9.665604 -53.26682,22.233784 -53.26357,22.2316 z"
       style="fill:#66bd45;fill-opacity:1;fill-rule:evenodd;stroke:none"
       id="path5332"
       inkscape:connector-curvature="0" /><path
       d="m 412.92162,360.0548 c -19.4302,-0.14473 -36.72509,-3.25415 -51.94667,-9.31079 -15.15084,-6.13282 -28.00309,-14.48369 -38.56981,-25.12117 -10.49273,-10.64399 -18.55086,-22.90747 -24.01761,-36.65106 -5.46346,-13.74362 -8.19631,-28.29915 -8.27034,-43.74927 0.0762,-11.45485 1.92531,-22.90097 5.68879,-34.27852 3.6993,-11.45482 9.01476,-22.24574 15.96167,-32.43916 6.94471,-10.12162 15.21941,-18.98838 24.90348,-26.60242 9.60029,-7.60754 20.38905,-13.37684 32.28465,-17.1436 11.82813,-3.83858 24.60638,-5.17074 38.20524,-3.91805 1.84475,0.15129 4.06389,0.59535 6.65195,1.25269 2.58482,0.59534 5.17074,1.70544 7.75229,3.32816 2.58915,1.55523 4.73539,3.77328 6.43319,6.80324 1.6989,2.95487 2.58484,6.86635 2.65882,11.67359 -0.0762,4.50683 -0.95992,8.12883 -2.5848,10.85623 -1.69674,2.73935 -3.76785,4.80941 -6.27868,6.27758 -2.51732,1.41048 -5.0314,2.44985 -7.61404,3.03648 -2.50754,0.51479 -4.73213,0.95881 -6.58012,1.10685 -12.6335,1.55849 -23.19699,4.36533 -31.6926,8.2812 -8.49996,3.91152 -15.29669,8.56635 -20.46959,13.96562 -5.24798,5.38951 -9.16602,11.00752 -11.75191,16.91507 -2.65884,5.91405 -4.42956,11.60936 -5.32092,17.13489 -0.88918,5.55055 -1.32995,10.42741 -1.25597,14.64476 0,5.75951 0.73791,11.82811 2.29206,18.24828 1.62599,6.43537 4.21081,12.78478 7.8328,18.98834 3.54803,6.2079 8.34869,11.82486 14.4075,16.92157 5.98482,5.02598 13.37033,9.09204 22.24359,12.12198 8.24639,2.8373 17.93049,4.37078 29.03703,4.62438 l 0,0.0325 c 18.63355,0 37.2584,0 55.88866,0 l 0,-13.29959 0,-9.66232 53.26358,22.22511 53.26683,22.23051 -53.26683,22.23377 -53.26358,22.22836 0,-9.66232 0,-13.29086 -55.88866,0 z"
       style="fill:#00b0f0;fill-opacity:1;fill-rule:nonzero;stroke:none"
       id="path5334"
       inkscape:connector-curvature="0" /><g
       id="g5336"
       transform="matrix(10.883444,0,0,10.883444,-2367.1964,-7878.8883)"><g
         id="g5338"><g
           id="g5344"><path
             d="m 261.7863,752.7662 5.4491,2.2737 -5.4491,2.274 0,-1.5041 -6.3414,0 c -1.474,0 -2.9505,-0.2177 -4.3234,-0.7685 -1.1758,-0.4717 -2.2422,-1.135 -3.1362,-2.0378 -0.8459,-0.8546 -1.4987,-1.8476 -1.9432,-2.965 -0.4555,-1.1444 -0.6757,-2.3398 -0.6743,-3.5717 3e-4,-0.9471 0.1686,-1.8779 0.4623,-2.7768 0.3115,-0.9519 0.7506,-1.8474 1.3164,-2.6745 0.5675,-0.83 1.2501,-1.5557 2.039,-2.1781 0.7772,-0.6135 1.6452,-1.0707 2.588,-1.3734 0.9819,-0.315 2.0112,-0.3977 3.0354,-0.3073 0.1383,0.0127 0.2982,0.053 0.4331,0.0862 0.129,0.0309 0.2526,0.0918 0.3642,0.161 0.078,0.0479 0.1299,0.1148 0.1747,0.1939 0.0702,0.1236 0.0867,0.3373 0.0867,0.4753 0,0.0927 -0.0113,0.2883 -0.0621,0.3717 -0.036,0.0601 -0.0819,0.1213 -0.1446,0.1567 -0.1097,0.0629 -0.2318,0.1196 -0.356,0.1463 -0.1539,0.0329 -0.3146,0.0655 -0.4714,0.0811 -1.1321,0.1159 -2.2589,0.3883 -3.2941,0.8645 -0.83,0.3827 -1.6076,0.8822 -2.2445,1.5423 -0.54,0.5596 -0.9986,1.19 -1.3147,1.9029 -0.2653,0.5982 -0.4728,1.2246 -0.5774,1.8718 -0.0811,0.5093 -0.135,1.0306 -0.1307,1.5468 0.005,0.6611 0.087,1.3145 0.2455,1.9562 0.1794,0.7254 0.4739,1.4137 0.847,2.0591 0.415,0.7189 0.9575,1.3416 1.5919,1.8748 0.7146,0.6007 1.5486,1.029 2.4284,1.3315 0.9769,0.335 2.0158,0.477 3.0456,0.4898 1.7161,0.0204 3.4333,0.003 5.1494,0.003 l 1.2064,0 0,-1.5055 z"
             style="fill:url(#linearGradient5346);fill-rule:evenodd;stroke:none"
             id="path5352"
             inkscape:connector-curvature="0" /></g></g></g><g
       id="g5354"
       transform="matrix(10.883444,0,0,10.883444,-2367.1964,-7878.8883)"><g
         id="g5356"><g
           id="g5362"><path
             d="m 248.4924,731.8542 -5.4493,-2.2737 5.4493,-2.2736 0,1.5037 6.3414,0 c 1.474,0 2.9506,0.218 4.3234,0.7685 1.1758,0.472 2.2425,1.1356 3.1365,2.0378 0.8456,0.855 1.4984,1.848 1.9429,2.9651 0.4555,1.1443 0.6755,2.3403 0.6746,3.5722 -8e-4,0.9471 -0.1686,1.8777 -0.4626,2.7768 -0.3115,0.9516 -0.7506,1.8468 -1.3164,2.6739 -0.5678,0.83 -1.2501,1.5557 -2.0392,2.1785 -0.7767,0.6134 -1.645,1.0706 -2.5878,1.3736 -0.9819,0.3147 -2.0112,0.3975 -3.0356,0.307 -0.138,-0.013 -0.2982,-0.0535 -0.4328,-0.0864 -0.1287,-0.0306 -0.2526,-0.0916 -0.3646,-0.161 -0.0776,-0.0477 -0.1295,-0.1148 -0.1746,-0.1936 -0.0703,-0.1239 -0.0867,-0.3374 -0.0867,-0.4754 0,-0.093 0.0113,-0.2883 0.0623,-0.3713 0.036,-0.0607 0.0819,-0.1214 0.1446,-0.1571 0.1097,-0.0629 0.2319,-0.1196 0.356,-0.146 0.1539,-0.0334 0.315,-0.066 0.4717,-0.0816 1.1319,-0.1157 2.2587,-0.3875 3.2939,-0.8646 0.83,-0.3824 1.6078,-0.8818 2.2444,-1.5415 0.54,-0.5598 0.9987,-1.1902 1.3145,-1.9034 0.2656,-0.5984 0.4731,-1.2246 0.5774,-1.8717 0.0816,-0.5091 0.1352,-1.0307 0.1307,-1.5469 -0.005,-0.661 -0.0865,-1.3147 -0.2452,-1.9562 -0.1792,-0.7251 -0.4743,-1.4136 -0.847,-2.0591 -0.415,-0.7191 -0.9573,-1.3416 -1.592,-1.8748 -0.7146,-0.601 -1.5485,-1.0293 -2.4287,-1.3314 -0.9765,-0.3348 -2.0157,-0.4771 -3.0455,-0.4899 -1.7161,-0.0204 -3.4328,-0.003 -5.1489,-0.003 l -1.2067,0 0,1.5049 z"
             style="fill:url(#linearGradient5364);fill-rule:evenodd;stroke:none"
             id="path5370"
             inkscape:connector-curvature="0" /></g></g></g></g></svg>